<svg xmlns="http://www.w3.org/2000/svg" xmlns:xlink="http://www.w3.org/1999/xlink" class="shipSVG" viewBox="0 0 9312.17 4327.59" shape-rendering="geometricPrecision" text-rendering="geometricPrecision" image-rendering="optimizeQuality" fill-rule="evenodd" clip-rule="evenodd"><defs><style>.id5255-5{fill:#264364}.id5255-9{fill:none}.id5255-1{fill:#e6e7e8}.id5255-7{fill:#d2d3d5}.id5255-30,.id5255-8{fill:#4b4b4d}.id5255-0{fill:#000}.id5255-28{fill:#000;fill-rule:nonzero}.id5255-19{fill:url(#id5255-2)}</style><linearGradient id="id5255-1" gradientUnits="userSpaceOnUse" x1="6633.23" y1="1238.52" x2="7085.95" y2="972.99"><stop offset="0" stop-color="rgb(155,167,195)"></stop><stop offset="1" stop-color="rgb(175,12,52)"></stop></linearGradient><linearGradient id="id5255-0" gradientUnits="userSpaceOnUse" x1="3869.75" y1="3253.87" x2="3963.74" y2="3124.27"><stop offset="0" stop-color="#f41000"></stop><stop offset=".651" stop-color="#a38400"></stop><stop offset="1" stop-color="#51f800"></stop></linearGradient><linearGradient id="id5255-2" gradientUnits="userSpaceOnUse" xlink:href="#id5255-1" x1="836.06" y1="4164.34" x2="6586.21" y2="394.37"></linearGradient><linearGradient id="id5255-3" gradientUnits="userSpaceOnUse" x1="1534.02" y1="2820.1" x2="3534.31" y2="1175.93"><stop offset="0" stop-color="#fe3b00"></stop><stop offset=".8" stop-color="#a89900"></stop><stop offset="1" stop-color="#51f800"></stop></linearGradient><linearGradient id="id5255-4" gradientUnits="userSpaceOnUse" x1="6131.01" y1="2949.29" x2="7433.11" y2="1305.74"><stop offset="0" stop-color="#fe3b00"></stop><stop offset=".4" stop-color="#a89900"></stop><stop offset="1" stop-color="#51f800"></stop></linearGradient><linearGradient id="id5255-5" gradientUnits="userSpaceOnUse" xlink:href="#id5255-0" x1="1798.2" y1="1572.31" x2="4833.45" y2="542.8"></linearGradient><linearGradient id="id5255-6" gradientUnits="userSpaceOnUse" x1="3388.22" y1="895.51" x2="3821.43" y2="582.68"><stop offset="0" stop-color="#f41000"></stop><stop offset=".478" stop-color="#a38400"></stop><stop offset="1" stop-color="#51f800"></stop></linearGradient><linearGradient id="id5255-7" gradientUnits="userSpaceOnUse" x1="6634.73" y1="3003.92" x2="7107.95" y2="1373.18"><stop offset="0" stop-color="#fe3b00"></stop><stop offset=".412" stop-color="#a89900"></stop><stop offset="1" stop-color="#51f800"></stop></linearGradient><linearGradient id="id5255-8" gradientUnits="userSpaceOnUse" x1="6508.57" y1="2056.82" x2="6916.31" y2="1956.83"><stop offset="0" stop-color="#fe3b00"></stop><stop offset=".231" stop-color="#a89900"></stop><stop offset="1" stop-color="#51f800"></stop></linearGradient><linearGradient id="id5255-9" gradientUnits="userSpaceOnUse" x1="2530.41" y1="2775.54" x2="4617.69" y2="881.66"><stop offset="0" stop-color="#fe3b00"></stop><stop offset=".671" stop-color="#a89900"></stop><stop offset="1" stop-color="#51f800"></stop></linearGradient><linearGradient id="id5255-10" gradientUnits="userSpaceOnUse" x1="4056.37" y1="667.9" x2="4283.55" y2="180.1"><stop offset="0" stop-color="#f41000"></stop><stop offset=".451" stop-color="#a38400"></stop><stop offset="1" stop-color="#51f800"></stop></linearGradient><linearGradient id="id5255-11" gradientUnits="userSpaceOnUse" x1="1872.47" y1="1328.64" x2="4326.46" y2="34.23"><stop offset="0" stop-color="#f41000"></stop><stop offset=".659" stop-color="#a38400"></stop><stop offset="1" stop-color="#51f800"></stop></linearGradient><linearGradient id="id5255-12" gradientUnits="userSpaceOnUse" x1="4543.11" y1="3594.73" x2="6849.19" y2="440.36"><stop offset="0" stop-color="#fe3b00"></stop><stop offset=".451" stop-color="#a89900"></stop><stop offset="1" stop-color="#51f800"></stop></linearGradient><linearGradient id="id5255-13" gradientUnits="userSpaceOnUse" x1="5369.58" y1="2285.04" x2="6556.4" y2="1600.81"><stop offset="0" stop-color="#fe3b00"></stop><stop offset=".149" stop-color="#a89900"></stop><stop offset="1" stop-color="#51f800"></stop></linearGradient><linearGradient id="id5255-14" gradientUnits="userSpaceOnUse" x1="4003.34" y1="3821.28" x2="5694.38" y2="546.44"><stop offset="0" stop-color="#fe3b00"></stop><stop offset=".659" stop-color="#a89900"></stop><stop offset="1" stop-color="#51f800"></stop></linearGradient><linearGradient id="id5255-15" gradientUnits="userSpaceOnUse" xlink:href="#id5255-13" x1="6500.85" y1="2553.84" x2="7470.34" y2="937.61"></linearGradient><linearGradient id="id5255-16" gradientUnits="userSpaceOnUse" x1="2100.9" y1="3538.65" x2="5726.6" y2="1535.61"><stop offset="0" stop-color="#f41000"></stop><stop offset=".6" stop-color="#a38400"></stop><stop offset="1" stop-color="#51f800"></stop></linearGradient><linearGradient id="id5255-17" gradientUnits="userSpaceOnUse" x1="4698.96" y1="2296.77" x2="6151.13" y2="712.8"><stop offset="0" stop-color="#fe3b00"></stop><stop offset=".278" stop-color="#a89900"></stop><stop offset="1" stop-color="#51f800"></stop></linearGradient><linearGradient id="id5255-18" gradientUnits="userSpaceOnUse" xlink:href="#id5255-0" x1="3478.57" y1="3559.57" x2="4013.25" y2="2789.13"></linearGradient><linearGradient id="id5255-19" gradientUnits="userSpaceOnUse" x1="5021.35" y1="3012.22" x2="5010.62" y2="1935.66"><stop offset="0" stop-color="#f41000"></stop><stop offset=".38" stop-color="#a38400"></stop><stop offset="1" stop-color="#51f800"></stop></linearGradient></defs><g id="CENTER_CANNON"></g><g id="HullBody"><path class="id5255-0" d="M4118.62 273.72l141.57-50.47c17.59-6.27 35.77-.59 56.41 5.9l497.17 156.66 125.76-45.24 323.32 57.19-412.73-312.59c-35.83-27.14-28.2-39.86 20.76-57.64 24.31-5.66 96.93-27.54 117.94-27.54 12.02 0 31.45 10.38 40.19 14.17l702.27 304.46 116.44-38.52c18.73-6.19 37.14-4.42 57.63.75l64.58 16.3L6103.4 134.3c12.21-14.89 34.08-14.68 57.91-12.14l287.11 30.63c31.06 3.31 45.27 16.86 46.65 45.4l8.46 171.26 150.05 13.54c34.98 3.15 71.99 9.88 77.52 40.15l6 32.85 972.83-95.87c66.92-6.59 91.85-3.53 96.25 12.95 1.5 5.63-4.88 12.96-15.65 21.23l-128.71 77.76c-29.24 18.21-68.87 31.55-102.66 36.64l-773.41 116.66 1156.01 201.91c22.57 3.94 39.2 9.5 39.35 23.61l.37 35.12 1292.35 115.28c34.8 4.19 44.05 19.79 35.22 48.25l-13.74 44.26c-5.62 14.12-10.33 19.12-23.4 26.88-65.27 38.78-144.54 75.3-230.15 75.84L7949 1203.47l-2.74 66.52c-.56 13.61-10.09 25.91-18.98 36.24l-255.22 296.61-28.05 105.12c-13.76 51.57-26.84 72.16-67.92 85.41l-693.45 223.69-4.96 17.25c-4.46 15.53-3.13 14.74-17.21 22.52l-109.38 60.4c-22.09 12.19-22.84 10.09-45.28-2.3l-62.87-34.72-404.66-33.87c2.27 16.45-1.91 20.85-12.96 29.79l-122.49 99.07c-12.32 9.97-23.48 20.18-38.97 24.04l-129.39 32.33-140.88 123.98c-36.7 32.62-33.11 28.97-82.89 29.53l-302.49 5.21c-41.65.71-95.35 2.38-133.31-12.32l-238.93-92.5c-165.84 70.09-340.81 142.65-510.44 214.92-50.14 21.36-99.09 44.85-148.11 65.57l-1712.44 896.42c-443.74 255.28-882.55 459.39-1315.15 490.36-29.38 2.1-53.11 2.87-82.38 1.13l-160.54-9.55c-28.67-1.71-23.07 3.45-41.98-17.21l-60.1-65.64-28.26 7.51 181.54 314.89c11.96 20.74 1.75 30.82-11.93 36.51l-240.99 100.3c-15.41 6.41-31.12 8.62-49.19 5.55l-238.5-40.43c-23.41-3.97-27.84-4.21-49-15.02l-321.94-164.65c-13.49-6.95-20.08-7.74-34.18-2.8l-135.04 47.32c-12.06 4.22-22.17.42-28.48-8.02l-40.85-54.61c-8.97-12.01-14.64-23.98 6.94-47.01l886.15-945.4c91.38-104.61 189.36-203.18 329.11-286.36l157.46-93.73c101.82-92.28 267.54-205.26 383.8-278.94 150.74-95.54 321.82-184.4 491.2-241.9l1253.67-746.24-1.56-43.07c-.43-12.18 8.26-20.24 14.53-25.93l257.15-233.04-9.06-263.47 59.04-58.59 83.79.25c43.54-36.61 271.75-247.26 308.49-259.01l152.85-48.91-254.72-192.94c-17.89-13.56-29.83-35.26-8.24-50.02z"></path><path class="id5255-7" d="M7032.27 762.8l10.2 25.44 97.85 17.41 28.15-14.8zM6663.58 1025.58l102.39 29.25-.13.47 16.55-11.56-122.84-35.1zM7033.68 792.07l-10.29-25.64-306.72 207.84 30.85 10.43zM6218.39 1308.55l435.14-281.21-4.23-17.8-452.34 292.32zM1441.42 2683.52c132.23-87.93 213.69-158.29 336.77-236.3 122.22-77.46 286.02-162.67 432.57-221.64l-769.34 457.94zM5020.09 34.72c-6.43-2.79-24.76-12.17-31.27-12.32-10.73 0-93.29 18.03-107.3 22.43-27.45 8.62-30.81 26.21-4.39 45.72l459.83 339.67 363.89-100.36L5020.1 34.71zM9041.61 1174.11c78.3-.5 152.67-33.37 218.85-72.7 8.43-5.01 10.2-6.46 13.71-15.13l13.47-43.4c.71-2.3 3.12-11.4 1.77-13.76-1.7-3.02-15.35-5.25-17.59-5.54l-1310.1-115.59-23.67.94-205.8 206.69c-5.94 5.96-5.93 7.15-5.9 14.47.01 5.3-.09 37.11.5 38.85 0 9.05 1.91 9.06 10.65 9.09 434.33 3.89 868.57-1.14 1304.11-3.92z"></path><path class="id5255-7" d="M7626.65 1686.07l25.07-93.95 258.56-300.5c4.4-5.11 13.29-15.55 13.58-22.55l2.87-69.61-279 277.3-21.09 209.31zm289.28-493.77l-178.46-1.6c-19.17-.05-23.36-.09-23.36-21.76-.16-12.93-.42-25.87-.44-38.8-.04-11.88-.05-13.8 9.58-23.47l209.51-210.41 26.41-.01-.43-41.56c-1.29-.61-2.94-1.19-4.75-1.74l4.35 4.63-245.91 229.68c-12.19 11.5-12.69 13.63-15.64 26.05l-26.86 143.04-20.2 200.53 266.2-264.57z"></path><path class="id5255-7" d="M6234.8 2024.81l411.63 34.46 24.76-504.02-438.44-29.94.67-13.49 439.98 33.07 85.82 46.81 127.44-44.59-58.34-38.61-126.99 37.02-2.82-9.74 959.81-279.77c7.73-46.71 17.25-94.44 29.27-144.08 3.68-15.56 4.31-18.22 19.32-32.39l242.99-226.93c-3.64-.82-7.01-1.44-8.82-1.75L6744.06 641.78l-1146.13 638.07c-19.59 10.91-38.89 21.81-56.85 33.6-6.54 4.3-12.93 8.73-19.12 13.33l634.53 159.94c11.21 2.82 20.67 5.29 28.42 9.15 8.51 4.23 14.77 10 18.54 19.2 3.57 8.68 4.43 19.01 3.22 31.14-1.16 11.6-4.2 24.89-8.55 40.03-10.04 34.92-14.91 80.09-16.21 122.07-1.64 52.83 2.24 100.27 8.46 115.75l46.14 114.69.45 2.51-2.18 83.57zm244.49-724.87c-66.45 42.47-88.37 95.09-32.81 122.41 55.56 27.32 136.52 6.66 204.25-42.93l699.28-511.96c31.74-23.24 46.58-38.82 46.01-50.77-.91-19.35-28.81-27.13-52.85-37.09-56.87-23.57-89.43-17.53-143.34 16.92l-720.54 503.41zm174.93-304.61l151.73 43.36c-152.62 106.54-306.45 214.85-459.07 321.38-58.21-18.23-116.48-36.34-174.73-54.48 159.5-103.1 320.29-207.88 479.86-310.88l2.21.63zm375.15-239.52l153.8 31.67c-112.15 77.71-224.42 155.27-336.45 233.14-50.28-14.33-100.63-28.48-150.95-42.71 110.52-74.17 220.98-148.4 331.53-222.53l2.08.42z"></path><path class="id5255-7" d="M5940.86 2208.06l117.54-30.55c11-2.74 21.74-12.79 30.32-19.72 34.79-28.15 101.63-75.5 129.44-105.26l2.91-111.77-45.65-113.49c-.68-1.69-1.33-3.71-1.96-6.02l-155.54-37.71-138.05 220.9v201.97l60.99 1.66z"></path><path class="id5255-7" d="M5039.53 2262.82l243.44 94.25c34.83 13.49 87.56 11.46 124.83 10.82l302.49-5.21c43.4-.75 36.08 4.56 68.47-23.94l135.91-119.6h-47.53v-216.51l.97-3.36 143.88-230.22 158.64 38.46c-3.82-23.69-5.81-61.06-4.57-101.06 1.34-42.99 6.34-89.29 16.66-125.2 4.19-14.57 7.09-27.15 8.15-37.79 1.01-10.11.39-18.45-2.32-25.08l-.25-.6-450.81 550.4-.95 268.28a6.349 6.349 0 0 1-6.39 6.29c-3.49-.02-6.31-2.89-6.29-6.39l.92-258.76-346.54 112.53-.72.17c-13.51 2.72-27.03 3.58-40.3 2.9-14.3-.73-28.34-3.22-41.81-7.05l-223.78-61.31c-26.95-7.64-28.13-17.19-31.44-43.97l-.6-4.76c-.42-3.48 2.06-6.66 5.54-7.08 3.48-.42 6.66 2.06 7.08 5.54l.6 4.76c2.55 20.61 3.46 27.96 22.24 33.28l223.78 61.31c12.63 3.59 25.74 5.93 39.02 6.6 12.12.62 24.43-.13 36.67-2.56l349.57-113.51 455.81-556.5a35.37 35.37 0 0 0-3.84-2.21c-6.6-3.29-15.4-5.58-25.84-8.2l-644.08-162.34c-6.06 5.04-11.89 10.29-17.42 15.83l-268.43 268.78c-52.39 52.45-92.35 117.5-123.71 191.02-31.47 73.8-54.29 156.18-72.3 242.99a202.141 202.141 0 0 0-4.16 35.8c-.28 11.08.39 21.45 1.56 30.85l17.84 142.37zm590.76-849l357.58 83.53c20.2 4.72 37.53 12.93 19.63 36.04l-341.48 396.59c-13.5 15.68-32.99 37.96-57.95 30.81l-348.43-99.85c-19.9-5.7-31.45-23.98-12.98-44.27 117.99-129.51 236.55-258.58 353.33-389.14 8.49-9.5 17.66-16.65 30.3-13.7zM7555.81 486.53c31.2-4.7 67.33-16.8 94.42-33.66l103.08-62.27c43.47-26.26-15.91-13.91-43.21-11.22L6662.14 485.44c-86.96 35.22-173.79 71.11-261.07 105.5-7.37 2.9-10.28 9.88-11.04 17.49-.89 8.87.95 18.64 2.49 25.1 7.36 30.78 23.3 28.16 46.31 24.37l8.81-1.41c359.97-53.77 724.71-112.11 1108.18-169.95zM6485.5 374.5l-12.81-175.2c-.92-18.62-8.63-22.3-26.65-24.22l-287.11-30.63c-8.46-.9-31.87-3.67-38.2 4.07-69.27 84.52-135.07 156.58-202.8 235.93 5.22 5.58 5.84 12.49-.48 18.52l231.73 17.61c18.03-3.65 36.27-4.87 54.97-3.56 11.56.81 20.72 4.62 25.74 9.69l16.29 1.24c21.98 1.66 23.94 1.56 45.3-3.9l194.02-49.55zM253.2 4087.94l325.47 162.89c17.44 8.91 23.41 9.63 42.54 12.88l238.49 40.43c13.12 2.22 24.62.94 36.84-4.15l229.59-95.55c17.48-7.28 7.9-17.38-1.28-33.32l-174.08-301.98-697.59 218.8zM5909.48 373.83l47.14-55.78-58.13-14.68c-14.93-3.77-30.17-6.14-45.11-1.2l-124.55 41.2-620.02 163.88c81.65-5.75 156.15-9.61 178.11-5.31 10 1.96 20.34 4.65 36.42 10.95l490.26-133.67c25-6.81 52.56-11.23 78.54-9.42 6.54.46 12.4 1.9 17.34 4.02z"></path><path class="id5255-7" d="M3542.99 1396.84c-1.38 1.25-7.27 6.45-7.19 8.52l1.3 36 459.96-360.73c2.76-2.15 6.75-1.66 8.9 1.09 2.15 2.75 1.66 6.75-1.09 8.9l-467.26 364.91L1240.3 2829.3c-128.27 76.35-226.2 170.23-323.7 281.85l-.53.58-886.14 945.4c-1.99 2.12-8.59 9.56-8.89 12.7.31 1.34 2.73 4.48 3.54 5.57l40.85 54.61c.15.19.49.64.72.75.54.13 1.92-.29 2.4-.46l135.04-47.32c251.14-88.06 507.58-160.21 764.9-238.64 393.83-120.03 711.58-241.01 1084.13-416.25L4199.03 2329.1l604.09-990.88c7.07-9.96 22.27-31.41 16.44-37.21-.98-.97-6.09 1.37-15.72 7.51-11.05 7.04-26.16 19.03-45.55 36.63l-430.19 390.26c-41.99 38.07-63.55 49.3-112.89 74.99l-1.45.76c-153.89 80.13-307.11 159.75-459.74 239.06-750.36 389.91-1486.84 772.62-2221.78 1174.43-299.8 163.91-596.95 334.38-894.77 505.22-147.9 84.83-295.95 169.78-447.64 255.76-15.74 8.93-21.8-.49-5.69-9.61 147.83-83.8 297.91-169.9 447.78-255.86 297.25-170.52 593.82-340.66 894.99-505.31 736.13-402.46 1472.1-784.9 2221.95-1174.55 152.63-79.31 305.85-158.94 459.73-239.06l1.46-.76c48.53-25.27 69.74-36.32 110.54-73.32l430.18-390.26c19.92-18.05 35.54-30.43 47.08-37.78 14.74-9.4 24.56-11.01 29.58-6.02 6.47 6.44 4.55 16.66-.02 26.76-4.28 9.46-10.9 18.81-15.15 24.8l-602.99 993.83-1.84 1.66c-735.15 419.9-1376.86 744.38-2147.45 1106.83-160.57 75.53-312.06 146.79-468.11 208.09-124.38 48.85-252.41 90.2-386.53 133.16 25.97 47.15 119.62 80.18 191.32 105.46l19.62 6.94c2.64.94 4.02 3.86 3.08 6.5-.94 2.64-3.86 4.02-6.5 3.08l-19.58-6.94c-74.06-26.11-170.96-60.29-197.74-111.91l-6.03 1.93c-55.32 17.71-111.7 35.77-169.36 54.81l59.93 64.66c2.26 2.46 5.88 6.84 8.76 9.51 5.47.46 12.72.15 18.03.46l160.54 9.55c26.93 1.6 52.57.81 79.45-1.12 456.95-32.72 914.38-262.39 1305.57-487.43l.78-.43 1713.27-896.84.85-.36c206.94-87.46 413.2-176.55 620.06-264.2l-30.06-901.46c-.11-3.68 2.64-6.78 6.14-6.92 3.5-.14 6.43 2.72 6.54 6.4l29.9 896.68 25.7-10.87-17.91-142.94c-1.22-9.8-1.92-20.74-1.61-32.68.3-11.89 1.62-24.67 4.4-38.08 18.17-87.54 41.22-170.7 73.06-245.37 23.88-56 52.71-107.23 88.12-151.93l-.02-.02-187.27-282.92c-1.93-2.92-1.13-6.87 1.79-8.8 2.92-1.93 6.87-1.13 8.8 1.79l185.09 279.63c9.49-11.38 19.44-22.3 29.87-32.75l268.44-268.77c15.3-15.32 32.67-28.55 51.21-40.73 18.43-12.1 37.9-23.11 57.65-34.1l1141.05-635.42-18.67-1.81-261.49 39.05-8.62 1.37c-29.87 4.91-50.57 8.32-60.68-33.97-1.76-7.39-3.85-18.63-2.78-29.27 1.2-11.92 6.17-23.01 19.05-28.08l20.33-8.01 241.29-97.72 60.7-6.98-4.76-33.87c-3.45-24.58-19.3-26.39-44.21-29.15-54.37-6.02-108.69-13.08-164.32-20.51l-211.5 53.95c-20.69 5.28-20.69 5.94-41.74 4.34l-13.36-1.02c-2.57 6.97-10.64 13.74-25.68 18.39l-595.78 183.86-73.68-31.02-10.49 3.11c7.19 3.98 13.85 7.78 19.78 11.31 44.13 26.27 48.17 37.95 46.15 46.93-2.02 8.98-10.11 15.27-55.13 34.92-45.02 19.64-126.98 52.65-183 75.34-56.02 22.67-86.11 35.03-110.03 47.94-23.91 12.91-41.65 26.38-70.95 50.63-29.31 24.25-70.17 59.28-131.7 112.16-61.53 52.88-143.71 123.61-199.51 172.11-55.8 48.5-85.21 74.78-114.29 96.22-29.08 21.44-57.82 38.06-87.91 55.24-30.09 17.17-61.52 34.91-92.96 52.65-139.22 75.89-278.44 151.79-351.3 191.54-72.87 39.74-79.37 43.33-94.19 47.26-14.82 3.93-37.95 8.2-58.05 8.65-20.1.45-37.17-2.92-60.85-11.68-23.69-8.76-54-22.91-84.32-37.05-28.07-11.67-56.14-23.35-75.56-33.12-19.43-9.76-30.2-17.63-37.61-28.4-7.41-10.78-11.45-24.48-10.44-38.51 1.01-14.03 7.07-28.41 62.48-103.17 78.74-106.25 181.59-255.4 264.32-352.79l-17.45-6.06c-11.89-7.32-4.3-10.57 4.16-21.8l25.53-33.91c5.91-7.21 6.4-5.82 15.86-6.25l35.69-1.66c20.78-.96 25.86-14.28 40.61-29.39 24.27-24.83 71.21-72.21 120.61-123.18 47.33-48.85 96.93-100.98 126.08-132.12-10.62 4.78-24.19 10.98-43.86 21.99-20.65 11.55-47.88 28.34-85.16 54.14-37.95 26.25-86.45 61.95-137.22 100.86-49.39 37.86-100.74 78.6-146.35 116.47-46.45 38.55-87.19 74.3-125.08 108.64-125.23 113.48-248.43 218.95-377.26 335.7zM532.48 3570.5c29.38-30.03 60.6-58.21 91.14-87.04 97.35-91.91 194.86-183.66 292.45-275.33 54.68-51.37 109.68-102.42 163.73-154.47 35.61-34.29 70.65-69.17 106.18-103.54 27.67-26.78 54.91-47.14 86.99-68.25 71.1-46.78 143.61-91.33 215.99-136.09 82.15-50.79 164.56-101.15 246.95-151.55 57.63-35.26 115.35-70.39 172.41-106.59 43.14-27.37 85.85-55.48 130.67-80.09 48.09-26.39 97.88-49.51 147.31-73.25 45.2-21.71 90.15-43.95 135.5-65.38 51.84-24.5 104.05-48.2 155.87-72.75 46.3-21.94 92.19-44.73 138.48-66.69 41.92-19.88 84.32-37.74 128.38-52.4 56.05-18.64 113.08-34.28 170.07-49.76 30.63-8.32 62.3-18.37 93.75-22.73 13.92-1.93 31.06-2.55 40.18 10.38 9.03 12.83 2.56 26.89-6.28 37.57-14.55 17.58-34.87 33.2-52.29 48-37.68 31.99-76.16 63.02-116.65 91.4-56.63 39.71-116.42 74.75-176 109.79-81.29 47.8-162.97 94.92-244.96 141.52-103.14 58.62-206.73 116.43-310.09 174.67-154.3 86.93-308.33 174.33-463.02 260.56-87.05 48.54-174.88 95.67-261.71 144.63-78.44 44.24-151.32 96.96-224.3 149.49-164.44 118.37-327.65 238.42-490.28 359.26-37.6 27.94-75.17 55.93-112.4 84.37-9.15 6.99-17.98 14.56-27.65 20.86-10.52 6.86-22.06 9.53-33.28 2.38-7.53-4.81-13.81-13.67-16.65-22.09-3.08-9.14-2.06-17.84 2.55-26.26 4.22-7.69 10.86-14.4 16.96-20.63zm1424.63-512.55c96.55-2.17 174.81 76 174.81 174.59s-78.26 180.26-174.81 182.43c-96.55 2.16-174.81-76-174.81-174.59 0-98.58 78.26-180.26 174.81-182.43zm1129.26-1202.89c60.32-33.56 121.18-66.11 181.41-99.86 63.56-35.61 126.65-72.14 189.41-109.15 28.97-17.07 58.42-35.65 87.99-51.53 13.97-7.51 24.04-11.75 39.8-13.09 18.84-1.59 39.55-.65 58.5-.42 29.29.36 58.76.42 88.02 1.52 27.25 1.03 37.78 5.51 62.77 17.54 39.41 18.97 78.93 39.64 117.33 60.6 17.77 9.7 44.07 23.33 58.09 38.17 8.28 8.76 15.39 20.91 13.72 33.42-1.22 9.07-7.87 14.7-14.76 19.93-17.29 13.15-38.51 25.32-57.11 36.56-88.9 53.7-178.94 105.8-268.35 158.69-65.17 38.55-130.08 77.48-194.96 116.51-15.31 9.21-45.63 30.69-64.31 28.3-16.46-2.1-41.37-21.24-54.9-30.56-33.27-22.92-66.87-46.25-101.2-67.53-27.53-17.07-46.06-25.91-77.68-33.03-34.83-7.83-71.2-12.64-106.56-17.79-9.98-1.45-36.08-3.55-43.1-11.64-9.42-10.87 2.01-23.22 10.34-30.15 20.4-16.96 52.39-33.61 75.56-46.5z"></path><path class="id5255-7" d="M4428.13 525.66l-193.83 62.03c-11.77 4.35-44.54 31.59-54.94 40.05-32.96 26.82-65.17 54.82-97.1 82.85-30.3 26.6-60.39 53.44-90.47 80.3-37.6 33.57-74.37 63-110.26 97.37l6.91 184.75c7.64-7.02 15.4-14.1 23.31-21.27 38.02-34.45 78.9-70.32 125.48-108.99 46.05-38.23 97.51-79.08 146.74-116.81 50.78-38.91 99.46-74.73 137.72-101.21 37.82-26.18 65.18-44.24 85.99-55.89 20.88-11.68 35.19-18.13 46.35-23.13 22.32-9.96 35.99-13.96 45.76-39.35 4.49-11.67 5.97-21.56 10.56-34.23 10.74-29.62 9.7-35.54 61.85-40.77 52.15-5.23 174.91-13.1 226.11-15.1 18.28-.71 36.06-3.43 45.73-2.03 20.72 3.01 4.15 12.59 62.61 8.42 35.87-2.56 79.61-4.07 128.26-16.89L5318.66 431l-378.54-66.54c-170.42 61.31-336.59 108.63-511.84 161.19l-.05-.04-.12.04zM4145.6 308.89l272.86 207.62 371.76-114.62-480.35-151.36c-11.45-3.61-30.18-10.44-42.16-6.17l-124.58 44.41c-11.92 4.25-13.09 8.34 2.47 20.13zM7620.15 1626.69l19.68-214.2-119.24 36.19-2.56 106.68zM6888.59 1782.28l-2.48 83.02 725.75-228.93-101.2-70.69-619.93 222.57z"></path><path class="id5255-5" d="M6892.88 1639.22l-4.08 136.26 616.57-221.37 2.44-101.55zM7038.85 797.92l-282.38 188.55 88.64 22.72 285.17-197.72zM6660.13 1035.17l-429.1 277.31 115.22 35.93 409.35-285.96zM7095.96 1041.88l248.72-182.1c55.21-40.42 51.25-48.48-4.9-71.74-55.41-22.97-84.99-15.65-134.52 16.01l-222.5 155.44c33.13.32 63.12 14.28 84.88 36.67 12.44 12.8 22.19 28.36 28.32 45.72zM6484.48 1307.62c-34.33 21.94-95.54 75.8-33.72 106.21 61.33 30.16 144.18-5.14 194.64-42.09l400.02-292.87c-5.65-13.63-13.77-25.91-23.79-36.23-20.15-20.74-48.01-33.57-78.76-33.57-6.9 0-13.74.65-20.41 1.93-6.75 1.3-13.37 3.23-19.74 5.76l-418.24 290.84zM2371.22 2307.76c-110.33 52.14-204.61 101.57-297.06 153.72-92.22 52.03-183.26 107.15-286.9 170.55l-24.82 15.18c-67.76 41.44-147.47 90.2-222.05 136.31-45.49 28.12-90.29 56.01-129.61 80.79-34.38 21.66-64.15 40.67-85.89 54.98-67.48 44.39-124.08 99.09-181.82 154.9l-17.18 16.59c-87.85 84.6-181.36 164.75-274.16 244.28-110.19 94.44-219.39 188.05-316.73 287.08 1.32 1.47 2.74 2.74 4.21 3.67 4.49 2.87 9.32 2.53 16.73-2.3 7.41-4.82 17.4-14.14 139.28-104.69 121.87-90.55 355.62-262.33 490.47-359.39 134.84-97.06 170.77-119.41 225.73-150.39 54.95-30.98 128.95-70.62 261.77-144.67 132.81-74.04 324.47-182.5 462.96-260.53 138.49-78.03 223.82-125.64 310.04-174.64 86.23-49 173.35-99.41 244.76-141.41 71.4-41.98 127.09-75.56 174.98-109.13 47.89-33.57 87.96-67.14 115.53-90.54 27.56-23.41 42.6-36.66 50.41-46.09 2.84-3.43 4.72-6.36 5.83-8.89-54.6 10.84-108.7 31.88-161.83 52.54-28.25 10.98-56.24 21.87-84.18 31.16-25.62 8.53-47.09 16.63-67.22 25-20.1 8.35-38.73 16.94-58.85 26.49l-147.16 69.77-147.22 69.67zM3901.22 1331.28c-48.39 72.16-60.07 94.39-65.68 110.11-5.61 15.72-5.16 24.93 2.59 32.67 7.74 7.75 22.79 14.03 51.98 26.49 29.19 12.46 77.91 35.81 107.66 46.93 29.75 11.11 45.92 14.7 64.44 14.03 18.52-.67 39.41-5.61 78.81-24.92 39.41-19.31 97.34-53 158.65-88.13 61.29-35.14 125.97-71.75 184.2-105.09 58.23-33.34 110.03-63.43 139.22-80.37 11.21-6.51 16.06-9.34 21.88-12.71 23.04-13.37 16.63-18.06.62-43.73-7.07-11.34-12.21-19.59-21.88-34.3-9.67-14.7-18.66-27.5-62.07-54.78-43.42-27.28-121.27-69.04-171.46-90.82-50.19-21.78-72.71-23.59-112.26-21.42-39.55 2.16-96.12 8.28-152.7 14.41-85.11 122.09-175.61 239.47-224 311.63z"></path><path class="id5255-5" d="M4207.72 944.41c39.69-3.44 79.39-6.87 107.9-9.34 78.69-6.81 55.85-9.52 126.81 29.62 46.81 25.82 132.05 72.83 177.59 99.82 45.53 26.99 51.37 33.95 62.04 53.37 10.67 19.42 26.16 51.3 34.47 67.47 8.31 16.17 9.43 16.62 44.91-14.59 35.48-31.22 105.32-94.09 170.32-151.35 65-57.26 125.18-108.9 185.36-160.55 13.47-13.92 26.95-27.84 32.78-38.17 5.84-10.33 4.04-17.07-4.15-33.13-8.2-16.05-22.79-41.43-34.8-58.27-12.01-16.84-21.44-25.15-69.83-50.41-48.39-25.26-135.74-67.47-184.02-88.81-48.27-21.33-57.48-21.78-99.13-18.64-41.65 3.14-115.76 9.88-158.42 16.95-42.66 7.07-53.89 14.49-80.95 40.3-27.06 25.82-69.94 70.06-124.39 125.75-54.45 55.68-120.47 122.83-186.48 189.96zM4892.06 540.92c79.38 35.7 158.76 71.4 204.34 93.69 45.58 22.29 57.38 31.16 69.56 48.79s24.75 44.01 33 61.47c8.26 17.46 12.18 25.99 15.55 30.77 3.37 4.77 6.18 5.78 25.27-1.63s54.45-23.24 103.68-43.08c49.23-19.84 112.32-43.7 146.11-58.94 33.79-15.24 38.28-21.86 34.29-29.94-3.98-8.08-16.45-17.63-51.17-37.36-34.71-19.73-91.69-49.66-128.94-66.97-37.25-17.32-54.75-22.03-96.32-21.98-41.56.05-107.18 4.87-170.42 9.87-63.23 4.99-124.09 10.16-184.94 15.32zM2069.19 2452.66c92.86-52.38 187.37-101.94 297.69-154.08l147.22-69.67 147.16-69.77c20.34-9.65 39.14-18.31 59.29-26.69 20.11-8.37 41.76-16.53 67.93-25.23 27.41-9.12 55.43-20.02 83.7-31 54.07-21.03 109.14-42.44 165.12-53.35-2.86-3.9-9.07-6.18-25.5-3.9-16.62 2.3-43.68 9.26-91.84 22.34-48.17 13.08-117.44 32.28-169.25 49.51-51.82 17.23-86.17 32.5-126.65 51.71-40.48 19.2-87.07 42.32-138.49 66.69-51.42 24.36-107.67 49.96-155.89 72.75-48.23 22.79-88.42 42.77-135.4 65.34-46.99 22.57-100.76 47.72-146.57 72.87-45.81 25.15-83.64 50.3-129.84 79.6-46.2 29.3-100.77 62.76-172.62 106.71-71.86 43.96-161.01 98.41-246.89 151.51-85.89 53.11-168.53 104.87-215.62 135.85-47.1 30.99-58.67 41.21-84.77 66.47-26.1 25.26-66.74 65.56-106.21 103.57-39.47 38.01-77.75 73.71-163.87 154.6-86.11 80.9-220.06 206.98-292.42 275.3-72.36 68.32-83.13 78.87-90.71 86.61-7.58 7.75-11.96 12.69-14.49 17.3-2.53 4.6-3.2 8.86-1.46 14.03.18.53.39 1.06.61 1.61 97.24-98.73 205.99-191.94 315.71-285.99 92.68-79.43 186.08-159.48 273.72-243.88l17.18-16.59c58.05-56.1 114.95-111.09 183.28-156.05 22.24-14.63 52.01-33.66 86.06-55.1 38.74-24.41 83.64-52.36 129.69-80.83 77.89-48.16 155.83-95.83 222.08-136.35l24.83-15.18c103.27-63.17 194.13-118.19 287.22-170.7z"></path><path class="id5255-8" d="M1958.48 3070.55c89.31-2 161.7 70.3 161.7 161.5 0 128.38-143.5 225.87-242.11 127.48-27.56-27.51-44.93-65.71-45.88-108.4l-.02-3.75c0-39.21 13.89-75.85 37.24-104.47 23.33-28.61 56.14-49.26 93.96-56.49-52.71 3.17-90.5 36.18-101.84 50.08-24.79 30.41-39.54 69.3-39.52 110.92l.04 3.91c1.02 45.44 19.51 86.11 48.86 115.4a162.806 162.806 0 0 0 33.94 25.96c-62.95-21.18-108.09-81.39-108.09-153.4 0-91.19 72.4-166.75 161.71-168.75zM5566.32 1581.44l49.18-25.93 238.46 63.95c-13.08 16.02-26.07 32.1-39.09 48.15l-2.84 3.5-245.71-64.41v-25.26zm-207.4 238.91l43.87-25.43 245.07 68.15c-8.56 8.87-17.38 17.47-25.91 26.35-8.42 8.78-8.82 10.43-20.95 6.66l-242.08-75.74zm51.15-57.81l54.2-29.19 247.02 59.81c-17.62 20.43-35.56 40.52-53.96 59.98l-247.26-65.34v-25.26zm58.44-63.33l44.99-26.53 246.08 62.95c-14.02 17.06-28.18 34.07-42.56 50.87l-248.51-62.03v-25.26zm49.14-58.65l44.99-26.53 244.64 62.95c-13.72 16.94-27.52 34-41.45 51.02l-248.19-62.17v-25.26zm100.71-117.39l50.36-26.27 236 61.62-1.33 1.56c-15.26 17.84-30.25 35.92-45.13 54.1l-239.9-65.75v-25.26zM3174.43 1890.21l47.48-20.24 120.59 2.7 112.91 74.76a8162.28 8162.28 0 0 0-64.83 37.22c-4.11-2.92-8.18-5.89-12.34-8.75-32.82-22.61-65.65-44.86-99.61-65.75-20.16-12.4-71.07-16.36-104.19-19.95zm291.46 51.27c31.19-17.7 62.46-35.25 93.74-52.79l-114.74-75.97-120.59-2.7-80.67 34.38 1.11 17.66 100.62-.14 120.52 79.56zm102.48-57.69l14.42-8.08 77.16-46.13-118.05-78.17-120.59-2.7-80.67 34.38 1.11 17.66 100.62-.14 126 83.17zm220.16-125.16c18.01-10.55 35.97-21.2 53.87-31.96l-125.54-68.19-127.12-1.03-51.2 10.59-.56 14.3 116.58 3.08 133.97 73.2zm-242.43-17.29l-102.44.63.71-18.15 83.87-34.02 118.9 8.59 128.76 64.86-104.9 60.56-124.9-82.47zM5401.3 548.83l502.26-137.72 41.46 3.14-521.4 145.48c-7.67-3.76-15.15-7.41-22.32-10.9zM5434.43 565.06l519.93-145.64 40.44 3.08-538.39 153.48c-7.36-3.68-14.73-7.34-21.98-10.92zM5465.92 580.74l548.49-156.77 39.65 3.01-566.6 164.71c-7.07-3.63-14.28-7.3-21.54-10.96zM5497.48 596.88l574.6-169.23 38.78 2.95-592.49 177.3c-6.68-3.58-13.68-7.27-20.89-11.02z"></path><path class="id5255-9" d="M6731.89 2102.04c42.96-19.39 94.98-46.7 135.61-70.42l15.22-472.32-122.29 42.79-28.53 499.95zM6655.64 2061.8l63.82 35.15 28.35-496.81-67.72-36.94zM6885.71 1878.75l-3.34 111.87 686.83-218.57c21.99-7.09 33.15-17.46 40.56-32.1l8.48-92.27-732.52 231.07z"></path><path class="id5255-9" d="M6840.66 1502.46l55.15 38.81-2.53 84.55 747.81-226.99 12.24-133.26z"></path><path class="id5255-19" d="M5627.65 1425.23c-7.99-1.85-14.12 4.71-18.94 10.1-116.82 130.62-235.38 259.67-353.39 389.22-10.5 11.52-7.14 20.92 7.54 25.13l348.43 99.85c18.56 5.31 35.29-14.83 45.91-27.16l331.9-385.44c20.52-23.84 8.16-25.97-20.62-32.65l-340.83-79.04zm-2.27 60.36l-80.05 89.28c-66.92 74.71-132.72 148.17-199.87 221.95-7.92 8.7-9.08 14.5-5.83 18.73l58.38-34.88.59-27.58 58.44-31.47v-31.66l49.14-28.98v-29.67l48.68-28.7v-30.64l52.04-27.45v-30.85l56.74-29.6 250.25 67c5.59-6.67 9.51-11.82 10.34-15.44.75-3.23-3.24-5.77-15.1-8.51l-245.74-55.34c-21.26-4.92-22.36-3.7-35.5 11l-2.52 2.82zm-87.6 82.52l82.56-92.1c16.84-18.85 18.24-20.41 45.3-14.15l243.19 53.87c19.16 4.43 25.06 10.76 22.76 20.7-1.62 7.04-8.41 14.98-17.53 25.65-92.85 108.73-174.62 227.7-276.28 328.67l-6.45 6.6c-13.22 13.78-17.67 18.41-40.05 11.61l-205.67-63.7-6.78-2.03c-19.33-5.82-36.04-10.85-44.68-18.71-9.49-8.64-10.09-19.27 3.81-34.54 69.2-76.03 133.96-148.33 199.83-221.87z"></path><path d="M7053.85 1072.71l33.51-24.53c-5.54-17.13-14.88-32.47-27-44.94-20.15-20.74-48.01-33.57-78.76-33.57-5 0-9.96.35-14.85 1.02l-42.51 29.7c6.17-.98 12.41-1.49 18.63-1.49 33.6 0 64.03 14.02 86.04 36.67a125.314 125.314 0 0 1 24.95 37.14z" fill="url(#id5255-1)"></path><path class="id5255-19" d="M5565.43 610.05l563.33-177.38c31.36-9.87 56.9-10.32 74.91-9.06 18.7 1.31 40.01 14.48 4.94 25.3L5616.62 631.6l-51.19-21.55zM5343.74 518.62l472.72-128.88c31.72-8.64 56.91-10.32 74.91-9.06 18.7 1.31 40.38 15.81 4.94 25.29l-501.39 134.2-51.19-21.55zM5070.07 156.12c30.14-12.87 73.41-29.39 121.22-47.18l-171.21-74.22c-6.43-2.79-24.76-12.17-31.27-12.32-10.73 0-93.29 18.03-107.3 22.43-27.45 8.62-30.81 26.21-4.39 45.72l132.34 97.76c6.3-4.71 13.27-9.18 21.85-13.87l-127.85-85.36c-2.91-1.94-3.69-5.89-1.74-8.8a6.343 6.343 0 0 1 8.8-1.74l133.7 89.27c7.43-3.61 15.93-7.45 25.85-11.69zM6086.78 189.3c111.06 15.12 215.81 29.41 271.91 37.33 32.35 4.57 48.52 7.01 56.63 8.4l31.85-36.39c2.3-2.64 6.31-2.9 8.95-.6 2.64 2.3 2.9 6.31.6 8.95l-32.7 37.35c2.89 47.87 5.8 95.75 8.7 143.62l52.78-13.48-12.81-175.2c-.92-18.62-8.63-22.3-26.65-24.22l-287.11-30.63c-8.46-.9-31.87-3.67-38.2 4.07-11.4 13.91-22.7 27.47-33.94 40.8zM7617.18 438.15l-244.73 33.78c-11.87 15.98-23.74 31.96-35.6 47.94 72.36-11.11 145.32-22.24 218.96-33.35 31.2-4.7 67.33-16.8 94.42-33.66l103.08-62.27c43.47-26.26-15.91-13.91-43.21-11.22l-245.82 24.88-76.16 52.7 227.32-31.38a6.355 6.355 0 0 1 7.16 5.42 6.355 6.355 0 0 1-5.42 7.16zM9023.64 1001.7c-50.82 39.07-101.64 78.14-152.45 117.22 93.3.09 188.74.19 284.24.26 2.81 0 5.09 2.28 5.09 5.09s-2.28 5.09-5.15 5.09c-99.94-.1-199.88-.21-297.36-.31-7.45 15.5-14.9 30.99-22.35 46.5 68.62-.5 137.27-1 205.95-1.44 78.3-.5 152.67-33.37 218.85-72.7 8.43-5.01 10.2-6.46 13.71-15.13l13.47-43.4c.71-2.3 3.12-11.4 1.77-13.76-1.7-3.02-15.35-5.25-17.59-5.54l-248.19-21.9zM6646.44 2059.27l24.76-504.02-438.44-29.94.67-13.49 439.98 33.07 85.82 46.81 127.44-44.59-58.34-38.61-126.99 37.02-2.82-9.74 959.81-279.77c7.73-46.71 17.25-94.44 29.27-144.08 3.68-15.56 4.31-18.22 19.32-32.39l242.99-226.93c-3.64-.82-7.01-1.44-8.82-1.75l-43.04-7.52c-72.31 59.85-139.22 115.4-180.35 150.51-52.09 44.46-62.88 56.14-75.23 88.69-12.35 32.56-26.27 86-37.72 117.21-11.45 31.21-20.43 40.19-168.63 85.33-148.2 45.13-435.62 126.42-589.65 169.3-154.04 42.89-174.69 47.38-224.99 47.15-50.3-.23-130.23-5.17-193.78-9.88-63.55-4.72-110.7-9.21-154.94-16.17-44.23-6.96-85.55-16.39-210.62-47.37-117.11-29.02-307.67-76.94-502.91-126.06-6.17 3.72-12.23 7.51-18.14 11.4-6.54 4.3-12.93 8.73-19.12 13.33l634.53 159.94c11.21 2.82 20.67 5.29 28.42 9.15 8.51 4.23 14.77 10 18.54 19.2 3.57 8.68 4.43 19.01 3.22 31.14-1.16 11.6-4.2 24.89-8.55 40.03-10.04 34.92-14.91 80.09-16.21 122.07-1.64 52.83 2.24 100.27 8.46 115.75l46.14 114.69.45 2.51-2.18 83.57 411.63 34.46z"></path><path class="id5255-19" d="M6680.09 1563.2l-24.45 498.6 63.82 35.15 28.35-496.81zM6760.42 1602.09l-28.53 499.95c42.96-19.39 94.98-46.7 135.61-70.42l15.22-472.32-122.29 42.79z"></path><path class="id5255-19" d="M6895.81 1541.27l-2.53 84.55 747.81-226.99 12.24-133.26-812.67 236.89zM7618.23 1647.69l-732.52 231.07-3.34 111.87 686.83-218.57c21.99-7.09 33.15-17.46 40.56-32.1l8.48-92.27zM7647.73 1476.77l-21.09 209.31 25.07-93.95 258.56-300.5c4.4-5.11 13.29-15.55 13.58-22.55l2.87-69.61-279 277.3zM7715.88 1184.12c-1.3-3.22-1.76-8.02-1.76-15.18-.16-12.93-.42-25.87-.44-38.8-.04-11.88-.05-13.8 9.58-23.47l209.51-210.41 26.41-.01-.41-39.07-.43.39-245.91 229.68c-12.19 11.5-12.69 13.63-15.64 26.05l-26.86 143.04-11.78 116.92c15.06-57.14 28.62-107.88 37.55-139.01 6.74-23.47 10.86-35.81 20.17-50.12zM5925.94 1996.74c43.76-62.28 87.53-124.57 131.3-186.85a5.084 5.084 0 0 1 8.64-1.5l.73.85c36.57 6.74 73.13 13.47 109.7 20.21l-.89-2.2c-.68-1.69-1.33-3.71-1.96-6.02l-155.54-37.71-138.05 220.9v201.97l45.19 1.23c.27-66.78.56-133.55.83-200.33l-2.7-.76a5.088 5.088 0 0 1-3.52-6.27c.76-2.7 3.57-4.28 6.27-3.52zM6707.39 418.2c-7.18-10.48-20.61-12-38.96-14.03-7.66-.85-15.32-1.72-22.98-2.61L5294.11 839.6c-17.61 5.7-25.45 10.19-38.17 23.64l-426.2 450.68c-3.75 11.34-12.35 23.48-17.5 30.73l-606.59 989.8-2145.7 1112.52c-160.57 75.53-312.06 146.79-468.11 208.09-124.38 48.85-252.41 90.2-386.53 133.16 25.97 47.15 119.62 80.18 191.32 105.46l19.62 6.94c2.64.94 4.02 3.86 3.08 6.5-.94 2.64-3.86 4.02-6.5 3.08l-19.58-6.94c-74.06-26.11-170.96-60.29-197.74-111.91l-6.03 1.93c-55.32 17.71-111.7 35.77-169.36 54.81l59.93 64.66c2.26 2.46 5.88 6.84 8.76 9.51 5.47.46 12.72.15 18.03.46l160.54 9.55c26.93 1.6 52.57.81 79.45-1.12 456.95-32.72 914.38-262.39 1305.57-487.43l.78-.43 1810.33-937.99c160.18-376.78 306.47-751.52 466.33-1128.25 4.59-10.8 4.93-12.18 12.73-20.95l388.86-437.24c9.47-10.99 16.07-15.51 29.74-20.39l1303.11-465.28c14.36-5 28.73-10 43.09-15zM2136.13 2603.84c138.49-78.03 223.82-125.64 310.04-174.64 86.23-49 173.35-99.41 244.76-141.41 71.4-41.98 127.09-75.56 174.98-109.13 47.89-33.57 87.96-67.14 115.53-90.54 27.56-23.41 42.6-36.66 50.41-46.09 2.84-3.43 4.72-6.36 5.83-8.89-25.08 4.98-50.07 12.12-74.89 20.37-37.33 26.41-73.08 51.73-100.64 71.33-34.13 24.27-55.68 39.75-258.33 154.38-202.65 114.63-586.4 328.4-830.92 464.47-244.53 136.07-349.84 194.45-413.73 230.83-63.88 36.38-86.33 50.75-178.06 123.61-91.72 72.87-252.72 204.23-413.72 335.58-59.36 44.93-118.71 89.87-178.07 134.8-18.45 17.72-36.58 35.58-54.31 53.62 1.32 1.47 2.74 2.74 4.21 3.67 4.49 2.87 9.32 2.53 16.73-2.3 7.41-4.82 17.4-14.14 139.28-104.69 121.87-90.55 355.62-262.33 490.47-359.39 134.84-97.06 170.77-119.41 225.73-150.39 54.95-30.98 128.95-70.62 261.77-144.67 132.81-74.04 324.47-182.5 462.96-260.53zM1065.13 4067.49L607 4261.2c4.01.8 8.53 1.54 14.22 2.51l238.49 40.43c13.12 2.22 24.62.94 36.84-4.15l229.59-95.55c17.48-7.28 7.9-17.38-1.28-33.32l-59.74-103.63zM3905.46 847.77l-61.18-.18-45.52 45.17 8.8 255.63c22.52-21.17 45.11-42.39 68.68-64.14h-.08l-7.52-201.21 36.83-35.27zM3090.65 1862.76c-43.79 24.37-63.55 36.71-74.21 45.58-10.67 8.87-12.24 14.26-9.32 17.63 2.92 3.37 10.33 4.72 37.72 8.7 27.39 3.98 74.77 10.61 107.22 17.91 32.45 7.29 49.96 15.26 80.39 34.13 30.43 18.86 73.76 48.61 101.55 67.76 27.79 19.14 40.02 27.67 51.03 29.07 11 1.41 20.77-4.32 58.67-27.12 37.89-22.79 103.91-62.64 195.02-116.54 91.11-53.89 207.31-121.82 268.28-158.64 60.97-36.83 66.69-42.55 67.7-50.13 1.01-7.58-2.69-17.01-11.39-26.22-8.7-9.21-22.4-18.19-55.91-36.49-33.52-18.3-86.84-45.92-116.93-60.4-30.1-14.49-36.94-15.83-59.29-16.67-22.34-.85-60.18-1.18-87.8-1.52-27.62-.34-45.02-.68-57.65.39-12.63 1.06-20.49 3.54-36.38 12.07-15.89 8.53-39.8 23.13-87.68 51.36-47.89 28.24-119.74 70.12-189.58 109.24-69.84 39.13-137.64 75.5-181.43 99.87zm49.67 35.77l80.11-36.23 16.69.37-1.46-23.18 87.16-37.14 11.38.25-1.53-24.41 87.16-37.14 16.21.36.89-22.81 93.48-38.4.71-18.42 57.84-11.96 129.84 1.05 143.49 78.01c16.04-10.48 15.21-15.95.3-25.65-40.8-26.57-113.66-82.33-140.93-83.36-1.12-.04-134.32 6.35-139.33 6.77-.77.06-1.66.11-2.41.27-2.64.8-6.68 3.12-9.1 4.42-123.03 66.06-290.87 169.7-434.08 249.16-27.09 15.03-16.08 16.17 3.56 18.04zm15.65 8.43c-9.36-1.37-38.61-.94-41.65-11.31-2.8-9.58 12.68-17.32 19.22-20.94 145.8-80.9 287.42-170.41 434.15-249.2 3.24-1.75 6.81-3.87 10.32-4.93l.25-.08.26-.06c1.09-.23 2.15-.31 3.26-.4 22.78-1.93 46.91-2.4 69.83-3.5 15.88-.77 31.75-1.53 47.63-2.28 6.89-.32 15.91-1.26 22.67-1.01 30.52 1.15 115.09 65.42 144.29 84.43 6.07 3.95 10.09 7.66 12.34 11.21l54.99-2.62c3.5-.17 6.48 2.54 6.64 6.04.16 3.5-2.54 6.48-6.04 6.64l-54.83 2.61c-2.7 5.23-8.97 10.29-17.63 15.51-153.19 92.57-311.35 176.53-466.07 266.48l-1.57 69.96c-.07 3.04-2.97 5.46-6.47 5.39-3.5-.06-6.29-2.58-6.22-5.61l1.59-70.92c-5.18-3.59-10.24-7.34-15.43-10.91-32.55-22.43-65.11-44.51-98.8-65.22-18.85-11.6-87.92-15.63-112.75-19.27z"></path><path class="id5255-19" d="M4131.67 962.61l-22.05 25.07c-10.17 12.39-10.22 13.83 2.26 13.29l19.64-.85c51.2-2.14 156.66-13.87 202.54-8.65 13.55 1.53 49.46 16.1 62.05 21.56 57.3 24.87 120.52 58.61 173.45 91.87 27.65 17.38 48.56 31.8 66.58 59.2 7.53 11.45 14.83 22.98 22.08 34.6 16.98 27.22 29.41 44.03-5.77 64.45-7.29 4.24-14.59 8.47-21.88 12.71-46.36 26.93-92.76 53.77-139.3 80.41-61.34 35.13-122.87 69.93-184.19 105.08-52.15 29.9-105.6 62.18-159.5 88.59-26.4 12.94-55.01 25.35-84.82 26.43-25.08.91-46.94-6.29-70.19-14.97-36.64-13.69-72.26-31.8-108.29-47.17-15.97-6.82-44.43-17.42-56.66-29.66-24.89-24.89.35-64.96 14.47-88.95-18.24 24.54-45 62.28-46.15 78.23-.78 10.83 2.2 21.91 8.36 30.86 7.72 11.22 21.24 18.52 33.11 24.49 24.04 12.09 49.91 22.42 75.24 32.96 27.22 12.7 55.26 26.27 83.4 36.68 19.14 7.07 36 11.39 56.43 10.94 17.87-.4 38.03-3.68 55.24-8.25 1.27-.34 2.54-.69 3.8-1.07 7.94-2.41 15.69-6.41 23.04-10.2 21.72-11.21 43.23-23.22 64.7-34.93 117.08-63.86 234.34-127.37 351.27-191.53 31.16-17.1 61.91-34.93 92.78-52.55 29.79-17.01 59.09-34.09 86.74-54.48 39.12-28.84 76.82-63.7 113.54-95.62 66.3-57.63 132.94-114.89 199.56-172.15 43.74-37.6 87.43-75.53 131.87-112.31 23.48-19.43 46.01-37.43 72.9-51.94 34.63-18.7 74.72-33.73 111.22-48.51 60.92-24.66 122.49-48.93 182.7-75.2 5.68-2.48 46.81-21.17 48.36-28.09 2.36-11.2-26.39-30.29-63.34-51.86 5 4.53 9.05 9.2 11.35 13.88 13.63 27.66-22.82 42.9-42.06 51.58-47.64 21.48-98.12 39.61-146.7 59.18-34.69 13.99-69.12 29.67-103.87 43.16-15.53 6.04-32.48 12.42-44.1-4.05-6.38-9.03-12.17-23.07-16.94-33.15-9.19-19.45-19.49-41.53-31.71-59.21-14.74-21.33-40.78-32.45-63.43-43.52-75.87-37.09-153.21-75.38-229.31-110.47-19.91-9.18-16.37-8.74-38.95-7.87-59.15 2.3-214.07 13.31-243.78 16.28-9.07.91-35.32 2.91-41.98 10.32-4.05 4.5-7.71 16.85-9.8 22.61-4.02 11.11-6.21 22.65-10.38 33.74 26.99-24.88 42.22-31.73 82.17-38.35 51.76-8.58 107.19-13.13 159.59-17.09 47.99-3.62 60.64-.1 105.53 19.74 61.87 27.34 124.84 57.88 184.8 89.18 28.71 14.99 55.39 27.67 74.52 54.5 13.01 18.24 25.64 39.99 35.83 59.95 8.24 16.15 13.46 28.83 3.89 45.77-7.89 13.96-23.57 29.27-34.81 40.88l-.43.44-.47.41c-119.87 102.89-237.02 207.52-355.55 311.79-21.37 18.8-46.44 47.96-65.61 10.67-11.48-22.33-22.21-45.15-34.3-67.14-14.05-25.58-36.41-35.94-61.31-50.61-62.65-36.91-126.95-72.14-190.91-107.24-42.65-23.41-34.09-23.75-82.48-20.47l-193.05 13.09c-3.35.16-8.83 1.01-10.94 3.54zM4422.4 285.99l-112.54-35.46c-11.45-3.61-30.18-10.44-42.16-6.17l-124.58 44.41c-11.92 4.25-13.09 8.34 2.47 20.13l84.87 64.58c.99-1 1.97-1.97 2.94-2.92 20.18-19.82 36.05-30.13 84.27-48.31 26.78-10.1 63.53-22.63 104.72-36.25z"></path><path class="id5255-19" d="M4017.02 1024.62c100.48-87.57 189.62-154.26 251.37-198.72 38.75-27.9 66.72-47.05 90.66-62.93 38.32-39.82 75.28-78.74 98.86-103.93-10.62 4.78-24.19 10.98-43.86 21.99-20.65 11.55-47.88 28.34-85.16 54.14-37.95 26.25-86.45 61.95-137.22 100.86-49.39 37.86-100.74 78.6-146.35 116.47-46.45 38.55-87.19 74.3-125.08 108.64-125.23 113.48-248.43 218.95-377.26 335.7-1.38 1.25-7.27 6.45-7.19 8.52l1.3 36 209.54-164.34c93.65-90.62 186.02-178.87 270.39-252.4z"></path><path class="id5255-19" d="M3918.29 893.25c102.84-88.02 205.68-176.04 263.73-224.43 58.04-48.39 71.29-57.14 107.78-71.06 36.49-13.93 96.22-33.01 157.18-52.09 60.96-19.09 123.16-38.18 217.58-68.72 87.2-28.21 201.9-66.18 318.69-104.9l-43.12-7.58c-170.42 61.31-336.59 108.63-511.89 161.16l-.12.04-193.83 62.03c-11.77 4.35-44.54 31.59-54.94 40.05-32.96 26.82-65.17 54.82-97.1 82.85-30.3 26.6-60.39 53.44-90.47 80.3-37.6 33.57-74.37 63-110.26 97.37l6.91 184.75c7.64-7.02 15.4-14.1 23.31-21.27l5.97-5.4c.19-51.03.39-102.06.58-153.09zM5232.16 500.45c228.58-64.05 457.17-128.11 685.75-192.16l-19.43-4.91c-14.93-3.77-30.17-6.14-45.11-1.2l-124.55 41.2-620.02 163.88c46.13-3.25 89.97-5.89 123.35-6.81z"></path><g><path class="id5255-28" d="M6058.12 1814.96a5.085 5.085 0 0 1 .6-7.16 5.085 5.085 0 0 1 7.16.6l98.94 116.94-89.7 119.12-1.33 103.42a5.07 5.07 0 0 1-10.14-.12l1.35-105.09 1.01-2.98 85.82-113.97-93.71-110.75z"></path><path class="id5255-28" d="M6071.44 2037.83c2.7.76 4.28 3.57 3.52 6.27a5.088 5.088 0 0 1-6.27 3.52l-145.51-41.09a5.088 5.088 0 0 1-3.52-6.27c.76-2.7 3.57-4.28 6.27-3.52l145.51 41.09zM6156.7 1930.33c-2.66-.89-4.08-3.79-3.18-6.44.9-2.65 3.79-4.08 6.44-3.18l45.79 15.66c2.65.9 4.08 3.79 3.18 6.44-.89 2.65-3.79 4.08-6.44 3.18l-45.79-15.66z"></path></g><g><path class="id5255-28" d="M4903.46 89.09c-2.91-1.94-3.69-5.89-1.74-8.8a6.343 6.343 0 0 1 8.8-1.74l466.15 311.21c2.91 1.95 3.68 5.89 1.74 8.8-1.95 2.91-5.89 3.68-8.8 1.74L4903.46 89.08zM6494.93 593.09a6.355 6.355 0 0 1-7.16-5.42 6.355 6.355 0 0 1 5.42-7.16l1122.26-154.94a6.355 6.355 0 0 1 7.16 5.42 6.355 6.355 0 0 1-5.42 7.16L6494.93 593.09zM6447.17 198.65c2.3-2.64 6.31-2.9 8.95-.6 2.64 2.3 2.9 6.31.6 8.95l-175.14 200.06c-2.3 2.64-6.31 2.9-8.95.6-2.64-2.3-2.9-6.31-.6-8.95l175.14-200.06zM7780.64 1112.99a5.075 5.075 0 0 1 .68-7.11c2.15-1.79 5.36-1.5 7.14.66l.08.09c3.39 4.21 6.78 8.42 9.82 10.11 2.42 1.35 6.15 1.36 174.33 1.42l57.92.02c226.61.11 675.68.57 1124.75 1.01l.06-.02c2.81 0 5.09 2.28 5.09 5.09s-2.28 5.09-5.09 5.09h-.06c-449.07-.46-898.14-.92-1124.75-1.03l-57.92-.03c-170.77-.06-174.56-.07-179.26-2.69-4.79-2.67-8.8-7.65-12.8-12.62z"></path><path class="id5255-9" d="M6671.33 430.92L5372.39 850.94c-34.75 11.23-42.91 11.38-65.92 39.44l-324.4 396.63c-21.57 26.39-29.48 41.09-44.11 71.88l-544.85 1146.83"></path><path class="id5255-28" d="M6705.72 413.53c2.58-.92 5.42.42 6.34 3.01.92 2.58-.42 5.42-3.01 6.34l-1346.2 480.28c-6.44 2.29-11.17 4.48-15.32 7.32-4.16 2.85-7.9 6.47-12.35 11.63l-388.9 437.3c-6.85 7.7-7.52 9.28-11.14 17.83l-.74 1.76c-78.57 185.15-154.46 371.32-230.34 557.49-77.38 189.83-154.76 379.68-235.99 570.76a4.963 4.963 0 0 1-6.49 2.62 4.963 4.963 0 0 1-2.62-6.49c80.8-190.06 158.36-380.34 235.91-570.61 75.49-185.2 150.99-370.42 230.42-557.62l.74-1.76c4.2-9.9 4.98-11.73 12.84-20.57l388.86-437.24c5.01-5.79 9.3-9.92 14.21-13.28 4.92-3.38 10.34-5.9 17.57-8.48l1346.2-480.29z"></path></g></g><g id="WING_CANNON_1"><path class="id5255-0" d="M2584.4 3721.27c13.65 7.38 28.97 12.79 44.67 12.18 16.2-.63 30.54-10.16 43.62-18.83L4460.8 2528.98l34.32-349.11-156.28-74.61L2445.6 3181.54c-30.43 17.29-45.83 21.14-41.99 59.32l32.6 324.07c2.1 20.9 1.46 60.37 20.68 72.94l127.52 83.4z"></path><path class="id5255-19" d="M2775.96 3632.17L4449.82 2522.3l32.99-335.55-143.35-68.43-1783.22 1013.73 110.56 69.03 2.84 3.9 106.34 427.19zm1358.29-1138.75l28.09-19.46c12.25-8.48 24.77-5.41 25.14 11.41l3.47 161.02c.19 9.11-.86 16.29-7.78 22.85-9.06 8.59-19.69 14.31-29.47 21.68-10.13 7.64-19.32-4.26-19.94-13.81l-10.8-166.26c-.5-7.77 5.45-13.38 11.29-17.42zm-125.46 71.45l28.09-19.46c12.25-8.48 24.77-5.41 25.14 11.4l3.47 161.02c.19 9.11-.86 16.29-7.78 22.86-9.06 8.59-19.69 14.3-29.47 21.68-10.13 7.64-19.32-4.26-19.94-13.81l-10.8-166.26c-.5-7.76 5.45-13.38 11.29-17.42zm-134.73 87.38l28.1-19.46c12.25-8.48 24.77-5.41 25.14 11.41l3.47 161.02c.19 9.11-.86 16.29-7.78 22.85-9.07 8.59-19.69 14.31-29.47 21.68-10.13 7.64-19.32-4.26-19.94-13.81l-10.8-166.26c-.5-7.77 5.45-13.38 11.28-17.42z"></path><path class="id5255-30" d="M2590.21 3711.34c11.65 6.24 24.91 11.07 38.24 10.55 5.05-.19 10.08-1.61 14.97-3.67l-111.82-420.18a6.304 6.304 0 0 1 4.53-7.72c3.39-.87 6.86 1.19 7.76 4.59l111.05 417.32c3.97-2.39 7.76-4.94 11.26-7.27l98.55-65.35-106.84-429.17-114.18-71.29-92.31 52.48c-6.33 3.6-19.71 10.47-27.93 16.98l103.1 60.88c3.03 1.78 4.07 5.68 2.31 8.69-1.76 3.02-5.65 4.03-8.68 2.25l-104.44-61.67c-1.94 6.58-1.25 15.39-.68 21.12l32.6 324.07c1.53 15.23 1.74 55.34 15.4 64.27l127.1 83.12zm-128.47-448.18c6.68 3.1 14.72 7.15 22.14 11.62 5.9 3.55 11.51 7.43 15.92 11.37 5.33 4.79 8.93 9.63 12.66 18.1 3.47 7.86 7.09 19.05 12.59 36.89 8.2 26.56 19.93 65.62 32.51 107.52l29.63 98.45c11.82 39.2 22.28 73.87 29.24 97.65 4.64 15.9 7.25 25.39 8.44 31.25 1.55 7.69.85 10.96-1.25 13.39-2.45 2.83-5.85 3.9-12.96 1.41-4.78-1.67-12.29-5.29-24.44-11.89-11.61-6.3-27.78-15.51-43.96-24.94-16.92-9.87-33.61-19.82-45-26.89-11.76-7.3-18.64-12-23.07-16.4-4.94-4.89-6.8-9.17-8.33-15.42-2.33-9.53-3.8-23.92-7.78-62.88l-12.41-119.16-11.19-104.53c-4.5-41.17-5.17-47.28.29-50.88 2.91-1.9 6.88-1.99 11.99-.6 4.01 1.1 8.98 3.13 14.97 5.91zm6.87 14.66l43.49 305.35 92.45 57.1c-6.36-21.53-16.18-54.08-27.11-90.29l-29.63-98.49c-12.87-42.87-24.87-82.84-32.47-107.44-5.36-17.38-8.88-28.26-12.19-35.78-3.05-6.91-5.92-10.8-10.12-14.58-3.9-3.49-8.95-6.98-14.33-10.21-3.33-2.01-6.75-3.91-10.1-5.67zm139.97 376.21l-101.25-61.9-23.68 13.49c3.9 3.27 9.84 7.2 18.92 12.83 11.87 7.38 28.43 17.27 44.75 26.78 15.95 9.3 31.99 18.42 43.68 24.77 3.46 1.89 25.99 18.06 23.93 7.96-1.15-5.62-1.82-8.39-6.36-23.93zm-131.38-56.46l24.7-14.07-44.32-311.11-.04-.02c-5.54-2.55-8.14-3.82-11.49-4.74-5.17-1.43-5.93-1.66-5.34 4.33.53 5.44 1.7 15.94 3.9 35.77l11.19 104.55 12.41 119.16c3.93 38.47 5.38 52.68 7.54 61.53.42 1.72.87 3.22 1.46 4.6zM4138.37 2499.34l28.1-19.46c6.03-4.18 13.57-6.58 13.83 5.58l3.47 161.02c.15 7.12-.29 12.53-5.56 17.53-8.06 7.63-25.38 18.54-28.86 21.16-4.41 3.32-8.12-3.86-8.42-8.48l-10.09-155.22-.71-11.04c-.29-4.63 4.44-8.47 8.24-11.09zM4012.91 2570.79l28.1-19.46c6.03-4.18 13.57-6.58 13.83 5.59l3.47 161.02c.15 7.12-.29 12.53-5.56 17.52-8.06 7.63-25.38 18.54-28.86 21.16-4.41 3.32-8.12-3.86-8.42-8.48l-10.09-155.22-.71-11.04c-.29-4.63 4.44-8.46 8.24-11.09zM3878.18 2658.17l28.1-19.46c6.04-4.18 13.57-6.58 13.83 5.58l3.47 161.02c.15 7.12-.3 12.53-5.56 17.53-8.06 7.63-25.39 18.54-28.86 21.16-4.41 3.32-8.12-3.86-8.41-8.48l-10.09-155.22-.71-11.04c-.29-4.63 4.44-8.47 8.23-11.09z"></path><path class="id5255-28" d="M2549.12 3278.93c-3.05 1.73-6.93.66-8.65-2.39-1.73-3.05-.66-6.93 2.39-8.65l1877.23-1070.06c3.05-1.73 6.93-.66 8.65 2.39 1.72 3.04.66 6.93-2.39 8.65L2549.13 3278.93z"></path></g></svg>