<svg xmlns="http://www.w3.org/2000/svg" xmlns:xlink="http://www.w3.org/1999/xlink" id="Layer_1" class="shipSVG" data-name="Layer 1" viewBox="0 0 634.85 301.27"><defs><style>.cls-0{fill:#9fa8da}.cls-1{fill:#000001}.cls-1,.cls-13,.cls-15,.cls-17,.cls-2,.cls-8{fill-rule:evenodd}.cls-2{fill:#e4e5e5}.cls-8{fill:url(#ChangeName-3)}.cls-13,.cls-14{fill:#424242}.cls-15{fill:#1a1a1b}.cls-17{fill:#e41e29}</style><linearGradient id="ChangeName" x1="427.19" x2="423.39" y1="237.52" y2="283.47" gradientUnits="userSpaceOnUse"><stop offset="0" stop-color="PrimaryColor"/><stop offset="1" stop-color="SecondaryColor"/></linearGradient><linearGradient id="ChangeName-2" x1="502.73" x2="500.21" y1="239.93" y2="260.05" xlink:href="#ChangeName"/><linearGradient id="ChangeName-3" x1="622.14" x2="608.36" y1="244.11" y2="301.83" xlink:href="#ChangeName"/><linearGradient id="ChangeName-4" x1="315.6" x2="317.51" y1="204.53" y2="229.27" xlink:href="#ChangeName"/><linearGradient id="ChangeName-5" x1="156.3" x2="127.47" y1="332.35" y2="328.67" xlink:href="#ChangeName"/><linearGradient id="ChangeName-6" x1="170.03" x2="140.04" y1="293.22" y2="324.41" xlink:href="#ChangeName"/><linearGradient id="ChangeName-7" x1="232.71" x2="101.67" y1="311.03" y2="469.43" xlink:href="#ChangeName"/><linearGradient id="GradientFill_2" x1="617.08" x2="594.08" y1="265.21" y2="321.64" gradientUnits="userSpaceOnUse"><stop offset="0" stop-color="#803d96"/><stop offset=".15" stop-color="#8b478b"/><stop offset=".42" stop-color="#a8626c"/><stop offset=".76" stop-color="#d78d3c"/><stop offset="1" stop-color="#fbae17"/></linearGradient><linearGradient id="ChangeName-8" x1="426.03" x2="433.08" y1="272.98" y2="291.51" xlink:href="#ChangeName"/><linearGradient id="ChangeName-9" x1="397.87" x2="391.41" y1="272.17" y2="288.63" xlink:href="#ChangeName"/><linearGradient id="ChangeName-10" x1="406.44" x2="395.16" y1="271.65" y2="290.34" xlink:href="#ChangeName"/></defs><path id="BLACK_GROUND" d="M374.23 253.19c12.66 11.61 33 16.44 53.65 17.59 19.24 1.08 39.63-3.75 44.68-5.26a1.38 1.38 0 0 1 1.31.26c5.31 3.64 12.59 10.17 18.05 14.55 2.75 2.21 7.09 1.94 10.36 1.35a3.05 3.05 0 0 0 1.58-.67l3.55 4.25c2.27 2.72 5.59 2.88 8.73 1.72 44.4-15.34 78.2-7.61 118.84 11.34.11 3.6.44 8.83 3.75 10.59l8.91 4.75-1.64 3.28a6.67 6.67 0 0 0-.53 5.59c.82 1.88 2.93 2.54 4.63 3.36l18 8.74c2 .95 4 2.07 6.27 1.43s3.74-2.9 5.13-4.59c2.62-3.21 5.3-6.37 8-9.53 3.52-4.13 7.08-8.24 10.6-12.38 2.68-3.17 5.44-6.4 7.91-9.73 3.22-4.34 3.46-8.43.1-12.73l-10.63-15c-1-1.44.51-2.82.35-5.84a13.74 13.74 0 0 0-1.88-6c1.09-.67.53-3.24.85-4.75.25-1.21.79-1.94.48-3.28a11 11 0 0 0-.55-1.55c-.29-.76-.6-1.5-.91-2.25-.44-1-.89-2.11-1.34-3.16a1.4 1.4 0 0 0 .2-1.37l-1.89-4.9a3.28 3.28 0 0 0-.72-1.37L643 199.29a1.32 1.32 0 0 0-1-.32c-3.92.22-7.46 1.92-11.26 0a1.37 1.37 0 0 0-1.2-.11l-6.11 2.24a1.71 1.71 0 0 0-.4.22l-1.7-1.43a1.41 1.41 0 0 0-1-.33 4.75 4.75 0 0 1-.75 0 2.59 2.59 0 0 1-.5-.54c-.44-.55-.79-1.19-1.46-1.45a3.88 3.88 0 0 0 .11-.49 10.83 10.83 0 0 0-1.11-5.64 20.11 20.11 0 0 0-6-7.89L600 175.36a12.48 12.48 0 0 0-1.91-1.28 1.55 1.55 0 0 0 .52-.44 1.36 1.36 0 0 0 .24-1.12c-1.62-7.85-3.08-16.15-4.95-23.89-.56-2.32-2.2-4.31-4.76-4.28l-11.66.11a4.3 4.3 0 0 0-.62 0 3.9 3.9 0 0 0-1.5.94 1.62 1.62 0 0 0-.18.2 6 6 0 0 0-2.7-1.27 40.22 40.22 0 0 0-5.27-.71c-4.41-.39-6.46.41-10.66 1.51-5.93 1.55-11.85 3.2-17.71 5-3.71 1.14-7.42 2.34-11.06 3.7a143.25 143.25 0 0 0-13.43 5.92l-1.3.64-3.42-18.94a4.87 4.87 0 0 0-2-3.18 8.59 8.59 0 0 0-5.78-1.2c-1.12.11-11.11 1.24-11.46 1.49a5.29 5.29 0 0 0-2.06-1 22.21 22.21 0 0 0-5.83-.85c-2.41.06-4.67.91-7 1.45a220.1 220.1 0 0 0-40.52 14c-10.67 4.83-19.09 9.23-29.29 15-5.58 3.13-4.18 1.87-9.6 2.19-14.1.85-29.24 3.33-43.31 5.15q-14.5 1.89-29 3.81c-5.29.7-10.62 1.37-15.89 2.2a33.53 33.53 0 0 0-5.61 1.19 19.26 19.26 0 0 0-6.57 4.07c-2.5 2.16-4.85 4.51-7.38 6.64a12.64 12.64 0 0 1-4.46 2.74 19.29 19.29 0 0 1-4.72.75c-3.29.16-4.79 1.05-7.23 3.2a75.45 75.45 0 0 0-5.75 5.84c-1.84 2-3.64 4.1-5.44 6.18-.9 1.05-1.84 2.11-2.71 3.2a6.17 6.17 0 0 0-1 1.53 27.75 27.75 0 0 0-.78 4.9 3.39 3.39 0 0 0 1.61 2.76 12.91 12.91 0 0 0 4.28 1.31 80.78 80.78 0 0 0 9 1.36 11.91 11.91 0 0 0 5.4-.55c1.07-.44 2.24-1.2 2.38-2.41a36.42 36.42 0 0 0 4.21 1.76 5.62 5.62 0 0 0 3.66.25 18.57 18.57 0 0 1 1.85-.66c2.31-.37 4.87.44 7.12 1.13l.62.19c-7.15 2.37-14.68 4.19-21.75 6.77-10.94 4-22.13 8.2-32.71 13.08-21.59 9.94-39.79 24.39-58 39.19a1.53 1.53 0 0 0-.28-.59 1.43 1.43 0 0 0-2-.24l-23.9 18.06c-2.57 1.94-5.15 3.88-7.67 5.86a51.3 51.3 0 0 0-4.49 3.81 8.88 8.88 0 0 0-2.52 3.92c-.07.21-.14.43-.22.64a26 26 0 0 1-2 3.91 1.41 1.41 0 0 0 .32 1.79c-29 28.29-51.79 60.45-66.81 99.43a6.79 6.79 0 0 0 0 5.67c1.62 3.41 8 7.09 10.55 8.64.28.17 1.79 1.22 1.87 1.26 2.16 1.05 4 1 6.36.9l11.4-.54a8.41 8.41 0 0 0 6.14-3.53c16.19-22.17 35.61-47.21 61.13-59 2.82-1.3 5.73-2.45 8.66-3.49a74.22 74.22 0 0 1 15.18-4c1.47-.17 3-.31 4.44-.52a11.6 11.6 0 0 0 2.54-.6 12.9 12.9 0 0 0 2-1.05c3.43-2.05 5.57-5.74 7.88-8.9 21.51-29.48 48.1-47.65 81.51-61.29 2.33-1 4.67-1.82 6.1-4a13.89 13.89 0 0 0 1.74-3.94 16.12 16.12 0 0 1 .66-2.31c.86-1.81 65.69-29.32 71.53-31.89a1.42 1.42 0 0 0 .25.3zm-19.49-59a.17.17 0 0 1 0-.07h.14z" class="cls-1" data-name="BLACK GROUND" transform="translate(-73.67 -136.7)"/><g id="SILVER_BODY" data-name="SILVER BODY"><path d="M435.27 264.19a125.66 125.66 0 0 0 30.19-4.19c.6-.15 1.46.46 1.89 1.18l2.35 4a116.5 116.5 0 0 1-21.46 3.77c-4.44.38-9.19.6-14.11.6l-.06-3.1c-.07-1.74-.45-2.24 1.2-2.26z" class="cls-2" transform="translate(-73.67 -136.7)"/><path d="M93 436.5l11.4-.54a7 7 0 0 0 5.1-3c17.93-24.54 36.88-48 61.69-59.42 7.6-3.51 18.27-6.94 24.26-7.64s6.09-.57 8.44-2c3.1-1.86 5-5.17 7.46-8.53C233.67 324.9 261 307 293.41 293.75c2.23-.91 4.27-1.66 5.44-3.49 3.15-4.89.37-6.66 6.53-8.95l3.14-1.16 73.39-32.29c1.41-.69 4.37-1.79 5-3.36.83-2.11.86-8.83 1.06-11.35.61-7.68.67-8.46 6.95-11 6.89-2.75 21.15-8.09 21.19-8.11a.43.43 0 1 1 .3.8s-14.41 5.41-21.2 8.16c-5.79 2.31-5.85 3.05-6.42 10.25-.19 2.42-.16 6.6-.56 8.51s-.14 2.17.27 2.4c.63.34 1.54-.24 4.3-1.56 2-1 1.41-.66 3.4-1.69a5.1 5.1 0 0 1 2.66-.72 5.94 5.94 0 0 1 2.82 1l2.57 1.13v-1.72c3.79-3.84 7.14-7.19 10.94-11 1.64-1.64 1.94-2.21 3.58-.67a39.76 39.76 0 0 0 6.32 5l4.31 2.24c.45.2.91.38 1.37.56a32.51 32.51 0 0 0 12.23 2.36c1.54 0 2.24 0 2.3 1.73l.23 7.09a114.63 114.63 0 0 0 17-4.31l1 1.18c1.23-.67 2.91-1.33 3.71-.53.56.56 1.67 2 2.79 3.46.63.82 1.27 1.64 1.81 2.32l.27.33c.85 1.08.89 1.13 2.61.61 1.07-.33 2.44-.86 3.83-1.45s2.81-1.21 4-1.75c3.66-1.68 4.12-1.25 7 1.54l.73.69 3.45 3.27c2.09 2 5.08 2.72 8.33 2.63a27.92 27.92 0 0 0 11.65-3.29l2.5-1.65a3.86 3.86 0 0 1 3-.85 4 4 0 0 1 2.17 1.37l3.9 4.49q1.63-1.36 3.3-2.8c17.86-15.41 41-37.74 44-40.66 3.35-3.18 5.69-4.2 10.35-2.27a86.17 86.17 0 0 1 8 3.78 2.71 2.71 0 0 0 .95-1.28 4.14 4.14 0 0 0 .34-1.34 1.57 1.57 0 0 0-.18-.94 4.12 4.12 0 0 1-1.21-.16 38.87 38.87 0 0 1-4.6-2.11c-3.15-1.6-6.94-3.51-9.62-3.78l-1.46-.17c-3.84-.46-8-1-15.46 2.43-8.28 3.76-31 12-32.79 12.62l.15.16c.94 1 1.88 2 2.78 3 .36.41.71.82 1 1.25a1.57 1.57 0 0 1 .19.33 1.5 1.5 0 0 1 .27.29 5.4 5.4 0 0 1 .74 1.43c.39 1.31-.39 2.12-1.45 2.75a1.37 1.37 0 0 1-.38.15 1.47 1.47 0 0 1-.31.23c-.49.25-1 .49-1.49.72l-.24.11a1.5 1.5 0 0 1-.34.11 1.65 1.65 0 0 1-.31.2q-3.62 1.65-7.26 3.21a1.54 1.54 0 0 1-.35.1 1.82 1.82 0 0 1-.31.19l-1.74.73a1.5 1.5 0 0 1-.35.09 1.65 1.65 0 0 1-.32.18c-1.22.5-2.78 1.24-4.1.79a10.45 10.45 0 0 1-3-2.1 60.12 60.12 0 0 1-4.51-4.38 8.21 8.21 0 0 1-.48-.55l-30 12.47a22.56 22.56 0 0 1-2.65.94c-2.15.58-4.54.63-5.2-1.82a.71.71 0 0 1 1.37-.36c.36 1.33 2 1.21 3.46.82a20.92 20.92 0 0 0 2.48-.89c9.59-4 19.63-8.43 29.62-12.65a3.93 3.93 0 0 1-.3-1.37v-.76a1.59 1.59 0 0 1 .11-.49 1.33 1.33 0 0 1-.08-.45 2.65 2.65 0 0 0-.07-.69c-.22-.78-.88-1.24-.93-2.21a1.09 1.09 0 0 1 0-.31 2.25 2.25 0 0 1 1.41-1.67 27.76 27.76 0 0 1 2.93-1.21l1-.36.24-.06.23-.11 1.45-.52.24-.07.23-.1 1.84-.65a1.05 1.05 0 0 1 .24-.06l.23-.11 1.47-.5a1.05 1.05 0 0 1 .24-.06 1.33 1.33 0 0 1 .24-.11l1.85-.62a1.14 1.14 0 0 1 .25-.06l.23-.1 1.3-.42.2-.06a1.32 1.32 0 0 1 .26-.05 1.09 1.09 0 0 1 .25-.1c1.48-.45 3.13-1 4.42.14a7.62 7.62 0 0 1 1.79 2.6 5.12 5.12 0 0 1 .27 1.37.37.37 0 0 0 0 .15 2.25 2.25 0 0 0 .2.34l.4-.15c.07 0 24.23-8.73 32.8-12.62 7.82-3.55 12.18-3 16.21-2.55l1.44.17c2.94.3 6.85 2.28 10.11 3.92a37.75 37.75 0 0 0 4.39 2c1 .31 2.57-.05 4.49-.77 1.48-.56 1.55-1.82 1.48-3.45 0-.31 0-.68-.09-1.12a14.47 14.47 0 0 1-.14-2.28c0-.14 0-.55.05-.68v-.1a3 3 0 0 1 1.37-2c.41-.29 1-.6 1.4-.84 2.35-1.25 9.1-4.54 10-4.54a3.24 3.24 0 0 1 2.45 2.48 2 2 0 0 1-.11.64c-.3.86-.28.68.54 1.48 1 1 .9 1.42 2.12.78.73-.38 1.48-.85 1.57-1.59a9.34 9.34 0 0 0-1-4.89 18.71 18.71 0 0 0-5.57-7.35l-10.65-8.19c-1.72-1.32-2.81-1.94-5-1.58-35.17 6.67-68.85 15.57-102.29 24.92a5.46 5.46 0 0 1-3.06.17 4.31 4.31 0 0 1-2.6-2.13 6.79 6.79 0 0 0-3.14-3.14c-1.7-.81-3.95-2.22-12.07.32-3.5 1.1-11.23 3.75-12.81-.18.47.29 2.08 1.8 2.78 1.14.55-.53 0-.82-.18-1.29a2.21 2.21 0 0 1-.19-.7c-.65-5.43 13-5.47 19.44-11.06a76.17 76.17 0 0 0-8.72 2.34 54.65 54.65 0 0 0-9.56 4 9.13 9.13 0 0 0-2.44 1.65 5.5 5.5 0 0 0-1.21 2.18.36.36 0 0 1-.68-.21 6.38 6.38 0 0 1 1.34-2.42 9.57 9.57 0 0 1 2.64-1.81 56 56 0 0 1 9.69-4c3.21-1 6.39-2.08 8.66-2.59a3.42 3.42 0 0 0 2.29-1.18 135.6 135.6 0 0 1 20.87-15l5.67-2.89c-6.47-.26-10.9 1.07-16.9 2.49-3.57.85-1.94 2.28-2.95 4.17-.21.4-.8.66-.76.13l.05-.53v-.49l-69.94 14.51c-.73.15-4.54.94-5.84-.49s-3.2-3.26-5.33-3.61a8.14 8.14 0 0 0-3.93.61l-8.72 3a7.46 7.46 0 0 1-2.73.47c-.54.28-2.07.93-2.94 0s-1-1.22-1-1.23a.28.28 0 0 1 .28-.28 8.74 8.74 0 0 1 1.15 1.12 1.52 1.52 0 0 0 1.62.16l-.17-.11c-3.67-2.66 5.84-6.08 7.32-6.76v-1.87c-25 10.55-43.65 17.07-60.94 39.22 13.92-4.42 26.51-8.09 37.18-11.22 5.26-1.55 9.8-2.8 13.61-3.78 4.09-1.05 7.28-1.76 9.56-2.16a12.27 12.27 0 0 1 5-.2 6.3 6.3 0 0 1 1.43.52 1.48 1.48 0 0 1 .25-.46 1.45 1.45 0 0 1 2-.18l13.5 11.3a1.63 1.63 0 0 1 .2 2.16c-.79.95-1.07.35-.59 1.59a3.21 3.21 0 0 1-.41 1.79 6.87 6.87 0 0 1-.55.79.72.72 0 0 1-1 .12.7.7 0 0 1-.12-1 5.36 5.36 0 0 0 .43-.62 1.38 1.38 0 0 0 .2-.58 1.35 1.35 0 0 0-.25-.87 5.57 5.57 0 0 0-.84-1.15c-.44-.49-.69-.53-1.12-.37l-4.17 1.54c-1.78.66-2.49.7-3.94-.65l-7.82-7.28a1.76 1.76 0 0 1-.75-1.77c.27-.84 1.4-1 2.17-1.23l2.36-.52c1-.23 1.57-.24.62-.87a6.22 6.22 0 0 0-1.94-.9 11.49 11.49 0 0 0-4.47.22c-2.28.41-5.44 1.11-9.46 2.14q-5.6 1.44-13.55 3.77c-40.79 12-93.48 26.59-131.26 44-31 14.29-56.65 36.57-81.12 57.25-37.26 31.5-67.72 68.45-86.45 117a5.35 5.35 0 0 0 .65 5.68v.05a6.29 6.29 0 0 1-.07-2.23 24.69 24.69 0 0 1 1.14-4.95 91.19 91.19 0 0 1 3.44-8.6c1.66-3.71 3.4-7.38 5.15-11a17.31 17.31 0 0 1 2-3.71c.46-.4.73-.35 1.21-.53.14-.05.48-.63.55-.74 1.93-3.14 3.44-7.06 5.15-9.78a.81.81 0 0 1 1.08-.27l7.48 4.28a.76.76 0 0 1 .27 1.08l-.94 1.5-4 7.46a6.91 6.91 0 0 0-.76 2.24 2.86 2.86 0 0 0 .24 1.15 6.14 6.14 0 0 1 .47 1.62c.08 1-.89 2.82-1.29 3.68-1.66 3.62-3.38 7.21-5.06 10.83-1.45 3.12-2.91 6.27-4.25 9.45a8.58 8.58 0 0 0-1 4.13 20.86 20.86 0 0 0 .23 2.09.61.61 0 0 1-.07.4c1.66.81 2.93.9 5.68.77zm309.06-200.74l8.62-8.12a1.14 1.14 0 0 1 1.56 1.65l-8.63 8.12a1.13 1.13 0 0 1-1.55-1.65zm81.13 27.14l10.88 9.49a1.39 1.39 0 0 1-1.82 2.09L481.37 265a1.39 1.39 0 0 1 1.82-2.09zm108.43-48.3a4.5 4.5 0 0 0 .93-1.41 5.16 5.16 0 0 0 .42-1.72 3.37 3.37 0 0 0-.13-1.16 22.15 22.15 0 0 0 4.36-1.31 10.31 10.31 0 0 0 2.18 2.43c3.18 2.74 6.41 5.44 9.64 8.12.93.76 2.74 2.42 3.92 2.74a4.24 4.24 0 0 0 2.59-.11 13.59 13.59 0 0 0 3.33-2.21 46.29 46.29 0 0 0 5.07-4.5c1.07-1.17 1.58-2.1 1.18-3.67a8.7 8.7 0 0 0-.4-1.22 1.16 1.16 0 0 0-.59-.62 3.75 3.75 0 0 0-.72-1.6 54 54 0 0 0-5-5.05c-1.06-1-1.62-1.42-2.68-2.45-.76-.74-1.09-.76-.28-1.23l.65-.38c1.15-.68.92-.58 1.85.61a2.12 2.12 0 0 0 2.45 1l37.21 31.2c10.87 9.1 22.83 17.22 33.06 26.27a12.56 12.56 0 0 1 3.75 7.94c.33 6.46-4.25 7.65-9.73 9.61a33.94 33.94 0 0 0 9.63-3l10.65 15c2.88 3.67 2.86 7.06-.1 11-5 6.82-17.26 20.34-26.46 31.6-1.68 2.05-2.81 3.66-4.42 4.12s-3.16-.33-5.26-1.35l-18-8.73c-1.86-.91-3.39-1.37-4-2.65a5.24 5.24 0 0 1 .5-4.4l17-34.63c3.75-7.66 0-14.39-5.95-19.11-7.92-6.25-25.76-20.07-38.79-30.07-9-6.92-18.34-13.88-27.92-19.16zm-186.8 27.89v-1.66l10.44-10.38c1.27-1.28 1.51-1.89 2.89-.62a46.66 46.66 0 0 0 4 3.29.92.92 0 0 0-.24.31 1.08 1.08 0 0 0 .46 1.46l10.07 5.24a1.09 1.09 0 0 0 1.46-.47 1 1 0 0 0 .07-.82 37.73 37.73 0 0 0 8.92 1.18c1.66 0 1.43.08 1.48 1.68l.28 6.3a77.17 77.17 0 0 1-12.6 1 58.8 58.8 0 0 1-24.39-5.29l-2.82-1.24zm13.11-16.74a.36.36 0 0 1-.37-.61 10.57 10.57 0 0 0 3.33-3.84 32.51 32.51 0 0 0 1.59-3.49 29.25 29.25 0 0 1 3.79-7.13c3-3.94 5.37-4.26 5.38-4.26a.35.35 0 0 1 .39.31.34.34 0 0 1-.3.39s-2.07.28-4.9 4a28.46 28.46 0 0 0-3.71 7 30.82 30.82 0 0 1-1.63 3.56 11.51 11.51 0 0 1-3.57 4.11zm46 19.56c1-.56 2.25-1.07 2.76-.56s1.63 2 2.73 3.39c.64.83 1.28 1.66 1.82 2.33l.26.33c1.14 1.43 1.2 1.51 3.37.84 1.11-.34 2.5-.88 3.9-1.46s2.83-1.23 4-1.76c3.22-1.49 3.63-1.1 6.23 1.4l.74.7 3.44 3.26c2.25 2.13 5.42 2.93 8.84 2.82a28.55 28.55 0 0 0 12-3.37c.86-.53 1.71-1.13 2.56-1.69a3.24 3.24 0 0 1 2.43-.74 3.41 3.41 0 0 1 1.78 1.16l3.88 4.46c-7.2 5.94-13.59 10.54-17.26 13.29-3.23 2.42-4.87 3.52-4.81 8 0 1.88 1.14 2.26-.55 2.56-3.94.72-7.26.52-9.23-1.06l-16.42-13.16c-.89-.73-.91-.61 0-1.17a3.26 3.26 0 0 0 1.48-1.58c.45-1.47-.78-2.62-1.65-3.64z" class="cls-2" transform="translate(-73.67 -136.7)"/><path d="M592.23 278.3c-1.14 1.48-1.37 2.56 1.61 3.54s9.16 1.88 16.08 4.15a136.49 136.49 0 0 1 18.75 8.09c4.16 2.18 4.84 2.89 5.35 3s.86-.43 1.13-2a45.86 45.86 0 0 0 .49-5.66c0-1.51-.08-1.95-.84-2.54s-2.15-1.35-6.06-3.23-10.34-4.92-15.56-6.93a66.93 66.93 0 0 0-11.64-3.48c-2.42-.44-3.24-.32-4.68.69a24.45 24.45 0 0 0-4.63 4.37zM398.62 172.72l-.12 6.9 5.27-2.23c3.42-1.44 7.25.75 9 3.86h4.17V180.32c0-3.68 2.4-7.7 6.43-7.7a6.28 6.28 0 0 1 5.56 3.84c.37-3.39 2.7-6.74 6.38-6.74 3.5 0 5.87 3.13 6.33 6.37l.07.44 8.23-1.6 38-8.39c1-2.67 3.55-3 5.58-3.33s1.95 0 1.7-1.18l-4.24-19.62a4.17 4.17 0 0 0-3-3.48 21.44 21.44 0 0 0-5.42-.8c-2.3 0-4.45.88-6.66 1.4-29.5 6.86-53.67 19.72-77.28 33.19zm76.94 18.88a5.72 5.72 0 0 1 .73-3.44c1.35-2.22 10.5-10.73 16-14.44s23-13.73 35.89-18.53c9-3.37 21.82-6.87 28.63-8.65a44.94 44.94 0 0 1 6.48-1.53 21.5 21.5 0 0 1 3.7.06 40.65 40.65 0 0 1 5.08.69c1.71.39 2.82 1.06 3.3 3.56.9 4.65 3.84 26.88 3.84 26.88q-9.9 2.13-19.68 4.42c-.57-5-1.1-10.26-2.73-15a2.22 2.22 0 0 0-2.47-1.58l-16.47 3c-1.92.35-4 2.85-3.16 4.24 2.61 4.24 3.47 9.39 3.65 14.3v.19q-10.54 2.65-21 5.47c-.72-3.13-3.12-6.1-6.58-5.92s-5.34 3-5.92 6.07a6 6 0 0 0-5.33-3c-4.14.2-6.25 4.59-6.09 8.31 0 .34.05.68.1 1l-2.49.7c-2.26.64-3 .45-3.73-1.39a6.47 6.47 0 0 0-3.12-3.71c-5.37-2.91-8.4 1.12-8.63-1.7z" class="cls-2" transform="translate(-73.67 -136.7)"/><path d="M538.07 167.93l16.47-3a1.33 1.33 0 0 1 1.46 1c1.55 4.53 2.1 9.74 2.69 14.92q-8.79 2.07-17.52 4.25c-.19-5.68-1.21-11.22-4.06-15.72-.36-.6.29-1.33.96-1.45zm-153.66 3.95c-14.74 1.73-44.3 5.61-60.49 7.76s-19 2.57-21.23 3.32a17.43 17.43 0 0 0-6.1 3.8c-2.29 2-5.26 4.85-7.39 6.65a13.44 13.44 0 0 1-5 3 21.47 21.47 0 0 1-5.07.81c-1.65.08-3.11 0-6.36 2.84s-8.29 8.69-11.05 11.89-3.23 3.77-3.46 4.33a9.06 9.06 0 0 0-.32 1.86 13 13 0 0 0-.37 2.44 2 2 0 0 0 1 1.65c.59.39 1.41.64 3.77 1.1s6.27 1.14 8.84 1.34a9.87 9.87 0 0 0 4.76-.46c.93-.38 1.54-.86 1.5-1.41s-.75-1.17-.2-2.34 2.37-2.89 6.22-6.72 9.72-9.75 13.19-13a25 25 0 0 1 2.43-2.1c.79-.57.76-.65-.36-.65a5 5 0 0 1-2.13-.53c-1.64-.74-1.54-2.25-1.72-3.77a.35.35 0 1 1 .7-.08c.16 1.31.31 2.34 1.6 2.92 2.17 1 5.86.25 8.13-.05 4.13-.54 11.36-1.15 20.21-1.81s19.32-1.39 24.66-1.73 5.54-.29 7.24-1.46a74.05 74.05 0 0 1 10.9-6.48c6-3 14.77-6.53 19.9-8.63s6.64-2.75 7.84-3.4a10.51 10.51 0 0 0 2.56-1.85c.47-.54.54-1-14.2.77zm-123.23 48.43l9.32 1.15a1.11 1.11 0 1 1-.27 2.21l-9.32-1.15a1.11 1.11 0 1 1 .27-2.21zm30.03 2.87a32.64 32.64 0 0 1 4.92 1.09c2.09.64 1.72.67 3.76 0 2.67-.89 5.92-1.6 8.58-2.46l-4.69-1.3c-2.37-.65-4.45-1.22-6-1.6a16.29 16.29 0 0 0-2.95-.58 1.79 1.79 0 0 0-1.22.39 10.34 10.34 0 0 0-1.38 1.28c-.84 1-3.01 2.94-1.02 3.18zM95.89 386.43l7.14 3.95a.36.36 0 0 1 .13.51l-.9 1.45a.42.42 0 0 1-.54.14l-7.13-4a.35.35 0 0 1-.13-.5l.9-1.46a.41.41 0 0 1 .53-.09z" class="cls-2" transform="translate(-73.67 -136.7)"/><path d="M446.39 237.11c7.44 0 13.5-5 13.5-11.06S453.83 215 446.39 215s-13.5 5-13.5 11.07 6.11 11.04 13.5 11.04z" class="cls-1" transform="translate(-73.67 -136.7)"/><ellipse cx="428.59" cy="106.79" rx="9.81" ry="7.94" fill="#000001"/><path d="M145.58 325.17l3.8 1.13a1.49 1.49 0 0 1 .42 2.48l-7.71 7a2.57 2.57 0 0 1-2.58.19l-3.06-1.84a1.54 1.54 0 0 1-.2-2.41l7.54-6.4c.59-.51 1.14-.32 1.79-.15z" class="cls-1" transform="translate(-73.67 -136.7)"/></g><path d="M322.83 196.26l-14.3 24.85-4.53-1.28-2.44-.67 13.06-22.23q4.08-.36 8.21-.67zm-14.65 25.46l-.13.22c-2.13.67-4.59 1.25-6.81 1.9v-4l2.5.68zm305.65 51.88l20.88-26.6 10.73 8.43-18.23 23.3-.19.36a109.39 109.39 0 0 0-13.26-5.56zm-440.52 51.92l7.75-.25c11-8.36 22-16.71 34-24.67s25.09-15.52 36.73-21.9 21.84-11.56 32.05-16.75c2.92-.41 5.83-.83 9-1.08s6.71-.33 8.9-.59 3.06-.7 20.54-7.92 51.62-21.22 85.72-35.21a6.29 6.29 0 0 0-1.28-3.74 31.93 31.93 0 0 0-4.66-4.88c-1.35-1.14-1.85-1.26-12.41 2.67s-31.19 11.94-49.85 19.45-35.38 14.53-51.83 22.15-32.63 15.82-44.9 22.45a272.1 272.1 0 0 0-30.15 18.39c-9.52 6.73-20.21 15.15-27 20.74s-9.72 8.37-12.61 11.14zm302.53-186q-5.19 1.22-10.16 2.66c2.84.86 5.35 1.68 6.93 2.36 2.37 1 2.62 1.69 3.61 5.69s2.71 11.32 3.59 15.1c.31 1.33.51 2.23.65 2.84l7.43-1.64a4.37 4.37 0 0 1 1-1.57c-.13-.59-.35-1.58-.75-3.31-.87-3.78-2.6-11.1-3.59-15.1s-1.24-4.68-3.61-5.69c-1.06-.46-2.56-1-4.29-1.54zm83.68 6.28l-2.66.74c-2.7.71-6.34 1.69-10.32 2.82 3.36.72 6.62 1.43 8.54 2.08s2.59 1.33 3.15 3a61.68 61.68 0 0 1 1.92 8.73c.75 4.42 1.65 10.58 2.07 13.67.32 2.38.36 2.94.37 3.11 2.86-.66 5.73-1.32 8.61-2-.05-.49-.15-1.39-.36-3.08-.46-3.61-1.43-10.83-2.22-15.78a61.05 61.05 0 0 0-2-9.25c-.56-1.65-1.09-2.27-3.15-3-.97-.31-2.36-.67-3.95-1.04zm53.7 130.93l-1.88 9.74a128 128 0 0 1 12 5l2.13-9.36c-3.68-1.75-8.3-3.85-12.25-5.38z" transform="translate(-73.67 -136.7)" fill-rule="evenodd" class="cls-0" id="YELLOW_STRIPE" data-name="YELLOW STRIPE"/><g id="PURPLE"><path d="M375.19 252.15c14.19 13 37.37 17.19 58 17.33l-.06-3.07c0-.78-.25-1.8.23-2.47a2.22 2.22 0 0 1 1.93-.71 125.29 125.29 0 0 0 30-4.2 3 3 0 0 1 3 1.62l2.47 4.19a38.93 38.93 0 0 0 4.05-1.45c.6-.27 1.12-.54 1.23-1.2a2.94 2.94 0 0 0-1.08-2.22l-9.75-12.4c-1.7-2.16-1.48-2.16-3.36-1.69-23.27 5.85-43.16 6.83-59.89-3.15-2.18-1.29-3.6-1.56-5.74-.48-6.22 3.08-14.71 7.07-21.03 9.9z" transform="translate(-73.67 -136.7)" fill="url(#ChangeName)" fill-rule="evenodd"/><path d="M446.42 236.1c6.92 0 12.57-4.55 12.57-10.12s-5.65-10.13-12.57-10.13-12.56 4.55-12.56 10.15 5.64 10.1 12.56 10.1zm55.87 14.4c4.94 0 9-3.18 9-7.09s-4-7.08-9-7.08-9 3.18-9 7.08 4.07 7.09 9 7.09zm146.08 61.95l-9-4.79c-2.87-1.53-2.94-7.16-3-10.3a87.31 87.31 0 0 1 .71-10.8c.36-1.73-.14-2.09-.81-2.48-11.63-6.66-23-11.83-36.41-13.95a1.87 1.87 0 0 0-1.81.69c-2.16 2.18-5.11 4.92-6.61 6.87a4 4 0 0 0-1 2.22c0 .89-.33.73-1.34.52-25.73-4.19-48.82-3.33-72.55 4.88-2.71 1-5.36.85-7.15-1.3-1-1.24-5.05-4.9-5.07-6.18-.06-4.11 1.4-5 4.47-7.31 5.81-4.36 11.58-8.61 17.2-13.24l.37-.31.39-.33c1.07-.89 2.13-1.79 3.19-2.7q6.63-5.73 13.1-11.64 10.13-9.21 20-18.63c3.65-3.46 6.7-6.11 10.35-9.57 3.2-3 5.23-3.83 9.44-2.09 13.26 5.45 24.55 13.94 35.85 22.61 13 10 25.9 20.18 38.78 30.35 6 4.72 8.44 11.1 5 18.15zM623.91 202.4l69.3 56.7a15.07 15.07 0 0 1 .2-3.83c.23-1.08.7-1.77.49-2.67s-2.93-7.19-2.93-7.19l-52.63-44.26s-4.1.67-6.09-.08a18.93 18.93 0 0 1-2.23-.91zm18.16-2.02l1.84 1.51-2 1.2-3-2.53 3.17-.18zm2.43 2l-2 1.21 4.1 3.41 2.07-1.24-4.17-3.4zm4.75 3.87l4.7 3.83-2.15 1.3-4.63-3.88 2.08-1.25zm5.29 4.31l-2.16 1.3 5.29 4.43 1.82-1.7-5-4zm5.51 4.49l5.79 4.71-2 1.69-5.63-4.71 1.83-1.69zm6.34 5.16l-2 1.71 6.42 5.37 2.08-1.78-6.51-5.3zm7.07 5.76l5 4.05-1.81 2.13-5.25-4.4 2.09-1.78zm5.52 4.49l-1.81 2.14 5.63 4.71 1.88-2.21-5.7-4.64zm6.25 5.09l3.94 3.21-1.92 2.24-3.91-3.27 1.89-2.22zm4.24 4l-1.67 2 3.56 3zm-295.78-57.64l4.19-1.4c-.09-.82-.17-2.93-.16-3.71-.76.41-3.94 1.75-4.75 2.18-1 .52-4 2-2.3 3.17.63.46 2.39-.04 3.02-.24zm7.08 18.33l3.6-.79c.64-.14.79-.24 1.3.18 1.36 1.07 3 2.45 4.57 3.84s2.56 2.12 3.67 3.2c.93.91 1.45 1.2.44 1.57l-3.69 1.37c-1.51.56-1.92.64-3.1-.48l-7.82-7.28c-1.12-1.06-.4-1.26 1.03-1.61z" class="cls-8" transform="translate(-73.67 -136.7)"/><path d="M278.39 221.31a42.41 42.41 0 0 0 5.14 2.25 4.19 4.19 0 0 0 2.84.22 11.93 11.93 0 0 1 2-.69c1.19-.19 1 0 1.58-1.1.12-.21.26-.43.4-.65a15.09 15.09 0 0 1 1.4-1.81 10.71 10.71 0 0 1 1.49-1.38 2.39 2.39 0 0 1 1.65-.52 16.3 16.3 0 0 1 3.1.59c1.47.38 3.57.95 6 1.61l5.06 1.41 1.28-.4q11.85-3.75 23.77-7.28c1.66-.49 1-.67 1.84-2.12 2.34-3.89 11.66-12.12 16.19-15.83 2.83-2.31.27-1.42-3.38-1.19-8.21.52-14.89 1-23.1 1.63q-5.94.44-11.86.95c-2.76.24-4.39.35-7.13.71-3.94.52-4 0-6.77 2.06a25.74 25.74 0 0 0-2.3 2c-4.49 4.16-8.81 8.61-13.16 12.93-1.44 1.43-2.91 2.86-4.32 4.33a10.24 10.24 0 0 0-1.63 2 .51.51 0 0 0-.09.28z" transform="translate(-73.67 -136.7)" fill="url(#ChangeName-4)" fill-rule="evenodd"/><path d="M145.35 326l3.8 1.13c.42.13.39.83.1 1.09l-7.7 7a1.87 1.87 0 0 1-1.62.09l-3.06-1.84a.72.72 0 0 1-.1-1.09l7.55-6.39c.29-.31.61-.16 1.03.01z" transform="translate(-73.67 -136.7)" fill="url(#ChangeName-5)" fill-rule="evenodd"/><path d="M142 320.93a29.42 29.42 0 0 0 2.14-4.13 8 8 0 0 1 2.4-4c1.92-1.91 5.72-4.78 12-9.54l23.9-18.07c-11.26 9.76-22.52 19.53-29.27 25.49s-8.94 8.09-11.17 10.25z" transform="translate(-73.67 -136.7)" fill="url(#ChangeName-6)" fill-rule="evenodd"/><path d="M90.81 436.54a43.31 43.31 0 0 1 2.48-5.73c3.19-6.33 9.11-16.13 14.78-24.95A262.27 262.27 0 0 1 125.82 381a253.47 253.47 0 0 1 21.6-23.3 173.83 173.83 0 0 1 20-16.26c6.69-4.71 13.77-9.26 21.73-14.15s16.79-10.15 26.6-15.79 20.61-11.69 29.69-16.43 16.44-8.17 23.15-11.21 12.76-5.69 16.15-7.09 4.14-1.55 6.33-1.21a56.36 56.36 0 0 1 7.82 1.82c2 .68 2.39 1.22 2.95 2.6a8.65 8.65 0 0 1 .78 2.66c-2.57 1.78-1.28 3.69-3.81 7.62-1.17 1.83-3.21 2.58-5.44 3.49C261 307 233.67 324.9 211.36 355.4c-2.45 3.36-4.36 6.67-7.46 8.53-2.35 1.4-2.45 1.28-8.44 2s-16.66 4.07-24.26 7.61C146.39 385 127.44 408.42 109.51 433a7 7 0 0 1-5.1 3l-11.41.5c-.85.04-1.56.06-2.19.04z" transform="translate(-73.67 -136.7)" fill="url(#ChangeName-7)" fill-rule="evenodd"/><path d="M472.94 187.16c-2.57 1-5.24 1.68-7.78 2.68-1.23.49-3.49 1.44-4 2.8a1.93 1.93 0 0 0-.09.89c.47 4 6.58 1.18 9.3.32a39.73 39.73 0 0 1 4.49-1.15 2.7 2.7 0 0 1-.26-1 6.52 6.52 0 0 1 .87-4 17.06 17.06 0 0 1 2.3-2.72 31.6 31.6 0 0 1-4.83 2.18z" class="cls-8" transform="translate(-73.67 -136.7)"/></g><g id="SHADOW"><path d="M466.65 214.61a14.63 14.63 0 0 0 9.28 3.15c5.25-.07 17.23-3.79 30.13-7.81l7.81-2.41c2.59-.79 15.72-4.87 19.3-6 0 0-2.92 1.64-19 6.78-2.4.73-5.13 1.58-7.81 2.41-13 4-25 7.78-30.37 7.84a15.49 15.49 0 0 1-9.76-3.23c-1.09-.8-.35-1.34.42-.73z" class="cls-1" transform="translate(-73.67 -136.7)"/><path d="M423.39 173.32a4.85 4.85 0 0 1 3.75 2 4.74 4.74 0 0 0-3-1.07c-3 0-5.51 3-5.51 6.77a5.83 5.83 0 0 0 0 .59l-.74.15a10 10 0 0 1-.06-1.11c.06-4.07 2.52-7.33 5.56-7.33z" class="cls-13" transform="translate(-73.67 -136.7)"/><path d="M424.17 175c2.18 0 4 1.9 4.53 4.46l-9.2 1.91v-.42c-.01-3.27 2.08-5.95 4.67-5.95zm11.94-2.88c2.3 0 4.21 2.1 4.6 4.87l-9.23 1.91a7.58 7.58 0 0 1-.05-.84c0-3.28 2.1-5.94 4.68-5.94z" class="cls-13" transform="translate(-73.67 -136.7)"/><path d="M435.34 170.41a4.85 4.85 0 0 1 3.75 2 4.78 4.78 0 0 0-3-1.08c-3 0-5.5 3-5.5 6.77a8.43 8.43 0 0 0 .06 1l-.72.15a10.75 10.75 0 0 1-.12-1.52c.02-4.06 2.49-7.32 5.53-7.32z" class="cls-13" transform="translate(-73.67 -136.7)"/><path d="M572.69 186.74c5.49 0 10.15 3.26 13.62 6.86a27.5 27.5 0 0 0-15.77-5.43 25.74 25.74 0 0 0-5.09.48 13.31 13.31 0 0 1 7.24-1.91zm25.97 7.37a8.08 8.08 0 0 1-5.72 2.2 8.34 8.34 0 0 1-5.08-1.63 13.93 13.93 0 0 0 4.76.8 13.1 13.1 0 0 0 6.04-1.37z" class="cls-1" transform="translate(-73.67 -136.7)"/><path d="M599.71 271.05a83.24 83.24 0 0 1 11.57 2.69c-.16.37-.31.75-.46 1.13a75.73 75.73 0 0 0-11.5-2.66.61.61 0 0 1-.39-.81.63.63 0 0 1 .78-.35zm12.77 3.07a97.88 97.88 0 0 1 11 4.31c-.17.39-.34.79-.5 1.19a101.36 101.36 0 0 0-10.98-4.37l.48-1.13zm12.09 4.88c3.87 1.83 7.6 3.84 11.24 5.93a.68.68 0 0 1 .39.8.56.56 0 0 1-.78.35c-3.73-2-7.48-4-11.36-5.89z" class="cls-13" transform="translate(-73.67 -136.7)"/><path d="M657.6 322.63l12.73 6.82a1.38 1.38 0 0 1-1.31 2.44l-12.72-6.83a1.38 1.38 0 1 1 1.3-2.43z" class="cls-1" transform="translate(-73.67 -136.7)"/><path d="M657.36 323.07l12.73 6.83a.87.87 0 0 1 .35 1.18.88.88 0 0 1-1.18.36l-12.72-6.83a.87.87 0 0 1-.36-1.18.89.89 0 0 1 1.18-.36z" class="cls-13" transform="translate(-73.67 -136.7)"/><path d="M680.37 276c-1.46 1.49-2.88 2.35-6.68 2.35s-8.23-5.22-8.23-8.42v-.09c.83 3.27 5.67 7.31 9.17 7.31s4.17-.38 5.74-1.15z" class="cls-1" transform="translate(-73.67 -136.7)"/><path d="M402.34 236.06L411 228a.71.71 0 0 1 1 0 .71.71 0 0 1 0 1l-8.62 8.12a.73.73 0 0 1-1 0 .73.73 0 0 1-.04-1.06zm20.83-2.74l10.06 5.23a.7.7 0 0 1 .3.93.69.69 0 0 1-.93.29l-10.07-5.23a.7.7 0 0 1-.29-.93.7.7 0 0 1 .93-.29z" class="cls-13" transform="translate(-73.67 -136.7)"/><path d="M436.82 201.44l5.25-.74 1.64-.24 1.52-.21a1.32 1.32 0 0 1 .56 0c.56-.09 1.13-.21 1.7-.36 4.66-1.22 8.09-4 8.36-6.51.3 2.7-3.3 5.83-8.36 7.14l-.9.22a1.55 1.55 0 0 1 .34.76 1.46 1.46 0 0 1-.06.66c4.52.39 7.88 2.14 8.21 4.45a13.2 13.2 0 0 0-7.68-3 27.8 27.8 0 0 0-4.09-.06l-5.44.77a18.38 18.38 0 0 0-4.64 1.67 8.84 8.84 0 0 1 2.74-2 1.54 1.54 0 0 1-.43-.86 1.52 1.52 0 0 1 1.28-1.69z" class="cls-1" transform="translate(-73.67 -136.7)"/><path d="M437 202.42l8.41-1.19a.51.51 0 0 1 .57.44.51.51 0 0 1-.43.58l-8.4 1.19a.52.52 0 0 1-.58-.44.51.51 0 0 1 .43-.58zm71.14-41.21h.17l3.4.07-.94-5.25-3.4.88.77 4.3zm2.5-5.87l-3.4.88-1.13-6.22 3.4-.88 1.13 6.25zm-1.25-6.94l-.91-5-3.4.88.91 5 3.4-.88zm-1-5.74l-3.41.89a3.81 3.81 0 0 0-.46-1.11 4.15 4.15 0 0 0-1-1.09c-.55-.39-5.32-1.21-10.19-2l8.69-.86a7.07 7.07 0 0 1 4.82.95 3.46 3.46 0 0 1 1.43 2.28z" class="cls-13" transform="translate(-73.67 -136.7)"/><path d="M491.15 139.77l5.1 22.69h.27a44.56 44.56 0 0 1 10.9-1.25l-3.1-17.21a3.42 3.42 0 0 0-.44-1.16 3.14 3.14 0 0 0-.85-.89c-.53-.4-6.47-1.36-11.88-2.18zm19.69 46.43a4.51 4.51 0 0 1 3.61 1.7 4.43 4.43 0 0 0-2.84-.89c-2.86.13-5 3.15-4.87 6.74a7.43 7.43 0 0 0 .1 1l-.66.18a8.7 8.7 0 0 1-.18-1.46c-.18-3.9 2-7.14 4.84-7.27z" class="cls-13" transform="translate(-73.67 -136.7)"/><path d="M511.64 187.8c2.16-.11 4 1.82 4.54 4.46l-8.58 2.26a7.43 7.43 0 0 1-.09-.81c-.14-3.15 1.71-5.8 4.13-5.91zm-11.25 2.99c2.16-.11 4 1.82 4.54 4.46l-8.58 2.25a7 7 0 0 1-.09-.8c-.14-3.15 1.74-5.8 4.13-5.91z" class="cls-13" transform="translate(-73.67 -136.7)"/><path d="M499.61 189.27a4.55 4.55 0 0 1 3.61 1.71 4.5 4.5 0 0 0-2.84-.9c-2.86.14-5 3.16-4.87 6.74a7.58 7.58 0 0 0 .1 1l-.67.18a11.42 11.42 0 0 1-.18-1.46c-.17-3.89 2-7.13 4.85-7.27zm39.69-3.73c-.19-5.33-1.17-10.49-3.78-14.73-.27-.44.07-1 .54-1.26.22-.12.37 0 .5.19 3 4.48 3.71 10.22 3.91 15.51zm53.7-12.18c-3 .45-5.93 1-9.06 1.65l-.53-8.26a3.08 3.08 0 0 0-.36-1.35 2.36 2.36 0 0 0-.88-.85 8.53 8.53 0 0 0-2.71 0l-.35-2.53q-.54-3.9-1.12-7.79c-.26-1.76-.6-2.86-.85-4.16s-.77-2.88-.87-3.53v-.09c5.26.82 10.76 1.74 11.26 2.1a3.24 3.24 0 0 1 .85.88 3.47 3.47 0 0 1 .44 1.17l4.18 22.76zm-9.76 1.8l-.52-8.08a2.51 2.51 0 0 0-.3-1.11 1.88 1.88 0 0 0-.72-.69 6.74 6.74 0 0 0-2.14 0c.48 3.44.94 6.87 1.39 10.31z" class="cls-13" transform="translate(-73.67 -136.7)"/><path d="M577.44 145.88l11.67-.12c1.8 0 2.94 1.46 3.36 3.21l-3.24.65a3.06 3.06 0 0 0-.26-.51 3.87 3.87 0 0 0-1-1.09c-.57-.41-5.79-1.31-10.94-2.12a3.46 3.46 0 0 1 .45 0zm15.18 3.78l.94 4.54-3.26.66-.8-4.33a1.89 1.89 0 0 0 0-.23l3.17-.64zm1.08 5.24l1.36 6.54-3.39.88-1.24-6.76 3.27-.66zm1.5 7.23l-3.4.88 1.27 6.88 3.55-.92-1.42-6.84zm1.56 7.54l.65 3.13c-1.28.13-2.52.29-3.72.46l-.49-2.67zm-91.99 53.69a3.71 3.71 0 0 0-.12-1c-.23-.83-.86-1.46-.89-1.94s.56-.82 3.53-1.92l1-.36 1.73 2.24a1.21 1.21 0 1 0 1.91-1.47l-1.26-1.63 1.83-.65 1.63 2.11a1.21 1.21 0 0 0 1.91-1.47l-1.13-1.47 1.84-.62 1.49 1.92a1.21 1.21 0 0 0 1.91-1.47l-1-1.23c2.28-.68 2.7-.59 3.2-.14a6.42 6.42 0 0 1 1.45 2.11c.25.66.1 1 .32 1.56a8.54 8.54 0 0 0 1.58 2c.8.86 1.83 2 2.76 3 .35.4.69.81 1 1.19a18.84 18.84 0 0 1-2.38 1.24c-1.31.61-3.2 1.47-5.14 2.32s-4 1.74-5.37 2.31a25.59 25.59 0 0 1-2.69 1 1.43 1.43 0 0 1-.9 0 3.67 3.67 0 0 1-.92-.51c-.4-.29-.89-.69-1.54-1.27s-1.35-1.28-2.2-2.16c-1-1-2.69-2.78-3.56-3.71zm11.78 5.64h.21v-.69a2.27 2.27 0 0 1 .1-.53.68.68 0 0 1 .35-.35c.25-.14.68-.32 1.42-.63l2.84-1.14 2.92-1.13a13.08 13.08 0 0 1 1.32-.47h.16a4.63 4.63 0 0 1 .06.67v.06h.22v-.06a3.11 3.11 0 0 0-.08-.76c0-.16-.1-.23-.41-.17s-.6.22-1.33.5l-2.93 1.14-2.84 1.14a13.52 13.52 0 0 0-1.45.65.83.83 0 0 0-.44.46 2.3 2.3 0 0 0-.11.58v.7zm-10.68-8l2.57 2.61c.81.83 1.56 1.61 2.19 2.3s1.1 1.25 1.48 1.73a10.45 10.45 0 0 1 .79 1.18 2 2 0 0 1 .26 1.27.29.29 0 0 0 .29.28.28.28 0 0 0 .28-.28 2.48 2.48 0 0 0-.33-1.55 9.59 9.59 0 0 0-.85-1.27c-.38-.49-.88-1.08-1.51-1.76s-1.37-1.47-2.19-2.31-1.7-1.73-2.58-2.61a.28.28 0 0 0-.4 0 .28.28 0 0 0 0 .4zm8.51 3.18a1.19 1.19 0 0 0-.55 1.6 1.22 1.22 0 0 0 1.61.58l8.42-3.81a1.2 1.2 0 0 0 .56-1.61 1.25 1.25 0 0 0-1.62-.58z" class="cls-13" transform="translate(-73.67 -136.7)"/><path d="M504.73 225v-.64c.91 1 2.21 2.31 3.08 3.21s1.69 1.7 2.24 2.19a20.28 20.28 0 0 0 1.6 1.31 4.16 4.16 0 0 0 1.1.61 2 2 0 0 0 1.3 0 11.36 11.36 0 0 0 1.41-.47l.88 1.77c-2.22.9-2.67 1-3.21.77a8.91 8.91 0 0 1-2.58-1.85c-1.32-1.18-3.3-3.05-4.42-4.28s-1.37-1.81-1.41-2.62zm11.4 5.95l.88 1.76 1.72-.73-.87-1.75-1 .42-.72.3zm2.39-1l3.72-1.61 3.52-1.58.86 1.74c-2 .94-4.88 2.19-7.23 3.2l-.87-1.75zm7.89-3.48l.86 1.73.23-.11c.59-.27 1.06-.5 1.45-.7l-.85-1.72-.71.34-1 .46zm2.33-1.11a10.72 10.72 0 0 0 1.15-.66 4.31 4.31 0 0 1 .57 1.06c.13.46 0 .76-.88 1.28zm-14.14-.75l8.4-3.8a.75.75 0 0 1 1 .34.73.73 0 0 1-.35 1l-8.4 3.81a.74.74 0 0 1-1-.35.73.73 0 0 1 .35-1zm-4.43-7.18l1.35 1.75a.72.72 0 0 1-.13 1 .73.73 0 0 1-1-.14l-1.67-2.04zm4.23-1.49l1.23 1.6a.72.72 0 0 1-.13 1 .72.72 0 0 1-1-.13l-1.54-2zm4.28-1.41l1.06 1.37a.72.72 0 0 1-.13 1 .72.72 0 0 1-1-.13L517.2 215l1.28-.41zm103.52-5.78a58.56 58.56 0 0 0-4.89-4.93c-2.48-2.38-6-5.81-7.71-7.52-1.43-1.41-1.69-1.66-2.58-1.31l6.43 6.07.14.15a1.47 1.47 0 0 1 .28.92 1.39 1.39 0 0 1-.37.9 1 1 0 0 1-.15.13l-4.8 3.7a1.62 1.62 0 0 1-1 .34 1.5 1.5 0 0 1-1-.44c-2.54-2.5-5.31-5.06-7.75-7.63a1.84 1.84 0 0 0-.9 1.27v.09a2.5 2.5 0 0 1 1.64 2.53 2.59 2.59 0 0 1-1.35 2.42v.29a3.8 3.8 0 0 1 2.47.95c1.19 1 2.9 2.48 4.62 3.92s3.63 3 5 4.18 2 1.64 2.49 2a2.48 2.48 0 0 0 .86.47 2.75 2.75 0 0 0 .83.09 2.67 2.67 0 0 0 .84-.17 4.87 4.87 0 0 0 1.11-.61c.46-.3 1-.74 1.78-1.35l.64-.51a32.52 32.52 0 0 0 3.56-3.13 2.23 2.23 0 0 0-.11-2.75zm-7.93 4.32l6.17-4.51a.14.14 0 0 1 .2 0 .16.16 0 0 1 0 .21l-6.17 4.5a.14.14 0 0 1-.2 0 .14.14 0 0 1 0-.2zm.74.45l5.24-3.82c.32-.24.89-.22 1 .16l.27.81c.13.38.16.77-.16 1l-5.16 3.93a.68.68 0 0 1-1-.16l-.35-.91a.81.81 0 0 1 .16-1zm-3.24-4l5.24-3.82a.73.73 0 0 1 1 .15l.58.8a.74.74 0 0 1-.16 1l-5.25 3.82a.71.71 0 0 1-1-.16l-.58-.79a.72.72 0 0 1 .16-1zM600.52 203a.28.28 0 1 1 .38-.42L612.11 213a.28.28 0 0 1 0 .4.28.28 0 0 1-.4 0L600.52 203zm5.93-7.79l6.61 6.24.08.09a.88.88 0 0 1 .17.55.85.85 0 0 1-.22.53.27.27 0 0 1-.08.07l-.28.22-7.65-7.06 1.24-.57.13-.06zm-1.93.89l7.76 7.16-2.67 2.05-8.29-7.65c1-.5 2.19-1.06 3.22-1.54zm-3.76 1.81l8.39 7.75-.95.73a1 1 0 0 1-.66.22 1 1 0 0 1-.62-.27l-7.71-7.59.79-.45z" class="cls-13" transform="translate(-73.67 -136.7)"/><path d="M599.86 210.21c2.36 2 7.07 6 9.63 8.1s3 2.38 3.48 2.52a3.07 3.07 0 0 0 1.88-.09 11.56 11.56 0 0 0 3-2 53 53 0 0 0 4.94-4.37c1.13-1.24 1.11-1.8.91-2.6a8.14 8.14 0 0 0-.35-1.06 2.33 2.33 0 0 1-.52 1.29 31.7 31.7 0 0 1-3.64 3.2l-.64.51c-.76.61-1.34 1.06-1.82 1.39a5.74 5.74 0 0 1-1.27.68 3.46 3.46 0 0 1-1.05.22 3.42 3.42 0 0 1-1-.12 3.18 3.18 0 0 1-1.1-.57c-.49-.35-1.23-.95-2.52-2s-3.11-2.58-5-4.18-3.51-3-4.63-3.92c-1.32-1.14-4.67-.76-.3 3zm-2.08-9.21a2 2 0 0 1 1.16 2 2.21 2.21 0 0 1-.86 1.85c0-.56-.11-1.15-.17-1.73a16.45 16.45 0 0 1-.13-2.12z" class="cls-13" transform="translate(-73.67 -136.7)"/><rect width="7.03" height="1.53" x="611.59" y="207.86" class="cls-14" rx=".27" ry=".27" transform="rotate(-36.11 368.57 253.28)"/><path d="M615.27 213.89l5.25-3.82c.12-.09.33-.09.38.05l.27.82c.05.14.06.28-.06.37l-5.11 3.93c-.12.09-.33.08-.38-.06l-.35-.91a.3.3 0 0 1 0-.38zm-5.56-20.14a1.19 1.19 0 0 1 .93 1.93l-.22-.22a10.64 10.64 0 0 0-1.54-1.38 1.24 1.24 0 0 1 .83-.33z" class="cls-13" transform="translate(-73.67 -136.7)"/><path d="M405.17 196.25l13.5 11.29a.67.67 0 0 1 .09 1 .68.68 0 0 1-.95.08l-13.5-11.29a.68.68 0 0 1-.09-.95.68.68 0 0 1 .95-.13z" class="cls-15" transform="translate(-73.67 -136.7)"/><path d="M261.12 220.84l9.32 1.15a.58.58 0 0 1 .5.65.58.58 0 0 1-.65.5L261 222a.58.58 0 0 1-.51-.65.58.58 0 0 1 .63-.51zm-174.4 214.4c-.11-.74-.21-1.51-.24-2.15-.08-1.44.17-2.29 1.07-4.43s2.43-5.54 4.25-9.47 3.94-8.38 5.07-10.83 1.26-2.88 1.22-3.35a6.09 6.09 0 0 0-.42-1.43 3.18 3.18 0 0 1-.28-1.43 8 8 0 0 1 .8-2.46c.58-1.34 1.53-3.43 2-4.64s.55-1.55.28-1.94a6.65 6.65 0 0 0-1.8-1.42 35.91 35.91 0 0 0-3.38-2c-.85-.36-1.17-.28-1.63.26-.72.84-2.54 4.67-3.39 6-.45.73-.61.92-.88 1a2.46 2.46 0 0 0-1 .4c-.34.3-.63.87-1.88 3.5s-3.49 7.32-5.14 11-2.75 6.45-3.43 8.53a23.31 23.31 0 0 0-1.1 4.83 5.16 5.16 0 0 0 .76 3.79 49.9 49.9 0 0 0 8.25 5.75z" class="cls-13" transform="translate(-73.67 -136.7)"/><path d="M687.11 269.74a.35.35 0 0 1 .24-.44.35.35 0 0 1 .44.24l.23.79a1.87 1.87 0 0 1-.15 1.4 1.84 1.84 0 0 1-1.1.88l-10 2.92a1.88 1.88 0 0 1-1.4-.15 1.82 1.82 0 0 1-.89-1.1l-.24-.79a.37.37 0 0 1 .24-.44.36.36 0 0 1 .44.24l.24.79a1.09 1.09 0 0 0 .55.67 1.14 1.14 0 0 0 .87.1l1.6-.47h-.07a1.23 1.23 0 0 1-.57-.71l-.13-.44a1.22 1.22 0 0 1 0-.46 1.08 1.08 0 0 1 .14-.44 1.12 1.12 0 0 1 .29-.36 1.25 1.25 0 0 1 .41-.22l5.55-1.63a1.15 1.15 0 0 1 .52 0 1.22 1.22 0 0 1 .48.18 1.33 1.33 0 0 1 .29.29 1.24 1.24 0 0 1 .19.36l.13.45a1.22 1.22 0 0 1-.1.9v.08l1.33-.39a1.16 1.16 0 0 0 .68-.54 1.11 1.11 0 0 0 .09-.86z" class="cls-1" transform="translate(-73.67 -136.7)"/><path d="M483 263.29l10.88 9.49A.87.87 0 0 1 494 274a.88.88 0 0 1-1.23.09l-10.88-9.49a.88.88 0 0 1-.08-1.24.87.87 0 0 1 1.19-.07z" class="cls-15" transform="translate(-73.67 -136.7)"/><path d="M316 241.43c1.29 1.8 3.76 4.84 5.27 6.6.42.49.74.74 2 .49a76.29 76.29 0 0 0 9.21-3.19c10.09-3.86 29.77-11.64 49.48-19.43l.13-.05a.57.57 0 0 1 .73.32.57.57 0 0 1-.32.74l-.13.05c-19.68 7.78-39.35 15.55-49.49 19.43a76.22 76.22 0 0 1-9.38 3.24c-1.85.37-2.37 0-3.07-.87a39.31 39.31 0 0 1-4.43-7.33zM116.33 394.14a.35.35 0 0 1-.5.06.36.36 0 0 1-.08-.48 166.4 166.4 0 0 1 13.78-18.06c3-3.41 6.6-7.12 10.06-10.58s6.78-6.66 9.31-9.07 4.26-4 5.5-5.11a19.79 19.79 0 0 1 2.66-2.07 4 4 0 0 1 1.08-.49 1.44 1.44 0 0 1 .7 0 .77.77 0 0 1 .51.35 1.08 1.08 0 0 1 .08.19c.08.28 0 .6-.38 1.11a19.24 19.24 0 0 1-1.83 2c-1.85 1.8-5.24 4.91-8.64 8l-.05.05a.34.34 0 0 1-.49 0 .35.35 0 0 1 0-.5c3.37-3.09 6.73-6.18 8.62-8a20.55 20.55 0 0 0 1.77-1.88c.23-.3.28-.43.26-.5h-.05a.85.85 0 0 0-.37 0 3.77 3.77 0 0 0-.9.42 19.14 19.14 0 0 0-2.56 2c-1.24 1.09-3 2.7-5.48 5.09s-5.85 5.6-9.29 9.05-7 7.15-10 10.55a166.27 166.27 0 0 0-13.72 18z" class="cls-1" transform="translate(-73.67 -136.7)"/><rect width="6.29" height=".97" x="678.26" y="271.78" class="cls-14" rx=".25" ry=".25" transform="rotate(-16.4 170.469 459.606)"/><path d="M107.05 418.08a1.52 1.52 0 0 1 .86 1.91l-3.68 10.13a1.46 1.46 0 0 1-2 .82 1.52 1.52 0 0 1-.86-1.91l3.68-10.13a1.46 1.46 0 0 1 2-.82z" class="cls-1" transform="translate(-73.67 -136.7)"/><path d="M106.71 418.9a.64.64 0 0 1 .36.79l-3.68 10.13a.56.56 0 0 1-.76.31.65.65 0 0 1-.37-.8l3.68-10.12a.57.57 0 0 1 .77-.31z" class="cls-13" transform="translate(-73.67 -136.7)"/><path d="M110 411.37a7.31 7.31 0 0 0-.64 1.91 1.92 1.92 0 0 0 .17 1.1 10.68 10.68 0 0 0 .58 1.08A10 10 0 0 1 111 417a3.34 3.34 0 0 1 .16 1.65 13.94 13.94 0 0 1-.78 2.72c-.45 1.2-1.11 2.81-1.88 4.63s-1.63 3.81-2.5 5.81a43.55 43.55 0 0 1 2-6c.76-1.79 1.42-3.39 1.87-4.61a12.78 12.78 0 0 0 .75-2.6 2.7 2.7 0 0 0-.14-1.37 8.51 8.51 0 0 0-.75-1.47 10.66 10.66 0 0 1-.61-1.14 2.47 2.47 0 0 1-.21-1.39 7.25 7.25 0 0 1 .69-2.08c.59-1.33 3.85-7 4.24-7.86-.73 2.25-3.25 6.85-3.84 8.08zm-4.16-5.49c-.54 0-1.09 0-2.75 3.08-.87 1.62-2 4.06-3.33 6.91s-2.94 6.39-4.37 9.66c.51-3.73 3-8.47 3.73-9.95 1.3-2.86 2.46-5.32 3.35-7 1.86-3.45 2.62-3.45 3.37-3.45z" class="cls-1" transform="translate(-73.67 -136.7)"/></g><g id="WING_CANNON_1" data-name="WING_CANNON_1"><path d="M574.11 328.5c-1.27.76-2.89 2.07-4.44 1.94a3.72 3.72 0 0 1-3.22-3l-2.05-10.75a6.57 6.57 0 0 1 1.15-5.1 10.4 10.4 0 0 1 3.83-2.77c12.27-6.47 24.52-13.23 36.29-20.37a1.23 1.23 0 0 1 .26-.12 11.38 11.38 0 0 1-1.36-1.72 1 1 0 0 1 1.13-1.61c1 .28 1.94.6 2.89.94 7.54 2.73 17 6.46 24.06 10.86a1 1 0 0 1-.39 1.87c-1.1.16-3.91.59-4.7-.26a2.66 2.66 0 0 1-.63-1.51z" class="cls-1" transform="translate(-73.67 -136.7)"/><path d="M577.92 305.41l12.85-6.83a.85.85 0 0 0 .5.5l.42.15a.24.24 0 0 1 .09.06l1.39 2.28a.93.93 0 0 0 1.27.32l1.4-.85c6.2-3.76 12.51-7.48 18.59-11.16a.61.61 0 0 0 .28-.49 134.52 134.52 0 0 1 12.86 6l-25.64 15.33a25.23 25.23 0 0 0-.49-2.5c-.32-1.19-.72-1.74-1.16-2s-.93-.11-3.14 1c-1.88 1-5 2.73-7.46 4.06l-1.22.67c-2.56 1.36-3.73 1.89-4.5 1.92s-1.11-.45-1.49-1.84c-.22-.79-.45-1.86-.68-2.88-.18-.79-.37-1.54-.55-2.11-.42-1.3-.83-1.59-1.92-1.66a12.75 12.75 0 0 0-1.4.03z" class="cls-8" transform="translate(-73.67 -136.7)"/><path d="M569.85 309.69l4.66-2.47 1.23-.66a5.75 5.75 0 0 1 3.11-.34c.84.06 1.41 1 1.82 2.35s.85 3.59 1.23 5 .73 1.87 1.5 1.84 1.94-.55 4.49-1.92 6.48-3.57 8.68-4.72 2.7-1.27 3.14-1.05.84.78 1.12 2c.1.43.19.94.27 1.51l-1.74 1-2 1.19-23.78 14.21c-1.62 1-2.74 1.9-3.84 1.8a2.67 2.67 0 0 1-2.29-2.2l-2.05-10.75a5.52 5.52 0 0 1 1-4.32 9.63 9.63 0 0 1 3.47-2.46zm-2.2 3.08h.05a3.75 3.75 0 0 1 2.37.09 1.9 1.9 0 0 1 .64 1 20.58 20.58 0 0 1 .66 2.49c.51 2.26 1.24 5.75 2 9.25a.35.35 0 0 0 .42.27.35.35 0 0 0 .27-.42c-.73-3.51-1.46-7-2-9.26a22.74 22.74 0 0 0-.68-2.59 2.64 2.64 0 0 0-.91-1.34 4.06 4.06 0 0 0-2.85-.2.34.34 0 0 0-.32.35.35.35 0 0 0 .35.36zm64.46-15.09c-1.08.16-3.48.4-3.8.05a2.25 2.25 0 0 1-.13-2.28c1.36.72 2.66 1.45 3.93 2.23z" class="cls-2" transform="translate(-73.67 -136.7)"/><path d="M575.21 312.86a1.56 1.56 0 0 1 2 1.28l1.12 7.05a2 2 0 0 1-1.32 2.12 1.58 1.58 0 0 1-2-1.28l-1.11-7a1.93 1.93 0 0 1 1.31-2.17z" class="cls-1" transform="translate(-73.67 -136.7)"/><path d="M575.38 313.44a1 1 0 0 1 1.25.79l1.12 7a1.33 1.33 0 0 1-.9 1.44 1 1 0 0 1-1.25-.79l-1.11-7.05a1.33 1.33 0 0 1 .89-1.39z" class="cls-13" transform="translate(-73.67 -136.7)"/><path d="M567 313.9h1.08c.89 0 1.45.75 1.61 1.62l2 10.71c.17.87-.73 1.33-1.62 1.32h-.67c-.93 0-.89-.6-1.13-1.6-.77-3.27-2.18-9-2-11 .03-.85.13-1.03.73-1.05z" class="cls-1" transform="translate(-73.67 -136.7)"/><path d="M566.46 314.49h1.09a1.64 1.64 0 0 1 1.6 1.48l1.7 9.79c.14.8-.74 1.21-1.62 1.2h-.4a2 2 0 0 1-.38 0c-.08-.25-.13-.56-.21-.93.59-.16 1.39-.37 1.27-.95l-1.57-7.24a1.67 1.67 0 0 0-1.61-1.48h-.06a8.45 8.45 0 0 1 0-1.38 4 4 0 0 1 0-.4z" class="cls-13" transform="translate(-73.67 -136.7)"/><path d="M594.88 297.29a.89.89 0 0 0-.31-.21c-.13-.06-.26-.1-.4-.15s-.17-.11-.17-.18a.22.22 0 0 1 .13-.2l1.4-.85a.49.49 0 0 1 .3-.06.89.89 0 0 1 .35.08c.13 0 .27.09.39.15a1.16 1.16 0 0 1 .32.2l1.45 2.38a.35.35 0 0 1-.12.48l-1.4.85a.36.36 0 0 1-.49-.12zm2.65-1.61a1.1 1.1 0 0 0-.31-.2c-.12-.06-.26-.1-.38-.15a.27.27 0 0 1-.18-.19.22.22 0 0 1 .13-.2l1.4-.85a.49.49 0 0 1 .3-.06 1 1 0 0 1 .35.08l.38.15a1.84 1.84 0 0 1 .31.2l1.45 2.39a.36.36 0 0 1-.12.49l-1.4.84a.36.36 0 0 1-.49-.11zm2.66-1.61a2.2 2.2 0 0 0-.3-.19l-.37-.15a.28.28 0 0 1-.18-.18.21.21 0 0 1 .12-.2l1.41-.85a.58.58 0 0 1 .3-.07 1.11 1.11 0 0 1 .36.08l.36.16a1.61 1.61 0 0 1 .31.19l1.46 2.4a.36.36 0 0 1-.12.49l-1.4.85a.36.36 0 0 1-.48-.12zm2.65-1.61a2.16 2.16 0 0 0-.3-.18l-.35-.16q-.16-.08-.18-.18a.19.19 0 0 1 .12-.19c.46-.29.93-.57 1.4-.85a.51.51 0 0 1 .31-.07.82.82 0 0 1 .35.08l.35.15a2.2 2.2 0 0 1 .3.19l1.46 2.42a.36.36 0 0 1-.12.49l-1.4.85a.36.36 0 0 1-.48-.12zm2.66-1.61l-.3-.18-.33-.15a.3.3 0 0 1-.18-.19.19.19 0 0 1 .12-.19l1.4-.85a.62.62 0 0 1 .31-.07.82.82 0 0 1 .35.08 3.36 3.36 0 0 1 .33.16 1.92 1.92 0 0 1 .31.18l1.47 2.43a.35.35 0 0 1-.11.49c-.47.28-.94.56-1.4.85a.36.36 0 0 1-.49-.12zm2.65-1.61a2.91 2.91 0 0 0-.3-.17l-.32-.16a.29.29 0 0 1-.17-.18.18.18 0 0 1 .11-.19l1.4-.85a.63.63 0 0 1 .32-.08h.07l.28.09h.09l.22.12.3.16 1.48 2.44a.37.37 0 0 1-.12.49l-1.4.85a.36.36 0 0 1-.49-.12zm5.98.14l-1.35.82a.36.36 0 0 1-.49-.12l-1.08-1.79c.97.35 1.94.71 2.92 1.09zm-19.9 8.31l1.43 2.37a.35.35 0 0 1-.12.48l-1.39.85a.36.36 0 0 1-.49-.12l-1.44-2.37a.81.81 0 0 0-.32-.21c-.13-.06-.28-.1-.41-.15s-.18-.12-.18-.19a.27.27 0 0 1 .15-.21l1.39-.84a.49.49 0 0 1 .29-.06 1.37 1.37 0 0 1 .35.08l.42.15a1 1 0 0 1 .31.21z" class="cls-17" transform="translate(-73.67 -136.7)"/><path d="M605.42 286c.4.59 1.36 1.88 1.67 1.88a1.51 1.51 0 0 0 1.18-1c-.96-.29-1.9-.6-2.85-.88z" class="cls-2" transform="translate(-73.67 -136.7)"/></g><g id="CENTER_CANNON" data-name="CENTER_CANNON"><path d="M326.49 340.51c-4.28 0-6.4-4.82-6.4-8.51 0-6.59 3.11-7.24 7.55-9.16l9.08-3.91c1.82-.78 4.88-1.79 6.62-.47a1.32 1.32 0 0 1 .49-.38l29.23-13.87a1.55 1.55 0 0 1 0-.43c.37-2.88 2.65-3.59 4.87-4.63l23-10.64c-6.94-6.22-15.12-16.93-15.15-26.6a1.42 1.42 0 0 1 2-1.28c13 6.2 27.13 8.85 41.46 9.14 15 .29 29.54-1 43.94-5.31a1.4 1.4 0 0 1 1.32.26l10.07 8.37c.7.58 2.19 1.46.22 1.87a68.57 68.57 0 0 0-23.14 10.28c-2.77 2-6.92 5.19-12.5 6.17-2.75.48-7.83.76-9.39-.55-.56.29-1.13.57-1.73.86-4.92 2.33-12 5.08-17.92 3.37-1.47.84-33.81 17.12-37 18.71-1.6.8-3 2-4.93 2a5.54 5.54 0 0 1-1.93-.35 1.39 1.39 0 0 1-.9-1.13l-28.13 13.9a2 2 0 0 1-.65.31c0 .08 0 .16-.05.24a6.1 6.1 0 0 1-3.91 4.47L332.42 338c-1.78.82-4.31 2.51-5.93 2.51z" class="cls-1" transform="translate(-73.67 -136.7)"/><path d="M326.5 339.09c2.74 0 5-3.19 5-7.1s-2.24-7.09-5-7.09-5 3.19-5 7.09 2.25 7.1 5 7.1z" class="cls-13" transform="translate(-73.67 -136.7)"/><path d="M326.5 337.86c2.22 0 4-2.64 4-5.87s-1.81-5.86-4-5.86-4 2.63-4 5.86 1.77 5.87 4 5.87z" class="cls-1" transform="translate(-73.67 -136.7)"/><path d="M326.5 337c1.9 0 3.46-2.26 3.46-5s-1.56-5-3.46-5-3.47 2.26-3.47 5 1.56 5 3.47 5z" class="cls-15" transform="translate(-73.67 -136.7)"/><path d="M328.2 324.14l9.08-3.91c1.5-.64 4.09-1.48 5.2-.64s1.67 2.52 2.07 3.57a8.62 8.62 0 0 1 .61 5.35 4.76 4.76 0 0 1-3.11 3.49l-10.23 4.71a15.46 15.46 0 0 0 .38-7.3 8.63 8.63 0 0 0-4-5.27z" class="cls-13" transform="translate(-73.67 -136.7)"/><path d="M344.47 319.39l31.65-15a3.68 3.68 0 0 1 1.9-.46 4 4 0 0 1 2 2.06 5.3 5.3 0 0 1 .77 3.49 1.53 1.53 0 0 1-.76 1l-33.45 16.68a12.94 12.94 0 0 0-2.11-7.77zm66.39-39.17c1.85 7.16 3 9.91 6 12 4.8 3.44 14.26 1.22 20.62-1.79a36.22 36.22 0 0 0 10.81-7.43c-12.98.89-25.55.33-37.43-2.78z" transform="translate(-73.67 -136.7)" fill="url(#ChangeName-8)" fill-rule="evenodd"/><path d="M378.21 301.05c2.21 0 5.14 3 5.14 6.69s-2.3 6.69-5.14 6.69a4.11 4.11 0 0 1-1.43-.26l1.61-1.11c2.41-.14 3.65-3.11 3.65-5.32 0-3.1-1.64-4.92-3.24-5.4a2.11 2.11 0 0 0-2.62.89l-1.68.76c.23-1.83 1.5-2.94 3.71-2.94z" class="cls-2" transform="translate(-73.67 -136.7)"/><path d="M411.32 285.22l-32.76 15.25c3.49.24 5.38 4.09 5.38 7.27a8.92 8.92 0 0 1-1.43 4.82l35.14-17.47-.69-.45a11.88 11.88 0 0 1-1.7-1.47c-1.94-2.02-3.09-5.04-3.94-7.95z" class="cls-2" transform="translate(-73.67 -136.7)"/><path d="M389.65 271.92a50.74 50.74 0 0 0 11 14.44c-3.26-5.64-3.92-5.87-3.87-12.52l-1.29 2.31a18.82 18.82 0 0 1-5.84-4.23z" transform="translate(-73.67 -136.7)" fill="url(#ChangeName-9)" fill-rule="evenodd"/><path d="M387.2 261.94c12.59 6 26.69 9 42 9.28 13.43.26 28.54-.63 44.38-5.37l10.07 8.36a63.24 63.24 0 0 0-22.85 9.91c-3.94 2.88-10.06 6.44-15.58 6.23 2.4-1.84 5.39-4.61 6.5-6.4s.14-2.86-1.79-2.6c-13.4 1.85-26 1.18-37.73-2.28-1.8-6.51-5.45-9.79-8.82-10.15a7.82 7.82 0 0 0-8.41 5.79c-4.97-2.55-7.75-6.41-7.77-12.77z" class="cls-2" transform="translate(-73.67 -136.7)"/><path d="M403.36 287.38a14.6 14.6 0 0 1-6-11.53 12.18 12.18 0 0 1 .29-2.66l2.63-2.43a12.85 12.85 0 0 0-.25 2.61 18.89 18.89 0 0 0 5.55 12.73z" transform="translate(-73.67 -136.7)" fill="url(#ChangeName-10)" fill-rule="evenodd"/><path d="M449.63 273.25A113.16 113.16 0 0 0 464 272a1.91 1.91 0 0 1 2.25 2 2.86 2.86 0 0 1-2.25 2.61 45.1 45.1 0 0 1-14.36 1.26c-1.25-.06-2.25-.71-2.25-2a2.61 2.61 0 0 1 2.24-2.62z" class="cls-1" transform="translate(-73.67 -136.7)"/><path d="M449.66 273.94a1.93 1.93 0 0 0-1.58 1.92c0 .92.78 1.24 1.59 1.28.6 0 1.2.06 1.79.07a14 14 0 0 0 .27-1.5 18.22 18.22 0 0 0 .14-1.88l-2.21.11zm2.52 3.28h2.79c.12-.51.2-1 .27-1.48.08-.66.12-1.33.15-2.07l-2.81.16c0 .71-.07 1.36-.15 2-.06.47-.14.94-.25 1.42zm3.53-.07c.92 0 1.84-.13 2.76-.23.08-.41.15-.81.2-1.21.09-.74.13-1.49.15-2.33l-2.73.22a21.73 21.73 0 0 1-.15 2.2c-.06.45-.14.89-.23 1.35zm3.49-.33q1.4-.19 2.79-.48.06-.31.09-.63a25 25 0 0 0 .17-2.74c-.9.13-1.81.24-2.72.34a23.88 23.88 0 0 1-.16 2.49c-.05.34-.1.68-.17 1zm3.53-.65c.36-.08.73-.17 1.09-.27a2.2 2.2 0 0 0 1.73-1.94 1.22 1.22 0 0 0-1.43-1.29l-1.16.19a26.07 26.07 0 0 1-.18 2.94c-.01.12-.03.25-.05.37z" class="cls-17" transform="translate(-73.67 -136.7)"/><path d="M450.68 282.18c.53 1.9-1.35 4.61-4.48 6.31a9.75 9.75 0 0 1-5.5 1.31 16 16 0 0 0 6.65-3.5 12.89 12.89 0 0 0 3.33-4.12z" class="cls-2" transform="translate(-73.67 -136.7)"/><path d="M335.17 324.29c2 0 2.29 4.52 2.32 5.95a1.49 1.49 0 0 1-1.5 1.51h-.15c-.91 0-1.23-.76-1.19-1.55a8.79 8.79 0 0 0-1-4.13c-.55-1.07.6-1.78 1.52-1.78z" class="cls-1" transform="translate(-73.67 -136.7)"/><path d="M335.17 325c1.29 0 1.61 4.38 1.63 5.26a.81.81 0 0 1-.81.81h-.15c-.44 0-.52-.39-.5-.83a9.36 9.36 0 0 0-1.11-4.46c-.23-.53.52-.78.94-.78z" class="cls-13" transform="translate(-73.67 -136.7)"/></g></svg>