<svg xmlns="http://www.w3.org/2000/svg" viewBox="0 0 9019.95 4569.83" shape-rendering="geometricPrecision" text-rendering="geometricPrecision" image-rendering="optimizeQuality" fill-rule="evenodd" clip-rule="evenodd"><defs><style>.cls-11{fill:#a45c00}.cls-6{fill:none}.cls-2{fill:#282829}.cls-5{fill:#000}.cls-0,.cls-8{fill:#373e4a}.cls-13{fill:#998d87}.cls-9{fill:#d4d4d4}.cls-1,.cls-3{fill:#282829;fill-rule:nonzero}.cls-1{fill:#000}.cls-17{fill:url(#ChangeName-3)}</style><clipPath id="ChangeName-0"><path d="M4832.96 471.77c19.43-1.58 38.97 1.32 54.84 8.83 30.61 14.49 60.44 29.57 89.72 45.05 28.53 15.08 56.59 30.58 84.37 46.29 31.69-15.16 62.25-29.57 91.54-43.21 73.59-34.28 139.56-63.89 195.18-88.41-68.77-57.92-155.96-115.08-243.08-164.02-41.86-23.51-85.73-42.49-123.72-63.73 93.85 27.8 167.3 71.21 238.32 123.26 74.59-84.81 156.96-162.41 232.01-246.72 14.07-15.8 21.87-28.36 2.92-43.28l-30.03-23.65c-16.41-12.92-41.36-9.81-60.79-7.8-100.45 10.42-201.65 21.44-301.05 39.44-38.93 7.05-79.56 15.45-119.53 26.24-44 11.89-99.91 31.41-141.04 49.77l-475.86 212.44c-22.05 9.84-24.06 12.96-61 28.18-36.93 15.21-103.66 44.71-139.03 76.54-95.99 86.38-189.96 175.2-288.41 258.8-113.11 96.05-230.01 182.17-360.14 254.06l-.21.12-1941.3 908.22c54.03-2.3 102.87-3.28 150.11-.48 56.09 3.32 112.93 12.53 166.5 29.7 143.79-67.04 287.42-132.18 432.76-198.08 569.76-258.35 1145.4-519.37 1677.23-871.16 41.8-27.65 79.97-55.12 116.31-81.29 116.51-83.87 214.58-154.47 348.7-171.76 69.09-8.9 136.72-9.76 204.82 5.68 1.4.32 2.8.64 4.2.97l141.72-92.37c15.57-10.15 34.75-16.07 53.91-17.63zm268.51-268.8c-2.33.87-4.94-.32-5.8-2.66-.87-2.33.32-4.94 2.66-5.8l332.52-124.6c2.33-.87 4.94.32 5.8 2.66.87 2.33-.32 4.94-2.66 5.8l-332.52 124.6z"/></clipPath><clipPath id="ChangeName-1"><path d="M6410.63 551.18c-133.96 60.28-239.71 122.67-325.1 188.8-82.56 63.93-146.13 131.39-197.84 203.86 72.02 10.22 142.83 19.4 211.62 28.12 18.04-32 37.2-63.03 59.19-91.57 22.66-29.4 48.3-56.09 78.76-78.36 14.16-10.35 15.22-10.42 29.06-11.31l5.53-.37c71.85-5.29 144.63-2.77 214.59 5.77 75.21 9.19 147.23 25.36 211.34 46.26 21.57 7.03 30.23 15.22 30.96 26.49.68 10.53-6.2 22.6-15.9 38.82l-86.59 144.19c48.27 12.86 87.79 28.02 119.68 44.66 56.49 29.48 89.19 63.77 104.19 98.43 23.49 54.29 22.5 116.05 4.88 180.46-15.94 58.29-45.5 118.74-82.82 177.8-118.61 187.65-316.16 361.75-403.37 405.68l-1.12-2.22c-9.4 7.74-19.51 14.79-30.24 21.04l-.35.19c-418.14 214.08-843.32 412.91-1273.35 601.86-408.81 179.63-821.37 350.25-1234.27 520.19-152.58 62.8-305.13 125.49-457.43 188.52-19.17 8.97-37.75 18.89-53.84 32.81-13.89 12.02-25.23 26.38-35.86 41.28-16.45 23.06-31.73 47.4-47.22 71.13-158.12 242.11-340.84 447.91-578.87 613.44-87.75 61.03-179.39 114.16-273.2 165.18-86.01 46.78-173.2 91.68-257.35 141.77-30.7 18.27-60.97 37.25-90.6 57.22-38.68 26.07-50.84 59.58-42.21 104.72 9.96 52.12 159.46 45.81 196.65 43.89 36.66-1.89 73.4-5.52 109.78-10.41 24.82-3.33 50.56-7.13 75.01-12.6 305.16-68.32 607.43-152.36 906.31-244.18 11.82-3.63 23.64-7.28 35.46-10.94a4.523 4.523 0 0 1-.47-5.85c1.29-1.78 450.16-619.12 466.15-705.5 16.1-86.95 12.08-431.01 12.07-432a4.52 4.52 0 0 1 4.48-4.55 4.52 4.52 0 0 1 4.55 4.48c.01.99 4.04 345.9-12.22 433.7-15.84 85.54-438.12 668.37-466.28 707.15 302.24-93.75 602.01-195.86 899.89-302.55 93.59-33.52 187.01-67.51 280.28-101.88 33.11-30.73 117.17-166.67 144.11-213.24 44.69-77.25 85.33-161.21 121.66-252.29l.73-1.82 1641.8-664.62c167.04-67.62 325.01-166.75 466.28-292 139.74-123.9 263.18-273.39 362.96-443.27l307.41-523.4 3.16.65c65.96 13.64 124.36 35.64 176.37 64.57 49.85 27.73 93.85 61.82 133.01 101.02 166.66-248.54 448.68-476.58 730.69-704.62 143.04-115.66 286.08-231.33 413.75-349.39l3.75 4.05c-.03-1.21-.18-2.37-.44-3.46-3.85-15.69-45.24-41.75-57.91-51.03-68.02-47.9-140.75-90.31-215.62-126.56-60-29.06-123.91-55.69-187.97-74.44-48.36-14.15-96.49-24.54-145.96-9.99-15.91 4.68-31.37 11.24-46.71 17.5l-427.82 174.35c-111.16 45.3-275.62 42.26-394.62 36.86-341.54-9.73-671.28-21.33-1011.88-26.72-22.2-.35-48.54-3.74-69.86.21-11.1 2.06-23.42 6.2-40.81 14.03zM4436.95 3408.82c11.3 62.65 7 142.59-15.57 224.94-2.85 10.4-5.87 20.44-9.04 30.1-23.92 72.88-58.83 133.55-97.06 173.51-38.92 40.69-81.51 60.09-119.95 49.55l-3.78-1.13c-41.18-13.52-68.89-59.67-80.38-123.35-11.31-62.65-7-142.59 15.57-224.94 2.85-10.4 5.87-20.45 9.04-30.11 23.92-72.88 58.83-133.55 97.06-173.5 38.92-40.69 81.51-60.09 119.95-49.55l3.78 1.13c41.18 13.52 68.89 59.67 80.38 123.35zm3666.61-2318.45l-401.57-289.71 5.18-3.65c.06-.04 19.46-13.6 41.68-17.75 208.75-92.7 367.49-142.79 588.14-207.8l.05-.02c34.53-9.79 74.99-3.04 113.01 11.01 52.13 19.28 99.97 52.45 121.27 75.22 18.26 19.51 28.92 31.57 35.26 41.42 6.69 10.39 8.71 18.33 9.48 29.35.62 8.84-1.38 17.13-6.26 25-4.69 7.57-12.08 14.68-22.4 21.48l-477.38 320.11-6.45-4.66z"/></clipPath><linearGradient xmlns="http://www.w3.org/2000/svg" id="ChangeName-3" gradientUnits="userSpaceOnUse" y1="4500" x2="7000"><stop offset="0" stop-color="PrimaryColor"/><stop offset="1" stop-color="SecondaryColor"/></linearGradient><linearGradient id="ChangeName-2" gradientUnits="userSpaceOnUse" x1="6131.31" y1="1391.3" x2="7040.68" y2="2019.1"><stop offset="0" stop-color="#d4d4d4"/><stop offset="1" stop-color="#998d87"/></linearGradient></defs><g id="WING_CANNON_1"><path class="cls-0" d="M3107.87 3510.78c121.76 34.34 181.32 81.9 212.21 138.88 30.96 57.1 28.22 121.83 16.17 188.03l-4.81-.86 1.7 4.58-485.29 182.21-2.64.22-31-5.36.22-.37-.22.1 1.09-79.86-103.7 57.13c-.1.06-.19.12-.28.18-2.06 1.29-4.33 1.99-6.75 1.99-5.65 0-10.51-3.85-13.77-10.07-2.33-4.43-3.92-10.2-4.36-16.56l-116.97 41.96c-4.65 2.59-9.62 4.24-14.9 4.82-1.46.16-2.88.24-4.26.24-10.99 0-21.83-4.6-31.88-12.81l-532.71 199.12c-1.08.58-2.2 1.02-3.35 1.31-.28.07-.56.12-.84.18l-1.72.21c-6.5.36-12.39-3.86-17.06-11.37-4.01-6.45-7.28-15.62-9.26-26.4-.65-3.49-1.16-7.15-1.52-10.93-.78 5.89-2.09 11.14-3.84 15.47-3.42 8.48-8.71 13.83-15.39 14.56l-1.51.1c-7.88 0-15.38-6.71-21.12-17.57-5.14-9.73-9.13-23.12-10.72-37.84-.5-4.63-.74-9.07-.74-13.22 0-11.26 1.69-21.21 4.66-28.56.16-.4.33-.8.5-1.2-1.38-2.01-2.67-4.26-3.86-6.72-4.74-9.76-8.15-23.18-9.1-37.9-.18-2.85-.27-5.57-.27-8.11 0-12.6 2-23.89 5.39-32.19 3.88-9.49 9.79-15.43 17.05-15.88l566.83-195.62c8.53-16.95 20.5-28.27 34.88-31.42.07-.01.15-.03.23-.05l198.08-65.53c29.11-28.8 62.78-53.65 99.65-73.68 37.01-20.1 77.24-35.37 119.31-44.93l.17.72c36.21-32.39 83.33-39.93 115.68-45.1l8.47-1.39 51.55-20.5z"/><path class="cls-0" d="M1956.32 4109.37c3.85-12.39 9.95-21.25 17.34-23.18.09-.03.18-.05.28-.07l54.06-20.56-87.16 26.68c4.51 9.46 9.65 26.68 11.1 40.12.8-7.89 2.4-16.63 4.38-23zM1920.24 4080.53c11.85 0 23.92 22.85 26.96 51.02 3.05 28.18-4.1 51.03-15.95 51.03s-23.92-22.85-26.97-51.03c-3.04-28.18 4.11-51.02 15.96-51.02z"/><path class="cls-1" d="M1920.24 4075.63c7.89 0 15.38 6.72 21.12 17.57 5.15 9.73 9.13 23.13 10.71 37.84.5 4.63.74 9.07.74 13.24 0 11.26-1.69 21.21-4.66 28.55-3.42 8.48-8.71 13.83-15.39 14.56l-1.51.1c-7.88 0-15.38-6.71-21.12-17.57-5.14-9.73-9.13-23.12-10.72-37.84-.5-4.63-.74-9.07-.74-13.22 0-11.26 1.69-21.21 4.66-28.56 3.42-8.49 8.71-13.84 15.39-14.57l1.51-.1zm12.45 22.13c-4.01-7.61-8.49-12.32-12.45-12.32l-.44.01c-2.79.3-5.35 3.42-7.39 8.48-2.5 6.19-3.93 14.87-3.93 24.92 0 3.96.22 8.06.66 12.19 1.45 13.46 5.03 25.59 9.65 34.31 4.02 7.61 8.49 12.32 12.45 12.32l.44-.01c2.78-.3 5.34-3.43 7.38-8.48 2.5-6.19 3.93-14.86 3.93-24.91 0-3.97-.22-8.07-.66-12.2-1.45-13.46-5.03-25.59-9.64-34.31z"/><path class="cls-2" d="M2523.03 3765.25c35.8 0 70.93 55.49 78.47 123.95 7.54 68.46-15.38 123.95-51.18 123.95s-70.93-55.5-78.47-123.95c-7.53-68.46 15.38-123.95 51.18-123.95z"/><path class="cls-1" d="M2523.03 3760.34c19.69 0 38.88 14.76 53.97 38.61 14.57 23.02 25.51 54.76 29.36 89.72.99 9.04 1.48 17.8 1.48 26.2 0 27.67-5.13 52.16-14.03 70.21-9.32 18.9-22.87 30.94-39.24 32.75-1.46.16-2.88.24-4.26.24-19.68 0-38.87-14.75-53.97-38.61-14.57-23.01-25.51-54.75-29.36-89.72-.99-9.04-1.48-17.8-1.48-26.19 0-27.68 5.13-52.17 14.03-70.22 9.32-18.89 22.87-30.94 39.24-32.74 1.45-.16 2.87-.25 4.25-.25zm45.69 43.82c-13.3-21-29.58-34-45.69-34-1.14 0-2.2.06-3.18.16-12.8 1.41-23.72 11.47-31.54 27.34-8.25 16.71-12.99 39.68-12.99 65.89 0 8.16.45 16.57 1.39 25.12 3.69 33.48 14.08 63.74 27.91 85.58 13.3 21 29.58 34 45.69 34 1.14 0 2.21-.06 3.19-.17 12.8-1.41 23.71-11.47 31.53-27.34 8.25-16.71 12.99-39.67 12.99-65.88 0-8.16-.46-16.58-1.39-25.12-3.68-33.48-14.09-63.74-27.91-85.58z"/><path class="cls-0" d="M2484.4 3796.27l-570.47 196.88c11.85 0 22.93 22.85 24.75 51.03 1.17 18.07-1.76 33.94-7.14 43 1.61 1.9 3.16 4.16 4.62 6.73l442.13-157.33 152-56.96c.04-.99.1-2 .19-3 3.26-36.33-5.79-66.2-45.8-80.25-.1-.03-.19-.07-.29-.1zM2419.2 3922.02l-443.79 168.78c11.72-2.16 21.91 23.65 23.54 53.07 1.48 26.71-5.14 50.27-15.16 55.99l565.03-211.2c20.76-33.05 19.36-82.3-18.63-106.13l-110.99 39.49z"/><path class="cls-0" d="M2560.1 3845.36c15.9 42.27 17.88 88.99 13.34 137.69 8.55-25.11 11.13-47.22 9.89-68.81-1.19-20.5-6.11-38.8-23.22-68.87z"/><path class="cls-1" d="M2514.75 3761.27l383.02-126.73 3.07 9.32-383.02 126.72z"/><path class="cls-1" d="M2896.99 3633.94l40.73 29.78-5.78 7.89-40.73-29.78zM2712.22 3696.49c29.3-29.16 63.27-54.29 100.49-74.51 37.01-20.1 77.24-35.37 119.31-44.93l2.15 9.54c-41.2 9.36-80.58 24.3-116.78 43.97-36.39 19.77-69.6 44.34-98.26 72.87l-6.89-6.94zM2820.16 4008.86l25.61 5.1 483.97-181.72 7.8 7.3-489.68 184.07-2.64.22-30.99-5.35z"/><path class="cls-1" d="M3224.63 3566.35l-287.35 105.64c-30.47 24.74-53.5 56.64-71.45 93.39-18.2 37.25-39.02 111.7-40.54 158.71l-10.48-36.58c10.44-45.51 23.67-88.45 42.21-126.42 18.66-38.22 42.73-71.43 74.74-97.23l1.38-.78 281.87-103.29 9.61 6.56z"/><path class="cls-1" d="M2841.27 4018.86c2.16-55.41 7.03-105.3 19.15-152.88 12.16-47.75 31.59-93.18 62.83-139.49 7.51-11.14 14.79-20.03 23.42-27.39 8.67-7.4 18.6-13.16 31.35-17.99l275.05-104.22 3.45 9.16-275.05 104.22c-11.64 4.41-20.65 9.62-28.44 16.27-7.84 6.7-14.59 14.97-21.65 25.43-30.55 45.29-49.56 89.72-61.45 136.43-11.93 46.89-16.74 96.11-18.88 150.8l-9.77-.34z"/><path class="cls-1" d="M3050.31 3702.15l3.05.12c15.34 1.19 28.41 11.16 37.54 26.82 8.74 14.99 13.9 35.32 13.9 58.06 0 3.86-.16 7.87-.47 11.96-2.02 26.19-10.42 49.97-22.34 67.24-12.36 17.91-28.63 28.99-45.85 28.99l-3.05-.12c-15.34-1.19-28.41-11.15-37.54-26.82-8.74-15-13.9-35.34-13.9-58.07 0-3.86.15-7.86.47-11.95 2.02-26.19 10.41-49.98 22.34-67.25 12.36-17.91 28.62-28.98 45.85-28.98zm2.32 9.9l-2.32-.08c-13.82 0-27.26 9.45-37.8 24.73-10.99 15.9-18.74 37.98-20.62 62.42-.29 3.75-.43 7.5-.43 11.22 0 21.01 4.66 39.62 12.56 53.17 7.5 12.87 17.89 21.03 29.8 21.95l2.32.08c13.82 0 27.26-9.45 37.81-24.73 10.98-15.91 18.73-37.98 20.61-62.42.29-3.75.43-7.5.43-11.23 0-21.01-4.66-39.62-12.56-53.16-7.5-12.86-17.89-21.03-29.8-21.95z"/><path class="cls-1" d="M3094.35 3735.72c4.05 8.66 7.06 18.7 8.77 29.69 1.64 10.52 2.11 21.9 1.2 33.7-1.42 18.47-6.01 35.74-12.77 50.35-7.07 15.3-16.57 27.78-27.37 35.81l-3.07 2.29-2.96-2.46c-8.81-7.33-15.72-17.98-19.98-30.75-4.04-12.1-5.71-26.18-4.34-41.16 1.76-19.28 8.26-37.02 17.68-50.96 9.79-14.49 22.8-25 37.06-29.13l4.01-1.16 1.77 3.79zm-.88 31.18c-1.31-8.38-3.42-16.14-6.22-23.03-10.45 4.19-20.05 12.63-27.63 23.84-8.56 12.66-14.46 28.8-16.06 46.35-1.24 13.59.25 26.31 3.87 37.17 3.18 9.57 8 17.67 14.03 23.68 8.21-7.06 15.51-17.25 21.19-29.56 6.28-13.59 10.55-29.7 11.89-46.99.86-11.14.44-21.76-1.08-31.48zM2892.37 3638.33c30.8-85.72 108.64-98.17 155.49-105.66l8.92-1.46c23.79-4.01 46.32-2.65 66.69 5.65 18.88 7.69 35.83 21.3 50.11 42.02l-8.05 5.55c-13.12-19.04-28.59-31.51-45.74-38.49-18.61-7.58-39.36-8.8-61.4-5.08l-9 1.46c-44.7 7.14-118.98 19.03-147.83 99.3l-9.19-3.3z"/><path class="cls-1" d="M3126.55 3547.61c-32.83 9.77-61.25 23.63-85.31 41.48-23.99 17.8-43.73 39.63-59.26 65.37l-8.39-5.06c16.19-26.82 36.77-49.57 61.83-68.16 24.99-18.54 54.41-32.91 88.33-43l2.8 9.39zM3055.74 3531.51l52.13-20.73 3.48 8.55-51.93 21.22z"/><path class="cls-1" d="M3107.87 3510.78c121.76 34.34 181.32 81.9 212.21 138.88 30.96 57.1 29.5 123.68 17.45 189.88l-10.89-3.58c11.71-64.28 14.46-126.98-15.17-181.63-29.69-54.76-92.12-101.96-210.95-135.47l7.35-8.08zM1931.68 4089.29l625.75-221.65 3.26 9.23-625.75 221.65z"/><path class="cls-0" d="M1975.42 4090.8c11.72-2.16 21.91 23.65 23.54 53.07 1.63 29.41-6.56 55-18.29 57.16-11.73 2.16-22.57-19.93-24.2-49.34-1.63-29.41 7.23-58.73 18.95-60.89z"/><path class="cls-1" d="M1974.54 4086l1.57-.19c6.52-.37 12.22 4.29 16.68 12.26 3.78 6.76 6.88 16.22 8.85 26.94a149.38 149.38 0 0 1 2.2 18.59c.84 15.29-.89 29.67-4.37 40.55-3.86 12.08-10.15 20.27-17.93 21.69l-1.72.21c-6.5.36-12.39-3.86-17.06-11.37-4.01-6.45-7.28-15.62-9.26-26.4-.95-5.13-1.61-10.62-1.93-16.33-.85-15.38 1.07-30.79 4.74-42.59 4-12.87 10.44-21.94 18.21-23.37zm2.09 9.58l-.33.04c-3.86.71-7.68 7.21-10.62 16.67-3.36 10.79-5.1 24.94-4.32 39.14.29 5.36.9 10.44 1.76 15.11 1.75 9.54 4.56 17.53 7.96 22.98 2.73 4.41 5.61 6.91 8.2 6.77l.5-.05c3.94-.72 7.63-6.42 10.38-15.03 3.13-9.8 4.68-22.93 3.9-37.06a138.49 138.49 0 0 0-2.04-17.37c-1.78-9.65-4.5-18.05-7.78-23.91-2.61-4.65-5.26-7.41-7.62-7.28z"/><path class="cls-1" d="M1973.67 4086.22l582.11-221.39 3.49 9.17-582.11 221.38z"/><path class="cls-0" d="M1913.93 3993.15c11.85 0 22.93 22.85 24.75 51.03 1.82 28.18-6.32 51.02-18.17 51.02-11.85 0-22.94-22.84-24.76-51.02-1.82-28.18 6.32-51.03 18.17-51.03z"/><path class="cls-1" d="M1913.93 3988.24c7.96 0 15.24 6.78 20.54 17.73 4.74 9.76 8.15 23.18 9.1 37.9.18 2.86.28 5.57.28 8.11 0 12.61-2 23.9-5.39 32.2-3.88 9.49-9.79 15.43-17.04 15.89l-.89.04c-7.97 0-15.24-6.78-20.54-17.73-4.74-9.76-8.15-23.18-9.1-37.9-.18-2.85-.27-5.57-.27-8.11 0-12.6 2-23.89 5.39-32.19 3.88-9.49 9.79-15.43 17.04-15.89l.9-.04zm11.73 21.98c-3.64-7.51-7.84-12.16-11.73-12.16l-.28-.01c-3.17.21-6.19 3.87-8.62 9.8-2.91 7.11-4.62 17.1-4.62 28.51 0 2.54.08 5.06.23 7.5.87 13.44 3.92 25.56 8.13 34.26 3.64 7.51 7.85 12.16 11.73 12.16h.28c3.17-.21 6.19-3.87 8.61-9.8 2.91-7.11 4.62-17.1 4.62-28.52 0-2.54-.08-5.06-.23-7.5-.87-13.44-3.92-25.56-8.13-34.26z"/><path class="cls-0" d="M2716.29 3955.14c1.05 3.62 1.64 7.79 1.64 12.21 0 8.58-2.23 16.15-5.65 20.75l108.04-58.09.16-12.25-104.19 37.38z"/><path class="cls-0" d="M2717.94 3967.35c0-4.43-.6-8.59-1.64-12.21l-24.96 8.95c-.07 1.06-.11 2.15-.11 3.26 0 14.03 5.98 25.41 13.36 25.41 2.87 0 5.53-1.72 7.71-4.65 3.42-4.6 5.65-12.18 5.65-20.75z"/><path class="cls-1" d="M2822.68 3934.3l-111.36 61.35-4.71-8.58 111.36-61.35z"/><path class="cls-3" d="M2720.99 3953.78c.6 2.08 1.07 4.31 1.38 6.61.31 2.3.48 4.64.48 6.96 0 7.81-1.72 14.98-4.49 20.25-3.27 6.22-8.12 10.07-13.77 10.07s-10.51-3.85-13.77-10.07c-2.77-5.27-4.49-12.44-4.49-20.25 0-1.12.04-2.32.13-3.58l.21-3.19 32.89-11.79 1.44 4.99zm-8.31 7.9l-.01-.05-16.54 5.93c.03 6.14 1.31 11.61 3.34 15.48 1.56 2.97 3.39 4.81 5.11 4.81 1.72 0 3.55-1.84 5.12-4.81 2.06-3.92 3.34-9.46 3.34-15.69 0-2.03-.12-3.93-.36-5.67z"/><path class="cls-1" d="M2731.99 3691.22c39 23.85 62.07 57.04 75.54 96.21 13.31 38.69 17.18 83.2 17.84 130.27l.05 3.47-267.93 96.12-3.3-9.19 261.35-93.76c-.79-44.81-4.68-87.09-17.28-123.73-12.77-37.12-34.57-68.53-71.36-91.03l5.09-8.35z"/><path class="cls-1" d="M2825.37 3917.82l-1.26 95.91-9.88 4.48 1.37-100.51zM1912.34 3988.53l581.01-200.51 3.17 9.23-581 200.51zM1978.96 4196.46l578.18-216.12 3.41 9.16-578.18 216.12z"/><path class="cls-0" d="M2719.54 3948.78l96-34.44c-.79-44.81-4.68-87.09-17.28-123.73-12.54-36.47-33.81-67.42-69.43-89.84l-189.77 62.78c13.89 5.57 27 18.09 37.95 35.39 14.57 23.02 25.51 54.76 29.36 89.72.99 9.04 1.48 17.8 1.48 26.2 0 27.67-5.13 52.16-14.03 70.21-2 4.05-4.19 7.78-6.56 11.17l99.41-35.66 32.89-11.8z"/><path class="cls-0" d="M2740.66 3696.85c33.81 23.33 54.43 54.4 66.87 90.58 7.5 21.81 12 45.46 14.62 70.37 9.19-34.5 20.42-67.12 34.87-96.72 17.7-36.25 40.26-67.99 69.85-93.18l-30.75-22.48-155.46 51.43z"/><path class="cls-0" d="M2865.83 3765.38c-45.73 93.65-40.36 145.14-41.67 244.28l17.35 3.45c2.27-53.12 7.22-101.2 18.91-147.13 12.16-47.75 31.59-93.18 62.83-139.49 7.51-11.14 14.79-20.03 23.42-27.39 8.67-7.4 18.6-13.16 31.35-17.99l264.64-100.28c-6.61-4.55-13.66-9-21.17-13.34l-284.22 104.49c-30.47 24.74-53.5 56.64-71.45 93.39z"/><path class="cls-0" d="M2869.92 3868.4c-11.4 44.78-16.3 91.69-18.57 143.46l475.78-178.64c11.29-63.33 13.54-125.02-15.66-178.89-12.91-23.81-32.02-46.2-59.26-66.65l-270.74 102.59c-11.64 4.41-20.65 9.62-28.44 16.27-7.84 6.7-14.59 14.97-21.65 25.43-30.55 45.29-49.56 89.72-61.45 136.43zm125.62 0c-8.74-15-13.9-35.34-13.9-58.07 0-3.86.15-7.86.47-11.95 2.02-26.19 10.41-49.98 22.34-67.25 12.36-17.91 28.62-28.98 45.85-28.98l3.05.12c15.34 1.19 28.41 11.16 37.54 26.82.54.94 1.08 1.89 1.6 2.87l.09-.03 1.18 2.52c.21.42.41.84.61 1.27 4.06 8.66 7.07 18.71 8.76 29.69 1.64 10.52 2.11 21.9 1.2 33.7-2.02 26.19-10.42 49.97-22.34 67.24-5.29 7.67-11.31 14.09-17.81 18.92-.14.11-.29.21-.43.32l-2.65 1.97-.1-.08c-7.8 5.06-16.21 7.86-24.87 7.86l-3.05-.12c-15.34-1.19-28.41-11.15-37.54-26.82zM2935.6 3662.17l38.89-14.25c16.05-26.18 36.34-48.44 60.93-66.69 21.57-16.01 46.44-28.9 74.66-38.62-16.02-4.53-33.42-4.84-51.7-1.75l-9 1.46c-44.05 7.04-116.85 18.69-146.55 95.89l32.77 23.96zM2735.07 3688.37l158.12-52.31c6.99-18.65 16.24-33.75 26.9-46.04-36.1 9.41-70.66 23.12-102.72 40.54-29.82 16.2-57.51 35.63-82.31 57.81z"/><path class="cls-0" d="M3041.25 3589.09c-20.12 14.92-37.24 32.68-51.41 53.2l171.96-63.01c-10.96-14.42-23.42-24.6-37.03-31.13-32.08 9.74-59.9 23.41-83.53 40.94z"/><path class="cls-0" d="M3123.47 3536.86c17.92 7.3 34.1 19.93 47.91 38.91l39.17-14.35c-28.14-15-62.13-28.6-102.99-40.54l-20.26 8.28c12.63.57 24.74 3.04 36.17 7.7zM3082.42 3733.99c-7.5-12.86-17.89-21.03-29.8-21.95l-2.32-.08c-13.82 0-27.26 9.45-37.8 24.73-10.99 15.9-18.74 37.98-20.62 62.42-.29 3.75-.43 7.5-.43 11.22 0 21.01 4.66 39.62 12.56 53.17 7.5 12.87 17.89 21.03 29.8 21.95l2.32.08c5.89 0 11.72-1.72 17.28-4.88-6.56-6.94-11.79-15.92-15.25-26.3-4.04-12.1-5.71-26.18-4.34-41.16 1.76-19.28 8.26-37.02 17.68-50.96 8.5-12.59 19.44-22.17 31.53-27.18-.2-.36-.4-.71-.61-1.06z"/><path class="cls-0" d="M3087.25 3743.87c-10.45 4.19-20.05 12.63-27.63 23.84-8.56 12.66-14.46 28.8-16.06 46.35-1.24 13.59.25 26.31 3.87 37.17 3.18 9.57 8 17.67 14.03 23.68 4.46-3.83 8.66-8.6 12.47-14.12 10.98-15.91 18.73-37.98 20.61-62.42.29-3.75.43-7.5.43-11.23 0-7.05-.52-13.84-1.52-20.25-1.31-8.38-3.42-16.14-6.21-23.03z"/></g><g id="CENTER_CANNON"><circle class="cls-0" transform="matrix(1.044 .066 0 1.06577 5439.5 1650.21)" r="229.77"/><path class="cls-1" d="M5439.79 1400.81c67.45 4.26 128.5 36.01 172.67 83.9 44.15 47.86 71.46 111.87 71.46 180.66 0 5.35-.18 10.75-.52 16.2-3.94 62.29-30.47 116.92-71.35 155.97-40.88 39.06-96.13 62.54-157.5 62.54-4.97.02-10.09-.15-15.33-.48-67.45-4.26-128.5-36.02-172.67-83.9-44.15-47.86-71.46-111.87-71.46-180.66 0-5.35.18-10.75.52-16.2 3.94-62.29 30.47-116.92 71.34-155.97 40.89-39.06 96.14-62.54 157.5-62.54 4.97-.02 10.09.15 15.33.48zm166.01 90.02c-42.65-46.23-101.55-76.88-166.58-80.99-4.86-.3-9.79-.46-14.77-.46-58.94-.02-112 22.53-151.27 60.04-39.27 37.52-64.76 90.05-68.55 149.99-.32 5.05-.48 10.27-.48 15.63 0 66.46 26.39 128.3 69.05 174.54 42.64 46.23 101.55 76.88 166.58 80.99 4.86.3 9.79.46 14.77.46 58.94.02 112-22.53 151.27-60.04 39.27-37.52 64.76-90.05 68.55-149.99.32-5.05.48-10.27.48-15.63 0-66.45-26.39-128.29-69.05-174.54z"/><path class="cls-0" d="M3780.95 2187.73l408.99-160.7c18.29-36.58 50.57-67.06 90.19-95.04 36.74-25.94 79.73-50.12 125.84-65.95 9.53-3.27 20.35 3.94 28.86 9.91l512.06-203.05 14.09 28.64 329.35-133.15c8.19 147.74 55.96 244.4 131.03 305.85l-330.12 138.28 39.56 90.34-527.84 244.2c-18.38 8.5-34.23 11.54-48.51 2.06l-71.25-47.31-611.64 289.64c-14.3 6.77-31.05 5.95-42.29-4.92L3626 2389.85c-11.92-11.53-10.72-25.84 8.76-46.57l146.18-155.54z"/><path class="cls-1" d="M3779.31 2183.52l407.4-160.07c9.3-18.13 21.92-34.76 37.1-50.31 15.54-15.93 33.73-30.72 53.73-44.85 19.47-13.75 40.76-27.05 63.38-38.9 20.31-10.64 41.63-20.09 63.59-27.63 6-2.06 12.17-.92 18.07 1.62 4.56 1.97 8.92 4.77 12.86 7.49l513.67-203.69 14.08 28.61 331.31-133.94.35 6.3c4.06 73.32 17.92 133.9 40.04 183.71 22.03 49.61 52.32 88.59 89.33 118.88l5.82 4.77-332.83 139.41 39.49 90.19-531.85 246.06c-9.65 4.46-18.7 7.5-27.34 8.18-9.02.72-17.5-1.11-25.56-6.46l-69.12-45.9-609.34 288.55c-8.12 3.84-17.01 5.47-25.43 4.49-8.07-.94-15.73-4.26-21.94-10.26l-203.27-196.68c-7.05-6.84-10.21-14.59-8.7-23.8 1.39-8.51 6.94-18.06 17.32-29.11l146.18-155.54 1.65-1.12zm412.28-152.27l-408.04 160.33-145.49 154.8c-9.09 9.68-13.89 17.66-14.99 24.36-.98 6 1.22 11.18 6.07 15.87l203.29 196.68c4.67 4.52 10.49 7.03 16.67 7.74 6.74.79 13.93-.54 20.54-3.67l613.94-290.74 73.37 48.72c6.22 4.13 12.81 5.53 19.87 4.97 7.45-.59 15.52-3.33 24.25-7.37l523.82-242.34-39.63-90.49 327.5-137.19c-35.45-30.43-64.61-69.01-86.12-117.44-21.93-49.37-35.89-108.97-40.45-180.56l-327.41 132.37-14.11-28.68-510.45 202.42-1.99-1.4c-4.06-2.85-8.67-6-13.23-7.96-4.02-1.74-8.04-2.58-11.56-1.37-21.63 7.42-42.53 16.68-62.35 27.07-22.14 11.6-43.09 24.7-62.35 38.3-19.61 13.85-37.39 28.29-52.46 43.75-15 15.38-27.38 31.78-36.3 49.62l-2.39 2.19z"/><path class="cls-1" d="M3944.97 2123.99l33.81 144.33-8.55 3.2-34.08-145.48 8.81-2.05zm58.34 249.04l33.13 141.39-8.81 2.05-32.86-140.25 8.55-3.2zM3785.3 2186.53l91.08 326.45c4.09 14.66 6.08 28.01 6.66 40.87.58 12.85-.23 25.14-1.73 37.73l-8.99-1.06c1.45-12.22 2.25-24.06 1.69-36.28-.55-12.2-2.45-24.89-6.34-38.85l-91.08-326.45 8.7-2.41zM3626.88 2354.12l240.22 236.93-6.33 6.45-240.23-236.94z"/><path class="cls-1" d="M3785.04 2189.64l-54.31 116.16-.98 1.36-80.05 76.01-6.23-6.55 79.45-75.43 53.94-115.37z"/><path class="cls-1" d="M3731.03 2302.84l48.66 202.96-8.78 2.09-48.66-202.95z"/><path class="cls-1" d="M3746.07 2373.85l15.91 61.66-5.73 6.97-35.52-29.75c-10.05-8.27-10.57-11.77-5.02-18.54 1.02-1.25 2.26-2.53 3.73-4.04l2.43-2.54 17.44-19.75 6.76 5.98zM3929.26 2286.86l137.85-51.6 34.64 100.93-141.99 53.15-34.64-100.93 4.13-1.54zm132.3-39.89l-125.02 46.8 28.78 83.84 125.02-46.8-28.78-83.84zM4188.39 2022.79l217.37-79.72 40.67 110.63-8.49 3.11-37.56-102.15-208.89 76.61-3.11-8.49zm301.39 148.81l40.26 109.49-59.02 31.48-4.25-7.96 52.07-27.77-37.55-102.12 8.49-3.11z"/><path class="cls-1" d="M4327.28 1972.37l74.54-80.38c9-9.72 15.53-13.01 21.18-11.39 5.67 1.63 9.03 7.76 12.29 17.03l49.4 140.85-8.53 2.97-49.4-140.85c-2.29-6.53-4.2-10.71-6.24-11.3-2.06-.59-5.73 2-12.08 8.85l-74.54 80.38-6.62-6.16zm198.77 184.07l67.26 191.78-8.53 2.97-67.26-191.78 8.53-2.97zM4965.16 1699.81l130.26 310.98-8.35 3.47-130.26-310.98z"/><path class="cls-1" d="M5072.99 1968.67l-398.47 178.06 50.11 144.54-8.52 2.94-52.82-152.36 406.01-181.43zM5049.37 1912.17l304.34-116.76 3.22 8.46-304.34 116.76zM4982.88 1754.13l267.73-120.74 61.76 154.39-274.77 97.34-3.01-8.52 265.89-94.21-54.75-136.87-259.14 116.86z"/><path class="cls-0" d="M4262.68 2128.14c209.3-59.74 270.15-61.95 356.79-142.39l29.12 106.79c-112.43 62.97-230.15 102.1-347.08 144.82l-38.83-109.22z"/><path class="cls-1" d="M4261.44 2123.79c41.41-11.82 77.17-21.43 108.43-29.83 125.32-33.67 177.89-47.8 246.53-111.52l5.47-5.07 32.02 117.4-3.07 1.72c-97.99 54.88-199.94 91.69-301.88 128.49a12888.1 12888.1 0 0 0-45.87 16.63l-4.27 1.56-41.97-118.06 4.63-1.32zm110.76-21.09c-29.95 8.05-64.04 17.21-103.64 28.47l35.69 100.39 41.63-15.07c100.45-36.26 200.9-72.53 297.43-126.18l-26.25-96.24c-67.64 61-121.34 75.44-244.86 108.63z"/><path class="cls-1" d="M4256.81 2125.11l364.99-147.76-1.1 9.44-356.28 145.52z"/><path class="cls-0" d="M5524.55 1426.55c90.5 40.76 154.84 134.14 154.84 238.82 0 41.73-10.23 80.36-28.27 113.61-34.43 40.98-81.79 64.9-131.91 61.05-92.31-7.09-159-105.65-148.96-220.15 8.89-101.49 75.09-181.41 154.3-193.33z"/><path class="cls-1" d="M5526.4 1422.43c46.69 21.03 86.53 55.82 114.46 98.9 27.15 41.88 43.05 91.58 43.05 144.04 0 20.88-2.53 41.04-7.29 60.18-4.92 19.76-12.2 38.4-21.52 55.59l-.53.74c-17.98 21.4-39.42 38.27-62.92 49.14-22.74 10.52-47.42 15.46-72.78 13.52l-1.49-.12c-46.84-4.1-87.11-30.98-114.52-71.31-27.22-40.04-41.75-93.38-37.35-150.74l.23-2.85c4.49-51.25 23.34-97.12 51.06-131.84 28.34-35.52 65.99-59.43 107.08-65.61l2.53.35zm106.89 103.82c-26.75-41.25-64.8-74.64-109.38-95.01-38.28 6.14-73.41 28.71-100.04 62.08-26.64 33.38-44.78 77.55-49.11 126.96l-.23 2.8c-4.24 55.29 9.69 106.59 35.79 144.98 25.9 38.1 63.83 63.49 107.8 67.35l1.44.12c23.78 1.82 46.94-2.82 68.3-12.7 22.16-10.26 42.41-26.16 59.45-46.31 8.9-16.48 15.85-34.28 20.54-53.11 4.57-18.39 7-37.82 7-58.02 0-50.7-15.35-98.7-41.56-139.13z"/><path class="cls-0" d="M5608.7 1487.34c43.65 47.1 70.69 110.19 70.69 178.03 0 27.98-4.61 54.55-13.07 79.06-13.99 25.6-32.2 47.34-53.2 63.74-9.71 2.21-19.72 3.01-29.88 2.19-68.88-5.52-118.64-82.28-111.15-171.45 7.43-88.45 68.4-155.87 136.61-151.57z"/><path class="cls-1" d="M5612.01 1484.26c22.61 24.39 40.84 53.03 53.29 84.38 12 30.21 18.62 62.91 18.62 96.73 0 14.01-1.15 27.74-3.36 41.09a241.659 241.659 0 0 1-9.98 39.43l-.3.69c-7.14 13.06-15.33 25.13-24.41 36-9.12 10.93-19.18 20.71-29.98 29.14l-1.79.85a104.23 104.23 0 0 1-15.59 2.35c-5.17.38-10.39.37-15.63-.05l-.37-.03c-35.72-3-66.42-24.27-87.2-56.27-20.56-31.66-31.44-73.88-27.81-119.21l.07-.81c3.8-45.22 21.31-85.11 46.62-113.18 25.61-28.41 59.22-44.78 94.79-42.54l3.03 1.43zm44.9 87.71c-11.79-29.7-28.98-56.9-50.29-80.21-32.01-1.4-62.35 13.75-85.71 39.67-24.04 26.67-40.69 64.68-44.31 107.85l-.07.79c-3.47 43.33 6.84 83.55 26.35 113.59 19.28 29.69 47.58 49.41 80.35 52.16l.35.03c4.81.39 9.59.39 14.29.05 19.11-1.37 29.01-14.67 41.06-29.12 8.66-10.37 16.47-21.84 23.25-34.19 4.13-12.02 7.31-24.58 9.46-37.58 2.11-12.77 3.21-26.01 3.21-39.64 0-32.72-6.38-64.29-17.94-93.4z"/><path class="cls-0" d="M5701.98 1389.49c36.98-33.89 82.52-36.41 124.59-27.11 42.07 9.31 69.17 40.05 65.53 74.03-3.64 33.98-70.8 114.89-116.11 170.71-45.31 55.82-97.26 108.79-126.62 118.13-29.37 9.34-64.9-19.55-68.77-36.81-15.19-67.82 84.41-265.06 121.38-298.95z"/><path class="cls-1" d="M5698.94 1386.16c19.19-17.59 40.61-27.04 62.67-30.88 21.88-3.81 44.37-2.07 65.94 2.7 21.97 4.86 40.1 15.37 52.28 29.15 12.43 14.05 18.73 31.45 16.77 49.77-3.58 33.45-64.32 108.16-109.53 163.77l-7.57 9.32c-24.37 30.03-50.67 59.25-74.38 81.37-20.92 19.51-40.03 33.65-54.38 38.21-1.19.37-2.38.7-3.56.97-15.23 3.41-31.4-1.76-44.42-10.03-12.99-8.25-23.06-19.82-26.02-29.12l-.53-1.94c-6.76-30.21 8.11-84.31 30.23-138.81 29.12-71.71 71.04-144.77 92.52-164.46zm64.19-21.96c-20.47 3.56-40.32 12.32-58.1 28.62-20.65 18.93-61.51 90.52-90.21 161.2-21.54 53.05-36.11 105.26-29.81 133.43l.32 1.16c2.36 7.44 10.98 17.05 22.27 24.23 11.27 7.16 25.04 11.68 37.63 8.87.94-.21 1.88-.47 2.79-.75 12.95-4.12 30.92-17.54 50.95-36.23 23.42-21.85 49.42-50.74 73.53-80.45l7.57-9.32c44.49-54.72 104.25-128.23 107.55-159.03 1.68-15.69-3.78-30.68-14.54-42.83-10.96-12.38-27.41-21.88-47.47-26.31-20.49-4.53-41.82-6.19-62.47-2.59z"/><path class="cls-0" d="M5520.53 1424.78c8.99-20.99 14.15-38.88 13.37-50.83-1.88-28.79-38.81-66.37-83.13-55.88-68.99 16.32-203.69 140.44-225.51 208.35 39.52-77.37 120.6-127.01 214.24-121.09 28.44 1.8 55.72 8.59 81.03 19.46z"/><path class="cls-1" d="M5518.12 1418.86c3.72-9.03 6.65-17.39 8.6-24.82 2.05-7.79 3.01-14.51 2.67-19.81-.12-1.91-.44-3.91-.92-5.95-2.73-11.55-10.92-23.92-22.65-33.16-11.73-9.25-26.96-15.29-43.75-14.2-3.34.22-6.78.73-10.27 1.55-33.78 7.99-84.06 42.78-128.65 83.97-16.48 15.23-32.16 31.3-45.89 47.19a225.114 225.114 0 0 1 34.47-23.99c37.27-21.06 81.14-31.8 128.06-28.83 14.27.9 28.29 3.05 41.96 6.33 12.51 3.01 24.66 6.94 36.37 11.72zm17.34-22.52c-2.36 8.99-6.05 19.2-10.77 30.21l-1.79 4.18-4.15-1.79c-12.62-5.42-25.7-9.8-39.09-13.02-13.1-3.14-26.61-5.21-40.43-6.08-45.14-2.85-87.3 7.45-123.07 27.67-36.99 20.9-67.19 52.42-86.88 90.96l-8.32-3.43c11.13-34.65 50.64-83.28 96.07-125.25 45.58-42.11 97.39-77.77 132.71-86.13 3.95-.93 7.89-1.52 11.76-1.76 19.22-1.25 36.58 5.61 49.9 16.11 13.33 10.51 22.69 24.76 25.87 38.22.59 2.49.97 4.98 1.13 7.44.41 6.27-.66 13.95-2.95 22.68z"/></g><g id="_2915919991760"><path d="M5227.59 340.55c46.37 26.7 89.83 57.97 130.59 92.61 93.48-42.67 190.62-77.59 290.65-101.4 5.45-10.6 10.43-21.9 17.7-31.37 22.42-29.23 79.48-37.43 113.84-43.22 44.85-7.55 90.09-12.67 135.33-17.15 55.69-5.5 111.5-9.68 167.37-12.78 56.76-3.15 113.6-5.2 170.45-5.34 9.43-2.02 18.8-4.27 28.28-6.03 22.3-4.14 44.89-4.29 67.49-4 43.4.57 90.21 10.46 132.32 20.74 25.85 6.31 51.51 13.52 76.78 21.88 50.94-15.5 104.67-22.96 157.83-24.2 76.77-1.79 161.86 56.06 209.04 113.38 46.34 56.3 55.27 111.42 45.66 181.89l562.05 25.55c118.08 5.36 279.97 8.82 390.16-36.08l427.82-174.35c15.72-6.41 31.41-13.05 47.72-17.85 51.41-15.12 101.8-4.67 151.9 9.98 65.08 19.04 128.63 45.54 189.61 75.07 75.54 36.58 148.48 79.11 217.14 127.47 64.46 47.19 85.29 49.64 33.29 123.98l-179.64 237.64c-146.61 193.94-365.1 317.81-512.45 510.94h107.44c1.78 0 3.24 1.41 3.3 3.19l1.94 54.85c.04 1.19-.55 2.29-1.56 2.92l-285.81 177.86h200.58c1.82 0 3.3 1.48 3.3 3.3v56.8c0 1.09-.51 2.07-1.41 2.7-119.89 84.2-243.14 163.55-368.63 239.14h164.78c1.82 0 3.3 1.48 3.3 3.3v55.83c0 1.06-.48 2.01-1.33 2.64-101.09 71.33-205.27 138.5-309.43 203.47l-31.54 101.39c217.45 105.47 426.34 229.04 626.08 364.97 44.04 29.97 46.54 30.43-.43 57.24L8068.45 2932c-26.93 15.37-24 13.04-54.1 10.91l-932.2-66.25c-262.29 107.51-525.66 212.32-789.31 316.43-317.6 125.42-635.68 249.6-953.89 373.45-368.97 143.61-739.03 284.55-1111.79 418.05-312.47 111.91-626.83 218.72-944.11 316.2-299.37 91.98-601.43 175.95-907.1 244.39-63.17 14.14-376.96 60.56-394.11-29.2-9.45-49.43 4.58-87.07 46.68-115.45 29.78-20.08 60.24-39.16 91.1-57.54 84.3-50.18 171.55-95.11 257.71-141.97 93.21-50.7 185.04-103.95 272.21-164.57 236.41-164.41 419.23-370.43 576.06-610.55 15.64-23.95 30.85-48.2 47.47-71.49 11.11-15.58 23.02-30.57 37.54-43.13 16.84-14.57 36.34-25.06 56.49-34.48 152.47-63.1 305.09-125.83 457.68-188.63 412.8-169.89 825.34-340.51 1234.04-520.09 429.66-188.79 854.94-387.66 1272.66-601.52 63.27-36.89 103.76-102.49 104.02-176.22.07-19.73-2.85-38.46-12.26-56.03-16.57-30.97-56.04-59.63-82.81-82.26-113.59-96.05-242.78-167.59-377.4-229.54l-887.92 314.87-224.27 198.59c-41.76 36.98-92.25 54.46-146.22 64.85l-341.84 65.85c-65.92 56.6-133.5 105.24-220.77 121.53l-688.75 128.5c-41.58 7.76-77.42 11.57-118.15-3.1l-105.27-37.9c-133.55 13.28-266.16 44.78-401.15 33.82-16.21-1.31-40.07-6.75-44.39-25.06l-675.71 286.02-5.91 14.31c-9.61 23.28-24.49 22.62-45.27 30.26-612.01 225.05-1220.28 461.43-1842.9 656.01-28.41 10.81-83.6 18.64-103.04-11.51l-20.24-31.38c-8.13-12.6-14.9-24.74-17.6-39.69-6.26-34.69 21.25-59.85 43.24-82.08 103.84-104.97 213.71-203.65 323.04-302.8 101.77-92.31 202.84-185.55 297.84-284.9 104.42-109.21 200.88-225.5 287.08-349.65 27.41-39.47 59.34-102.02 103.49-123.8L3472.47 948.57c128.85-71.19 246.31-157.7 358.35-252.84 98.4-83.56 192.24-172.27 288.18-258.6 46.2-41.58 119.69-69.3 177.19-92.75l16.13-41.79c8.77-19.51 7.08-27.18 28.55-37.26 126.06-59.19 256.06-109.47 386.87-157.07 31.26-11.37 57.15-10.53 86.62 4.85 76.05-36.48 163.61-56.72 246.28-71.7 99.89-18.09 200.92-29.08 301.84-39.55 22.81-2.37 49.12-5.19 68.41 10l30.03 23.65c24.48 19.28 16.4 38.42-1.56 58.6-75 84.24-157.24 161.73-231.76 246.42z" fill="#282829"/><path class="cls-5" d="M5222.44 341.41c49.92 28.41 94.33 60.75 135.19 95.63 96.56-44.2 194.29-78.93 293.43-102.42 21.08-40.38 20.67-55.82 129.85-74.2 109.18-18.38 315.35-34.83 473.03-35.24 32.28-6.9 41.75-10.71 95.3-10 53.55.71 142.91 20.81 209.11 42.78 48.14-14.76 101.92-23.05 157.95-24.36 74.47-1.74 158.75 54.26 206.41 112.18 44.09 53.57 55.52 105.99 44.44 182.92l565.68 25.71c110.78 5.03 280.68 8.86 391.55-36.33l427.82-174.35c56.92-23.04 90.87-38.94 197.44-7.75 106.58 31.19 262.44 101.12 405.73 202.03 67.24 49.22 81.28 49.74 32.6 119.33l-179.64 237.64c-147.5 195.12-368.69 319.55-516.46 516.24h114.08l1.94 54.85-295.63 183.97h212.14v56.8c-124.16 87.19-250.6 168.31-378.64 245.14h176.68v55.83c-102.12 76.34-205.51 144.39-310.23 203.89l-32.77 105.35c210.12 101.74 422.59 226.04 628.22 365.97 44.06 29.99 41.98 27.56-.21 51.65l-340.65 194.49c-26.64 15.2-21.51 12.66-52.23 10.48l-932.96-66.31c-454.45 186.29-1070.9 428.22-1743.87 690.15-956.78 372.4-2032.79 770.34-2962.52 978.5-70.44 15.77-374.01 57.82-390.15-26.6-8.81-46.1 2.69-83.38 45.28-112.09 352.7-237.75 766.97-315.59 1198-975.56 62.12-95.12 72.98-116.49 140-147.86 973.74-403.01 1932.17-781.76 2964.75-1310.42 71.84-41.89 105.46-112.9 105.7-179.09.23-66.18-33.31-87.61-96.24-140.82-119.43-100.98-251.55-171.83-379.37-230.58l-889.79 315.53-224.75 199.02c-40.85 36.18-90.19 53.59-144.66 64.08l-342.7 66.02c-64.75 55.66-132.14 104.99-219.89 121.36l-688.75 128.5c-51.99 9.69-82.13 9.39-116.42-2.96l-105.97-38.16c-126.23 12.49-262.73 45.14-401.3 33.89-14.99-1.21-40.95-6.41-41.99-26.48l-680.9 288.22c-2.14 5.19-4.29 10.38-6.43 15.56-8.6 20.84-17.77 19.02-43.36 28.42-620.29 228.09-1208.6 457.77-1842.89 656-34.32 13.06-82.79 15.15-99.14-10.19l-20.24-31.38c-7.65-11.86-14.44-23.6-17.12-38.48-5.63-31.17 16.37-52.93 42.33-79.17 307.75-311.09 621.94-525.31 908.32-937.8 20.7-29.82 58.74-101.26 102.17-122.7L3474 951.48c257.09-142.04 436-321.85 647.2-511.9 43.11-38.8 115.6-67.38 177.55-92.68l16.57-42.95c9.06-20.18 6.85-26.18 26.95-35.62 127.18-59.72 256.87-109.75 386.59-156.95 32.97-11.99 57.77-9.38 85.42 5.45 134.49-65.03 341.18-90.15 548.54-111.67 22.45-2.33 47.8-5.04 66.03 9.31l30.03 23.65c20.38 16.05 17.69 31.71-1.99 53.81-72.09 80.97-160.47 165.01-234.44 249.48z"/><path class="cls-6" d="M4322.7 308.75l-17.63 45.69-2.9 1.18c-55.86 22.82-130.93 51.31-175.44 91.36-95.99 86.38-189.96 175.2-288.41 258.8-113.11 96.05-230.01 182.17-360.14 254.06l-.21.12L1133.6 2056.75c-40.95 20.2-73.99 83.69-99.42 120.33-86.77 124.98-183.02 241.01-288.13 350.93-95.27 99.65-196.31 192.86-298.37 285.42-109.27 99.11-218.82 197.48-322.63 302.41-19.03 19.24-45.76 42.77-40.34 72.78 2.44 13.51 8.76 24.5 16.08 35.84l20.24 31.38c15.97 24.75 67.07 16.25 90.46 7.35l.41-.14c622.95-194.69 1230.36-430.77 1842.55-655.89 7.75-2.85 24.02-6.87 30.29-11.4 4.34-3.13 6.87-8.15 8.87-12.98 2.14-5.19 4.29-10.37 6.43-15.56l1.13-2.75 693.18-293.42.54 10.34c.78 14.95 23.95 18.7 35.34 19.62 136.07 11.04 265.89-20.61 400-33.88l1.63-.16 107.51 38.71c38.72 13.94 72.72 10.1 112.63 2.65l688.75-128.5c85.66-15.98 151.91-64.21 216.5-119.73l1.46-1.26 344.59-66.38c52.09-10.04 100.94-26.71 141.22-62.39l225.8-199.96 893.9-316.98 7.21-.74c136.24 62.62 261.52 136.38 376.5 233.6 27.91 23.6 67.94 52.9 85.3 85.34 10.26 19.17 13.58 39.49 13.51 61.05-.27 77.47-42.78 146.55-109.3 185.33l-.35.19c-418.14 214.08-843.32 412.91-1273.35 601.86-408.81 179.63-821.37 350.25-1234.27 520.19-152.58 62.8-305.13 125.49-457.43 188.52-19.17 8.97-37.75 18.89-53.84 32.81-13.89 12.02-25.23 26.38-35.86 41.28-16.45 23.06-31.73 47.4-47.22 71.13-158.12 242.11-340.84 447.91-578.87 613.44-87.75 61.03-179.39 114.16-273.2 165.18-86.01 46.78-173.2 91.68-257.35 141.77-30.7 18.27-60.97 37.25-90.6 57.22-38.68 26.07-50.84 59.58-42.21 104.72 9.96 52.12 159.46 45.81 196.65 43.89 36.66-1.89 73.4-5.52 109.78-10.41 24.82-3.33 50.56-7.13 75.01-12.6 305.16-68.32 607.43-152.36 906.31-244.18 317.07-97.42 631.39-204.22 943.64-316.05 372.67-133.47 742.65-274.38 1111.52-417.95 318.19-123.85 636.26-248.02 953.84-373.43 263.82-104.18 527.45-209.09 789.9-316.68l1.57-.65 934.66 66.43c28.72 2.04 22.93 4.84 48.12-9.54l340.65-194.49c3.69-2.11 25.15-13.65 28.55-17.69-3.12-4.75-25.06-19.1-28.83-21.66-199.82-135.98-409.7-260.07-627.3-365.44l-5.62-2.72 35.47-114.05 2.49-1.42c106.35-60.43 208.52-128.1 306.56-201.22v-44.94h-195.62l22.46-13.47c127.73-76.65 253.14-157.15 375.11-242.69v-45.78h-230.27l313.62-195.17-1.54-43.66h-121.6l8.72-11.61c147.67-196.56 368.81-320.92 516.47-516.26l179.52-237.48c8.4-12.01 30.94-42.28 27.04-58.15-3.85-15.69-45.24-41.75-57.91-51.03-68.02-47.9-140.75-90.31-215.62-126.56-60-29.06-123.91-55.69-187.97-74.44-48.36-14.15-96.49-24.54-145.96-9.99-15.91 4.68-31.37 11.24-46.71 17.5l-427.82 174.35c-111.16 45.3-275.62 42.26-394.62 36.86l-574.28-16.37c7.85-79.06 13.69-128.32-41.1-194.91-45.06-54.74-127.33-111.24-200.64-109.53-52.46 1.23-105.76 8.65-156 24.05l-2.21.68-2.2-.73c-25.29-8.39-51.08-15.65-76.96-21.97-40.23-9.82-88.51-19.9-129.95-20.44-21.93-.29-43.79-.2-65.42 3.82-9.46 1.76-18.86 4.01-28.27 6.02l-.74.16h-.76c-56.76.15-113.64 2.21-170.31 5.35-55.7 3.09-111.41 7.26-166.92 12.75-44.85 4.43-90.17 9.57-134.61 17.05-29.84 5.02-87.17 13.1-107.21 39.23-6.94 9.04-12.12 21.03-17.41 31.17l-1.53 2.94-3.23.77c-100.58 23.83-198.15 58.95-292.08 101.96l-4.21 1.93-3.52-3.01c-41.8-35.69-86.27-67.64-134.07-94.85l-7.72-4.4 5.86-6.69c75.24-85.91 158.59-164.28 234.48-249.52 14.07-15.8 21.87-28.36 2.92-43.28l-30.03-23.65c-16.41-12.92-41.36-9.81-60.79-7.8-100.45 10.42-201.65 21.44-301.05 39.44-81.43 14.75-170.29 35.38-245.08 71.55l-3.33 1.61-3.26-1.75c-27.36-14.68-50.23-15.68-79.5-5.02-130.55 47.5-260.18 97.62-385.99 156.7-17.79 8.35-15.77 14.94-23.33 31.85z"/><path class="cls-1" d="M4502.85 3873.4c52.48-64.2 101.18-134.67 145.82-211.84 44.69-77.25 85.33-161.21 121.66-252.29l.73-1.82 1641.8-664.62c167.04-67.62 325.01-166.75 466.28-292 139.74-123.9 263.18-273.39 362.96-443.27l307.41-523.4 3.16.65c65.96 13.64 124.36 35.64 176.37 64.57 52.02 28.93 97.66 64.8 138.09 106.16l-6.47 6.3c-39.83-40.75-84.78-76.08-136-104.57-50.39-28.03-106.91-49.46-170.64-62.95l-304.12 517.8c-100.26 170.71-224.32 320.94-364.76 445.46-142.07 125.96-300.91 225.64-468.87 293.63L4778.01 3414.4c-36.33 90.87-76.93 174.63-121.5 251.68-44.92 77.65-93.89 148.52-146.63 213.05l-7.01-5.73zM7781.24 2313.1l-356.84 190.84-4.25-7.96 356.84-190.84zM8115.89 1651.27l-366.97 206.1-4.42-7.89 366.97-206.1zM8404.26 1420.63l-606.92 351.98-4.52-7.82 606.91-351.98zM8007.45 1467.72l158.04-54.64 1.42-.25 153.02-1.9.1 9.03-152.3 1.89-157.34 54.39zM8326.72 1659.19l-676.66 404.11-4.64-7.75 676.66-404.11zM7948.69 1953.5l-324.01 162.61-4.03-8.06 324-162.62zM8124.75 1960.98l-595.52 351.68-4.6-7.78 595.52-351.68zM7860.27 2184.91l-366.01 195-4.25-7.96 366.02-195zM7905.52 2387.1c-60.5 32.82-122.51 72.15-178.29 112.51-53.68 38.84-105.37 80.92-155.41 125.73l667.8 196.58-2.55 8.67-683.33-201.15 6-5.41c52.12-47.03 106.06-91.14 162.17-131.74 56.14-40.63 118.49-80.17 179.28-113.15l4.32 7.96zM6976.15 544.14l-454.85-7.2c-11.2-.18-20.33-.6-28.31-.97-30.35-1.4-44.04-2.03-82.36 15.21-133.96 60.28-239.71 122.67-325.1 188.8-85.31 66.06-150.35 135.89-202.97 211.12-35.13 50.22-64.77 102.91-91.23 158.54-25.97 54.59-48.88 111.97-70.91 172.6l281.05 145.75-4.14 8.04-288.11-149.41 1.35-3.73c22.56-62.29 45.97-121.17 72.58-177.1 26.65-56.01 56.53-109.13 92.01-159.84 53.14-75.96 118.79-146.45 204.85-213.1 85.97-66.58 192.31-129.33 326.91-189.9 40.27-18.12 54.63-17.46 86.46-15.99 8.04.37 17.24.8 28.06.97l454.85 7.2-.14 9.03z"/><path class="cls-1" d="M6364.73 1950.84c86.31-43.47 282.03-216.12 399.79-402.43 77.14-122.04 120.66-249.69 77.31-349.87-14.22-32.86-45.6-65.56-100.09-94-47.84-24.97-113.4-46.58-200.64-62.03-113.65-20.14-241.87-36.27-379.58-53.58-90.34-11.35-184.78-23.23-282.47-37.18l1.28-8.95c96.89 13.84 191.65 25.75 282.28 37.14 137.8 17.32 266.1 33.46 380.04 53.65 88.16 15.62 154.6 37.55 203.26 62.95 56.49 29.48 89.19 63.77 104.19 98.43 44.76 103.42.63 233.94-77.94 358.25-118.61 187.65-316.16 361.75-403.37 405.68l-4.07-8.07zM5057.61 1738.79l18.37-20.72c218.21-167.62 400.04-307.29 644.33-433.75l4.14 8.04c-243.56 126.09-425.12 265.54-642.98 432.9l-13.25 10.18-10.59 3.36zM5782.91 1320.99c-5.87 6.6-14.21 15.76-23.91 26.4-52.82 57.97-147.05 161.39-159.7 203.45l-8.67-2.58c13.25-44.04 108.37-148.43 161.68-206.95 9.38-10.29 17.44-19.14 23.84-26.34l6.76 6.02z"/><path class="cls-1" d="M6097.8 974.62c18.48-32.94 38.08-64.9 60.68-94.23 22.66-29.4 48.3-56.09 78.76-78.36 14.16-10.35 15.22-10.42 29.06-11.31l5.53-.37c71.85-5.29 144.63-2.77 214.59 5.77 75.21 9.19 147.23 25.36 211.34 46.26 21.57 7.03 30.23 15.22 30.96 26.49.68 10.53-6.2 22.6-15.9 38.82l-89.69 149.35-7.75-4.64 89.69-149.35c8.84-14.8 15.13-25.73 14.62-33.62-.46-7.14-7.37-12.8-24.73-18.45-63.55-20.72-134.97-36.75-209.63-45.87-69.43-8.48-141.63-10.98-212.86-5.74l-5.57.37c-11.44.73-12.31.79-24.32 9.57-29.73 21.73-54.79 47.82-76.96 76.59-22.23 28.84-41.63 60.47-59.94 93.13l-7.89-4.43zM5949.87 1002.3l-143.25 262.59 30.43 12.68 146.92-273.08 7.97 4.27-150.81 280.31-47.24-19.68 148.06-271.41zM6071.59 1016.48l-158.42 290.05 19.65 13.06 173.96-299.22 7.83 4.53-178.8 307.53-34.54-22.94 160.95-294.69zM6216.12 1044.73l-182.61 312.87 35.92 21.29 195.1-329.84 7.79 4.6-199.71 337.63-51.45-30.48 187.13-320.64zM6385.64 1076.55l-195.23 365.62 38.13 18.74 217.95-378.21 7.82 4.49-222.17 385.54-54.09-26.57 199.63-373.86zM6600.74 1121.19l-245.95 422.19 44.43 21.87 248.69-434.8 7.86 4.49-252.91 442.17-60.76-29.9 250.82-430.55zM6788.37 1208.68l-262.89 430.91 36.14 43.77 270.9-409.11 7.54 4.99-277.64 419.28-48-58.15 266.24-436.39z"/><path class="cls-1" d="M5836.86 1279.39l118.23-67.04 4.46 7.86-118.42 68.86zM5931.98 1322.14l173.78-105.19 4.67 7.75-173.77 105.18zM6068.72 1381.19l211.92-125.79 4.6 7.79-211.92 125.79zM6227.68 1463.17l228.85-168.61 5.35 7.28-228.86 168.62zM6398.05 1567.8l238.22-210.41 86.58-196.93 8.28 3.65-86.97 197.81-1.15 1.55-238.98 211.09z"/><path class="cls-1" d="M6846.02 1374.29c4.93-38.83-.38-74.58-14.94-105.97-14.73-31.75-38.99-59.12-71.74-80.78l-7.89-5.23c-64.59-42.81-70.99-47.06-301.92-92.93-58.16-11.55-535.26-83.87-555.26-99.86.85.12 302.81 40.49 556.99 90.98 232.69 46.22 239.22 50.55 305.18 94.27l7.89 5.23c34.16 22.59 59.51 51.23 74.96 84.53 15.26 32.9 20.83 70.31 15.68 110.89l-8.95-1.13z"/><path class="cls-1" d="M6558.71 1687.86l235.54-253.16 51.04-124.03 8.36 3.44-51.37 124.79-.86 1.37-236.09 253.75zM6450.97 1301.37l81.18-200.78 8.39 3.36-81.19 200.78zM5396.4 429.24c-62.93 27.42-144.25 63.49-239.15 107.7-94.75 44.13-202.36 96.05-317.36 154.93-83.79 42.89-171.74 89.6-261.84 139.83-90.09 50.22-182.25 103.93-274.47 160.84l-23.16 14.38-23.19 14.52c-122.72 77.26-246.32 161.07-367.27 247.98-128.57 92.39-254.28 188.4-372.82 283.85-126.35 101.74-244.51 202.83-349.32 298.26-106.48 96.94-199.21 188.06-272.74 268.08-54.46 59.27-78.74 109.68-97.67 148.99l-6.38 13.14-8.1-3.96 6.34-13.1c19.19-39.85 43.8-90.95 99.16-151.19 73.7-80.19 166.61-171.5 273.31-268.64 104.95-95.55 223.26-196.77 349.74-298.62 118.54-95.45 244.36-191.55 373.21-284.13 121.17-87.07 244.94-171 367.73-248.3l23.23-14.55 23.2-14.38c92.41-57.03 184.69-110.8 274.82-161.05 90.1-50.23 178.17-96.99 262.13-139.98 115.75-59.26 223.31-111.18 317.64-155.11 94.17-43.86 175.87-80.09 239.36-107.76l3.61 8.28z"/><path class="cls-1" d="M4757.29 724.55c165.48-61.08 228.34-37.31 358.2 11.81 20.67 7.82 43.07 16.29 68.45 25.36 18.39 6.57 31.81 19.79 40.75 35.52 10.56 18.59 14.84 40.77 13.66 59.54-4.04 64.2-44.85 160.12-109.3 247.22-54.04 73.03-124.78 140.02-204.5 177.15-142.53 66.36-293.56 124.79-438.44 174.5-187.84 64.45-365.46 114.27-500.88 147.79-119.94 29.68-221.89 53.12-301.31 61.99-80.52 8.98-138.33 2.92-168.9-26.78-10.67-10.37-14.46-26.8-12.34-45.87 2.11-18.99 8.05-35.34 20.92-56.28l9.78-.71c-12.18 19.82-19.74 40.3-21.7 57.99-1.81 16.34 1.14 30.13 9.65 38.41 28.33 27.54 83.76 32.95 161.61 24.27 78.95-8.81 180.55-32.18 300.14-61.77 135.12-33.44 312.42-83.18 500.1-147.57 144.59-49.61 295.31-107.92 437.55-174.15 78.27-36.44 147.84-102.39 201.07-174.31 63.45-85.73 103.59-179.78 107.53-242.41 1.08-17.2-2.83-37.51-12.49-54.52-7.94-13.97-19.79-25.69-35.93-31.46-24.74-8.84-47.55-17.47-68.59-25.43-127.74-48.31-189.57-71.7-351.91-11.78l-3.11-8.49z"/><path class="cls-1" d="M5493.88 381.48c40.89 3.31 80.64 8.37 119.76 14.38 38.75 5.95 77.35 12.93 115.93 20.08 13.4 2.48 21.05 7.32 17.84 17.58-2.36 7.52-13.06 18.16-36 33.77-7.09 4.83-21.2 13.76-40.39 25.92-100.86 63.85-342.99 217.14-439.2 326.45l-6.8-5.98c97.03-110.23 339.98-264.04 441.19-328.11 19.12-12.11 33.17-21 40.12-25.73 21.09-14.34 30.7-23.39 32.46-29 .9-2.88-3.53-4.67-10.83-6.02-38.07-7.05-76.33-13.97-115.64-20-38.94-5.98-78.49-11.02-119.12-14.31l.7-9.03zM6557.21 260.47c64.7 17.22 115.22 40.54 154.2 68.8 39.16 28.38 66.7 61.76 85.31 98.96 8.36 16.71 14.92 34.2 19.89 52.34 4.98 18.13 8.4 36.88 10.48 56.14l-8.99.95c-2.04-18.86-5.36-37.15-10.19-54.73-4.82-17.57-11.17-34.5-19.25-50.67-17.96-35.91-44.61-68.17-82.55-95.67-38.11-27.63-87.64-50.46-151.19-67.38l2.3-8.74z"/><path class="cls-1" d="M6912.41 392.75c2.4-.65 4.88.76 5.54 3.17.65 2.4-.76 4.88-3.17 5.54l-120.91 33.15c-2.4.65-4.88-.76-5.54-3.17-.65-2.4.76-4.88 3.17-5.54l120.91-33.15zM6784.88 272.35c2.32-.92 4.95.2 5.87 2.51.92 2.32-.2 4.95-2.51 5.87-4.29 1.72-123.32 28.84-123.65 28.91-2.43.55-4.85-.98-5.4-3.42-.55-2.43.98-4.85 3.42-5.4.34-.07 118.48-26.97 122.27-28.49zM5650.16 333.01c.07-.02 31.08-4.88 56.43-.66l11.72 1.83c42.89 6.6 161.26 24.83 175.03 47.19 1.31 2.12 2.99 4.96 4.48 7.49 8.18 13.84 9.42 15.94 29.03 10.16 9.82-2.89 67.6-17.99 136.71-36.04 114.39-29.88 259.92-67.9 269.43-71.84 10.4-4.31 16.71-9.32 20.1-14.24 2.2-3.19 3.11-6.31 3.1-9.09-.01-2.65-.86-5.03-2.2-6.87-1.27-1.74-2.97-2.99-4.81-3.53-3.9-1.15-16.65-4.12-31.64-7.6-27.11-6.31-61.54-14.31-67.01-17.25-3.07-1.66-3.97-3.85-2.43-6.72l4.69 2.52 1.1-2.04c-.07-1.22.16-2.13.92-1.72 4.37 2.34 38.17 10.21 64.79 16.4 14.97 3.48 27.71 6.45 32.13 7.75 3.72 1.09 7.1 3.54 9.55 6.89 2.41 3.3 3.92 7.51 3.94 12.14.01 4.51-1.36 9.42-4.69 14.26-4.29 6.23-11.89 12.41-24.06 17.46-10 4.14-155.92 42.27-270.63 72.23-68.97 18.01-126.64 33.08-136.43 35.97-26.37 7.77-28.09 4.87-39.35-14.23-1.11-1.91-2.36-4.01-4.41-7.35-11.52-18.78-126.88-36.54-168.67-42.97l-11.87-1.87c-23.18-3.86-52.29.39-52.36.41l-2.58-8.67zm602.64-104.65l1.75.94c-.34-.86-.59-2.02-.65-2.98l-1.1 2.04z"/><path class="cls-1" d="M5682.64 289.83c.23.01 82.84 6.29 132.14 17.7 8.78 2.03 15.68 3.57 22.16 5.01 37.61 8.37 61.89 13.78 68.64 26.86 7.46 14.49 2.61 65.53 2.59 65.68l-8.99-.92c.01-.14 4.65-48.42-1.64-60.62-4.81-9.33-27.46-14.38-62.54-22.19-7.39-1.64-15.33-3.41-22.23-5.01-48.59-11.24-130.56-17.47-130.79-17.48l.68-9.03zM6451.43 537.11c-.58.09-203.44 32.3-337.44 73.46-78.31 24.06-222.32 82.35-355.9 155.99-94.7 52.21-184.08 112.1-240.83 172.86-65.29 69.9-201.44 229.85-332.59 383.92-145.81 171.3-285.46 335.37-315.05 360.76-99.89 85.75-387.18 179.13-709.14 258.83-441.75 109.34-949.34 193.15-1127.01 196.03l-.87-.07c-21.6-3.94-40.77-11.76-57.85-22.9-17.04-11.12-31.99-25.54-45.18-42.69l7.15-5.52c12.59 16.37 26.8 30.1 42.95 40.64 15.99 10.43 33.92 17.77 54.08 21.51 177.5-2.99 683.7-86.65 1124.58-195.77 320.79-79.4 606.72-172.18 705.43-256.92 29.13-25 168.52-188.76 314.05-359.74 131.37-154.33 267.76-314.56 332.84-384.23 57.48-61.54 147.66-122.01 243.09-174.62 134.12-73.94 278.85-132.51 357.59-156.7 134.6-41.35 338.06-73.65 338.64-73.74l1.45 8.92z"/><path class="cls-1" d="M4636.54 1395.42c-.04-.43-13.24-150.4-89.88-235.03-76.72-84.71-292.31-138.22-292.93-138.38l2.19-8.78c.63.16 218.81 54.3 297.42 141.1 78.69 86.89 92.15 239.83 92.19 240.27l-8.99.81z"/><path class="cls-1" d="M4702.44 1369.94c-.04-.47-15.34-165.2-91.99-249.83-76.72-84.71-292.31-138.22-292.93-138.38l2.19-8.78c.63.16 218.81 54.3 297.42 141.1 78.69 86.89 94.24 254.52 94.29 255l-8.99.89zM3206.51 2265.96l1216.59-221.73 1.6 8.88-1216.6 221.73zM4981.81 212.57c95.13 28.18 169.31 72.4 241.23 125.4l-10.93 7.12c-73.84-52.94-141.37-82.78-230.3-132.52z"/><path class="cls-1" d="M1635.74 2764.97c-94.67 31.79-188.64 62.45-274.32 79.78-86.13 17.42-163.88 21.36-225.56-.51l-.04-8.51c231.26-83.67 221.05-157.51 212.44-219.73l-1.51-11.2c-.93-7.46-3.97-15.69-8.74-24.33-5.12-9.25-12.18-18.93-20.77-28.66-27.63-31.28-70.88-63.06-116.23-83.65-38.96-17.69-79.33-27.05-112.33-20.59l-.69.07c-10.19.42-17.36-.81-22.16-3.2-5.58-2.78-8.22-6.99-8.73-12.06-.44-4.41.93-9.31 3.42-14.29 5.39-10.77 16.36-22.49 24.49-29.71 30.03-26.68 58.97-54.42 87.94-82.16 82.26-78.82 164.71-157.81 268.97-210.31 275.93-138.95 559.31-267.44 844.15-396.6 569.76-258.35 1145.4-519.37 1677.23-871.16 41.8-27.65 79.97-55.12 116.31-81.29 116.51-83.87 214.58-154.47 348.7-171.76 69.09-8.9 136.72-9.76 204.82 5.68 68.17 15.46 136.72 47.21 207.52 103.53l-5.63 7.07c-69.66-55.4-136.99-86.62-203.87-101.79-66.95-15.18-133.58-14.32-201.71-5.54-131.82 16.99-229.05 86.98-344.55 170.13-36.55 26.31-74.92 53.93-116.6 81.5-532.47 352.21-1108.44 613.38-1678.51 871.87-284.86 129.17-568.26 257.67-843.79 396.42-103.06 51.89-185.01 130.41-266.77 208.75-29.16 27.93-58.31 55.86-88.19 82.41-7.54 6.68-17.64 17.4-22.44 27-1.76 3.52-2.75 6.77-2.5 9.36.19 1.94 1.34 3.63 3.78 4.84 3.46 1.72 9.06 2.6 17.4 2.29 34.93-6.73 77.06 2.95 117.45 21.28 46.47 21.1 90.86 53.74 119.28 85.92 9.06 10.25 16.52 20.48 21.94 30.29 5.32 9.64 8.73 18.96 9.81 27.59l1.47 11.05c8.91 64.38 19.43 140.57-205.97 224.92 57.92 16.69 129.48 12.18 208.4-3.78 85.1-17.21 197.43-49.9 291.86-81.61l-15.77 10.69z"/><path class="cls-1" d="M1318.65 2544.76c345.32-166.25 691.82-328.63 1041.27-483.61 349.61-155.06 702.27-302.77 1059.79-439.65l3.22 8.46c-357.46 136.85-709.97 284.5-1059.37 439.47-349.55 155.03-695.93 317.34-1040.99 483.47l-3.93-8.14z"/><path class="cls-1" d="M2101.18 2564.47l128.37-279.94 5.77-12.35c15.67-33.38 19.3-41.11 9.91-83.41l-14.63-65.93 8.81-1.94 14.63 65.93c10.05 45.29 6.18 53.54-10.55 89.18-44.57 95.73-89.94 191.16-134.92 286.7l-7.39 1.76z"/><path class="cls-1" d="M2846.95 2178.63l-698.19 295.99-3.5-8.31 698.19-295.99z"/><path class="cls-1" d="M2333.86 2388.42l106.15-225.47 5.75-12.32c12.19-25.98 17.11-36.44 14.34-59.21-1.03-8.52-4.85-17.43-10.3-26.38-5.62-9.24-12.97-18.51-20.85-27.5l6.8-5.94c8.18 9.34 15.85 19.02 21.76 28.74 6.09 10.01 10.38 20.11 11.58 30.02 3.07 25.27-2.16 36.42-15.16 64.1-36.97 79.41-74.59 158.57-111.91 237.83l-8.18-3.86zM2505.56 2314.69l125.05-241.59 5.73-12.27c12.19-25.98 17.11-36.44 14.34-59.21-.98-8.08-4.47-16.52-9.48-25.01-5.17-8.76-11.95-17.57-19.31-26.15l6.87-5.87c7.68 8.95 14.77 18.17 20.23 27.42 5.61 9.52 9.54 19.11 10.69 28.55 3.07 25.27-2.16 36.42-15.16 64.1-39.49 84.84-87.69 170.65-130.92 254.18l-8.04-4.14zM2646.35 2254.97l151.74-282.94 5.75-12.32c12.19-25.98 17.11-36.44 14.34-59.21-.53-4.37-1.8-8.85-3.65-13.39-1.89-4.66-4.39-9.37-7.32-14.07l7.68-4.78c3.2 5.14 5.94 10.31 8.03 15.45 2.14 5.25 3.62 10.52 4.25 15.73 3.07 25.27-2.16 36.42-15.16 64.1-45.39 97.51-106.33 199.89-157.71 295.68l-7.96-4.25zM2817.02 2182.42c33.14-53.93 65.77-109.89 98.3-165.68 26.96-46.25 53.87-92.39 80.54-136.52 2.27-3.75 5.44-11.73 5.3-21.24-.1-6.25-1.67-13.16-5.96-19.92-3.9-6.16-12.21-11.31-20.52-15.23-8.66-4.09-17.37-6.84-21.49-8.13l2.69-8.64c4.31 1.35 13.42 4.23 22.66 8.59 9.6 4.53 19.32 10.69 24.31 18.56 5.28 8.33 7.21 16.88 7.34 24.63.18 11.57-3.76 21.4-6.58 26.05-27.01 44.7-53.71 90.49-80.46 136.37-32.72 56.12-65.54 112.41-98.41 165.89l-7.71-4.74zM3159.87 1849.16l36.14-59.7c3.53-5.84 6.43-11.24 8.17-16.78 1.7-5.4 2.37-11.12 1.56-17.81-.66-5.51-4.17-10.68-9.54-15.57-5.85-5.33-13.82-10.29-22.82-14.98l4.18-8c9.66 5.04 18.28 10.41 24.73 16.3 6.93 6.31 11.49 13.3 12.44 21.19.97 8.07.16 14.99-1.91 21.56-2.03 6.43-5.21 12.4-9.06 18.77l-36.17 59.7-7.71-4.67zM5059.48 580.97c-28.33-16.04-56.97-31.88-86.18-47.32-29.17-15.42-58.88-30.45-89.36-44.87-14.42-6.82-32.33-9.44-50.28-7.98-17.75 1.44-35.43 6.88-49.7 16.17l-143.34 93.42-4.92-7.57 143.34-93.42c15.57-10.15 34.75-16.07 53.91-17.63 19.43-1.58 38.97 1.32 54.84 8.83 30.61 14.49 60.44 29.57 89.72 45.05 29.24 15.46 57.98 31.35 86.43 47.46l-4.46 7.86zM4287.51 349.91l538.03-240.2 3.68 8.25-538.02 240.19zM4553.67 576.95c-42.22 49.19-82.3 101.37-119.65 157.29-36.23 54.23-69.95 112-100.61 173.97l81.43 7.66-.81 8.99-94.47-8.88 2.87-5.87a1557.149 1557.149 0 0 1 104.09-180.9c37.59-56.25 77.87-108.72 120.29-158.13l6.87 5.87z"/><path class="cls-1" d="M4614.49 582.7c-41.99 49.64-83.51 104.87-122.21 163.79-36.17 55.08-69.92 113.42-99.31 173.46l-8.1-3.96c29.56-60.39 63.51-119.07 99.88-174.45 38.96-59.32 80.7-114.85 122.85-164.67l6.9 5.84zM4675.63 597.79c-35.77 42.69-69.95 87.66-102.15 135.38a1548.04 1548.04 0 0 0-90.37 151.82l-8.04-4.18c28.08-53.97 58.51-104.72 90.91-152.71 32.37-47.95 66.74-93.18 102.72-136.12l6.94 5.8zM4728.28 620.36c-26.94 32.14-52.95 65.54-77.86 100.38-24.95 34.89-48.84 71.26-71.49 109.3l-7.75-4.64c22.8-38.28 46.81-74.85 71.88-109.9 25.1-35.1 51.25-68.69 78.29-100.95l6.94 5.8zM4783.89 648.75c-15.81 18.98-31.3 38.41-46.42 58.31a1611.655 1611.655 0 0 0-44.32 61.25l-7.43-5.13c14.43-20.97 29.3-41.48 44.57-61.57 15.22-20.02 30.79-39.56 46.67-58.63l6.94 5.77zM4356.57 3285.47c41.18 13.52 68.89 59.67 80.38 123.35 11.3 62.65 7 142.59-15.57 224.94-2.85 10.4-5.87 20.44-9.04 30.1-23.92 72.88-58.83 133.55-97.06 173.51-38.92 40.69-81.51 60.09-119.95 49.55l-3.78-1.13c-41.18-13.52-68.89-59.67-80.38-123.35-11.31-62.65-7-142.59 15.57-224.94 2.85-10.4 5.87-20.45 9.04-30.11 23.92-72.88 58.83-133.55 97.06-173.5 38.92-40.69 81.51-60.09 119.95-49.55l3.78 1.13zm71.5 124.94c-10.89-60.38-36.53-103.94-74.3-116.34l-3.36-1.02c-34.98-9.59-74.46 8.81-111.07 47.08-37.31 38.99-71.46 98.46-94.97 170.07-3.23 9.83-6.22 19.74-8.94 29.68-22.22 81.05-26.47 159.56-15.39 220.97 10.89 60.39 36.52 103.94 74.3 116.34l3.36 1.02c34.98 9.59 74.46-8.81 111.07-47.08 37.31-39 71.46-98.46 94.97-170.07 3.23-9.83 6.22-19.73 8.94-29.67 22.22-81.05 26.47-159.56 15.39-220.97zM5101.47 202.97c-2.33.87-4.94-.32-5.8-2.66-.87-2.33.32-4.94 2.66-5.8l332.52-124.6c2.33-.87 4.94.32 5.8 2.66.87 2.33-.32 4.94-2.66 5.8l-332.52 124.6zM7717.86 800.97l384.08 277.1c-.1-19.39-4.49-68.27-44-95.22-5.43-3.73-10.82-7.5-16.21-11.28-12.56-8.82-29.77-21.1-49.08-34.87-65.37-46.62-155.44-110.87-199.63-137.2-5.47-3.27-10.25-5.95-14.16-7.92-3.68-1.86-6.46-3.04-8.2-3.43-2.61-.59-5.24-.91-7.86-.99-2.64-.08-5.37.06-8.11.39-15.02 1.79-29.31 9.05-36.83 13.45zm385.71 289.4L7702 800.66l5.18-3.65c.06-.04 22.31-15.59 46.44-18.48 3.09-.37 6.26-.52 9.46-.42 3.23.11 6.44.49 9.57 1.21 2.5.58 5.97 2.01 10.27 4.18 4.07 2.05 9.04 4.84 14.73 8.24 44.53 26.54 134.75 90.89 200.23 137.59 18.71 13.35 35.36 25.22 49.02 34.83 5.36 3.76 10.72 7.51 16.12 11.22 54.39 37.1 47.7 111.5 47.68 111.72l-.7 7.93-6.45-4.66z"/><path class="cls-1" d="M7734.55 785.64c215.88-96.82 376.78-147.7 602.44-214.18l.05-.02c34.53-9.79 74.99-3.04 113.01 11.01 52.13 19.28 99.97 52.45 121.27 75.22 18.26 19.51 28.92 31.57 35.26 41.42 6.69 10.39 8.71 18.33 9.48 29.35.62 8.84-1.38 17.13-6.26 25-4.69 7.57-12.08 14.68-22.4 21.48l-477.38 320.11-4.95-7.54 477.38-320.11c9.17-6.04 15.66-12.24 19.68-18.72 3.83-6.17 5.4-12.67 4.91-19.62-.66-9.46-2.38-16.25-8.06-25.08-6.04-9.38-16.42-21.1-34.24-40.14-20.56-21.98-66.99-54.1-117.8-72.88-36.43-13.47-74.99-20.01-107.45-10.8-225.31 66.37-371.56 106.56-587.1 203.23l-17.84 2.27z"/><path class="cls-1" d="M8046.24 966.69l458.61-242.3c19.08-12.22 36-23.77 45.24-36.03 8.51-11.28 10.27-23.47.47-38.03l7.5-5.03c12.45 18.49 10.15 34.06-.75 48.51-10.12 13.42-27.88 25.56-47.83 38.33l-459.02 242.54-4.21-8z"/><path class="cls-17" d="M8403.59 2689.02c-160.47-109.2-327.43-210.73-499.66-301.06-59.99 32.65-121.41 71.64-176.71 111.65-53.68 38.84-105.37 80.92-155.41 125.73l667.8 196.58-.08.27 164.32-93.82c3.69-2.11 25.15-13.65 28.55-17.69-3.12-4.75-25.06-19.1-28.83-21.66z"/><path class="cls-17" d="M8229 2828.21l-675.25-198.77 6-5.41c52.12-47.03 106.06-91.14 162.17-131.74 54.02-39.09 113.77-77.17 172.36-109.37-39.06-20.37-78.4-40.16-117.99-59.33l-5.62-2.72.79-2.54-345.94 185.01c-92.96 154.14-199.31 285.77-333.71 363.44l923.28 65.62c28.72 2.04 22.93 4.84 48.12-9.54l165.79-94.65z"/><path class="cls-8" d="M7434.51 2488.3l340.77-182.25 28.28-90.92-308.06 164.12c-19.78 37.21-40.05 73.68-60.98 109.05z"/><path class="cls-17" d="M7503.01 2365.02c230.22-122.65 403.52-205.22 612.18-360.84v-37.56l-584.82 345.36c-9.03 17.8-18.14 35.5-27.36 53.03zM7537.93 2297.02l571.98-337.78h-172.67l-311.14 156.15c-28.93 60.75-58.09 121.77-88.17 181.63zM7632.41 2102.14l299.68-150.4 9.94-5.97c127.73-76.65 253.14-157.15 375.11-242.69v-38.18l-665.9 397.68c-5.85 12.26-11.7 24.55-17.55 36.86-.43.9-.85 1.79-1.28 2.69zM7658.27 2047.87l653.99-390.57h-207.12l-351.42 197.37c-32.39 62.17-63.92 127.2-95.45 193.2zM7761.42 1839.97l327.38-183.87 311.69-193.97-1.37-38.53-600.7 348.38c-12.5 22.17-24.82 44.87-37.01 67.99zM7807.29 1756.4l582.66-337.92c-74.27 0-146.93 2.44-222.22 3.37l-156.21 54.01c-56.49 62.51-107.02 126.05-149.51 190.97-18.7 28.57-36.9 58.52-54.72 89.57z"/><path class="cls-9" d="M7746.93 1848.12c34.48-66.05 69.96-128.88 107.51-186.24.83-1.27 1.67-2.54 2.5-3.81-38.91-39.16-82.66-73.2-132.29-100.8-50.39-28.03-106.91-49.46-170.64-62.95l-304.12 517.8c-100.26 170.71-224.32 320.94-364.76 445.46-142.07 125.96-300.91 225.64-468.87 293.63L4778 3414.4c-36.33 90.87-76.93 174.63-121.5 251.68-42.11 72.79-87.78 139.63-136.79 200.87 272.82-100.71 544.42-204.75 815.42-310.23 318.19-123.85 636.26-248.02 953.84-373.43 256.71-101.38 503.78-199.57 759-304.02 6.85-2.8 11.95-5.26 18.45-8.8 253.52-132.83 408.85-459.21 559.1-774.92 39.73-83.47 79.1-166.21 119.87-244.49l-.89-1.59 2.43-1.37zM4412.68 3631.38c22.22-81.05 26.47-159.56 15.39-220.97-10.89-60.38-36.53-103.94-74.3-116.34l-3.36-1.02c-34.98-9.59-74.46 8.81-111.07 47.08-37.31 38.99-71.46 98.46-94.97 170.07-3.23 9.83-6.22 19.74-8.94 29.68-22.22 81.05-26.47 159.56-15.39 220.97 10.89 60.39 36.52 103.94 74.3 116.34l3.36 1.02c34.98 9.59 74.46-8.81 111.07-47.08 37.31-39 71.46-98.46 94.97-170.07 3.23-9.83 6.22-19.73 8.94-29.67z"/><path class="cls-1" d="M6459.23 1294.36l26.98 9.52-2.34 8.74-26.97-9.52zM6639.74 1358.84l39.49 12.87-2.33 8.74-39.49-12.87zM6794.72 1435.38l29.55 12.87-1.74 8.74-29.55-12.87z"/><path class="cls-8" d="M5837.05 1277.57l144.49-268.56c-12.04-1.83-22.97-3.47-32.65-4.91l-142.27 260.8 30.43 12.68zM5991.03 1010.45l-140.53 261.21 103.48-58.68 104.87-192.01c-24.9-3.92-47.72-7.45-67.82-10.52zM6068.32 1022.46l-155.16 284.07 19.66 13.06 169.58-291.7c-11.71-1.88-23.08-3.7-34.08-5.44zM6111.97 1029.44l-164.83 283.53 155.27-93.98 72.69-179.19c-21.78-3.63-42.9-7.09-63.12-10.35zM6215.07 1046.53l-181.56 311.07 35.92 21.29 191.88-324.4c-15.59-2.72-31.04-5.38-46.24-7.96zM6270.83 1056.15l-186.92 316.02 186.1-110.47 77.36-191.82a9233.8 9233.8 0 0 0-76.54-13.74zM6385.41 1076.98l-195 365.2 38.14 18.73 214.8-372.74c-19.14-3.78-38.5-7.51-57.93-11.18zM6452.68 1090.02l-207.67 360.38 207.52-152.89 77.6-191.9c-22.56-4.64-48.17-9.78-77.44-15.59zM6600.74 1121.19l-245.95 422.2 44.42 21.87 247.65-432.98c-13.23-3.69-28.7-7.53-47.35-11.78l1.22.7zM6655.77 1134.94l-237.23 414.77 217.74-192.32 85.4-194.25c-18.96-11.42-36.73-19.66-66.32-28.43l.41.24zM6787.75 1209.69l-262.27 429.89 36.14 43.78 270.9-409.12 1.62 1.07c-.97-2.36-1.99-4.69-3.06-7-10.09-21.74-24.64-41.42-43.32-58.63zM6837.26 1283.46l-241.2 364.26 198.19-213.02 50.54-122.8c-1.76-9.79-4.27-19.28-7.53-28.44z"/><path class="cls-5" d="M6678.48 1371.46l102.18-167.48 2.2 1.34c-7.27-6.29-15.12-12.22-23.52-17.78l-7.89-5.23c-8.06-5.34-15.21-10.08-22.01-14.38l-84.65 192.55 33.68 10.98zM6847.14 1329.92l-44.77 108.78 17.44 7.6c10.75-24.23 19.62-48.33 26.18-72.03.02-.07.04-.15.06-.23 1.92-15.21 2.26-29.94 1.09-44.13zM6484.25 1303.19l107.46-184.47c-15.35-3.43-32.72-7.14-52.59-11.26l-76.11 188.23 21.24 7.5zM6104.76 1217.55l100.77-172.65c-10.27-1.74-20.43-3.44-30.44-5.11l-72.69 179.19 2.36-1.43zM6347.37 1069.89l-77.36 191.82 9.56-5.67 96.54-180.81c-9.57-1.79-19.16-3.57-28.74-5.34z"/><path d="M6162.63 979.94c137.8 17.32 266.1 33.46 380.04 53.65 26.79 4.75 51.58 10.08 74.47 15.91l87.95-146.45c8.84-14.8 15.13-25.73 14.62-33.62-.46-7.14-7.37-12.8-24.73-18.45-63.55-20.72-134.97-36.75-209.63-45.87-69.43-8.48-141.63-10.98-212.86-5.74l-5.57.37c-11.44.73-12.31.79-24.32 9.57-29.73 21.73-54.79 47.82-76.96 76.59-20.9 27.12-39.29 56.69-56.64 87.27 18.02 2.28 35.9 4.53 53.63 6.76z" fill="#d2d3d5"/><path class="cls-8" d="M5752.31 1341.31c7.57-8.31 14.29-15.68 19.96-22l-49.9-25.88c-241.34 125.2-421.9 263.59-637.75 429.39l507.98-180.14c18.82-46.75 108.52-145.2 159.71-201.37z"/><path class="cls-8" d="M5780.57 1323.61c-5.66 6.32-13.1 14.48-21.57 23.78-48.21 52.91-130.93 143.69-154.61 191.11l350.74-124.38-174.55-90.52z"/><path class="cls-17" d="M5783.15 1105.78c26.65-56.01 56.53-109.13 92.01-159.84 53.14-75.96 118.79-146.45 204.85-213.1 84.63-65.54 189-127.37 320.62-187.06-68.96 12.27-194.19 36.41-286.64 64.81-78.31 24.06-222.32 82.35-355.9 155.99-94.7 52.21-184.08 112.1-240.83 172.86-65.29 69.9-201.44 229.85-332.59 383.92-145.81 171.3-285.46 335.37-315.05 360.76-99.89 85.75-387.18 179.13-709.14 258.83-421.38 104.3-902.68 185.36-1100.37 195.12-35.01 1.72-52.59-.69-85.36-22.06-15.31-9.99-28.93-22.64-41.09-37.54a2922.91 2922.91 0 0 0-38.59 41.17c-54.46 59.27-78.74 109.68-97.67 148.99-11.22 23.15 13.6 28.9 32.15 30.4 124.31 10.09 281.23-15.62 406.46-38.44l1174.41-214.04c97.33-17.75 194.91-37.32 292.2-56.06 52.09-10.04 100.94-26.71 141.22-62.39l213.77-189.29c73.21-64.87 182.19-152.76 307.07-236.47 127.68-85.58 260.02-167.97 344.63-212.1l73.83-184.45z"/><path class="cls-9" d="M4345.49 2067.54L3241.6 2268.73l97.09 34.96c38.72 13.94 72.72 10.1 112.63 2.65l688.75-128.5c80.77-15.07 144.29-58.81 205.42-110.3zM3059.5 2129.04c196.89-9.64 677.67-90.65 1098.83-194.89 320.79-79.4 606.72-172.18 705.43-256.92 29.13-25 168.52-188.76 314.05-359.74 131.37-154.33 267.76-314.56 332.84-384.23 57.48-61.54 147.66-122.01 243.09-174.62 134.12-73.94 278.85-132.51 357.59-156.7 111.02-34.1 224.77-53 338.64-73.78 22.03-4.05 48.61-.61 71.46-.24l296.08 4.68c-2.07-17.07-5.21-33.66-9.61-49.65-16.57-60.36-49.87-108.71-101.8-146.34-50.7-36.75-160.97-77.59-227-93.73-40.23-9.82-88.51-19.9-129.95-20.44-21.93-.29-43.79-.2-65.42 3.82-4.63.86-9.24 1.84-13.85 2.85 13.32 3.43 32.95 8 49.72 11.9 14.97 3.48 27.71 6.45 32.13 7.75 3.72 1.09 7.1 3.54 9.55 6.89 2.41 3.3 3.92 7.51 3.94 12.14.01 4.51-1.36 9.42-4.69 14.26-4.29 6.23-11.89 12.41-24.06 17.46-10 4.14-155.92 42.27-270.63 72.23-68.97 18.01-126.64 33.08-136.43 35.97-26.37 7.77-28.09 4.87-39.35-14.23-1.11-1.91-2.36-4.01-4.41-7.35-12.52-20.42-148.35-39.78-180.54-44.84-23.18-3.86-52.29.39-52.36.41-47.86 11.34-95.03 25.23-141.45 41.32 34.8 3.25 68.81 7.71 102.35 12.86 38.75 5.95 77.35 12.93 115.93 20.08 13.4 2.48 21.05 7.32 17.84 17.58-2.36 7.52-13.06 18.16-36 33.77-7.09 4.83-21.2 13.76-40.39 25.92-100.27 63.48-340.17 215.36-437.51 324.54 4.08 13.17 5.63 26.83 4.86 39.05-4.04 64.2-44.85 160.12-109.3 247.22-54.04 73.03-124.78 140.02-204.5 177.15-142.53 66.36-293.56 124.79-438.44 174.5-187.84 64.45-365.46 114.27-500.88 147.79-119.94 29.68-221.89 53.12-301.31 61.99-80.52 8.98-138.33 2.92-168.9-26.78-10.67-10.37-14.46-26.8-12.34-45.87 1.38-12.39 4.38-23.66 9.88-35.81-123.59 99.66-239.26 198.64-342.16 292.22l-2.82 4.65-1.38-.83c-85.2 77.62-161.54 151.48-226.25 218.87 11.78 14.57 24.94 26.89 39.72 36.54 28.61 18.66 47.28 22.23 79.83 20.63z"/><path class="cls-11" d="M3682.93 1656.44c78.95-8.81 180.55-32.18 300.14-61.77 135.12-33.44 312.42-83.18 500.1-147.57 50.46-17.31 101.68-35.69 153.01-55.09-2.49-22.81-19.61-154.4-89.54-231.61-72.65-80.22-269.84-132.46-291.07-137.91-122.18 76.98-245.22 160.42-365.62 246.94-124.46 89.44-246.22 182.25-361.41 274.68-9.35 17.15-15.18 34.44-16.88 49.66-1.81 16.34 1.14 30.13 9.65 38.41 28.33 27.54 83.76 32.95 161.61 24.27z"/><path class="cls-9" d="M4553.34 1154.34c69.61 76.87 88.17 205.43 91.56 234.37 19.06-7.24 38.14-14.63 57.19-22.16-2.66-23.96-21.37-168.86-91.63-246.44-71.9-79.4-265.8-131.38-290.36-137.73-5.51 3.38-11.01 6.76-16.52 10.16l-23.16 14.38-14.33 8.98c43.98 11.87 218.7 62.73 287.26 138.44z"/><path class="cls-11" d="M4617.14 1114.06c69.99 77.28 90.03 218.44 93.64 249.05 70.86-28.15 141.38-58.24 209.94-90.16 78.27-36.44 147.84-102.39 201.07-174.31 63.45-85.73 103.59-179.78 107.53-242.41 1.08-17.2-2.83-37.51-12.49-54.52-7.94-13.97-19.79-25.69-35.93-31.46-24.74-8.84-47.55-17.47-68.59-25.43-127.68-48.29-189.51-71.68-351.7-11.85-.06.03-.12.07-.19.1-59.34 31.15-120.34 64.06-182.37 98.64-81.23 45.29-164.15 93.41-247.28 144.15 45.38 12.3 218.26 62.99 286.37 138.2z"/><path class="cls-8" d="M5115.5 736.36c20.67 7.82 43.07 16.29 68.45 25.36 21.91 7.83 37.27 25.33 46.05 46.37 100.13-109.78 336.68-259.54 436.19-322.54 19.12-12.11 33.17-21 40.12-25.73 11.27-7.66 19.26-13.81 24.53-18.74 9.68-9.04 12.46-13.45-2.9-16.28-38.07-7.05-76.33-13.97-115.64-20-38.8-5.96-81.71-9.06-119.03-15.45-111.46 40.12-228.9 97.69-336.01 147.58-94.75 44.13-202.36 96.05-317.36 154.93-9.43 4.83-18.91 9.7-28.44 14.63 126.96-37.12 189.39-13.51 304.05 29.86z"/><path class="cls-17" d="M5718.31 334.19c42.89 6.6 161.26 24.83 175.03 47.19 1.31 2.12 2.99 4.96 4.48 7.49.8 1.36 1.54 2.61 2.23 3.74.95-15.11 1.81-40.66-2.52-49.07-4.81-9.33-27.46-14.38-62.54-22.19-7.39-1.64-15.33-3.41-22.23-5.01-45.99-10.64-121.9-16.79-130.08-17.43-2.98 2.43-5.6 5.06-7.77 7.9-5.56 7.25-9.99 16.38-14.26 24.94 11.27-1.08 29.75-2.08 45.93.61l11.72 1.83z"/><path class="cls-17" d="M5814.78 307.53c8.78 2.03 15.68 3.57 22.16 5.01 37.61 8.37 61.89 13.78 68.64 26.86 6.27 12.17 3.85 50.15 2.9 62.07 3.75 1.3 8.93.35 18.38-2.44 9.82-2.89 67.6-17.99 136.71-36.04 114.39-29.88 259.92-67.9 269.43-71.84 10.4-4.31 16.71-9.32 20.1-14.24 2.2-3.19 3.11-6.31 3.1-9.09-.01-2.65-.86-5.03-2.2-6.87-1.27-1.74-2.97-2.99-4.81-3.53-3.9-1.15-16.65-4.12-31.64-7.6-27.11-6.31-61.54-14.31-67.01-17.25l-.21-.12c-55.55.22-111.21 2.26-166.67 5.34-55.7 3.09-111.41 7.26-166.92 12.75-44.85 4.43-90.17 9.57-134.61 17.05-22.66 3.81-61.15 9.39-87.15 23.29 24.92 2.22 82.1 7.94 119.81 16.66z"/><path d="M6566.63 263.05c37.2 10.47 69.55 23.02 97.58 37.42 14.14-3.22 117.13-26.71 120.67-28.12 2.32-.92 4.95.2 5.87 2.51.92 2.32-.2 4.95-2.51 5.87-3.46 1.39-81.7 19.33-111.9 26.23 12.61 7.04 24.28 14.48 35.07 22.3 37.99 27.54 65.05 59.78 83.62 95.66l117.37-32.18c2.4-.65 4.88.76 5.54 3.17.65 2.4-.76 4.88-3.17 5.54l-115.66 31.71c7.22 15.21 13 31.05 17.49 47.41 4.64 16.88 7.92 34.3 10.03 52.17l132.62 2.1c7.21-73.06 10.2-120.86-42.14-184.46-45.06-54.74-127.33-111.24-200.64-109.53-50.32 1.18-101.42 8.05-149.84 22.21z" fill="#333"/><path class="cls-17" d="M7992.65 936.68c-65.37-46.62-155.44-110.87-199.63-137.2-5.47-3.27-10.25-5.95-14.16-7.92-3.68-1.86-6.46-3.04-8.2-3.43-2.61-.59-5.24-.91-7.86-.99-2.64-.08-5.37.06-8.11.39-15.02 1.79-29.31 9.05-36.83 13.45l384.08 277.1c-.1-19.39-4.49-68.27-44-95.22-5.43-3.73-10.82-7.5-16.21-11.28-12.56-8.82-29.77-21.1-49.08-34.87z"/><path class="cls-8" d="M8598.4 952.83c-206.63 167.08-413.26 334.16-574.18 509.09l141.27-48.84 1.42-.25 117.97-1.46 1.88-2.5c147.67-196.56 368.81-320.92 516.47-516.26l179.52-237.48c7.05-10.08 24.07-33.03 27.04-49.53-127.45 117.61-269.43 232.42-411.39 347.22z"/><path class="cls-9" d="M3884.68 1262.1c121.17-87.07 244.94-171 367.73-248.3l23.23-14.55 23.2-14.38c33.83-20.88 67.65-41.32 101.35-61.31l-80.63-7.58 2.87-5.87a1557.149 1557.149 0 0 1 104.09-180.9c35.81-53.59 74.06-103.74 114.27-151.09-36.87-1.31-73.88 1.12-111.35 5.95-131.82 16.99-229.05 86.98-344.55 170.13-36.55 26.31-74.92 53.93-116.6 81.5-532.47 352.21-1108.44 613.38-1678.51 871.87-284.86 129.17-568.26 257.67-843.79 396.42-103.06 51.89-185.01 130.41-266.77 208.75-29.16 27.93-58.31 55.86-88.19 82.41-7.54 6.68-17.64 17.4-22.44 27-1.76 3.52-2.75 6.77-2.5 9.36.19 1.94 1.34 3.63 3.78 4.84 3.46 1.72 9.06 2.6 17.4 2.29 34.93-6.73 77.06 2.95 117.45 21.28 45.24 20.54 88.52 52.02 116.99 83.37 344.3-165.73 689.79-327.61 1038.21-482.14 349.39-154.96 701.82-302.58 1059.1-439.39a8513.833 8513.833 0 0 1 104.58-85.28c114.98-92.24 236.62-184.95 361.08-274.39z"/><path class="cls-1" d="M1508.7 1869.46c65.39-3.13 122.83-5.03 178.09-1.76 55.42 3.28 110.19 12.44 167.01 30.04l-4.2 7.96c-56.05-17.36-108.6-25.73-163.33-28.97-54.89-3.25-112.05-1.37-177.14 1.76l-.43-9.03z"/><path class="cls-9" d="M2231.8 2128.27c-303.13 136.28-601.3 281.05-901.2 425.4 25.8 30.79 32.74 72.1 29.89 111.46-3.82 52.56-40.11 111.26-209.25 174.55 57.92 16.69 129.48 12.18 208.4-3.78 74.46-15.06 148.82-36.39 219.93-58.38 159.62-49.36 311.76-110.37 474.88-170.36 7.75-2.85 24.02-6.87 30.29-11.4 7.05-5.09 11.89-20.3 15.29-28.54 39.01-94.55 85.4-189.01 129.5-282.69l5.77-12.35c15.67-33.38 19.3-41.11 9.91-83.41l-13.43-60.51z"/><path class="cls-8" d="M2254.04 2186.83c10.05 45.29 6.18 53.54-10.55 89.18-28.85 61.96-58.03 123.81-87.24 185.64l178.82-75.81 104.94-222.88 5.75-12.32c12.19-25.98 17.11-36.44 14.34-59.21-1.03-8.52-4.85-17.43-10.3-26.38-5.17-8.5-11.81-17.03-18.97-25.34-22.44 9.88-44.86 19.79-67.27 29.73-41.16 18.26-82.28 36.61-123.36 55.07l13.83 62.34zM2832.96 2184.56l-682.49 289.34c-13.71 29.03-27.42 58.06-41.1 87.11l674.7-285.59 5.19-10.73c11.11-23.07 24.04-49.92 43.7-80.12z"/><path class="cls-8" d="M2506.31 2313.25l124.3-240.15 5.73-12.27c12.19-25.98 17.11-36.44 14.34-59.21-.98-8.08-4.47-16.52-9.48-25.01-4.28-7.26-9.67-14.55-15.58-21.72-62.16 26.75-124.22 53.77-186.16 81.02 6.77 8 13.04 16.2 18.05 24.43 6.09 10.01 10.38 20.11 11.58 30.02 3.07 25.27-2.16 36.42-15.16 64.1-35.14 75.49-70.88 150.75-106.38 226.08l158.75-67.3z"/><path class="cls-8" d="M2644.52 2064.65c-37.74 81.07-83.43 163.05-125.14 243.05l127.73-54.15 150.98-281.53 5.75-12.32c12.19-25.98 17.11-36.44 14.34-59.21-.53-4.37-1.8-8.85-3.65-13.39-1.4-3.45-3.14-6.93-5.13-10.41a23281.08 23281.08 0 0 0-175.14 74.48c5.54 6.86 10.6 13.84 14.73 20.83 5.61 9.52 9.54 19.11 10.69 28.55 3.07 25.27-2.16 36.42-15.16 64.1z"/><path class="cls-8" d="M2812.01 1963.53c-43.61 93.69-101.58 191.87-151.62 284.39l157.37-66.72c32.89-53.56 65.27-109.1 97.56-164.46 26.96-46.25 53.87-92.39 80.54-136.52 2.27-3.75 5.44-11.73 5.3-21.24-.1-6.25-1.67-13.16-5.96-19.92-3.9-6.16-12.21-11.31-20.52-15.23-7.69-3.63-15.41-6.2-19.94-7.64-45.72 18.84-91.36 37.83-136.94 56.98 1.97 3.52 3.7 7.03 5.12 10.54 2.14 5.25 3.62 10.52 4.25 15.73 3.07 25.27-2.16 36.42-15.16 64.1z"/><path class="cls-8" d="M3003.6 1884.9c-27.01 44.7-53.71 90.49-80.46 136.37-30.28 51.93-60.64 104-91.05 153.86l10.12-4.29c12.59-18.04 27.67-37.18 46.2-57.34 73.7-80.19 166.61-171.5 273.31-268.64.55-.5 1.11-1.01 1.66-1.52l32.61-53.88c3.53-5.84 6.43-11.24 8.17-16.78 1.7-5.4 2.37-11.12 1.56-17.81-.66-5.51-4.17-10.68-9.54-15.57-5.09-4.64-11.79-8.99-19.37-13.14a21017.48 21017.48 0 0 0-209.43 84.83c3.47 1.3 7.29 2.86 11.14 4.67 9.6 4.53 19.32 10.69 24.31 18.56 5.28 8.33 7.21 16.88 7.34 24.63.18 11.57-3.76 21.4-6.58 26.05z"/><path class="cls-8" d="M3214.73 1753.8c.97 8.07.16 14.99-1.91 21.56-2.03 6.43-5.21 12.4-9.06 18.77l-17 28.06c65.72-59.21 136.33-120.41 210.62-182.43-70.14 26.97-140.09 54.35-209.86 82.12 5.61 3.39 10.63 6.95 14.76 10.72 6.93 6.31 11.49 13.3 12.44 21.19zM4434.01 734.24c-36.23 54.23-69.95 112-100.61 173.97l52.83 4.97c29.24-59.4 62.69-117.12 98.5-171.65 37.13-56.53 76.78-109.62 116.91-157.61-16.47-2.62-32.94-4.34-49.43-5.28-41.68 48.69-81.27 100.32-118.2 155.59z"/><path class="cls-8" d="M4611.97 585.69c-41.13 48.86-81.77 103.06-119.69 160.8-34.99 53.28-67.72 109.61-96.42 167.59l17.55 1.65c20.88-12.33 41.71-24.48 62.46-36.46 27.86-53.4 58.02-103.64 90.11-151.17 30.81-45.64 63.42-88.81 97.52-129.89-10.8-3.31-21.58-6.16-32.35-8.6-6.4-1.45-12.79-2.76-19.18-3.92z"/><path class="cls-8" d="M4672.8 601.17c-34.75 41.68-67.97 85.53-99.33 131.99a1549.649 1549.649 0 0 0-82.91 137.65 7595.66 7595.66 0 0 1 80.8-45.72c22.74-38.16 46.7-74.63 71.7-109.6 24.02-33.59 49-65.8 74.79-96.77a459.714 459.714 0 0 0-45.06-17.56zM4726.35 622.66c-26.25 31.44-51.61 64.07-75.93 98.08a1568.297 1568.297 0 0 0-63.19 95.53c33.4-18.53 66.5-36.58 99.2-54.14 14.21-20.61 28.84-40.77 43.85-60.53 13.93-18.32 28.15-36.23 42.63-53.76-15.61-9.49-31.12-17.86-46.56-25.18zM4780.65 652.64a1687.375 1687.375 0 0 0-43.18 54.41c-11.32 14.9-22.48 30.11-33.46 45.67 17.89-9.55 35.65-18.95 53.27-28.19 24.37-12.79 48.46-25.28 72.23-37.47-16.4-12.77-32.68-24.21-48.85-34.41z"/><path class="cls-9" d="M4649.27 584.76c62.13 16.46 124.68 46.97 189.1 97.76 75.12-38.43 146.77-73.76 213.57-105.81-25.87-14.58-52.02-28.98-78.63-43.05-29.17-15.42-58.88-30.45-89.36-44.87-14.42-6.82-32.33-9.44-50.28-7.98-17.75 1.44-35.43 6.88-49.7 16.17l-134.69 87.79z"/><path class="cls-13" d="M4832.96 471.77c19.43-1.58 38.97 1.32 54.84 8.83 30.61 14.49 60.44 29.57 89.72 45.05 28.53 15.08 56.59 30.58 84.37 46.29 31.69-15.16 62.25-29.57 91.54-43.21 73.59-34.28 139.56-63.89 195.18-88.41-68.77-57.92-155.96-115.08-243.08-164.02-41.86-23.51-85.73-42.49-123.72-63.73 93.85 27.8 167.3 71.21 238.32 123.26 74.59-84.81 156.96-162.41 232.01-246.72 14.07-15.8 21.87-28.36 2.92-43.28l-30.03-23.65c-16.41-12.92-41.36-9.81-60.79-7.8-100.45 10.42-201.65 21.44-301.05 39.44-38.93 7.05-79.56 15.45-119.53 26.24-44 11.89-99.91 31.41-141.04 49.77l-475.86 212.44c-22.05 9.84-24.06 12.96-61 28.18-36.93 15.21-103.66 44.71-139.03 76.54-95.99 86.38-189.96 175.2-288.41 258.8-113.11 96.05-230.01 182.17-360.14 254.06l-.21.12-1941.3 908.22c54.03-2.3 102.87-3.28 150.11-.48 56.09 3.32 112.93 12.53 166.5 29.7 143.79-67.04 287.42-132.18 432.76-198.08 569.76-258.35 1145.4-519.37 1677.23-871.16 41.8-27.65 79.97-55.12 116.31-81.29 116.51-83.87 214.58-154.47 348.7-171.76 69.09-8.9 136.72-9.76 204.82 5.68 1.4.32 2.8.64 4.2.97l141.72-92.37c15.57-10.15 34.75-16.07 53.91-17.63zm268.51-268.8c-2.33.87-4.94-.32-5.8-2.66-.87-2.33.32-4.94 2.66-5.8l332.52-124.6c2.33-.87 4.94.32 5.8 2.66.87 2.33-.32 4.94-2.66 5.8l-332.52 124.6z"/><g clip-path="url(#ChangeName-0)"><path id="1" d="M5468.53 54.26c-1.62 1.01-69.98 29.53-69.98 29.53L5012.98 229.7l121.29 57.17 91.57 56.48 364.32-160.42-121.62-128.67z" fill="#d4d4d4"/></g><path class="cls-6" d="M4832.96 471.77c19.43-1.58 38.97 1.32 54.84 8.83 30.61 14.49 60.44 29.57 89.72 45.05 28.53 15.08 56.59 30.58 84.37 46.29 31.69-15.16 62.25-29.57 91.54-43.21 73.59-34.28 139.56-63.89 195.18-88.41-68.77-57.92-155.96-115.08-243.08-164.02-41.86-23.51-85.73-42.49-123.72-63.73 93.85 27.8 167.3 71.21 238.32 123.26 74.59-84.81 156.96-162.41 232.01-246.72 14.07-15.8 21.87-28.36 2.92-43.28l-30.03-23.65c-16.41-12.92-41.36-9.81-60.79-7.8-100.45 10.42-201.65 21.44-301.05 39.44-38.93 7.05-79.56 15.45-119.53 26.24-44 11.89-99.91 31.41-141.04 49.77l-475.86 212.44c-22.05 9.84-24.06 12.96-61 28.18-36.93 15.21-103.66 44.71-139.03 76.54-95.99 86.38-189.96 175.2-288.41 258.8-113.11 96.05-230.01 182.17-360.14 254.06l-.21.12-1941.3 908.22c54.03-2.3 102.87-3.28 150.11-.48 56.09 3.32 112.93 12.53 166.5 29.7 143.79-67.04 287.42-132.18 432.76-198.08 569.76-258.35 1145.4-519.37 1677.23-871.16 41.8-27.65 79.97-55.12 116.31-81.29 116.51-83.87 214.58-154.47 348.7-171.76 69.09-8.9 136.72-9.76 204.82 5.68 1.4.32 2.8.64 4.2.97l141.72-92.37c15.57-10.15 34.75-16.07 53.91-17.63zm268.51-268.8c-2.33.87-4.94-.32-5.8-2.66-.87-2.33.32-4.94 2.66-5.8l332.52-124.6c2.33-.87 4.94.32 5.8 2.66.87 2.33-.32 4.94-2.66 5.8l-332.52 124.6z"/><path class="cls-17" d="M1841 1903.1c-52.85-15.61-102.81-23.29-154.74-26.37-53.15-3.14-108.43-1.48-170.98 1.46l-381.68 178.57c-40.95 20.2-73.99 83.69-99.42 120.33-86.77 124.98-183.02 241.01-288.13 350.93-95.27 99.65-196.31 192.86-298.37 285.42-109.27 99.11-218.82 197.48-322.63 302.41-19.03 19.24-45.76 42.77-40.34 72.78 2.44 13.51 8.76 24.5 16.08 35.84l20.24 31.38c15.97 24.75 67.07 16.25 90.46 7.35l.41-.14c459.05-143.46 909.66-309.41 1359.97-476.88-72.78 23.74-144.1 45.16-210.46 58.58-86.13 17.42-173.93 17.92-236.83-5.96 67.28-18.67 181.56-68.43 215.27-134.07 16.02-31.21 15.58-92.69-1.85-124.24-5.12-9.25-12.18-18.93-20.77-28.66-27.63-31.28-70.88-63.06-116.23-83.65-38.96-17.69-79.33-27.05-112.33-20.59l-.69.07c-10.19.42-17.36-.81-22.16-3.2-5.58-2.78-8.22-6.99-8.73-12.06-.44-4.41.93-9.31 3.42-14.29 5.39-10.77 16.36-22.49 24.49-29.71 30.03-26.68 58.97-54.42 87.94-82.16 82.26-78.82 164.71-157.81 268.97-210.31 131.55-66.25 264.8-130.12 399.09-192.81zM4310.84 339.49l490.73-219.08c-23.16-9.93-43.89-9.54-69.55-.21-130.55 47.5-260.18 97.62-385.99 156.7-17.79 8.35-15.77 14.94-23.33 31.85l-11.86 30.74z"/><path class="cls-13" d="M6410.63 551.18c-133.96 60.28-239.71 122.67-325.1 188.8-82.56 63.93-146.13 131.39-197.84 203.86 72.02 10.22 142.83 19.4 211.62 28.12 18.04-32 37.2-63.03 59.19-91.57 22.66-29.4 48.3-56.09 78.76-78.36 14.16-10.35 15.22-10.42 29.06-11.31l5.53-.37c71.85-5.29 144.63-2.77 214.59 5.77 75.21 9.19 147.23 25.36 211.34 46.26 21.57 7.03 30.23 15.22 30.96 26.49.68 10.53-6.2 22.6-15.9 38.82l-86.59 144.19c48.27 12.86 87.79 28.02 119.68 44.66 56.49 29.48 89.19 63.77 104.19 98.43 23.49 54.29 22.5 116.05 4.88 180.46-15.94 58.29-45.5 118.74-82.82 177.8-118.61 187.65-316.16 361.75-403.37 405.68l-1.12-2.22c-9.4 7.74-19.51 14.79-30.24 21.04l-.35.19c-418.14 214.08-843.32 412.91-1273.35 601.86-408.81 179.63-821.37 350.25-1234.27 520.19-152.58 62.8-305.13 125.49-457.43 188.52-19.17 8.97-37.75 18.89-53.84 32.81-13.89 12.02-25.23 26.38-35.86 41.28-16.45 23.06-31.73 47.4-47.22 71.13-158.12 242.11-340.84 447.91-578.87 613.44-87.75 61.03-179.39 114.16-273.2 165.18-86.01 46.78-173.2 91.68-257.35 141.77-30.7 18.27-60.97 37.25-90.6 57.22-38.68 26.07-50.84 59.58-42.21 104.72 9.96 52.12 159.46 45.81 196.65 43.89 36.66-1.89 73.4-5.52 109.78-10.41 24.82-3.33 50.56-7.13 75.01-12.6 305.16-68.32 607.43-152.36 906.31-244.18 11.82-3.63 23.64-7.28 35.46-10.94a4.523 4.523 0 0 1-.47-5.85c1.29-1.78 450.16-619.12 466.15-705.5 16.1-86.95 12.08-431.01 12.07-432a4.52 4.52 0 0 1 4.48-4.55 4.52 4.52 0 0 1 4.55 4.48c.01.99 4.04 345.9-12.22 433.7-15.84 85.54-438.12 668.37-466.28 707.15 302.24-93.75 602.01-195.86 899.89-302.55 93.59-33.52 187.01-67.51 280.28-101.88 33.11-30.73 117.17-166.67 144.11-213.24 44.69-77.25 85.33-161.21 121.66-252.29l.73-1.82 1641.8-664.62c167.04-67.62 325.01-166.75 466.28-292 139.74-123.9 263.18-273.39 362.96-443.27l307.41-523.4 3.16.65c65.96 13.64 124.36 35.64 176.37 64.57 49.85 27.73 93.85 61.82 133.01 101.02 166.66-248.54 448.68-476.58 730.69-704.62 143.04-115.66 286.08-231.33 413.75-349.39l3.75 4.05c-.03-1.21-.18-2.37-.44-3.46-3.85-15.69-45.24-41.75-57.91-51.03-68.02-47.9-140.75-90.31-215.62-126.56-60-29.06-123.91-55.69-187.97-74.44-48.36-14.15-96.49-24.54-145.96-9.99-15.91 4.68-31.37 11.24-46.71 17.5l-427.82 174.35c-111.16 45.3-275.62 42.26-394.62 36.86-341.54-9.73-671.28-21.33-1011.88-26.72-22.2-.35-48.54-3.74-69.86.21-11.1 2.06-23.42 6.2-40.81 14.03zM4436.95 3408.82c11.3 62.65 7 142.59-15.57 224.94-2.85 10.4-5.87 20.44-9.04 30.1-23.92 72.88-58.83 133.55-97.06 173.51-38.92 40.69-81.51 60.09-119.95 49.55l-3.78-1.13c-41.18-13.52-68.89-59.67-80.38-123.35-11.31-62.65-7-142.59 15.57-224.94 2.85-10.4 5.87-20.45 9.04-30.11 23.92-72.88 58.83-133.55 97.06-173.5 38.92-40.69 81.51-60.09 119.95-49.55l3.78 1.13c41.18 13.52 68.89 59.67 80.38 123.35zm3666.61-2318.45l-401.57-289.71 5.18-3.65c.06-.04 19.46-13.6 41.68-17.75 208.75-92.7 367.49-142.79 588.14-207.8l.05-.02c34.53-9.79 74.99-3.04 113.01 11.01 52.13 19.28 99.97 52.45 121.27 75.22 18.26 19.51 28.92 31.57 35.26 41.42 6.69 10.39 8.71 18.33 9.48 29.35.62 8.84-1.38 17.13-6.26 25-4.69 7.57-12.08 14.68-22.4 21.48l-477.38 320.11-6.45-4.66z"/><g clip-path="url(#ChangeName-1)"><path id="1" class="cls-17" d="M3795.57 3109.4l4.05 125s-.89 297.07-13.74 338.58c-5.26 16.99-40.55 86.27-84.22 157.38-63 102.61-139.97 213.46-139.97 213.46l-250.28 349.61S-154.49 6716.51-283.94 6483.5c-129.45-233-1163.34-1275.78-555.78-1634.63 607.56-358.85 4452.13-2158.15 4452.13-2158.15l183.15 418.68z"/></g><path class="cls-6" d="M6410.63 551.18c-133.96 60.28-239.71 122.67-325.1 188.8-82.56 63.93-146.13 131.39-197.84 203.86 72.02 10.22 142.83 19.4 211.62 28.12 18.04-32 37.2-63.03 59.19-91.57 22.66-29.4 48.3-56.09 78.76-78.36 14.16-10.35 15.22-10.42 29.06-11.31l5.53-.37c71.85-5.29 144.63-2.77 214.59 5.77 75.21 9.19 147.23 25.36 211.34 46.26 21.57 7.03 30.23 15.22 30.96 26.49.68 10.53-6.2 22.6-15.9 38.82l-86.59 144.19c48.27 12.86 87.79 28.02 119.68 44.66 56.49 29.48 89.19 63.77 104.19 98.43 23.49 54.29 22.5 116.05 4.88 180.46-15.94 58.29-45.5 118.74-82.82 177.8-118.61 187.65-316.16 361.75-403.37 405.68l-1.12-2.22c-9.4 7.74-19.51 14.79-30.24 21.04l-.35.19c-418.14 214.08-843.32 412.91-1273.35 601.86-408.81 179.63-821.37 350.25-1234.27 520.19-152.58 62.8-305.13 125.49-457.43 188.52-19.17 8.97-37.75 18.89-53.84 32.81-13.89 12.02-25.23 26.38-35.86 41.28-16.45 23.06-31.73 47.4-47.22 71.13-158.12 242.11-340.84 447.91-578.87 613.44-87.75 61.03-179.39 114.16-273.2 165.18-86.01 46.78-173.2 91.68-257.35 141.77-30.7 18.27-60.97 37.25-90.6 57.22-38.68 26.07-50.84 59.58-42.21 104.72 9.96 52.12 159.46 45.81 196.65 43.89 36.66-1.89 73.4-5.52 109.78-10.41 24.82-3.33 50.56-7.13 75.01-12.6 305.16-68.32 607.43-152.36 906.31-244.18 11.82-3.63 23.64-7.28 35.46-10.94a4.523 4.523 0 0 1-.47-5.85c1.29-1.78 450.16-619.12 466.15-705.5 16.1-86.95 12.08-431.01 12.07-432a4.52 4.52 0 0 1 4.48-4.55 4.52 4.52 0 0 1 4.55 4.48c.01.99 4.04 345.9-12.22 433.7-15.84 85.54-438.12 668.37-466.28 707.15 302.24-93.75 602.01-195.86 899.89-302.55 93.59-33.52 187.01-67.51 280.28-101.88 33.11-30.73 117.17-166.67 144.11-213.24 44.69-77.25 85.33-161.21 121.66-252.29l.73-1.82 1641.8-664.62c167.04-67.62 325.01-166.75 466.28-292 139.74-123.9 263.18-273.39 362.96-443.27l307.41-523.4 3.16.65c65.96 13.64 124.36 35.64 176.37 64.57 49.85 27.73 93.85 61.82 133.01 101.02 166.66-248.54 448.68-476.58 730.69-704.62 143.04-115.66 286.08-231.33 413.75-349.39l3.75 4.05c-.03-1.21-.18-2.37-.44-3.46-3.85-15.69-45.24-41.75-57.91-51.03-68.02-47.9-140.75-90.31-215.62-126.56-60-29.06-123.91-55.69-187.97-74.44-48.36-14.15-96.49-24.54-145.96-9.99-15.91 4.68-31.37 11.24-46.71 17.5l-427.82 174.35c-111.16 45.3-275.62 42.26-394.62 36.86-341.54-9.73-671.28-21.33-1011.88-26.72-22.2-.35-48.54-3.74-69.86.21-11.1 2.06-23.42 6.2-40.81 14.03zM4436.95 3408.82c11.3 62.65 7 142.59-15.57 224.94-2.85 10.4-5.87 20.44-9.04 30.1-23.92 72.88-58.83 133.55-97.06 173.51-38.92 40.69-81.51 60.09-119.95 49.55l-3.78-1.13c-41.18-13.52-68.89-59.67-80.38-123.35-11.31-62.65-7-142.59 15.57-224.94 2.85-10.4 5.87-20.45 9.04-30.11 23.92-72.88 58.83-133.55 97.06-173.5 38.92-40.69 81.51-60.09 119.95-49.55l3.78 1.13c41.18 13.52 68.89 59.67 80.38 123.35zm3666.61-2318.45l-401.57-289.71 5.18-3.65c.06-.04 19.46-13.6 41.68-17.75 208.75-92.7 367.49-142.79 588.14-207.8l.05-.02c34.53-9.79 74.99-3.04 113.01 11.01 52.13 19.28 99.97 52.45 121.27 75.22 18.26 19.51 28.92 31.57 35.26 41.42 6.69 10.39 8.71 18.33 9.48 29.35.62 8.84-1.38 17.13-6.26 25-4.69 7.57-12.08 14.68-22.4 21.48l-477.38 320.11-6.45-4.66z"/><path class="cls-17" d="M7717.86 800.97l384.08 277.1c-.1-19.39-4.49-68.27-44-95.22-5.43-3.73-10.82-7.5-16.21-11.28-12.56-8.82-29.77-21.1-49.08-34.87-65.37-46.62-155.44-110.87-199.63-137.2-5.47-3.27-10.25-5.95-14.16-7.92-3.68-1.86-6.46-3.04-8.2-3.43-2.61-.59-5.24-.91-7.86-.99-2.64-.08-5.37.06-8.11.39-15.02 1.79-29.31 9.05-36.83 13.45zM7797.65 791.73c44.53 26.54 134.75 90.89 200.23 137.59 16.9 12.05 33.78 24.2 50.8 36.08l456.16-241.01c19.08-12.22 36-23.77 45.24-36.03 8.42-11.16 10.24-23.22.78-37.57-23.95-20.33-62.49-44.52-103.93-59.85-36.43-13.47-74.99-20.01-107.45-10.8-221.21 65.17-366.21 105.09-575.39 198.01 2.88.15 5.75.52 8.56 1.16 2.5.58 5.97 2.01 10.27 4.18 4.07 2.05 9.04 4.84 14.73 8.24z"/><path class="cls-17" d="M8509.48 732.15l-452.45 239.07c2 1.39 4 2.77 6.01 4.15 47.4 32.33 48.41 92.99 47.88 108.19l471.53-316.19c9.17-6.04 15.66-12.24 19.68-18.72 3.83-6.17 5.4-12.67 4.91-19.62-.66-9.46-2.38-16.25-8.06-25.08-5.86-9.11-15.84-20.43-32.74-38.54 1.25 10.16-2.21 19.49-8.92 28.39-10.12 13.42-27.88 25.56-47.83 38.33z"/><path d="M6021.16 1360.8l74.05-126.88-159.4 98.52-34.54-22.94 44.49-81.46-104.63 61.04-47.24-19.68 145.87-267.4c-25.49-5.39-42.09-9.74-45.49-12.45 185.64 25.09 373.63 54.56 556.99 90.98 123.18 24.47 324.72 47.58 388.02 184.02 9 19.39 14.63 40.36 16.68 62.61 6.52-45.76 2.88-89.29-14.12-128.59-14.22-32.86-45.6-65.56-100.09-94-47.84-24.97-113.4-46.58-200.64-62.03-217.5-38.55-440.22-59.15-659.29-90.37-34.81 49.91-64.22 102.26-90.5 157.5-25.97 54.59-48.88 111.97-70.91 172.6 191.18 99.15 468.94 229.69 627.52 363.78 27.91 23.6 67.94 52.9 85.3 85.34 10.26 19.17 13.58 39.49 13.51 61.05-.19 55.31-21.92 106.33-58.53 145.12 94.58-58.71 268.27-218.16 376.32-389.1 19.73-31.21 37.25-62.78 51.69-94.17l-19.79-8.62-234.01 252.9-48-58.16 159.22-260.98-35.53-11.58-235.25 209.31-60.76-29.91 137.53-236.09-20.01-7.06-.27.67-.91-.36-226.3 168.36-54.09-26.57 93.29-174.72-198.74 119.85-51.45-30.49z" fill="url(#ChangeName-2)"/><path class="cls-1" d="M9012.61 603.01c-128.17 118.52-271.19 234.17-414.21 349.81-285.77 231.07-571.56 462.16-736.39 714-82.19 125.57-154.65 277.82-228.32 432.62-150.88 317.03-306.86 644.76-563.1 779.03l-4.18-8c4.23-2.36 8.43-4.78 12.6-7.24 240.96-142.34 398.71-457.44 546.5-767.67 73.8-155.07 146.39-307.59 228.92-433.68 165.59-253.01 451.95-484.55 738.3-716.09 143.04-115.66 291.49-236.44 419.16-354.5l.71 11.73zM3322.91 4281.25c-1.46 2.01-4.29 2.45-6.3.99-2.01-1.46-10.95 7.54-9.49 5.53 1.29-1.78 458.65-630.95 474.65-717.33 16.1-86.95 12.08-431.01 12.07-432a4.52 4.52 0 0 1 4.48-4.55 4.52 4.52 0 0 1 4.55 4.48c.01.99 4.04 345.9-12.22 433.7-16.36 88.36-466.45 707.4-467.75 709.18z"/><path class="cls-3" d="M7755.49 837.55l36.34-44.79 7.01 5.7-36.34 44.79zM7773.09 847.26l36.33-44.79 7.01 5.69-36.33 44.79zM7806.32 875.08l35.88-44.22 8.12 4.58-37.09 45.47zM7823.45 885.36l36.34-44.79 7.01 5.69-36.34 44.79zM7861.11 913.96l37.65-46.01 7.01 5.69-37.65 46.01zM7878.7 923.66l36.34-44.79 7.01 5.69-36.34 44.8zM7912.68 949.96l36.34-44.79 8.32 4.38-37.65 46.1zM7930.28 959.67l36.34-44.8 7 5.7-36.33 44.79zM7975.59 991.43l36.34-44.79 7.01 5.69-36.34 44.79zM7993.19 1001.13l36.33-44.79 7.01 5.7-36.34 44.79zM8035.46 1039.97l39.38-48.13 7 5.7-39.37 48.13zM8053.04 1049.69l34.11-42.56 7.04 5.67-34.1 42.56z"/></g><g id="WING_CANNON_2"><path class="cls-5" d="M1201.04 2819.54s123.58-58.52 139.6-103.49c16.02-44.98 23.32-85.83.67-138.42-22.65-52.59-171.51-131.15-171.51-131.15l-110.01-6.88c41.87 37.76-87.35 373.46 82.7 405.14 14.24 2.65 48.7-22.72 58.55-25.2z"/><path class="cls-0" d="M1124.26 2439.75c98.8 27.86 153.25 65.16 184.37 109.49 9.52 13.93 33.73 54.92 28.28 105.01-7.39 67.92-29.44 79.73-79.4 118.95l-373.4 140.2-2.44.21-28.63-4.95.21-.34-.21.1 1.01-73.75-95.78 52.77-.26.17c-1.9 1.19-4 1.84-6.23 1.84-5.22 0-9.71-3.56-12.72-9.3-2.15-4.09-3.61-9.42-4.03-15.3L627 2903.61c-4.29 2.4-8.89 3.92-13.76 4.45-1.35.15-2.66.22-3.93.22-10.15 0-20.16-4.25-29.45-11.83l-492.01 183.9c-1 .53-2.03.94-3.09 1.2-.26.06-.51.12-.77.17l-1.59.19c-6 .33-11.44-3.56-15.75-10.5-3.71-5.96-6.73-14.42-8.56-24.38-.59-3.23-1.07-6.6-1.4-10.1-.72 5.44-1.93 10.29-3.54 14.29-3.16 7.83-8.05 12.78-14.22 13.45l-1.39.09c-7.28 0-14.21-6.2-19.5-16.23-4.75-8.99-8.43-21.36-9.9-34.95-.46-4.28-.68-8.37-.68-12.22 0-10.4 1.56-19.59 4.3-26.38.15-.37.3-.74.47-1.1a48.51 48.51 0 0 1-3.57-6.2c-4.37-9.02-7.53-21.41-8.4-35-.17-2.64-.25-5.14-.25-7.49 0-11.64 1.85-22.07 4.98-29.74 3.58-8.77 9.04-14.25 15.75-14.67l523.52-180.68c7.87-15.66 18.93-26.11 32.21-29.02.07-.01.14-.03.21-.05l182.95-60.53c26.89-26.6 57.99-49.55 92.03-68.05 34.18-18.57 71.34-32.67 110.19-41.5l.15.66c33.44-29.91 76.96-36.87 106.84-41.65l7.82-1.28 47.61-18.93z"/><path class="cls-0" d="M60.7 2992.61c3.56-11.44 9.19-19.63 16.02-21.41.08-.02.17-.04.25-.07l49.93-18.99-80.5 24.64c4.17 8.73 8.92 24.64 10.25 37.06.74-7.29 2.22-15.36 4.05-21.24zM27.37 2965.97c10.95 0 22.1 21.1 24.9 47.13 2.81 26.03-3.79 47.13-14.74 47.13s-22.1-21.1-24.91-47.13c-2.81-26.03 3.79-47.13 14.74-47.13z"/><path class="cls-1" d="M33.66 3055.87l63.63-9.09 2.67 8.99-64.18 8.87z"/><path class="cls-0" d="M64.68 3055.33l-10.06-25.78-8.21 29.09z"/><path class="cls-1" d="M27.37 2961.44c7.28 0 14.21 6.2 19.5 16.23 4.76 8.99 8.44 21.36 9.9 34.95.46 4.28.68 8.38.68 12.23 0 10.4-1.56 19.59-4.3 26.37-2.92 7.23-7.38 13.02-15.61 13.54-7.28 0-14.21-6.2-19.5-16.23-4.75-8.99-8.43-21.36-9.9-34.95-.46-4.28-.68-8.37-.68-12.22 0-10.4 1.56-19.59 4.3-26.38 3.16-7.84 8.04-12.78 14.22-13.46l1.39-.09zm11.5 20.44c-3.71-7.03-7.84-11.38-11.5-11.38l-.4.01c-2.57.28-4.94 3.16-6.82 7.83-2.31 5.72-3.63 13.73-3.63 23.01 0 3.66.2 7.45.61 11.26 1.34 12.43 4.65 23.64 8.91 31.69 3.71 7.03 7.85 11.38 11.5 11.38l.4-.01c2.57-.28 4.94-3.16 6.82-7.83 2.31-5.72 3.63-13.73 3.63-23.01 0-3.67-.2-7.45-.61-11.27-1.34-12.43-4.65-23.64-8.91-31.69z"/><path class="cls-2" d="M584.11 2674.78c33.06 0 65.51 51.25 72.47 114.48 6.96 63.23-14.2 114.48-47.27 114.48-33.06 0-65.51-51.25-72.47-114.48-6.96-63.23 14.2-114.48 47.27-114.48z"/><path class="cls-1" d="M584.11 2670.25c18.19 0 35.9 13.63 49.85 35.66 13.46 21.26 23.56 50.57 27.12 82.86.92 8.35 1.36 16.45 1.36 24.2 0 25.56-4.73 48.17-12.96 64.84-8.61 17.45-21.12 28.58-36.24 30.24-1.35.15-2.66.22-3.93.22-18.18 0-35.9-13.63-49.85-35.66-13.46-21.26-23.56-50.56-27.12-82.86-.92-8.35-1.36-16.44-1.36-24.19 0-25.56 4.73-48.18 12.96-64.85 8.61-17.45 21.12-28.58 36.24-30.24 1.34-.15 2.66-.22 3.93-.22zm42.2 40.47c-12.28-19.4-27.32-31.41-42.2-31.41-1.05 0-2.03.05-2.94.15-11.82 1.3-21.9 10.6-29.13 25.25-7.61 15.43-12 36.65-12 60.85 0 7.54.42 15.3 1.29 23.2 3.41 30.93 13.01 58.87 25.77 79.04 12.28 19.4 27.32 31.41 42.2 31.41 1.05 0 2.04-.05 2.94-.15 11.82-1.3 21.9-10.6 29.13-25.25 7.61-15.43 12-36.64 12-60.85 0-7.54-.42-15.31-1.29-23.21-3.4-30.92-13.01-58.87-25.77-79.04z"/><path class="cls-0" d="M548.43 2703.43L21.55 2885.26c10.95 0 21.18 21.1 22.86 47.13 1.08 16.69-1.63 31.35-6.59 39.72 1.49 1.75 2.91 3.84 4.26 6.21l408.35-145.31 140.39-52.61c.03-.92.09-1.85.18-2.77 3.01-33.55-5.35-61.14-42.3-74.11a7.71 7.71 0 0 1-.26-.09zM488.21 2819.57L78.33 2975.46c10.83-2 20.23 21.85 21.74 49.01 1.37 24.67-4.74 46.43-14 51.72l521.85-195.06c19.18-30.53 17.88-76.01-17.21-98.02l-102.51 36.47z"/><path class="cls-0" d="M615.92 2739.46c14.68 39.04 18.94 91.5 14.75 136.47 21-61.71 17.68-79.5-14.75-136.47z"/><path class="cls-1" d="M576.46 2671.1l353.76-117.04 2.83 8.6-353.76 117.05z"/><path class="cls-1" d="M929.49 2553.5l37.62 27.51-5.34 7.29-37.62-27.51zM758.84 2611.28c27.07-26.93 58.43-50.14 92.81-68.82 34.18-18.57 71.34-32.67 110.19-41.5l1.98 8.81c-38.05 8.65-74.42 22.45-107.86 40.61-33.61 18.26-64.28 40.96-90.75 67.3l-6.37-6.41zM858.53 2899.78l23.65 4.7c105.02-39.43 436.04-168.57 431.22-164.78l-55.47 33.18-373.81 140.52-2.44.21-28.63-4.95 5.48-8.88z"/><path class="cls-1" d="M1232.09 2491.07l-265.39 97.57c-28.14 22.85-49.41 52.31-65.99 86.26-16.81 34.41-36.04 103.16-37.45 146.58l-9.68-33.79c9.64-42.04 21.86-81.69 38.98-116.76 17.24-35.3 39.47-65.98 69.03-89.8l1.28-.72 260.33-95.4 8.88 6.06z"/><path class="cls-1" d="M878.03 2909.01c1.99-51.18 6.5-97.25 17.68-141.19 11.23-44.11 29.18-86.06 58.03-128.84 6.94-10.29 13.66-18.5 21.63-25.29 8.01-6.84 17.18-12.16 28.96-16.62l254.04-96.26 3.19 8.46-254.04 96.26c-10.75 4.08-19.08 8.89-26.27 15.03-7.24 6.18-13.48 13.82-20 23.49-28.22 41.83-45.77 82.87-56.76 126.01-11.02 43.31-15.47 88.77-17.43 139.28l-9.03-.32z"/><path class="cls-1" d="M1071.09 2616.5l2.81.11c14.17 1.09 26.24 10.31 34.67 24.77 8.07 13.84 12.84 32.63 12.84 53.62 0 3.57-.15 7.27-.44 11.04-1.86 24.19-9.62 46.16-20.63 62.11-11.42 16.54-26.44 26.77-42.35 26.77l-2.81-.11c-14.17-1.09-26.24-10.3-34.67-24.77-8.07-13.85-12.84-32.64-12.84-53.63 0-3.57.14-7.26.43-11.04 1.86-24.19 9.62-46.16 20.63-62.11 11.42-16.54 26.44-26.77 42.34-26.77zm2.14 9.14l-2.14-.08c-12.76 0-25.18 8.73-34.91 22.84-10.15 14.69-17.3 35.08-19.04 57.65-.26 3.46-.4 6.92-.4 10.36 0 19.4 4.31 36.59 11.6 49.1 6.92 11.89 16.52 19.43 27.52 20.27l2.14.08c12.76 0 25.18-8.73 34.91-22.84 10.14-14.69 17.3-35.08 19.04-57.65.26-3.46.4-6.93.4-10.37 0-19.4-4.31-36.59-11.6-49.1-6.92-11.88-16.52-19.43-27.52-20.27z"/><path class="cls-1" d="M1111.77 2647.51c3.75 8 6.52 17.28 8.11 27.42 1.52 9.72 1.95 20.22 1.1 31.13-1.32 17.06-5.56 33.01-11.79 46.51-6.53 14.13-15.3 25.66-25.28 33.07l-2.84 2.11-2.73-2.27c-8.13-6.77-14.52-16.61-18.45-28.4-3.74-11.18-5.27-24.18-4.01-38.01 1.62-17.81 7.63-34.19 16.32-47.06 9.04-13.38 21.06-23.09 34.23-26.91l3.71-1.08 1.64 3.5zm-.81 28.8c-1.21-7.74-3.16-14.9-5.75-21.27-9.65 3.87-18.52 11.66-25.52 22.02-7.9 11.69-13.36 26.6-14.84 42.81-1.15 12.55.23 24.29 3.58 34.33 2.94 8.83 7.39 16.32 12.96 21.87 7.58-6.52 14.33-15.94 19.58-27.3 5.8-12.55 9.75-27.43 10.98-43.4.8-10.29.41-20.09-.99-29.07zM925.22 2557.56c28.45-79.17 100.34-90.67 143.61-97.59l8.24-1.35c21.97-3.71 42.78-2.44 61.6 5.22 17.44 7.1 33.09 19.67 46.28 38.81l-7.43 5.13c-12.12-17.59-26.4-29.1-42.25-35.55-17.19-7-36.36-8.13-56.71-4.69l-8.31 1.35c-41.28 6.6-109.89 17.58-136.53 91.72l-8.49-3.05z"/><path class="cls-1" d="M1141.51 2473.77c-30.33 9.02-56.57 21.82-78.79 38.31-22.16 16.44-40.38 36.6-54.74 60.37l-7.75-4.67c14.95-24.77 33.96-45.79 57.11-62.96 23.08-17.13 50.25-30.4 81.58-39.72l2.58 8.67zM1076.11 2458.9l48.15-19.15 12.92 13.34-57.67 14.16z"/><path class="cls-1" d="M1124.26 2439.75c98.8 27.86 153.25 65.16 184.37 109.49 9.52 13.93 33.73 54.92 28.28 105.01-.86 7.93-1.89 15.05-3.12 21.52 1.18-36.45-4.15-71.44-21.5-103.43-27.42-50.58-85.09-94.17-194.83-125.12l6.79-7.47zM37.94 2974.06l577.94-204.71 3 8.52-577.93 204.72z"/><path class="cls-0" d="M78.33 2975.46c10.83-2 20.23 21.85 21.74 49.01 1.5 27.16-6.06 50.8-16.89 52.8-10.84 2-20.84-18.41-22.35-45.57-1.5-27.16 6.67-54.24 17.5-56.24z"/><path class="cls-1" d="M77.52 2971.02l1.45-.18c6.02-.34 11.28 3.96 15.4 11.32 3.49 6.24 6.35 14.98 8.18 24.88 1 5.46 1.71 11.26 2.03 17.17.78 14.12-.82 27.4-4.03 37.45-3.57 11.15-9.38 18.72-16.56 20.04l-1.59.19c-6 .33-11.44-3.56-15.75-10.5-3.71-5.96-6.73-14.42-8.56-24.38-.87-4.74-1.49-9.81-1.78-15.08-.79-14.21.99-28.43 4.38-39.34 3.7-11.89 9.64-20.27 16.82-21.59zm1.93 8.85l-.3.03c-3.57.66-7.1 6.66-9.81 15.39-3.1 9.97-4.72 23.04-3.99 36.15.27 4.95.83 9.64 1.63 13.95 1.62 8.82 4.22 16.19 7.35 21.23 2.52 4.07 5.18 6.38 7.58 6.25l.46-.05c3.64-.67 7.05-5.93 9.59-13.88 2.9-9.05 4.33-21.18 3.61-34.23-.31-5.59-.96-11.02-1.89-16.04-1.64-8.91-4.15-16.67-7.18-22.09-2.41-4.3-4.86-6.84-7.03-6.73z"/><path class="cls-1" d="M76.72 2971.23l537.63-204.47 3.22 8.46-537.63 204.47z"/><path class="cls-0" d="M21.55 2885.27c10.95 0 21.18 21.1 22.86 47.13 1.68 26.03-5.83 47.13-16.78 47.13-10.95 0-21.18-21.1-22.86-47.13-1.68-26.03 5.83-47.13 16.78-47.13z"/><path class="cls-1" d="M21.55 2880.73c7.36 0 14.07 6.26 18.97 16.37 4.37 9.02 7.53 21.41 8.4 35 .17 2.64.25 5.14.25 7.49 0 11.64-1.85 22.07-4.98 29.74-3.58 8.77-9.04 14.25-15.74 14.68l-.83.04c-7.36 0-14.07-6.26-18.97-16.37-4.37-9.02-7.53-21.41-8.4-35-.17-2.64-.25-5.14-.25-7.49 0-11.64 1.85-22.07 4.98-29.74 3.58-8.77 9.04-14.25 15.74-14.68l.83-.04zm10.84 20.3c-3.36-6.94-7.24-11.24-10.84-11.24h-.26c-2.92.19-5.72 3.57-7.96 9.05-2.69 6.57-4.27 15.79-4.27 26.34 0 2.35.07 4.67.22 6.92.8 12.42 3.62 23.61 7.51 31.64 3.36 6.94 7.24 11.24 10.84 11.24h.26c2.92-.19 5.72-3.57 7.96-9.05 2.69-6.57 4.27-15.79 4.27-26.34 0-2.35-.07-4.67-.22-6.92-.8-12.42-3.62-23.61-7.51-31.64z"/><path class="cls-0" d="M762.6 2850.16c.97 3.35 1.52 7.19 1.52 11.28 0 7.92-2.06 14.92-5.22 19.17l99.78-53.66.15-11.31-96.23 34.52z"/><path class="cls-0" d="M764.12 2861.44c0-4.09-.55-7.93-1.52-11.28l-23.06 8.27c-.07.98-.1 1.99-.1 3.01 0 12.96 5.52 23.47 12.34 23.47 2.65 0 5.11-1.59 7.12-4.3 3.16-4.25 5.22-11.25 5.22-19.17z"/><path class="cls-1" d="M860.86 2830.91L758 2887.57l-4.35-7.92 102.86-56.66z"/><path class="cls-3" d="M766.94 2848.9c.55 1.92.99 3.98 1.27 6.11.29 2.12.44 4.29.44 6.43 0 7.21-1.59 13.83-4.15 18.7-3.02 5.74-7.5 9.3-12.72 9.3-5.22 0-9.71-3.56-12.72-9.3-2.56-4.87-4.15-11.49-4.15-18.7 0-1.04.04-2.15.12-3.31l.2-2.94 30.37-10.89 1.33 4.61zm-7.68 7.3l-.01-.05-15.27 5.48c.03 5.67 1.2 10.72 3.08 14.29 1.44 2.74 3.13 4.45 4.72 4.45 1.59 0 3.28-1.7 4.72-4.45 1.9-3.61 3.08-8.74 3.08-14.49 0-1.88-.11-3.63-.33-5.24z"/><path class="cls-1" d="M777.1 2606.41c36.02 22.03 57.33 52.68 69.77 88.85 12.29 35.74 15.86 76.84 16.48 120.32l.05 3.21-247.46 88.77-3.05-8.49 241.38-86.59c-.73-41.39-4.33-80.44-15.96-114.28-11.79-34.28-31.93-63.29-65.91-84.08l4.7-7.71z"/><path class="cls-1" d="M863.34 2815.69l-1.16 88.58-9.13 4.14 1.27-92.83zM20.08 2881l536.61-185.19 2.93 8.53-536.61 185.19zM81.6 3073.04l534.02-199.61 3.14 8.46L84.75 3081.5z"/><path class="cls-0" d="M765.6 2844.29l88.66-31.81c-.73-41.39-4.33-80.44-15.96-114.28-11.58-33.68-31.22-62.27-64.13-82.97l-175.27 57.99c12.83 5.14 24.94 16.7 35.05 32.69 13.46 21.26 23.56 50.57 27.12 82.86.92 8.35 1.36 16.45 1.36 24.2 0 25.56-4.73 48.17-12.96 64.84-1.85 3.74-3.87 7.19-6.06 10.32l91.81-32.94 30.37-10.9z"/><path class="cls-0" d="M785.11 2611.61c31.22 21.55 50.27 50.24 61.76 83.65 6.92 20.14 11.08 41.98 13.5 65 8.49-31.87 18.86-61.99 32.21-89.33 16.35-33.48 37.19-62.8 64.51-86.06l-28.4-20.76-143.58 47.5z"/><path class="cls-0" d="M900.72 2674.9c-42.24 86.49-37.28 134.05-38.49 225.61l16.02 3.19c2.1-49.06 6.67-93.47 17.47-135.88 11.23-44.11 29.18-86.06 58.03-128.84 6.94-10.29 13.66-18.5 21.63-25.29 8.01-6.84 17.18-12.16 28.96-16.62l244.42-92.61c-6.11-4.21-12.62-8.31-19.55-12.32l-262.5 96.51c-28.14 22.85-49.41 52.31-65.99 86.26zM965.15 2579.58l35.92-13.16c14.82-24.18 33.56-44.74 56.28-61.59 19.92-14.78 42.89-26.69 68.96-35.67-14.8-4.18-30.87-4.47-47.75-1.62l-8.31 1.35c-40.69 6.51-107.93 17.26-135.36 88.56l30.27 22.13zM779.95 2603.78l146.04-48.32c6.45-17.22 15-31.17 24.85-42.52-33.34 8.69-65.26 21.36-94.87 37.45-27.54 14.96-53.11 32.91-76.02 53.4z"/><path class="cls-0" d="M1062.73 2512.08c-18.58 13.79-34.4 30.19-47.48 49.14l158.82-58.2c-10.13-13.32-21.63-22.72-34.2-28.75-29.63 8.99-55.33 21.62-77.14 37.81z"/><path class="cls-0" d="M1138.66 2463.84c16.55 6.74 31.5 18.41 44.25 35.94l36.18-13.26c-32.47-17.32-77.83-44.51-113.83-29.8 11.66.52 22.85 2.81 33.41 7.11zM1100.75 2645.91c-6.92-11.88-16.52-19.43-27.52-20.27l-2.14-.08c-12.76 0-25.18 8.73-34.91 22.84-10.15 14.69-17.3 35.08-19.04 57.65-.26 3.46-.4 6.92-.4 10.36 0 19.4 4.31 36.59 11.6 49.1 6.92 11.89 16.52 19.43 27.52 20.27l2.14.08c5.44 0 10.82-1.59 15.96-4.51-6.07-6.41-10.89-14.7-14.08-24.29-3.74-11.18-5.27-24.18-4.01-38.01 1.62-17.81 7.63-34.19 16.32-47.06 7.85-11.62 17.96-20.48 29.12-25.11-.18-.33-.37-.65-.56-.98z"/><path class="cls-0" d="M1105.21 2655.04c-9.65 3.87-18.52 11.66-25.52 22.02-7.9 11.69-13.36 26.6-14.84 42.81-1.15 12.55.23 24.29 3.58 34.33 2.94 8.83 7.39 16.32 12.96 21.87 4.12-3.54 8-7.94 11.52-13.04 10.14-14.69 17.3-35.08 19.04-57.65.26-3.46.4-6.93.4-10.37 0-6.51-.48-12.78-1.41-18.7-1.21-7.75-3.16-14.91-5.74-21.27z"/></g></svg>