<svg xmlns="http://www.w3.org/2000/svg" class="shipSVG" viewBox="0 0 13019 6569" shape-rendering="geometricPrecision" text-rendering="geometricPrecision" image-rendering="optimizeQuality" fill-rule="evenodd" clip-rule="evenodd">
 <defs>
  <style type="text/css">
   <![CDATA[
    .ChangeName-0 {stroke:black;stroke-width:8.65;stroke-miterlimit:2.61313}
    .ChangeName-90 {fill:#37678A}
    .ChangeName-2 {fill:url(#ChangeName-2)}
    .ChangeName-6 {fill:#ECECEC}
    .ChangeName-1 {fill:none}
	.ChangeName-5 {fill:#424242}

   ]]>
  </style>
  <linearGradient xmlns="http://www.w3.org/2000/svg" id="ChangeName-2" gradientUnits="userSpaceOnUse" y1="4500" x2="7000"><stop offset="0" stop-color="PrimaryColor"/><stop offset="1" stop-color="SecondaryColor"/>
</linearGradient>
 </defs>
 <g id="Layer_x0020_1">
  <metadata id="CorelCorpID_0Corel-Layer"/>
  <g id="_2088745758432">
   <path class="ChangeName-6" d="M9.39 6274.14l1305.3 0 1428.23 -568.86 -979.62 -166.21 103.26 -77.03 796.64 147.29 690.48 -318.89 209.45 52.69 398.5 -235.34 300.75 108.33 -53.35 54.03 1124.23 -110.78 1564.74 -652.64 55.06 55.06 194.27 -112.16 939.75 799.6 249.75 -144.19 22.27 -69.87 -739.55 -834.49 405.35 -167.56 1736.25 -149.99 13.56 50.61 755.26 -151.96 51.35 -63.51c0,0 114.84,4.05 210.77,-47.29 95.93,-51.35 921.51,-571.57 921.51,-571.57l240.52 -174.32 196.57 -143.22 255.64 -424.46 -97.58 -495.71 -886.41 -172.94 -51.37 -113.5 -208.09 -39.19 -584.82 416.48 -51.61 86.18 -109.45 0 93.2 -706.68c0,0 12.14,-201.34 -79.75,-236.47 -91.88,-35.13 -570.23,-121.61 -633.73,-112.15 -63.51,9.46 -135.13,35.13 -225.66,108.1 -90.53,72.97 -168.24,138.51 -168.24,138.51 0,0 63.51,-132.41 56.75,-160.12 -6.76,-27.71 -135.81,-199.3 -174.32,-213.49 -38.51,-14.19 -407.4,-52.02 -407.4,-52.02l168.34 -764.37 -38.5 -35.34 -347.43 78.82 -246.41 654.02 -323.83 25.65c0,0 -6.77,-132.42 -121.63,-148.63 -114.86,-16.21 -466.86,-75.66 -554.69,-71.61 -87.83,4.05 -383.08,212.15 -383.08,212.15 0,0 -319.8,-97.02 -373.85,-84.86 -54.05,12.16 -1027.37,455.09 -1123.31,560.5 -95.93,105.4 -213.49,232.42 -256.73,341.87 -43.24,109.45 -96.6,266.87 -99.98,308.09 -3.38,41.21 12.16,89.86 12.16,89.86l-1428.23 862.09 5.4 55.4c0,0 -1706.58,1041.8 -1820.08,1109.36 -113.5,67.57 -1156.65,1072.85 -1156.65,1072.85 0,0 -378.33,354 -389.15,378.32 -10.81,24.32 -390.84,825.57 -390.84,825.57z"/>
   <path class="ChangeName-1" d="M935.19 5349.9c0,0 1345.81,-1037.74 1445.81,-1094.49 99.99,-56.75 2586.26,-1424.2 2586.26,-1424.2l-1048.55 129.72c0,0 -1916.04,1307.97 -1975.49,1362.02 -59.45,54.05 -1008.03,1026.95 -1008.03,1026.95z"/>
   <polygon class="ChangeName-2" points="5986.09,2412.32 6180.67,2550.15 7550.79,1893.47 7907.5,1136.77 7653.47,1054.34 7102.16,1538.08 "/>
   <path class="ChangeName-2" d="M3636.79 4990.8l625.58 225.32 3667.29 -2281.88 1786.34 -81.07 1067.45 -191.87 775.62 -324.29 424.29 -335.1 -753.99 -181.07 -367.53 302.67 -159.44 54.05 -221.6 -72.97c-419.78,149.27 -917.97,241.05 -1445.9,311.03l-670.13 -40.78 -594.54 -45.94 -2263.38 1335.57 -109.55 24.82 -0.39 40.06 -803.43 474.13 -956.67 787.33z"/>
   <polygon class="ChangeName-90" points="5658.97,2254.24 5921.11,2371.79 6872.39,1263.79 6519.72,1177.32 "/>
   <polygon class="ChangeName-6" points="5267.2,3609.57 5615.14,3837.93 6883.3,3085.29 6542.11,2892.06 "/>
   <polygon class="ChangeName-6" points="5615.14,3837.93 5692.19,3976.39 6975.19,3223.74 6883.3,3085.29 "/>
   <polygon class="ChangeName-6" points="5400.67,3697.17 5395.63,3754.07 5692.19,3976.39 5615.14,3837.93 "/>
   <polygon class="ChangeName-6" points="5718.57,4018.91 7044.14,3243.29 7090.08,3286.54 5761.84,4067.54 "/>
   <polyline class="ChangeName-1" points="9.39,6274.14 665.64,5749.72 1214.24,5649.72 2423.48,5832.51 "/>
   <polyline class="ChangeName-1" points="665.64,5749.72 2111.45,5906.46 1214.24,5649.72 "/>
   <polygon class="ChangeName-1" points="2629.74,4892.71 1763.29,5539.08 1214.24,5649.72 2719.53,4660.62 3581.61,4895.73 3508.64,4971.4 "/>
   <polyline class="ChangeName-1" points="1866.55,5462.05 2582.41,5129.45 3353.67,5290.44 "/>
   <line class="ChangeName-1" x1="665.64" y1="5749.72" x2="2621.83" y2="4724.82"/>
   <polygon class="ChangeName-6" points="3581.61,4895.73 2719.53,4660.62 7625.22,1952.66 8390.69,2045.21 8280.07,2277.74 7792.78,2235.06 6501.01,2967.43 4506.63,4043.01 "/>
   <line class="ChangeName-1" x1="5879.18" y1="3636.92" x2="6581.61" y2="3231.37"/>
   <polyline class="ChangeName-1" points="6002.25,3565.87 5769.71,3405.86 5712.96,3493.69 5890.05,3630.65 "/>
   <polyline class="ChangeName-1" points="6047.44,3568.22 5848.76,3426.8 5885.92,3338.3 6119.98,3497.89 "/>
   <polyline class="ChangeName-1" points="6180.78,3502.23 5971.72,3353.16 6005.51,3272.08 6230.4,3434.15 "/>
   <polyline class="ChangeName-1" points="6276.09,3407.76 6091.99,3292.35 6117.67,3205.87 6349.26,3365.52 "/>
   <polyline class="ChangeName-1" points="6385.67,3344.5 6209.55,3230.2 6243.33,3142.37 6468.56,3296.65 "/>
   <polyline class="ChangeName-1" points="6549,3305.57 6314.95,3158.58 6344.67,3078.86 6634.54,3266.84 "/>
   <polyline class="ChangeName-1" points="3423.99,5090.73 3561.95,5127.7 3561.95,5343.14 "/>
   <line class="ChangeName-1" x1="12210.52" y1="1842.53" x2="11983.35" y2="2001.9"/>
   <line class="ChangeName-1" x1="12406.32" y1="2357.41" x2="12203.52" y2="2531.46"/>
   <path class="ChangeName-90" d="M9774.7 3933.72l755.26 -151.96 251.79 -318.8c35.45,-44.62 39.65,-44.55 28.45,-101.7l-101.64 -529.91c-10.66,-54.4 -11.15,-72.92 -57.57,-103.34l-580.55 -379.73 -659.28 115.63c100.93,125.47 263.97,317.58 302.81,376.41 38.83,58.83 42.68,92.78 50.54,139.24l92.76 548.05c9.02,62.95 8.85,66.55 -3.85,128.86l-78.72 277.24z"/>
   <line class="ChangeName-1" x1="6180.67" y1="2550.15" x2="6345.97" y2="2619.23"/>
   <line class="ChangeName-1" x1="9402.82" y1="1230.03" x2="8390.69" y2="2045.21"/>
   <line class="ChangeName-1" x1="7625.22" y1="1952.66" x2="9225.55" y2="1144.81"/>
   <line class="ChangeName-1" x1="7472.21" y1="1931.13" x2="9206.69" y2="1105.1"/>
   <line class="ChangeName-1" x1="5769.71" y1="3405.86" x2="5848.76" y2="3426.8"/>
   <line class="ChangeName-1" x1="5885.92" y1="3338.3" x2="5971.72" y2="3353.16"/>
   <line class="ChangeName-1" x1="6005.51" y1="3272.08" x2="6091.99" y2="3292.35"/>
   <line class="ChangeName-1" x1="6117.67" y1="3205.87" x2="6209.55" y2="3230.2"/>
   <line class="ChangeName-1" x1="6243.33" y1="3142.37" x2="6314.95" y2="3158.58"/>
   <polygon class="ChangeName-2" points="7421.59,1257.8 7121.93,1520.73 7102.16,1538.08 6292.87,2464.85 "/>
   <line class="ChangeName-1" x1="8425.13" y1="710.5" x2="8370.27" y2="842.08"/>
   <polyline class="ChangeName-1" points="8660.26,83.52 8720.22,109.71 9046.68,37.69 "/>
   <polyline class="ChangeName-1" points="8720.22,109.71 8459.68,857.87 8370.27,842.08 "/>
   <line class="ChangeName-1" x1="8877.85" y1="804.4" x2="8459.68" y2="857.87"/>
   <line class="ChangeName-1" x1="9225.55" y1="1144.81" x2="9453.83" y2="1057.12"/>
   <line class="ChangeName-1" x1="10417" y1="2038.73" x2="9089.54" y2="2325.07"/>
   <polyline class="ChangeName-1" points="10526.44,2038.73 10484.49,2105.81 10409.07,2129.29 "/>
   <path class="ChangeName-5" d="M8614.59 1864.89l-315.39 674.37 162.71 43.59 134.58 -15.81 461.02 -154.43c0,0 61.33,-119.55 45.12,-207.38 -16.21,-87.83 -82.43,-204.03 -95.94,-220.25 -13.51,-16.21 -392.1,-120.09 -392.1,-120.09z"/>
   <path class="ChangeName-1" d="M9718.99 1003.4c0,0 431.42,23.57 508.44,106 77.02,82.42 97.28,125.67 91.87,349.98 -5.41,224.3 -53.34,611.46 -53.34,611.46"/>
   <line class="ChangeName-1" x1="10120.99" y1="1130.47" x2="9006.69" y2="1984.97"/>
   <line class="ChangeName-1" x1="9076.94" y1="2121.04" x2="10235.47" y2="1328.32"/>
   <polyline class="ChangeName-1" points="6285.79,1233.06 6876.29,867.37 8090.02,763.2 "/>
   <line class="ChangeName-1" x1="6791.62" y1="925.32" x2="7030.62" y2="755.1"/>
   <path class="ChangeName-6" d="M6872.39 1263.79l-951.28 1108 -262.14 -117.56 860.74 -1076.92 352.67 86.48zm-691.72 1286.35l-194.58 -137.83 1116.07 -874.24 -1082.25 799.76 903.43 -1033.64 198.59 216.53 299.64 -262.92 231.9 -203.47 -40.13 -26.27 -407.42 36.77 -306.05 -95.26 -147.54 66.89 -234.76 106.44 -235.11 277.01 -27.44 22.41 -196.55 253.17 -279.64 360.2 -181.35 166.21 -129.39 24.17 -148.67 -33.63 272.3 -228.03 234.37 -196.26 -832.36 437.8 340.51 -218.9c18.34,-177.83 40.02,-352.32 98.22,-490.27l-97.32 481.63c-4.15,20.56 -142.23,-45.75 -146.13,-25.94l-12.25 -91.79c-5.46,-40.99 12.16,89.86 12.16,89.86l-1379.13 885.19 49.1 23.09 1253.98 -133.8 -145.6 86.18c0,0 -2486.27,1367.45 -2586.26,1424.2 -99.99,56.75 -1445.81,1094.49 -1445.81,1094.49l-370.55 250.3 1332.31 -1332.31 1880.17 -1331.16 0.17 -0.11 -16.59 -103.98 5.4 55.4c0,0 -1706.58,1041.8 -1820.08,1109.36 -113.5,67.57 -1156.65,1072.85 -1156.65,1072.85 0,0 -378.33,354 -389.15,378.32 -10.81,24.32 -390.84,825.57 -390.84,825.57l656.25 -524.42 1956.18 -1024.89 97.71 -64.2 3677.75 -2030.13 1227.95 -677.83 1600.33 -807.85 0.74 -0.29 -23.42 -37.61 -1730.67 824.21 -1291.54 619.02zm-827.01 180.92l-303.15 -139.53 114.18 -114.18 77.02 6.08 88.17 -88.17 48.99 -1.68 74.32 -58.1 62.46 0.99 -5.89 -2.49 52.22 -24.84 18.29 -32.22 345.83 142.33 -45.61 22.92 -52.37 26.32 -21.07 10.59 -103.95 52.23 -35.08 17.63 -133.1 66.88 -35.64 17.91 -116.36 58.47 -29.25 38.86z"/>
   <polyline class="ChangeName-1" points="5533.46,1230.73 6135.1,1243.16 5986.46,1449.9 5337.47,1464.08 "/>
   <polyline class="ChangeName-1" points="5986.46,1449.9 5995.24,1506.65 5432.45,1516.79 5432.45,1462.03 "/>
   <polyline class="ChangeName-1" points="6135.1,1243.16 6129.69,1312.76 5995.24,1506.65 "/>
   <polyline class="ChangeName-1" points="6285.79,1233.06 6077.7,1589.09 6084.45,1579.65 "/>
   <polyline class="ChangeName-1" points="7245.11,1131.05 6987.02,1282.39 7111.33,1436.43 "/>
   <polyline class="ChangeName-1" points="4398.12,5251.51 4437.95,5205.39 7523.92,3224.34 "/>
   <polyline class="ChangeName-1" points="6897.99,4506.73 7051.23,4174.39 6913.4,3985.22 "/>
   <polyline class="ChangeName-1" points="7619.53,4200.66 7634.96,3920.36 7569.1,3638.98 "/>
   <polyline class="ChangeName-1" points="8359.09,5035.16 8092.33,5187.42 8087.07,5249.22 "/>
   <line class="ChangeName-1" x1="7128.82" y1="4186.54" x2="6953.05" y2="4561.79"/>
   <line class="ChangeName-1" x1="6913.4" y1="3985.22" x2="7615.91" y2="3627.93"/>
   <polyline class="ChangeName-1" points="7622.6,4144.82 8013.12,3975.69 8077.99,3674.39 9766.99,3556.81 9694.02,2959.57 9745.83,2878.29 "/>
   <polyline class="ChangeName-1" points="9686.3,3562.42 9547.53,3901.56 8024.89,4033.1 "/>
   <polyline class="ChangeName-1" points="7036.19,4207.01 5333.59,5097.15 6934.31,4427.95 "/>
   <polyline class="ChangeName-1" points="5364.69,4997.16 4545.81,5184.96 5309.22,5111.04 "/>
   <path class="ChangeName-12" d="M7198.12 912.11c-2.36,-0.21 -4.11,-2.31 -3.9,-4.68 0.21,-2.36 2.31,-4.11 4.68,-3.9 84.61,7.74 160.86,22.3 229.86,42.72 69.08,20.45 130.94,46.79 186.69,78.07 2.08,1.16 2.82,3.79 1.65,5.87 -1.16,2.08 -3.79,2.82 -5.87,1.65 -55.22,-30.97 -116.48,-57.07 -184.9,-77.32 -68.51,-20.27 -144.21,-34.73 -228.21,-42.41z"/>
   <path class="ChangeName-1" d="M7843.44 784.36c-3.51,-66.55 -10.76,-172.32 -74.06,-182.76l-355.68 -58.65"/>
   <polyline class="ChangeName-1" points="7769.38,601.6 7652.5,669.32 7298,587.5 "/>
   <polyline class="ChangeName-1" points="7837.58,715.47 7745.18,792.8 7652.5,669.32 "/>
   <line class="ChangeName-1" x1="6499.21" y1="952.15" x2="6663.95" y2="1016.43"/>
   <line class="ChangeName-1" x1="6495.64" y1="737.56" x2="6918.06" y2="836.99"/>
   <path class="ChangeName-1" d="M5631.49 1232.76c285.98,-182.24 587.79,-347.35 917.01,-482.76l177.79 -73.86"/>
   <path class="ChangeName-1" d="M5432.45 1516.79c-58.2,137.95 -79.88,312.44 -98.22,490.27l-340.51 218.9 832.36 -437.8 251.62 -199.08"/>
   <polyline class="ChangeName-1" points="6255.01,1442.34 5778.82,2055.71 5597.47,2221.92 5468.08,2246.09 5319.41,2212.46 5826.08,1788.17 "/>
   <line class="ChangeName-1" x1="6058.47" y1="1695.5" x2="5608.61" y2="1977.67"/>
   <path class="ChangeName-13" d="M4892 2635.03c-1.28,2 -3.96,2.58 -5.96,1.3 -2,-1.28 -2.58,-3.96 -1.3,-5.96l67.57 -105.4 1.79 -1.57 567.76 -268.64c2.15,-1.01 4.73,-0.09 5.74,2.06 1.01,2.15 0.09,4.73 -2.06,5.74l-566.64 268.11 -66.9 104.36z"/>
   <line class="ChangeName-1" x1="3760.7" y1="2832.64" x2="3777.28" y2="2936.62"/>
   <path class="ChangeName-1" d="M5371.48 1463.34c-82.39,138.5 -148.84,338.14 -182.47,509.14l-12.25 -91.79"/>
   <line class="ChangeName-1" x1="9555.5" y1="2488.17" x2="9836.55" y2="2798.5"/>
   <polyline class="ChangeName-1" points="9555.5,2488.17 10064.69,2402.37 10431.99,2675.1 9850.07,2782.74 "/>
   <polyline class="ChangeName-1" points="5353.66,2731.07 5050.51,2591.54 5164.7,2477.36 5499.28,2633.73 "/>
   <polyline class="ChangeName-1" points="5534.92,2615.82 5241.72,2483.44 5329.89,2395.27 5668.03,2548.94 "/>
   <polyline class="ChangeName-1" points="5703.11,2531.31 5378.88,2393.59 5453.19,2335.48 5807.07,2479.08 "/>
   <line class="ChangeName-1" x1="5453.19" y1="2335.48" x2="5515.66" y2="2336.47"/>
   <line class="ChangeName-1" x1="5329.89" y1="2395.27" x2="5378.88" y2="2393.59"/>
   <line class="ChangeName-1" x1="5164.7" y1="2477.36" x2="5241.72" y2="2483.44"/>
   <path class="ChangeName-1" d="M6752.34 1036.48c97.61,-79.5 106.42,-112.46 147.78,-124.51 46.58,-13.57 126.48,0.08 268.7,17.46"/>
   <line class="ChangeName-1" x1="11492.7" y1="3238.24" x2="12203.52" y2="2531.46"/>
   <polyline class="ChangeName-1" points="11370.97,1575.26 10810.89,2012.59 10578.05,1952.55 "/>
   <polyline class="ChangeName-1" points="10702.39,2177.56 10810.89,2012.59 10861.83,2123.5 "/>
   <line class="ChangeName-1" x1="11350.01" y1="1678.84" x2="12176.95" y2="1866.08"/>
   <polyline class="ChangeName-1" points="11350.01,1678.84 11239.21,1782.88 12011.03,1982.49 "/>
   <polyline class="ChangeName-1" points="12233.57,2505.67 12164.79,2024.09 12406.32,2357.41 "/>
   <polygon class="ChangeName-6" points="8390.69,2045.21 7625.22,1952.66 7518.93,2390.32 7792.78,2235.06 8169.94,2268.09 "/>
   <path class="ChangeName-6" d="M3508.64 4971.4l-878.9 -78.69 878.9 78.69zm-886.83 -246.57l-1407.58 924.9 1407.58 -924.9zm959.79 170.9l-862.08 -235.11 -97.71 64.2 -1956.18 1024.89 548.6 -99.99 549.06 -110.65 103.26 -77.03 763.19 -569.34 794.25 198.02 84.65 -119.33 72.97 -75.67z"/>
   <polygon class="ChangeName-6" points="7625.22,1952.66 8390.69,2045.21 8449.63,1997.75 9237.56,1162.62 9226.3,1144.52 9225.55,1144.81 "/>
   <polygon class="ChangeName-6" points="7472.21,1931.13 9202.88,1106.92 9070.99,895.06 9059.42,896.81 7907.5,1136.77 7550.79,1893.47 "/>
   <polygon class="ChangeName-6" points="7518.93,2390.32 7625.22,1952.66 6397.28,2630.49 6687.29,2861.82 "/>
   <polygon class="ChangeName-13" points="6590.27,2914.18 6885.51,3081.39 6887.05,3082.81 6978.94,3221.26 6971.44,3226.23 6880.14,3088.67 6585.84,2921.99 "/>
   <polygon class="ChangeName-2" points="3353.67,5290.44 2582.41,5129.45 1866.55,5462.05 2663.19,5609.33 "/>
   <polygon class="ChangeName-2" points="2561.37,5315.89 2663.19,5609.33 3030.51,5439.69 "/>
   <polygon class="ChangeName-6" points="3654.58,5008.51 3506.2,4974.85 3423.99,5090.73 3561.95,5127.7 3561.95,5342.84 3563.12,5343.14 3961.62,5107.8 3665.23,5001.05 "/>
   <polygon class="ChangeName-6" points="2629.74,4892.71 3508.33,4971.38 3508.64,4971.4 3581.61,4895.73 2719.53,4660.62 2621.82,4724.83 1214.24,5649.72 1763.29,5539.08 1866.55,5462.05 "/>
   <polygon class="ChangeName-6" points="3423.99,5090.73 2629.74,4892.71 1866.55,5462.05 2582.41,5129.45 3353.67,5290.44 3561.95,5342.84 3561.95,5127.7 "/>
   <polygon class="ChangeName-6" points="2742.91,5705.28 1763.29,5539.08 1214.24,5649.72 2423.48,5832.51 "/>
   <polygon class="ChangeName-6" points="2111.45,5906.46 665.64,5749.72 9.39,6274.14 1314.68,6274.14 2423.48,5832.51 1214.24,5649.72 "/>
   <polygon class="ChangeName-6" points="665.64,5749.72 2111.45,5906.46 1214.24,5649.72 "/>
   <polygon class="ChangeName-6" points="3581.61,4895.73 3508.64,4971.4 3488.13,5000.32 3643.92,5015.99 3665.23,5001.05 3636.79,4990.8 4593.47,4203.48 5396.89,3729.35 5397.23,3694.91 5286.65,3622.34 4506.63,4043.01 "/>
   <path class="ChangeName-2" d="M2381 4255.41c99.99,-56.75 2586.26,-1424.2 2586.26,-1424.2l-1048.55 129.72c0,0 -1916.04,1307.97 -1975.49,1362.02 -59.45,54.05 -1008.03,1026.95 -1008.03,1026.95 0,0 1345.81,-1037.74 1445.81,-1094.49z"/>
   <path class="ChangeName-6" d="M935.19 5349.9c0,0 948.58,-972.9 1008.03,-1026.95 59.45,-54.05 1975.49,-1362.02 1975.49,-1362.02l1048.55 -129.72 145.6 -86.18 -1253.98 133.8 -81.61 57.79 -0.17 0.11 -1880.17 1331.16 -1332.31 1332.31 370.55 -250.3z"/>
   <polygon class="ChangeName-6" points="3858.89,2878.83 5112.87,2745.03 5040.07,2788.13 "/>
   <polygon class="ChangeName-6" points="8720.22,109.71 8459.68,857.87 8722.02,824.33 8877.85,804.4 9046.19,40.04 9044.23,38.24 "/>
   <polygon class="ChangeName-6" points="8459.68,857.87 8720.22,109.71 8657.54,87.18 8368.36,843.38 "/>
   <polygon class="ChangeName-6" points="8720.22,109.71 9044.23,38.24 9007.69,4.7 8658.41,87.21 "/>
   <path class="ChangeName-5" d="M8090.02 763.2c0,0 -6.77,-132.42 -121.63,-148.63 -114.86,-16.21 -466.86,-75.66 -554.69,-71.61l355.68 58.65c43.75,7.22 60.73,59.99 68.19,113.87 3.33,24.06 4.78,48.35 5.86,68.89l246.58 -21.16z"/>
   <path class="ChangeName-5" d="M8074.33 699.61l-236.75 15.85c3.33,24.06 4.78,48.35 5.86,68.89l246.58 -21.16c0,0 -1.55,-30.24 -15.69,-63.58z"/>
   <path class="ChangeName-5" d="M9070.99 895.06l131.89 211.85 23.42 37.61 227.54 -87.41c-24.65,-44.95 -118.52,-167.75 -159.74,-195.85l-223.1 33.79z"/>
   <polyline class="ChangeName-1" points="7907.5,1136.77 9070.62,894.48 9237.56,1162.62 9109.42,1466.34 "/>
   <path class="ChangeName-5" d="M9453.83 1057.12l-227.54 87.41 11.27 18.09 -128.13 303.72 293.4 -236.3c0,0 63.51,-132.41 56.75,-160.12 -0.69,-2.85 -2.69,-7.23 -5.74,-12.8z"/>
   <line class="ChangeName-1" x1="8695.39" y1="817.2" x2="9123.55" y2="903.49"/>
   <line class="ChangeName-1" x1="9475.38" y1="834.81" x2="9059.42" y2="896.81"/>
   <path class="ChangeName-5" d="M9294.09 861.27c-3.3,-2.26 -6.28,-3.9 -8.84,-4.85 -38.51,-14.19 -407.4,-52.02 -407.4,-52.02l-150.48 19.24 349.76 70.49 0.12 -0.02 216.85 -32.84z"/>
   <path class="ChangeName-5" d="M10227.42 1109.39c77.02,82.42 97.28,125.67 91.87,349.98 -5.41,224.3 -53.34,611.46 -53.34,611.46l151.03 -32.1 93.2 -706.68c0,0 12.14,-201.34 -79.75,-236.47 -91.88,-35.13 -570.23,-121.61 -633.73,-112.15 -24.5,3.65 -50.2,9.71 -77.73,19.97 0,0 431.42,23.57 508.44,106z"/>
   <path class="ChangeName-5" d="M10256.72 1142.57c36.34,44.67 54.46,86.53 60.75,170.71l192.43 -35.31c-1.78,-33.84 -7.06,-77.85 -21.31,-114.75l-231.88 -20.65z"/>
   <path class="ChangeName-6" d="M12203.52 2531.46l-710.82 706.78c127.56,-80.03 220.89,-138.84 220.89,-138.84l240.52 -174.32 249.4 -393.62z"/>
   <path class="ChangeName-6" d="M12011.02 1982.49l-27.67 19.41 27.67 -19.41zm-267.61 926l-108.09 -535.1 497.93 -377.02 -111.66 -21.29 -10.56 7.41 -771.82 -199.6 110.8 -104.04 826.94 187.24 33.57 -23.55 -788.18 -153.78 -51.37 -113.5 -560.08 437.33 50.94 110.92 367.53 -302.67 753.99 181.07 -424.29 335.1 -775.62 324.29 -183.86 33.05 51.4 33.68c46.42,30.42 46.91,48.93 57.57,103.34l101.64 529.91 127.11 -23.22 806.11 -429.57z"/>
   <polygon class="ChangeName-5" points="11162.88,1536.07 10578.05,1952.55 10810.89,2012.59 11370.97,1575.26 "/>
   <polygon class="ChangeName-5" points="10810.89,2012.59 10578.05,1952.55 10526.44,2038.73 10484.49,2105.81 10702.39,2177.56 "/>
   <polygon class="ChangeName-5" points="10810.89,2012.59 10702.39,2177.56 10861.83,2123.5 "/>
   <polygon class="ChangeName-5" points="10810.89,2012.59 10861.83,2123.5 11229.37,1820.83 11983.35,2001.9 12011.03,1982.49 11239.21,1782.88 11350.01,1678.84 12176.95,1866.08 12210.52,1842.53 11422.33,1688.75 11370.97,1575.26 "/>
   <polygon class="ChangeName-5" points="11239.21,1782.88 12011.02,1982.49 12021.59,1975.08 12072.91,1939.07 12176.95,1866.08 11350.01,1678.84 "/>
   <polygon class="ChangeName-5" points="12176.95,1866.08 12072.91,1939.07 12169.11,1962.97 12179.66,1987.58 12313.67,1886.72 12308.75,1861.7 12243.27,1848.92 12210.52,1842.53 "/>
   <polygon class="ChangeName-5" points="12313.67,1886.72 12179.66,1987.58 12169.11,1962.97 12072.91,1939.07 12021.59,1975.08 12133.25,1996.37 12203.52,2531.46 12233.57,2505.67 12164.79,2024.09 12406.32,2357.41 "/>
   <polygon class="ChangeName-5" points="12406.32,2357.41 12164.79,2024.09 12233.57,2505.67 "/>
   <polygon class="ChangeName-5" points="12406.32,2357.41 12233.57,2505.67 12203.52,2531.46 11954.11,2925.08 12150.68,2781.86 "/>
   <polygon class="ChangeName-43" points="11993.46,2896.41 12233.57,2505.67 12203.52,2531.46 11954.11,2925.08 "/>
   <polygon class="ChangeName-6" points="12136.63,2022.05 11643.03,2411.49 11743.42,2908.49 12202.99,2527.42 "/>
   <path class="ChangeName-90" d="M10808.27 3418.72l-944.74 165.3c0.44,19.79 -2.71,36.17 -10.1,72.46l-78.72 277.24 755.26 -151.96 51.35 -63.51 44.64 -56.86 155.8 -198.44c17.23,-21.69 22.23,-31.97 26.52,-44.24z"/>
   <path class="ChangeName-6" d="M10781.75 3462.97l-155.8 198.44 -18.33 23.34 113.9 -8.32 215.79 -338.37 -127.11 23.22c11.2,57.15 7.01,57.07 -28.45,101.7z"/>
   <path class="ChangeName-47" d="M9857.27 3527.62l-96.13 355.49 13.56 50.61 78.72 -277.24c7.39,-36.3 10.55,-52.67 10.1,-72.46 -0.32,-14.18 -2.48,-30.12 -6.25,-56.4z"/>
   <path class="ChangeName-6" d="M11743.42 2908.49l-806.11 429.57 -215.79 338.37 -113.9 8.32 -26.31 33.51c0,0 114.84,4.05 210.77,-47.29 63.68,-34.08 448.82,-274.74 700.62,-432.72l710.82 -706.78 -0.53 -4.04 -459.57 381.06z"/>
   <path class="ChangeName-6" d="M9761.14 3883.11l96.13 -355.49 -92.76 -548.05c-5.53,-32.71 -9.08,-59.21 -24.24,-92.56l-46.25 72.56 72.97 597.24 -80.7 5.61 -138.76 339.14 213.6 -18.45z"/>
   <path class="ChangeName-90" d="M9411.16 2528.76l250.99 326.85 53.85 -2.45 5.53 -1c-2.36,-3.84 -4.88,-7.78 -7.56,-11.84 -38.83,-58.83 -201.87,-250.94 -302.81,-376.41l0 64.84z"/>
   <polygon class="ChangeName-90" points="9662.15,2855.61 9411.16,2528.76 9364.28,2528.76 9608.59,2858.04 "/>
   <polygon class="ChangeName-5" points="8614.59,1864.89 8299.21,2539.26 8289.05,2473.24 8495.92,1960.47 "/>
   <path class="ChangeName-5" d="M9006.69 1984.97l-370.3 406.4 -174.47 191.48 134.58 -15.81 5.16 -1.73 176.83 -165.3 298.45 -278.97c-25.84,-64.95 -60.83,-124.77 -70.25,-136.07z"/>
   <polygon class="ChangeName-6" points="9686.3,3562.43 8077.99,3674.39 8013.12,3975.69 7622.61,4144.82 7619.94,4193.34 7619.53,4200.66 8024.89,4033.1 9547.53,3901.56 "/>
   <polygon class="ChangeName-6" points="8013.12,3975.69 8077.99,3674.39 7628.57,3892.84 7634.96,3920.36 7633.87,3940.23 7622.61,4144.82 "/>
   <polygon class="ChangeName-55" points="7619.53,4200.66 7620.34,4186.01 8022.18,4016.37 9765.72,3866.16 9761.14,3883.11 8024.89,4033.1 "/>
   <path class="ChangeName-6" d="M9006.69 1984.97l1114.3 -854.5c-128.02,-37.16 -405.63,-83.42 -468.36,-95.55 -25.48,14.69 -52.56,33.22 -81.57,56.61 -90.53,72.97 -168.24,138.51 -168.24,138.51l-293.4 236.3 -494.83 398.55c0,0 378.58,103.87 392.1,120.09z"/>
   <path class="ChangeName-6" d="M10120.99 1130.47l-1114.3 854.5c9.41,11.3 44.41,71.12 70.25,136.07l1158.54 -792.72c-8.16,-115.69 -7.85,-166.91 -114.49,-197.85z"/>
   <path class="ChangeName-6" d="M10417 2038.73l-1325.59 285.94c-14.13,49.39 -33.9,87.94 -33.9,87.94 489.82,-65.62 953.37,-150.51 1351.57,-283.32 24.15,-8.05 48.06,-16.29 71.71,-24.7l3.71 1.23 41.95 -67.09 -109.45 0z"/>
   <path class="ChangeName-6" d="M10235.47 1328.32l-1158.54 792.72c11.26,28.28 20.78,57.54 25.69,84.18 7.01,37.96 -0.47,81.85 -11.22,119.45l1134.53 -244.73c3.91,-121.86 18.97,-617.78 9.53,-751.62z"/>
   <path class="ChangeName-6" d="M6876.29 867.37l868.89 -74.58 -92.68 -123.48 -354.5 -81.82c-117.88,62.24 -267.38,167.61 -267.38,167.61l-112.57 81.89 -14.21 10.34 -27.56 20.04z"/>
   <path class="ChangeName-6" d="M7652.5 669.32l92.68 123.48 92.4 -77.33c-7.47,-53.88 -24.44,-106.65 -68.19,-113.87l-116.89 67.72z"/>
   <path class="ChangeName-2" d="M6452.48 1078.75l100.67 -112.15 340.06 -113.64 23.04 -16.4 -367.75 -86.56c-329.22,135.41 -631.03,300.51 -917,482.76l503.6 10.4 -5.41 69.59 -134.45 193.9 -562.79 10.14c-58.2,137.95 -79.88,312.44 -98.22,490.27l-340.51 218.9 832.36 -437.8 251.62 -199.08 208.08 -356.02 212.59 -131.66 -45.9 -22.65z"/>
   <path class="ChangeName-5" d="M6548.5 750l367.75 86.56 114.38 -81.46c0,0 -192.83,-58.5 -304.33,-78.96l-177.79 73.86z"/>
   <path class="ChangeName-5" d="M6548.5 750l177.79 -73.86c-32.09,-5.88 -57.44,-8.62 -69.52,-5.9 -12.42,2.79 -73.4,28.34 -161.13,67.32l52.86 12.44z"/>
   <polyline class="ChangeName-1" points="6498.38,1101.41 6452.48,1078.75 6553.15,966.6 6932,840 "/>
   <polygon class="ChangeName-5" points="6452.48,1078.75 6498.38,1101.41 6646.55,1009.64 6548.77,971.49 "/>
   <polygon class="ChangeName-5" points="6548.77,971.49 6646.55,1009.64 6850.96,883.06 6893.21,852.97 6553.15,966.6 "/>
   <line class="ChangeName-1" x1="6285.79" y1="1233.06" x2="6400.02" y2="1281.42"/>
   <polygon class="ChangeName-5" points="6400.02,1281.42 6285.79,1233.06 6077.7,1589.09 6081.07,1584.37 6255.01,1442.34 6282.46,1419.92 "/>
   <polygon class="ChangeName-2" points="6058.47,1695.5 5591.71,1984.43 5319.41,2212.46 5468.08,2246.09 5597.47,2221.92 5778.82,2055.71 "/>
   <polygon class="ChangeName-2" points="5591.71,1984.43 6058.46,1695.51 6255.01,1442.34 6081.07,1584.37 6077.7,1589.09 5826.08,1788.17 "/>
   <path class="ChangeName-13" d="M6056.17 1691.86c2.01,-1.27 4.68,-0.66 5.94,1.35 1.27,2.01 0.66,4.68 -1.35,5.94l-468.83 298.05c-2.01,1.27 -4.68,0.66 -5.94,-1.35 -1.27,-2.01 -0.66,-4.68 1.35,-5.94l468.83 -298.05z"/>
   <polygon class="ChangeName-66" points="5499.28,2633.73 5164.7,2477.36 5050.51,2591.54 5353.66,2731.07 5382.92,2692.2 "/>
   <polygon class="ChangeName-67" points="5164.7,2477.36 5499.28,2633.73 5534.92,2615.82 5241.72,2483.44 "/>
   <polygon class="ChangeName-66" points="5241.72,2483.44 5534.92,2615.82 5668.03,2548.94 5329.89,2395.27 "/>
   <polygon class="ChangeName-67" points="5329.89,2395.27 5668.02,2548.94 5703.11,2531.31 5378.88,2393.59 "/>
   <polygon class="ChangeName-66" points="5378.88,2393.59 5703.11,2531.31 5807.07,2479.08 5453.19,2335.48 "/>
   <polygon class="ChangeName-67" points="5453.19,2335.48 5807.06,2479.08 5828.13,2468.49 5515.66,2336.47 "/>
   <polygon class="ChangeName-68" points="5561.99,2309.15 5880.5,2442.17 5926.11,2419.25 5580.28,2276.93 "/>
   <polygon class="ChangeName-66" points="5561.99,2309.15 5509.77,2333.98 5515.66,2336.47 5828.13,2468.49 5880.5,2442.17 "/>
   <polygon class="ChangeName-66" points="5850.68,3461.57 5769.71,3405.86 5712.96,3493.69 5749.01,3521.57 5890.05,3630.65 6002.25,3565.87 "/>
   <polygon class="ChangeName-67" points="5769.71,3405.86 5850.68,3461.57 6002.25,3565.87 6025.49,3552.45 5876.36,3446.42 5848.76,3426.8 "/>
   <polygon class="ChangeName-67" points="6080.38,3326.03 6230.4,3434.15 6276.09,3407.76 6114.04,3306.17 6091.99,3292.35 6005.51,3272.08 "/>
   <polygon class="ChangeName-6" points="5300.6,5118.13 5364.69,4997.16 5202.55,4721.51 7962.15,3045.04 9694.02,2959.57 9766.99,3556.81 8077.99,3674.39 7628.57,3892.84 7051.23,4174.39 6897.99,4506.73 5333.26,5159.37 "/>
   <polygon class="ChangeName-66" points="6114.04,3306.17 6276.09,3407.76 6349.26,3365.52 6194.39,3258.76 6117.67,3205.87 6091.99,3292.35 "/>
   <polygon class="ChangeName-67" points="6194.39,3258.76 6349.26,3365.52 6385.67,3344.5 6225.38,3240.47 6209.55,3230.2 6117.67,3205.87 "/>
   <polygon class="ChangeName-66" points="6225.38,3240.47 6385.67,3344.5 6468.56,3296.65 6311.96,3189.38 6243.33,3142.37 6209.55,3230.2 "/>
   <polygon class="ChangeName-67" points="6311.96,3189.38 6468.56,3296.65 6502.82,3276.86 6338.76,3173.57 6314.95,3158.58 6243.33,3142.37 "/>
   <polygon class="ChangeName-67" points="6150.22,3480.44 6000.11,3373.4 5971.72,3353.16 5885.92,3338.3 5966.49,3393.24 6119.98,3497.89 "/>
   <polygon class="ChangeName-66" points="5971.72,3353.16 6000.11,3373.4 6150.22,3480.44 6230.4,3434.15 6080.38,3326.04 6005.51,3272.08 "/>
   <polygon class="ChangeName-66" points="6119.98,3497.89 5966.49,3393.24 5885.92,3338.3 5848.76,3426.8 5876.36,3446.42 6025.49,3552.45 "/>
   <polygon class="ChangeName-66" points="6338.79,3173.55 6503.06,3276.72 6580.68,3231.92 6418.32,3126.62 6344.67,3078.86 6314.95,3158.58 "/>
   <polygon class="ChangeName-6" points="7613.34,1028.07 7205.92,1064.84 6872.39,1263.79 5921.11,2371.79 6068.17,2302.18 7121.93,1520.73 7653.47,1054.34 "/>
   <line class="ChangeName-1" x1="7205.92" y1="1064.84" x2="6872.39" y2="1263.79"/>
   <polygon class="ChangeName-90" points="6923.34,1304.21 6019.9,2337.84 7102.16,1538.08 7121.93,1520.73 "/>
   <polygon class="ChangeName-6" points="6923.34,1304.21 6019.9,2337.84 5998.5,2306.81 "/>
   <path class="ChangeName-2" d="M6752.34 1036.48l147.54 -66.89 37.9 -17.18 231.04 -22.97c-142.22,-17.38 -222.13,-31.04 -268.7,-17.46 -41.36,12.05 -50.16,45.01 -147.78,124.51z"/>
   <path class="ChangeName-13" d="M7792.38 2239.35c-2.36,-0.22 -4.11,-2.33 -3.89,-4.69 0.22,-2.36 2.33,-4.11 4.69,-3.89l570.62 53.89c2.36,0.22 4.11,2.33 3.89,4.69 -0.22,2.36 -2.33,4.11 -4.69,3.89l-570.62 -53.89z"/>
   <polygon class="ChangeName-13" points="8276,2275.82 8386.63,2043.29 8387.88,2041.71 9493.92,1144.61 9498.25,1152.2 8394.31,2048.06 8284.13,2279.66 "/>
   <polygon class="ChangeName-6" points="8276.87,4942.38 7990.87,5095.75 8092.33,5187.42 8359.09,5035.16 "/>
   <polygon class="ChangeName-6" points="8359.09,5035.16 8092.33,5187.42 8087.07,5249.22 8336.81,5105.03 "/>
   <polygon class="ChangeName-6" points="8092.33,5187.42 7990.87,5095.75 7987.35,5164.38 8087.07,5249.22 "/>
   <polyline class="ChangeName-1" points="7986.91,5172.95 7990.87,5095.75 8276.87,4942.38 "/>
   <polygon class="ChangeName-90" points="7990.87,5095.75 7217.23,4396.74 7217.45,4509.29 7987.35,5164.38 "/>
   <polygon class="ChangeName-6" points="6953.05,4561.79 7128.82,4186.54 6913.4,3985.22 7051.23,4174.39 7036.19,4207.01 6934.31,4427.95 6897.99,4506.73 "/>
   <polygon class="ChangeName-6" points="6934.31,4427.95 7036.19,4207.01 5333.59,5097.15 "/>
   <polyline class="ChangeName-1" points="7051.23,4174.39 5416.02,4964.72 7523.92,3224.34 "/>
   <polygon class="ChangeName-6" points="6913.4,3985.22 7093.68,4153.69 7628.53,3892.86 7571.77,3650.38 "/>
   <polygon class="ChangeName-6" points="7093.68,4153.69 7128.82,4186.54 7633.87,3940.23 7634.96,3920.36 7628.53,3892.86 "/>
   <polygon class="ChangeName-6" points="7633.87,3940.23 7128.82,4186.54 7290.69,4179.73 7289.6,4178.44 7424.09,4171.67 7425.02,4172.75 "/>
   <polygon class="ChangeName-6" points="7424.09,4171.67 7289.6,4178.44 7479.49,4404.08 7579.48,4352.74 "/>
   <polygon class="ChangeName-6" points="7400.58,4310.31 7290.69,4179.73 7128.82,4186.54 6953.05,4561.79 7147.32,4449.62 7135.64,4323.02 7217.23,4396.74 "/>
   <polygon class="ChangeName-6" points="7217.23,4396.74 7363.16,4327.95 7270.69,4256.11 7135.64,4323.02 "/>
   <polygon class="ChangeName-6" points="7217.23,4396.74 7135.64,4323.02 7147.32,4449.62 7217.45,4509.29 "/>
   <polygon class="ChangeName-6" points="7579.48,4352.74 7349.45,4249.55 7479.49,4404.08 "/>
   <polygon class="ChangeName-6" points="7502.03,4262.49 7623.55,4205.2 7619.53,4200.66 7620.34,4186.01 7622.61,4144.82 7633.87,3940.23 7425.02,4172.75 "/>
   <polygon class="ChangeName-6" points="7540.43,4122.08 7633.31,3950.44 7633.87,3940.23 7425.02,4172.75 7429.03,4177.43 "/>
   <polygon class="ChangeName-6" points="7540.43,4122.08 7614.52,4199.55 7496.28,4255.79 7426.74,4175.38 "/>
   <polyline class="ChangeName-1" points="7431.88,4176.02 7540.43,4122.08 7623.55,4205.2 "/>
   <polyline class="ChangeName-1" points="7628.57,3892.84 7594.05,3639.04 6913.4,3985.22 7093.68,4153.69 7634.54,3889.94 "/>
   <polygon class="ChangeName-6" points="5416.02,4964.72 7160.73,3524.2 5202.55,4721.51 5364.69,4997.16 5304.1,5111.54 5300.6,5118.13 5333.26,5159.37 6897.99,4506.73 6934.31,4427.95 5333.59,5097.15 7036.19,4207.01 7051.23,4174.39 "/>
   <polygon class="ChangeName-6" points="9766.99,3556.81 8077.99,3674.39 7962.15,3045.04 9694.02,2959.57 "/>
   <polyline class="ChangeName-1" points="5304.1,5111.54 5364.69,4997.16 5141.29,4753.88 "/>
   <polygon class="ChangeName-6" points="4545.81,5184.96 5364.69,4997.16 5141.29,4753.88 4437.95,5205.39 4343.93,5260.69 5333.26,5159.37 5300.6,5118.13 5304.1,5111.54 "/>
   <polygon class="ChangeName-6" points="5364.69,4997.16 4545.81,5184.96 5304.1,5111.54 "/>
   <path class="ChangeName-6" d="M7125.4 3553.37l836.75 -508.33 1731.87 -85.47 46.25 -72.56c-4.89,-10.76 -10.99,-22.22 -18.74,-34.83l-5.53 1 -53.85 2.45 -53.56 2.43 -1678.93 76.2 -3667.29 2281.88 -53.35 54.03 134.91 -9.46 94.02 -55.29 703.34 -451.52 2382.63 -1529.54 -363.18 299.86 -35.33 29.17z"/>
   <path class="ChangeName-13" d="M5315.35 2797.6c-1.28,2 -3.96,2.58 -5.96,1.3 -2,-1.28 -2.58,-3.96 -1.3,-5.96l74.83 -100.74 1.79 -1.57 537.19 -277.71c2.15,-1.01 4.73,-0.09 5.74,2.06 1.01,2.15 0.09,4.73 -2.06,5.74l-536.06 277.18 -74.16 99.7z"/>
   <path class="ChangeName-90" d="M5189 1972.48c33.63,-171 100.09,-370.64 182.47,-509.14l-34.01 0.74c-25.7,37.11 -36.46,33.85 -64.96,105.98 -28.49,72.13 -98.57,279.54 -101.95,320.75l11.55 65.11 6.89 16.55z"/>
   <polygon class="ChangeName-90" points="5986.46,1449.9 5440.33,1461.86 5432.45,1516.79 5995.24,1506.65 "/>
   <polygon class="ChangeName-90" points="6135.1,1243.16 5986.46,1449.9 5995.24,1506.65 6129.69,1312.76 "/>
   <path class="ChangeName-90" d="M5986.46 1449.9l148.64 -206.74 -503.59 -10.4 -98.04 -2.03c-65.42,71.88 -140.89,153.8 -196,233.35l34.01 -0.74 60.98 -1.33 554 -12.1z"/>
   <polygon class="ChangeName-6" points="3858.89,2878.83 3809.8,2855.74 3760.7,2832.64 3777.28,2936.62 "/>
   <polygon class="ChangeName-6" points="3809.8,2855.74 5188.92,1970.55 3760.7,2832.64 "/>
   <path class="ChangeName-13" d="M11495.74 3241.3c-1.69,1.68 -4.42,1.66 -6.1,-0.02 -1.68,-1.69 -1.66,-4.42 0.02,-6.1l533.49 -530.47c1.69,-1.68 4.42,-1.66 6.1,0.02 1.68,1.69 1.66,4.42 -0.02,6.1l-533.49 530.47z"/>
   <path class="ChangeName-13" d="M3865.68 2866.32c-2.09,1.13 -4.71,0.36 -5.84,-1.73 -1.13,-2.09 -0.36,-4.71 1.73,-5.84l1129.19 -629.55c2.09,-1.13 4.71,-0.36 5.84,1.73 1.13,2.09 0.36,4.71 -1.73,5.84l-1129.19 629.55z"/>
   <polygon class="ChangeName-90" points="7614.86,4193.34 7497.27,4256.94 7579.48,4352.74 7479.49,4404.08 7400.58,4310.31 7217.23,4396.74 7990.87,5095.75 8276.16,4944.56 7617.85,4202.94 "/>
   <path class="ChangeName-13" d="M2659.93 5613.25c-2.16,1 -4.73,0.05 -5.72,-2.11 -1,-2.16 -0.05,-4.73 2.11,-5.72l690.48 -318.89 2.85 -0.27 207.74 52.26 398.71 -235.47c102.94,37.26 206.01,74.24 309.02,111.31l-49.71 50.33 1111.71 -109.54 1566.83 -653.52 54.76 54.76 194.02 -112.02 939.75 799.6 245.68 -141.84 21.03 -65.95 -741.94 -837.19 410.95 -169.87 1.27 -0.32 1739.86 -150.31 13.45 50.21 749.75 -150.85 51.72 -63.96 2.12 0.07c0.32,0.01 113.72,4.01 208.63,-46.78 95.38,-51.05 912.17,-565.7 921.06,-571.3l240.47 -174.28 195.84 -142.67 254.35 -422.31 -96.7 -491.23 -885.74 -172.81 -51.36 -113.49 -204.08 -38.43 -582.6 414.9 -52.4 87.51 -116.8 0 93.83 -711.42c0.38,-6.84 10.45,-198.59 -76.99,-232.02 -46.75,-17.87 -194.56,-49.2 -336.32,-74.29 -135.22,-23.93 -264.7,-42.18 -295.25,-37.63 -31.41,4.67 -64.82,13.36 -101.55,29.89 -36.85,16.58 -77.08,41.07 -122.03,77.29 -90.85,73.22 -167.96,138.26 -168.18,138.44l-6.65 -5.15c0.18,-0.37 62.84,-131.03 56.45,-157.25 -3.66,-15.03 -45.65,-75.2 -88.57,-127.77 -33.32,-40.82 -66.96,-76.76 -83.05,-82.68 -38.05,-14.02 -405.29,-51.68 -406.34,-51.78l-4.84 -0.5 168.84 -766.67 -35 -32.12 -342.95 77.8 -247.4 654.49c-110.31,8.87 -219.8,17.45 -330.12,26.15l-0.24 -4.43c-0.02,-0.36 -6.6,-128.86 -117.91,-144.58 -26.78,-3.78 -64.55,-9.61 -108.6,-16.4 -151.9,-23.43 -377.84,-58.29 -445.31,-55.18 -86.54,3.99 -379.94,210.78 -380.78,211.37l-1.71 1.21 -2 -0.6c-0.91,-0.27 -318.79,-96.69 -371.68,-84.8 -33.41,7.52 -421.49,181.28 -733.72,337.07 -189.88,94.74 -351.44,182.69 -387.34,222.13l-9.33 10.24c-93.85,103.04 -205.01,225.11 -246.57,330.31 -22.98,58.15 -48.8,129.83 -68.43,190.35 -17.24,53.11 -29.71,97.55 -31.26,116.49 -1.11,13.54 -0.13,27.91 1.65,41.02 1.03,7.59 2.41,14.64 3.98,21.58 1.9,8.41 4.1,16.68 6.33,25.61l1.05 3.25 -1428.82 862.45 5.4 55.38 -2.31 1.41c-4.89,2.99 -1705.99,1041.43 -1820.13,1109.38 -113.02,67.27 -1152.86,1069.38 -1155.86,1072.26l-0.05 0.05c-1.08,1.01 -377.7,353.39 -388.15,376.9 -10.9,24.53 -389.78,823.38 -390.87,825.67 -1.01,2.15 -3.59,3.07 -5.74,2.06 -2.15,-1.01 -3.07,-3.59 -2.06,-5.74 1.09,-2.29 380.09,-801.38 390.81,-825.48 11.16,-25.11 389.06,-378.72 390.14,-379.73 4.88,-4.69 1043.52,-1005.61 1157.39,-1073.39 110.7,-65.9 1750.72,-1067.03 1817.73,-1107.94l-5.4 -55.43 1427.68 -861.76c-3.41,-11.71 -14.3,-52.6 -11.38,-88.23 1.61,-19.66 14.23,-64.79 31.66,-118.48 19.71,-60.77 45.61,-132.63 68.61,-190.86 42.13,-106.64 153.89,-229.36 248.23,-332.94l9.33 -10.24c36.71,-40.34 199.19,-128.91 389.87,-224.05 312.65,-156 701.93,-330.15 735.68,-337.74 52.74,-11.87 347.12,76.22 374.03,84.33 24.02,-16.83 298.36,-207.78 383.66,-211.71 68.45,-3.16 294.82,31.76 446.99,55.24 44.83,6.91 83.29,12.85 108.47,16.4 105.79,14.93 122.58,124.78 124.97,148.27l316.83 -25.1 246.26 -653.62 351.91 -79.84 41.99 38.54 -167.83 762.07c43.41,4.49 367.22,38.35 403.62,51.76 17.67,6.51 52.61,43.51 86.77,85.36 43.56,53.34 86.33,115.1 90.26,131.18 5.52,22.64 -31.77,108.04 -48.84,145.35 26.83,-22.45 86.76,-72.35 153.44,-126.09 45.57,-36.73 86.43,-61.58 123.89,-78.44 37.58,-16.91 71.75,-25.8 103.85,-30.58 31.47,-4.69 162.02,13.61 297.98,37.67 142.21,25.16 290.67,56.66 337.91,74.73 94.86,36.27 82.54,240.15 82.51,240.72l-92.59 702.13 102.1 0 50.34 -84.06 1.2 -1.3 586.32 -417.55c70.65,13.49 141.39,26.75 212.1,39.94l51.37 113.51 887.08 173.07 98.14 498.57 -0.54 3.05 -255.64 424.46 -1.16 1.25 -196.57 143.22 -240.76 174.48c-2.36,1.49 -825.68,520.29 -921.78,571.72 -89.35,47.82 -194.56,48.1 -210.77,47.84l-50.02 61.86 -2.52 1.52 -759.22 152.75 -13.67 -51.01 -1732.03 149.63 -399.1 164.98 737.17 831.8 -23.02 72.2 -1.96 2.43 -252.36 145.7 -939.74 -799.59 -194.52 112.31 -55.36 -55.35 -1562.06 651.53 -1.23 0.31 -1124.23 110.78 -3.5 -7.31 48.62 -49.24 -292.5 -105.36 -396.76 234.32 -3.24 0.47 -207.98 -52.33 -689.09 318.25zm-1348.73 664.9c-2.21,0.87 -4.72,-0.21 -5.59,-2.42 -0.87,-2.21 0.21,-4.72 2.42,-5.59l1428.23 -568.86c2.21,-0.87 4.72,0.21 5.59,2.42 0.87,2.21 -0.21,4.72 -2.42,5.59l-1428.23 568.86z"/>
   <path class="ChangeName-13" d="M7076.85 1561.35c0.69,-0.81 1.93,-0.91 2.74,-0.21 0.81,0.69 0.91,1.93 0.21,2.74l-721.66 834c-0.69,0.81 -1.93,0.91 -2.74,0.21 -0.81,-0.69 -0.91,-1.93 -0.21,-2.74l721.66 -834z"/>
   <path class="ChangeName-93" d="M5763.29 4066.25c0.71,0.8 0.64,2.03 -0.16,2.74 -0.8,0.71 -2.03,0.64 -2.74,-0.16l-44.84 -50.41c443.17,-258.8 885.97,-518.28 1328.87,-777.54l46.99 44.23c0.78,0.73 0.82,1.97 0.09,2.74 -0.73,0.78 -1.97,0.82 -2.74,0.09l-44.89 -42.25 -1322.28 773.68 41.7 46.87z"/>
   <path class="ChangeName-13" d="M5405.72 3845.09c-1.72,-1.64 -1.79,-4.38 -0.15,-6.1 1.64,-1.72 4.38,-1.79 6.1,-0.15l318.57 301.81 1503.73 -863.95 -314.11 -158.27c-1.98,-1.3 -2.53,-3.98 -1.23,-5.96 1.3,-1.98 3.98,-2.53 5.96,-1.23l325.79 165.95c-499.73,288.7 -1021.49,585.74 -1521.39,874.15l-323.26 -306.24z"/>
   <path class="ChangeName-13" d="M486.43 5553.1c-1.71,1.66 -4.44,1.62 -6.1,-0.08 -1.66,-1.71 -1.62,-4.44 0.08,-6.1l1340.42 -1297.18 0.59 -0.49 2033.3 -1375.49c1.98,-1.33 8.08,-2.78 9.41,-0.81 1.33,1.98 0.81,4.66 -1.16,6l-2036.44 1377.27 -1340.11 1296.87z"/>
   <path class="ChangeName-13" d="M3852.46 2879.88c-2.36,0.24 -4.49,-1.49 -4.73,-3.85 -0.24,-2.36 1.49,-4.49 3.85,-4.73l1260.85 -130.56c2.36,-0.24 4.49,1.49 4.73,3.85 0.24,2.36 -1.49,4.49 -3.85,4.73l-1260.85 130.56z"/>
   <path class="ChangeName-1" d="M930.12 5349.9c0,0 1345.81,-1037.74 1445.81,-1094.49 99.99,-56.75 2586.26,-1424.2 2586.26,-1424.2l-1048.55 129.72c0,0 -1916.04,1307.97 -1975.49,1362.02 -59.45,54.05 -1008.03,1026.95 -1008.03,1026.95z"/>
   <polygon class="ChangeName-1" points="5981.02,2412.32 6175.6,2550.15 7545.72,1893.47 7902.43,1136.77 7648.4,1054.34 7097.09,1538.08 "/>
   <polygon class="ChangeName-1" points="5713.5,4018.91 7039.07,3243.29 7085.01,3286.54 5756.77,4067.54 "/>
   <polyline class="ChangeName-1" points="4.32,6274.14 660.57,5749.72 1209.17,5649.72 2418.41,5832.51 "/>
   <polyline class="ChangeName-1" points="660.57,5749.72 2106.38,5906.46 1209.17,5649.72 "/>
   <polygon class="ChangeName-1" points="2624.67,4892.71 1758.22,5539.08 1209.17,5649.72 2714.46,4660.62 3576.54,4895.73 3503.57,4971.4 "/>
   <polyline class="ChangeName-1" points="1861.48,5462.05 2577.34,5129.45 3348.6,5290.44 "/>
   <line class="ChangeName-1" x1="660.57" y1="5749.72" x2="2616.76" y2="4724.82"/>
   <polyline class="ChangeName-1" points="2714.46,4660.62 7620.15,1952.66 8385.62,2045.21 8274.99,2277.74 7787.71,2235.06 6495.94,2967.43 4501.56,4043.01 3576.54,4895.73 "/>
   <polyline class="ChangeName-1" points="3503.57,4971.4 3418.92,5090.73 2624.67,4892.71 "/>
   <polyline class="ChangeName-1" points="3418.92,5090.73 3556.88,5127.7 3556.88,5343.14 "/>
   <polyline class="ChangeName-1" points="3683.47,5009.44 3586.42,5052.74 3427.64,5022.91 "/>
   <line class="ChangeName-1" x1="12205.45" y1="1842.53" x2="11978.28" y2="2001.9"/>
   <polyline class="ChangeName-1" points="12016.52,1975.08 12128.18,1996.37 12198.45,2531.46 11949.04,2925.08 "/>
   <line class="ChangeName-1" x1="12401.25" y1="2357.41" x2="12198.45" y2="2531.46"/>
   <polyline class="ChangeName-1" points="12128.18,1996.37 11630.25,2373.39 11738.35,2908.49 10932.24,3338.05 "/>
   <polyline class="ChangeName-1" points="9406.09,2463.92 9406.09,2528.76 9657.08,2855.61 "/>
   <polyline class="ChangeName-1" points="9406.09,2528.76 9359.21,2528.76 9603.52,2858.04 "/>
   <line class="ChangeName-1" x1="9858.45" y1="3584.02" x2="10815.75" y2="3416.53"/>
   <line class="ChangeName-1" x1="10805.13" y1="3361.27" x2="10932.24" y2="3338.05"/>
   <polyline class="ChangeName-1" points="10620.87,3661.4 10724.5,3651.62 10932.24,3338.05 "/>
   <line class="ChangeName-1" x1="7620.15" y1="1952.66" x2="7513.86" y2="2390.32"/>
   <line class="ChangeName-1" x1="6392.21" y1="2630.49" x2="6682.22" y2="2861.82"/>
   <line class="ChangeName-1" x1="6175.6" y1="2550.15" x2="6340.9" y2="2619.23"/>
   <polyline class="ChangeName-1" points="7902.43,1136.77 9065.55,894.48 9232.48,1162.62 9104.35,1466.34 "/>
   <line class="ChangeName-1" x1="9397.75" y1="1230.03" x2="8385.62" y2="2045.21"/>
   <line class="ChangeName-1" x1="7620.15" y1="1952.66" x2="9220.48" y2="1144.81"/>
   <line class="ChangeName-1" x1="9232.48" y1="1162.62" x2="8444.56" y2="1997.75"/>
   <line class="ChangeName-1" x1="7545.72" y1="1893.47" x2="9195.43" y2="1107.64"/>
   <polyline class="ChangeName-1" points="7416.52,1257.8 6287.79,2464.85 7097.09,1538.08 6014.83,2337.84 6918.27,1304.21 7116.86,1520.73 "/>
   <polygon class="ChangeName-13" points="8423.75,707.99 8369.27,843.52 8360.33,841.71 8416.08,706.61 "/>
   <line class="ChangeName-1" x1="8872.78" y1="804.4" x2="8454.61" y2="857.87"/>
   <line class="ChangeName-1" x1="8716.95" y1="824.33" x2="9065.55" y2="894.48"/>
   <line class="ChangeName-1" x1="9289.02" y1="861.27" x2="9054.35" y2="896.81"/>
   <line class="ChangeName-1" x1="9220.48" y1="1144.81" x2="9448.76" y2="1057.12"/>
   <path class="ChangeName-13" d="M10411.03 2034.51c2.33,-0.49 4.63,1 5.12,3.33 0.49,2.33 -1,4.63 -3.33,5.12l-1251.79 266.06c-2.33,0.49 -4.63,-1 -5.12,-3.33 -0.49,-2.33 1,-4.63 3.33,-5.12l1251.79 -266.06z"/>
   <path class="ChangeName-1" d="M10543.13 1949.6l60.26 5.64c-23,28.34 -69.36,49.06 -105.92,60.22"/>
   <path class="ChangeName-1" d="M8609.52 1864.89l-315.39 674.37 162.71 43.59 134.58 -15.81 461.02 -154.43c0,0 61.33,-119.55 45.12,-207.38 -16.21,-87.83 -82.43,-204.03 -95.94,-220.25 -13.51,-16.21 -392.1,-120.09 -392.1,-120.09z"/>
   <line class="ChangeName-1" x1="9001.62" y1="1984.97" x2="8456.84" y2="2582.85"/>
   <line class="ChangeName-1" x1="9071.87" y1="2121.04" x2="8595.21" y2="2566.59"/>
   <line class="ChangeName-1" x1="6849.61" y1="883.09" x2="7025.55" y2="755.1"/>
   <polyline class="ChangeName-1" points="930.12,5349.9 559.57,5600.2 1891.88,4267.89 3853.82,2878.83 5107.8,2745.03 4962.19,2831.21 "/>
   <polyline class="ChangeName-1" points="5528.39,1230.73 6130.03,1243.16 5981.39,1449.9 5332.4,1464.08 "/>
   <polyline class="ChangeName-1" points="5981.39,1449.9 5990.17,1506.65 5427.38,1516.79 5432.45,1462.03 "/>
   <polyline class="ChangeName-1" points="6130.03,1243.16 6124.62,1312.76 5990.17,1506.65 "/>
   <path class="ChangeName-13" d="M6276.98 1230.88c0.37,-0.63 0.88,-1.14 1.46,-1.5l-0.09 -0.14 590.5 -365.69 1.99 -0.67 1213.73 -104.18 0.74 8.98 -1212.68 104.09 -588.91 364.71 -200.12 342.39c0.2,1.1 -0.02,2.29 -0.73,3.27l-6.55 9.17c-1.21,2.02 -3.84,2.69 -5.88,1.5 -2.06,-1.2 -2.75,-3.86 -1.55,-5.91l208.08 -356.02z"/>
   <path class="ChangeName-13" d="M6865.22 1260.03l333.42 -198.89c2.04,-1.22 4.69,-0.55 5.91,1.49 1.22,2.04 0.55,4.69 -1.49,5.91l-332.93 198.59 -947.76 1104.41c-1.55,1.81 -4.27,2.02 -6.08,0.47 -1.81,-1.55 -2.02,-4.27 -0.47,-6.08l948.22 -1104.94c0.34,-0.4 0.75,-0.72 1.17,-0.96z"/>
   <polyline class="ChangeName-1" points="7240.04,1131.05 6981.95,1282.39 7106.26,1436.43 "/>
   <line class="ChangeName-1" x1="4432.88" y1="5205.39" x2="4969.31" y2="4898.66"/>
   <polyline class="ChangeName-1" points="6892.92,4506.73 7046.16,4174.39 6908.33,3985.22 "/>
   <polyline class="ChangeName-1" points="7614.46,4200.66 7629.89,3920.36 7567.73,3652.82 "/>
   <polyline class="ChangeName-1" points="8354.01,5035.16 8087.26,5187.42 8082,5249.22 "/>
   <line class="ChangeName-1" x1="7130.57" y1="4323.02" x2="8087.26" y2="5187.42"/>
   <polyline class="ChangeName-1" points="7981.84,5172.95 7985.8,5095.75 8271.8,4942.38 "/>
   <polyline class="ChangeName-1" points="7614.46,4200.66 7212.16,4396.74 7212.47,4509.37 "/>
   <polygon class="ChangeName-1" points="7419.02,4171.67 7284.53,4178.44 7474.42,4404.08 7574.41,4352.74 "/>
   <polyline class="ChangeName-1" points="7419.02,4171.67 7123.75,4186.54 6908.33,3985.22 "/>
   <line class="ChangeName-1" x1="7123.75" y1="4186.54" x2="6947.98" y2="4561.79"/>
   <polyline class="ChangeName-1" points="7142.25,4449.62 7130.57,4323.02 7265.62,4256.11 7351.59,4328.78 "/>
   <polyline class="ChangeName-1" points="7123.75,4186.54 7628.79,3940.23 7419.02,4171.67 "/>
   <line class="ChangeName-1" x1="7614.86" y1="4193.34" x2="7533.8" y2="4109.49"/>
   <line class="ChangeName-1" x1="6908.33" y1="3985.22" x2="7567.73" y2="3652.82"/>
   <line class="ChangeName-1" x1="7623.5" y1="3892.84" x2="8072.92" y2="3674.39"/>
   <polyline class="ChangeName-1" points="7617.53,4144.82 8008.05,3975.69 8072.92,3674.39 9761.92,3556.81 9688.95,2959.57 9734.56,2885.61 "/>
   <polyline class="ChangeName-1" points="9681.22,3562.42 9541.66,3867.56 8008.05,3975.69 "/>
   <polyline class="ChangeName-1" points="9688.95,2959.57 7937.76,3046 5197.48,4721.51 5359.62,4997.16 5295.53,5118.13 "/>
   <polyline class="ChangeName-1" points="7031.11,4207.01 5328.52,5097.15 6929.24,4427.95 "/>
   <polyline class="ChangeName-1" points="7046.16,4174.39 5410.95,4964.72 7518.85,3224.34 "/>
   <polyline class="ChangeName-1" points="5359.62,4997.16 4540.74,5184.96 5304.15,5111.04 "/>
   <polyline class="ChangeName-1" points="6076,1584.37 6277.39,1419.92 6512.5,1142.91 6932.7,952.4 7163.74,929.43 "/>
   <path class="ChangeName-1" d="M7838.37 784.36c-3.51,-66.55 -10.76,-172.32 -74.06,-182.76l-355.68 -58.65"/>
   <polyline class="ChangeName-1" points="7764.31,601.6 7647.42,669.32 7292.93,587.5 "/>
   <polyline class="ChangeName-1" points="7832.51,715.47 7740.11,792.8 7647.42,669.32 "/>
   <polyline class="ChangeName-1" points="6493.31,1101.41 6447.41,1078.75 6548.08,966.6 6898.77,847.33 "/>
   <line class="ChangeName-1" x1="6548.08" y1="966.6" x2="6639.09" y2="1011.13"/>
   <line class="ChangeName-1" x1="6490.57" y1="737.56" x2="6912.99" y2="836.99"/>
   <path class="ChangeName-1" d="M5626.42 1232.76c285.98,-182.24 587.79,-347.35 917.01,-482.76l177.79 -73.86"/>
   <path class="ChangeName-1" d="M5427.38 1516.79c-58.2,137.95 -79.88,312.44 -98.22,490.27l-340.51 218.9 832.36 -437.8 251.62 -199.08"/>
   <polyline class="ChangeName-1" points="4883.3,2632.7 4950.86,2527.3 5518.62,2258.67 "/>
   <polyline class="ChangeName-1" points="478.35,5550.01 1818.77,4252.83 3772.21,2936.62 "/>
   <line class="ChangeName-1" x1="3926.65" y1="2823.22" x2="4902.24" y2="2290.83"/>
   <line class="ChangeName-1" x1="3755.63" y1="2832.64" x2="3853.82" y2="2878.83"/>
   <line class="ChangeName-1" x1="3755.63" y1="2832.64" x2="3772.21" y2="2936.62"/>
   <line class="ChangeName-1" x1="3804.72" y1="2855.74" x2="5183.85" y2="1970.55"/>
   <polyline class="ChangeName-1" points="5936.13,1419.66 6019.01,1276.11 5602.83,1276.11 5602.83,1301.79 6004.3,1301.79 "/>
   <line class="ChangeName-1" x1="5505.54" y1="1409.89" x2="5879.83" y2="1409.89"/>
   <line class="ChangeName-1" x1="6000.75" y1="1276.11" x2="5924.13" y2="1408.82"/>
   <line class="ChangeName-1" x1="5924.13" y1="1408.82" x2="5936.13" y2="1419.66"/>
   <line class="ChangeName-1" x1="9550.43" y1="2488.17" x2="9817.97" y2="2809.76"/>
   <polyline class="ChangeName-1" points="5287.31,2812.46 5377.85,2692.2 5921.04,2419.25 "/>
   <polyline class="ChangeName-1" points="5348.59,2731.07 5045.44,2591.54 5159.62,2477.36 5494.21,2633.73 "/>
   <polyline class="ChangeName-1" points="5529.85,2615.82 5236.65,2483.44 5324.82,2395.27 5662.96,2548.94 "/>
   <polyline class="ChangeName-1" points="5698.04,2531.31 5373.81,2393.59 5448.12,2335.48 5801.99,2479.08 "/>
   <polyline class="ChangeName-1" points="5921.04,2419.25 5558.27,2269.96 5556.92,2309.15 5875.43,2442.17 "/>
   <polyline class="ChangeName-1" points="5556.92,2309.15 5504.7,2333.98 5823.06,2468.49 "/>
   <line class="ChangeName-1" x1="5448.12" y1="2335.48" x2="5510.59" y2="2336.47"/>
   <line class="ChangeName-1" x1="5324.82" y1="2395.27" x2="5373.81" y2="2393.59"/>
   <line class="ChangeName-1" x1="5159.62" y1="2477.36" x2="5236.65" y2="2483.44"/>
   <line class="ChangeName-1" x1="11487.63" y1="3238.24" x2="12198.45" y2="2531.46"/>
   <polyline class="ChangeName-1" points="11365.9,1575.26 10805.82,2012.59 10572.98,1952.55 "/>
   <polyline class="ChangeName-1" points="10697.32,2177.56 10805.82,2012.59 10856.76,2123.5 "/>
   <line class="ChangeName-1" x1="11344.94" y1="1678.84" x2="12171.88" y2="1866.08"/>
   <polyline class="ChangeName-1" points="11344.94,1678.84 11234.14,1782.88 12005.96,1982.49 "/>
   <polyline class="ChangeName-1" points="12067.83,1939.07 12185.85,1970.69 12303.67,1861.7 "/>
   <polyline class="ChangeName-1" points="12228.5,2505.67 12159.71,2024.09 12401.25,2357.41 "/>
   <path class="ChangeName-13" d="M3662.41 5006.43c-2.24,-0.8 -3.4,-3.27 -2.6,-5.51 0.8,-2.24 3.27,-3.4 5.51,-2.6l591.48 213.04 3665.52 -2280.78c0.72,-0.45 1.53,-0.66 2.32,-0.65l1793.61 -81.39 0.92 -0.16c1.68,2.67 3.28,5.28 4.82,7.84l-5.1 0.92 -1792.96 81.36 -3666.35 2281.29c-1.08,0.66 -2.45,0.84 -3.73,0.39l-593.45 -213.75zm6930.77 -2316.22l183.94 -33.07 774.71 -323.91c223.59,-176.59 420.28,-332.25 651.14,-494.23 1.95,-1.37 4.64,-0.9 6.01,1.05 1.37,1.95 0.9,4.64 -1.05,6.01l-227.16 159.36 -423.84 334.74c-0.36,0.34 -0.79,0.62 -1.28,0.82l-775.62 324.29 -0.89 0.26 -175.47 31.54 -10.49 -6.86z"/>
   <path class="ChangeName-13" d="M6458.82 1078.5c-1.59,1.77 -4.33,1.92 -6.09,0.32 -1.77,-1.59 -1.92,-4.33 -0.32,-6.09l93.15 -104.13c0.51,-0.57 1.13,-0.97 1.81,-1.2l339.9 -118.23c2.25,-0.77 4.71,0.43 5.48,2.69 0.77,2.25 -0.43,4.71 -2.69,5.48l-338.84 117.86 -92.4 103.29z"/>
   <path class="ChangeName-13" d="M7028.22 751.52c1.98,-1.32 4.66,-0.8 5.98,1.18 1.32,1.98 0.8,4.66 -1.18,5.98l-178.83 124.51c-1.98,1.32 -4.66,0.8 -5.98,-1.18 -1.32,-1.98 -0.8,-4.66 1.18,-5.98l178.83 -124.51z"/>
   <path class="ChangeName-13" d="M7138.76 1475.7c1.65,1.71 1.59,4.44 -0.12,6.09 -1.71,1.65 -4.44,1.59 -6.09,-0.12l-182.42 -189.17c-1.65,-1.71 -1.59,-4.44 0.12,-6.09 0.28,-0.27 0.59,-0.5 0.91,-0.67l199.85 -110.43c2.09,-1.14 4.72,-0.38 5.86,1.71 1.14,2.09 0.38,4.72 -1.71,5.86l-194.93 107.71 178.51 185.12z"/>
   <path class="ChangeName-13" d="M7619.74 4197c-0.09,2.37 4.37,7.04 2,6.95 -2.37,-0.09 -14.6,-2.58 -14.51,-4.96l22.86 -268.32 -62.52 -279.36c-0.51,-2.32 0.96,-4.62 3.27,-5.13 2.32,-0.51 4.62,0.96 5.13,3.27l62.6 279.7c0.11,0.42 0.16,0.85 0.15,1.31l-18.98 266.54z"/>
   <path class="ChangeName-6" d="M8206.41 3043.53c-5.94,0.28 -11,-4.32 -11.27,-10.26 -0.28,-5.94 4.32,-11 10.26,-11.27l1413.94 -69.78c5.94,-0.28 11,4.32 11.27,10.26 0.28,5.94 -4.32,11 -10.26,11.27l-1413.94 69.78z"/>
   <polygon class="ChangeName-13" points="6907.65,839.15 6489.57,741.94 6491.57,733.18 6909.66,830.39 "/>
   <polygon class="ChangeName-13" points="3360.75,5297.95 2582.92,5134.16 1866.55,5462.05 1862.78,5453.89 2580.53,5125.37 2583.36,5125.05 3362.65,5289.15 "/>
   <path class="ChangeName-13" d="M3660.4 4999.18c1.95,-1.36 4.64,-0.88 6,1.06 1.36,1.95 0.88,4.64 -1.06,6l-18.94 13.28 -2.89 0.76 -155.79 -15.67c-2.36,-0.23 -4.1,-2.35 -3.87,-4.71 0.23,-2.36 2.35,-4.1 4.71,-3.87l154.22 15.51 17.63 -12.36z"/>
   <path class="ChangeName-13" d="M6083.79 1587.71c-1.84,1.5 -4.57,1.22 -6.06,-0.63 -1.5,-1.84 -1.22,-4.57 0.63,-6.06l201.04 -164.17 234.88 -276.73c0.46,-0.55 1.04,-0.95 1.66,-1.21l420.06 -190.45c0.47,-0.21 0.96,-0.33 1.44,-0.37l230.95 -22.96c2.36,-0.23 4.48,1.5 4.71,3.87 0.23,2.36 -1.5,4.48 -3.87,4.71l-230.32 22.9 -418.67 189.82 -234.49 276.27 -0.58 0.56 -201.38 164.44z"/>
   <path class="ChangeName-13" d="M6241 1449.27c1.45,-1.88 4.17,-2.23 6.05,-0.78 1.88,1.45 2.23,4.17 0.78,6.05l-470.67 603.81 -0.67 0.69 -181.19 166.05c-1.75,1.6 -4.48,1.48 -6.08,-0.27 -1.6,-1.75 -1.48,-4.48 0.27,-6.08l181.05 -165.94 470.46 -603.54z"/>
   <path class="ChangeName-13" d="M4363.76 5256.33c-2.01,1.27 -4.68,0.66 -5.94,-1.35 -1.27,-2.01 -6.58,-1.16 -4.57,-2.43l1039.46 -660.52c2.01,-1.27 4.68,-0.66 5.94,1.35 1.27,2.01 0.66,4.68 -1.35,5.94l-1033.54 657z"/>
   <polygon class="ChangeName-6" points="8329.84,2372.14 7770.22,2328.9 7772.55,2291.66 8344.52,2335.77 "/>
   <path class="ChangeName-13" d="M9415.32 2465.9c-2.35,0.41 -4.59,-1.16 -4.99,-3.51 -0.41,-2.35 1.16,-4.59 3.51,-4.99 205.37,-36.14 403.46,-68.28 608.38,-106.29 24.56,-4.52 35.59,-6.55 45.74,-4.17 8.33,1.95 15.19,6.62 27.59,15.09 4.23,2.88 9.14,6.24 15.46,10.37l537.27 352.02c44.69,29.28 48.24,47.79 57.33,95.21l103.74 540.82c10.81,55.13 7.78,58.91 -22.38,96.54l-6.94 8.67c-1.48,1.85 -4.19,2.16 -6.05,0.67 -1.85,-1.48 -2.16,-4.19 -0.67,-6.05l6.94 -8.7c27.86,-34.77 30.66,-38.26 20.63,-89.48l-103.75 -540.85c-8.6,-44.83 -11.95,-62.33 -53.58,-89.61l-537.27 -352.02c-5.86,-3.84 -11.11,-7.42 -15.59,-10.47 -11.55,-7.87 -17.93,-12.23 -24.69,-13.81 -8.44,-1.97 -18.9,-0.05 -42.22,4.24 -205.15,37.68 -402.97,70.15 -608.45,106.32z"/>
   <path class="ChangeName-13" d="M10780.23 3451.65c1.47,-1.86 4.18,-2.18 6.04,-0.71 1.86,1.47 2.18,4.18 0.71,6.04l-213.36 269.51c-1.47,1.86 -4.18,2.18 -6.04,0.71 -1.86,-1.47 -2.18,-4.18 -0.71,-6.04l213.36 -269.51z"/>
   <polygon class="ChangeName-96" points="10419.04,2713.62 10039.85,2407.36 10058.2,2401.95 10428.92,2700.9 "/>
   <polygon class="ChangeName-97" points="9613.01,2480.87 9922.26,2786.49 10428.39,2699.21 10432.32,2711.96 9919.2,2800.45 9604.37,2489.32 "/>
   <polygon class="ChangeName-98" points="10060.16,2403.52 9617.65,2485.46 9613.01,2480.87 10056.68,2400.21 "/>
   <path class="ChangeName-99" d="M10060.54 2405.64l-441.02 81.66 -6.51 -6.43c149.59,-27.15 292.84,-54.16 442.34,-81.79l7.57 6.67 -2.37 -0.11z"/>
   <polygon class="ChangeName-99" points="6049.33,1291.26 5564.24,1279.1 5564.65,1261.87 6049.74,1274.03 "/>
   <polygon class="ChangeName-96" points="6049.35,1290.41 5962,1414.65 5457.42,1414.65 5451.7,1406 5957.53,1406 6049.74,1274.03 "/>
   <polygon class="ChangeName-98" points="5451.7,1406 5564.65,1261.87 5564.24,1279.1 5457.42,1414.65 "/>
   <path class="ChangeName-1 ChangeName-0" d="M931.37 5349.03c0,0 1345.81,-1037.74 1445.81,-1094.49 99.99,-56.75 2586.26,-1424.2 2586.26,-1424.2l-1048.55 129.72c0,0 -1916.04,1307.97 -1975.49,1362.02 -59.45,54.05 -1008.03,1026.95 -1008.03,1026.95z"/>
   <polygon class="ChangeName-1 ChangeName-0" points="5982.27,2411.44 6176.85,2549.27 7546.97,1892.59 7903.68,1135.89 7649.65,1053.47 7098.34,1537.2 "/>
   <polygon class="ChangeName-1 ChangeName-0" points="5655.15,2253.36 5917.29,2370.92 6868.57,1262.91 6515.9,1176.44 "/>
   <polygon class="ChangeName-1 ChangeName-0" points="5611.32,3837.06 5688.37,3975.51 6971.37,3222.87 6879.48,3084.42 "/>
   <polygon class="ChangeName-1 ChangeName-0" points="5396.85,3696.29 5391.81,3753.19 5688.37,3975.51 5611.32,3837.06 "/>
   <polygon class="ChangeName-1 ChangeName-0" points="5714.75,4018.03 7040.32,3242.42 7086.26,3285.66 5758.02,4066.66 "/>
   <polyline class="ChangeName-1 ChangeName-0" points="5.57,6273.27 661.82,5748.84 1210.42,5648.85 2419.66,5831.64 "/>
   <polyline class="ChangeName-1 ChangeName-0" points="661.82,5748.84 2107.63,5905.58 1210.42,5648.85 "/>
   <polygon class="ChangeName-1 ChangeName-0" points="2625.92,4891.83 1759.47,5538.2 1210.42,5648.85 2715.71,4659.74 3577.79,4894.85 3504.82,4970.52 "/>
   <polyline class="ChangeName-1 ChangeName-0" points="1862.73,5461.17 2578.59,5128.57 3349.85,5289.57 "/>
   <line class="ChangeName-1 ChangeName-0" x1="661.82" y1="5748.84" x2="2618.01" y2="4723.94"/>
   <polyline class="ChangeName-1 ChangeName-0" points="2715.71,4659.74 7621.4,1951.78 8386.87,2044.34 8276.25,2276.86 7788.96,2234.18 6497.19,2966.55 4502.81,4042.13 3577.79,4894.85 "/>
   <polyline class="ChangeName-1 ChangeName-0" points="6021.67,3551.57 5844.94,3425.92 5882.1,3337.42 6116.16,3497.01 "/>
   <polyline class="ChangeName-1 ChangeName-0" points="6142.89,3475.92 5967.9,3352.28 6001.69,3271.2 6226.58,3433.27 "/>
   <polyline class="ChangeName-1 ChangeName-0" points="6272.27,3406.89 6088.17,3291.47 6113.85,3204.99 6345.44,3364.64 "/>
   <polyline class="ChangeName-1 ChangeName-0" points="6381.85,3343.62 6205.73,3229.32 6239.51,3141.49 6464.74,3295.77 "/>
   <polyline class="ChangeName-1 ChangeName-0" points="6499,3275.98 6311.13,3157.7 6340.85,3077.98 6577.79,3230.5 "/>
   <polyline class="ChangeName-1 ChangeName-0" points="3504.82,4970.52 3420.17,5089.85 2625.92,4891.83 "/>
   <polyline class="ChangeName-1 ChangeName-0" points="3420.17,5089.85 3558.13,5126.82 3558.13,5342.26 "/>
   <line class="ChangeName-1 ChangeName-0" x1="12206.7" y1="1841.66" x2="11979.53" y2="2001.02"/>
   <polyline class="ChangeName-1 ChangeName-0" points="12017.77,1974.2 12129.43,1995.49 12199.7,2530.59 11950.29,2924.21 "/>
   <line class="ChangeName-1 ChangeName-0" x1="12402.5" y1="2356.53" x2="12199.7" y2="2530.59"/>
   <polyline class="ChangeName-1 ChangeName-0" points="12129.43,1995.49 11631.5,2372.51 11739.6,2907.61 10933.49,3337.18 "/>
   <path class="ChangeName-1 ChangeName-0" d="M9770.88 3932.84l78.72 -277.24c12.7,-62.31 12.87,-65.92 3.85,-128.86l-92.76 -548.05c-7.86,-46.46 -11.71,-80.41 -50.54,-139.24 -38.83,-58.83 -201.87,-250.94 -302.81,-376.41l608.29 -112.97c52.15,-9.6 43.32,-8.33 87.15,20.39l544.39 356.68c46.42,30.42 46.91,48.93 57.57,103.34l101.64 529.91c11.2,57.15 7.01,57.07 -28.45,101.7l-200.44 255.29"/>
   <polyline class="ChangeName-1 ChangeName-0" points="9407.34,2463.04 9407.34,2527.88 9658.33,2854.74 "/>
   <polyline class="ChangeName-1 ChangeName-0" points="9407.34,2527.88 9360.46,2527.88 9604.77,2857.17 "/>
   <line class="ChangeName-1 ChangeName-0" x1="9859.7" y1="3583.14" x2="10817" y2="3415.65"/>
   <line class="ChangeName-1 ChangeName-0" x1="10806.38" y1="3360.39" x2="10933.49" y2="3337.18"/>
   <polyline class="ChangeName-1 ChangeName-0" points="10601.74,3686.49 10721.52,3676.42 10933.49,3337.18 "/>
   <line class="ChangeName-1 ChangeName-0" x1="7621.4" y1="1951.78" x2="7515.11" y2="2389.44"/>
   <line class="ChangeName-1 ChangeName-0" x1="6393.46" y1="2629.62" x2="6683.47" y2="2860.95"/>
   <polyline class="ChangeName-1 ChangeName-0" points="7903.68,1135.89 9066.8,893.6 9233.74,1161.74 9105.6,1465.46 "/>
   <line class="ChangeName-1 ChangeName-0" x1="9399" y1="1229.16" x2="8386.87" y2="2044.34"/>
   <line class="ChangeName-1 ChangeName-0" x1="7621.4" y1="1951.78" x2="9221.73" y2="1143.93"/>
   <line class="ChangeName-1 ChangeName-0" x1="9233.74" y1="1161.74" x2="8445.81" y2="1996.87"/>
   <line class="ChangeName-1 ChangeName-0" x1="7546.97" y1="1892.59" x2="9196.68" y2="1106.76"/>
   <line class="ChangeName-1 ChangeName-0" x1="5765.89" y1="3404.98" x2="5844.94" y2="3425.92"/>
   <line class="ChangeName-1 ChangeName-0" x1="5882.1" y1="3337.42" x2="5967.9" y2="3352.28"/>
   <line class="ChangeName-1 ChangeName-0" x1="6001.69" y1="3271.2" x2="6088.17" y2="3291.47"/>
   <line class="ChangeName-1 ChangeName-0" x1="6113.85" y1="3204.99" x2="6205.73" y2="3229.32"/>
   <line class="ChangeName-1 ChangeName-0" x1="6239.51" y1="3141.49" x2="6311.13" y2="3157.7"/>
   <polygon class="ChangeName-1 ChangeName-0" points="7118.11,1519.86 6016.08,2336.97 6919.52,1303.33 "/>
   <line class="ChangeName-1 ChangeName-0" x1="8421.31" y1="709.62" x2="8366.45" y2="841.2"/>
   <polyline class="ChangeName-1 ChangeName-0" points="8656.44,82.65 8716.4,108.83 9042.86,36.82 "/>
   <polyline class="ChangeName-1 ChangeName-0" points="8716.4,108.83 8455.86,856.99 8366.45,841.2 "/>
   <line class="ChangeName-1 ChangeName-0" x1="8874.03" y1="803.53" x2="8455.86" y2="856.99"/>
   <line class="ChangeName-1 ChangeName-0" x1="8718.2" y1="823.45" x2="9066.8" y2="893.6"/>
   <line class="ChangeName-1 ChangeName-0" x1="9290.27" y1="860.39" x2="9055.6" y2="895.94"/>
   <line class="ChangeName-1 ChangeName-0" x1="9221.73" y1="1143.93" x2="9450.01" y2="1056.24"/>
   <line class="ChangeName-1 ChangeName-0" x1="10413.18" y1="2037.85" x2="9161.39" y2="2303.91"/>
   <path class="ChangeName-1 ChangeName-0" d="M10522.62 2037.85l60.26 5.64c-23,28.34 -69.36,49.06 -105.92,60.22"/>
   <path class="ChangeName-1 ChangeName-0" d="M8610.77 1864.01l-315.39 674.37 162.71 43.59 134.58 -15.81 461.02 -154.43c0,0 61.33,-119.55 45.12,-207.38 -16.21,-87.83 -82.43,-204.03 -95.94,-220.25 -13.51,-16.21 -392.1,-120.09 -392.1,-120.09z"/>
   <line class="ChangeName-1 ChangeName-0" x1="9002.87" y1="1984.09" x2="8458.09" y2="2581.97"/>
   <line class="ChangeName-1 ChangeName-0" x1="9073.12" y1="2120.16" x2="8596.46" y2="2565.71"/>
   <path class="ChangeName-1 ChangeName-0" d="M9715.17 1002.52c0,0 431.42,23.57 508.44,106 77.02,82.42 97.28,125.67 91.87,349.98 -5.41,224.3 -53.34,611.46 -53.34,611.46"/>
   <path class="ChangeName-1 ChangeName-0" d="M9648.81 1034.04c62.73,12.13 340.33,58.39 468.36,95.55 106.63,30.94 106.33,82.16 114.49,197.85 10.78,152.96 -10.42,751.2 -10.42,751.2"/>
   <line class="ChangeName-1 ChangeName-0" x1="10117.17" y1="1129.6" x2="9002.87" y2="1984.09"/>
   <line class="ChangeName-1 ChangeName-0" x1="9073.12" y1="2120.16" x2="10231.65" y2="1327.44"/>
   <polyline class="ChangeName-1 ChangeName-0" points="6281.97,1232.18 6872.47,866.49 8086.2,762.32 "/>
   <polyline class="ChangeName-1 ChangeName-0" points="5529.64,1229.86 6131.28,1242.29 5982.64,1449.03 5333.65,1463.2 "/>
   <polyline class="ChangeName-1 ChangeName-0" points="5982.64,1449.03 5991.42,1505.78 5428.63,1515.91 5428.63,1461.16 "/>
   <polyline class="ChangeName-1 ChangeName-0" points="6131.28,1242.29 6125.87,1311.88 5991.42,1505.78 "/>
   <polyline class="ChangeName-1 ChangeName-0" points="6281.97,1232.18 6073.88,1588.21 6080.63,1578.77 "/>
   <line class="ChangeName-1 ChangeName-0" x1="6868.57" y1="1262.91" x2="7202.1" y2="1063.96"/>
   <polyline class="ChangeName-1 ChangeName-0" points="6894.17,4505.85 7047.41,4173.51 6909.58,3984.34 "/>
   <polyline class="ChangeName-1 ChangeName-0" points="8355.27,5034.28 8088.51,5186.54 8083.25,5248.34 "/>
   <line class="ChangeName-1 ChangeName-0" x1="7131.82" y1="4322.14" x2="8088.51" y2="5186.54"/>
   <polyline class="ChangeName-1 ChangeName-0" points="7983.09,5172.07 7987.05,5094.87 8273.05,4941.51 "/>
   <polyline class="ChangeName-1 ChangeName-0" points="7619.74,4197 7213.41,4395.86 7213.72,4508.5 "/>
   <polygon class="ChangeName-1 ChangeName-0" points="7420.27,4170.79 7285.78,4177.56 7475.67,4403.21 7575.66,4351.86 "/>
   <polyline class="ChangeName-1 ChangeName-0" points="7420.27,4170.79 7125,4185.66 6909.58,3984.34 "/>
   <line class="ChangeName-1 ChangeName-0" x1="7125" y1="4185.66" x2="6949.23" y2="4560.91"/>
   <polyline class="ChangeName-1 ChangeName-0" points="7143.5,4448.74 7131.82,4322.14 7266.87,4255.23 7352.84,4327.9 "/>
   <polyline class="ChangeName-1 ChangeName-0" points="7125,4185.66 7630.04,3939.35 7420.27,4170.79 "/>
   <line class="ChangeName-1 ChangeName-0" x1="6909.58" y1="3984.34" x2="7568.99" y2="3651.94"/>
   <line class="ChangeName-1 ChangeName-0" x1="7624.75" y1="3891.96" x2="8074.17" y2="3673.51"/>
   <polyline class="ChangeName-1 ChangeName-0" points="7618.78,4143.94 8009.3,3974.81 8074.17,3673.51 9763.17,3555.93 9690.2,2958.69 9735.81,2884.73 "/>
   <polyline class="ChangeName-1 ChangeName-0" points="9682.48,3561.55 9542.91,3866.68 8009.3,3974.81 "/>
   <polyline class="ChangeName-1 ChangeName-0" points="9690.2,2958.69 7939.01,3045.12 5198.73,4720.63 5360.87,4996.28 5296.78,5117.25 "/>
   <polyline class="ChangeName-1 ChangeName-0" points="7032.37,4206.13 5329.77,5096.27 6930.49,4427.08 "/>
   <polyline class="ChangeName-1 ChangeName-0" points="5360.87,4996.28 4541.99,5184.09 5305.4,5110.16 "/>
   <polyline class="ChangeName-1 ChangeName-0" points="6077.25,1583.49 6278.64,1419.04 6513.75,1142.04 6933.95,951.52 7164.99,928.55 "/>
   <path class="ChangeName-1 ChangeName-0" d="M7194.69 906.94c168.62,15.43 303.85,58 414.83,120.26"/>
   <path class="ChangeName-1 ChangeName-0" d="M7839.62 783.49c-3.51,-66.55 -10.76,-172.32 -74.06,-182.76l-355.68 -58.65"/>
   <polyline class="ChangeName-1 ChangeName-0" points="7765.56,600.72 7648.68,668.44 7294.18,586.62 "/>
   <polyline class="ChangeName-1 ChangeName-0" points="7833.76,714.59 7741.36,791.92 7648.68,668.44 "/>
   <polyline class="ChangeName-1 ChangeName-0" points="6494.56,1100.53 6448.66,1077.87 6549.33,965.72 6900.02,846.45 "/>
   <line class="ChangeName-1 ChangeName-0" x1="6549.33" y1="965.72" x2="6640.34" y2="1010.25"/>
   <line class="ChangeName-1 ChangeName-0" x1="6491.82" y1="736.68" x2="6914.24" y2="836.11"/>
   <path class="ChangeName-1 ChangeName-0" d="M5627.67 1231.88c285.98,-182.24 587.79,-347.35 917.01,-482.76l177.79 -73.86"/>
   <path class="ChangeName-1 ChangeName-0" d="M5428.63 1515.91c-58.2,137.95 -79.88,312.44 -98.22,490.27l-340.51 218.9 832.36 -437.8 251.62 -199.08"/>
   <polyline class="ChangeName-1 ChangeName-0" points="6251.19,1441.46 5775,2054.84 5593.65,2221.04 5464.26,2245.21 5315.59,2211.58 5822.26,1787.29 "/>
   <line class="ChangeName-1 ChangeName-0" x1="6054.65" y1="1694.63" x2="5587.89" y2="1983.55"/>
   <polyline class="ChangeName-1 ChangeName-0" points="4884.55,2631.82 4952.11,2526.42 5519.88,2257.79 "/>
   <line class="ChangeName-1 ChangeName-0" x1="3756.88" y1="2831.76" x2="3855.07" y2="2877.95"/>
   <line class="ChangeName-1 ChangeName-0" x1="3756.88" y1="2831.76" x2="3773.46" y2="2935.74"/>
   <line class="ChangeName-1 ChangeName-0" x1="3805.98" y1="2854.86" x2="5185.1" y2="1969.67"/>
   <path class="ChangeName-1 ChangeName-0" d="M6748.52 1035.6c97.61,-79.5 106.42,-112.46 147.78,-124.51 46.58,-13.57 126.48,0.08 268.7,17.46"/>
   <line class="ChangeName-1 ChangeName-0" x1="11488.88" y1="3237.37" x2="12199.7" y2="2530.59"/>
   <polyline class="ChangeName-1 ChangeName-0" points="11367.15,1574.38 10807.07,2011.71 10574.23,1951.68 "/>
   <polyline class="ChangeName-1 ChangeName-0" points="10698.57,2176.68 10807.07,2011.71 10858.01,2122.63 "/>
   <line class="ChangeName-1 ChangeName-0" x1="11346.19" y1="1677.96" x2="12173.13" y2="1865.2"/>
   <polyline class="ChangeName-1 ChangeName-0" points="11346.19,1677.96 11235.39,1782.01 12007.21,1981.61 "/>
   <polyline class="ChangeName-1 ChangeName-0" points="12069.09,1938.19 12187.1,1969.81 12304.93,1860.82 "/>
   <polyline class="ChangeName-1 ChangeName-0" points="12229.75,2504.79 12160.97,2023.21 12402.5,2356.53 "/>
   <polyline class="ChangeName-1 ChangeName-0" points="6896.06,968.71 7202.1,1063.96 7609.52,1027.2 7649.65,1053.47 "/>
  </g>
 </g>
</svg>