<svg xmlns="http://www.w3.org/2000/svg" class="shipSVG" fill-rule="evenodd" clip-rule="evenodd" image-rendering="optimizeQuality" shape-rendering="geometricPrecision" text-rendering="geometricPrecision" viewBox="136 250 1000 550">
    <defs>
        <style type="text/css">
            .ChangeName-29{fill:#FFAA00;} .ChangeName-6{fill:url(#ChangeName-5);} .ChangeName-37{fill:#821307;} .ChangeName-12{fill:#7B8E9A;} .ChangeName-4{fill:#e6e7e8;} .ChangeName-23{fill:#465A65;} .sChangeName-0{fill:#B5CFF4;}
        </style>
        <linearGradient xmlns="http://www.w3.org/2000/svg" id="ChangeName-5" x1="130" x2="410" y1="300" y2="0" gradientUnits="userSpaceOnUse">
            <stop offset="0" stop-color="PrimaryColor"/>
            <stop offset="1" stop-color="SecondaryColor"/>
        </linearGradient>
    </defs>
    <g>
        <g>
            <polygon points="241.1,604.8 226.2,613.4 233.5,657 255.1,640.7   " class="ChangeName-4"/>
            <path d="M233,658.4l-7.7-45.5l16.2-9.3L256,641L233,658.4z M227,613.8l7.1,41.8l20-15.2L240.7,606L227,613.8z" class="ChangeName-1"/>
        </g>
        <g>
            <polygon points="278.2,583.9 289.8,576 305.5,590.8 289.8,601.3   " class="ChangeName-4"/>
            <path d="M289.6,602.4l-12.4-18.7l12.7-8.7l17,15.8L289.6,602.4z M279.3,584.1l10.7,16l14.3-9.5l-14.6-13.6    L279.3,584.1z" class="ChangeName-1"/>
        </g>
        <g>
            <polygon points="239.8,600.8 250.3,634.9 289,609.3 292.4,600.8 277.2,581.8   " class="ChangeName-6"/>
            <path d="M249.9,636.2l-11-35.8l38.5-19.5l15.9,19.8l-3.7,9.2L249.9,636.2z M240.8,601.2l10,32.5l37.5-24.9l3.2-7.9    l-14.6-18.1L240.8,601.2z" class="ChangeName-1"/>
        </g>
        <g>
            <polygon points="655.7,507.2 710.9,521.4 707.7,631.2 686.7,626 652,545   " class="ChangeName-4"/>
            <path d="M707.7,632c-0.1,0-0.1,0-0.2,0l-21-5.3c-0.2-0.1-0.4-0.2-0.5-0.5l-34.7-81c-0.1-0.1-0.1-0.3-0.1-0.4l3.7-37.9    c0-0.2,0.1-0.4,0.3-0.6c0.2-0.1,0.4-0.2,0.6-0.1l55.2,14.2c0.4,0.1,0.6,0.4,0.6,0.8l-3.2,109.9c0,0.2-0.1,0.5-0.3,0.6    C708.1,632,707.9,632,707.7,632z M687.3,625.3l19.7,4.9l3.1-108.3l-53.7-13.8l-3.6,36.7L687.3,625.3z" class="ChangeName-1"/>
        </g>
        <g>
            <polygon points="653.1,526.6 659.9,521.4 704.6,532.4 704.6,618.1 691.4,626 678.6,553.7   " class="ChangeName-4"/>
            <path d="M691.1,626.8l-13-72.9l-25.8-27.4l7.5-5.8l0.2,0.1l45.1,11.1v86.4L691.1,626.8z M653.9,526.7l25.2,26.8l0,0.2    l12.7,71.5l12.2-7.3v-85l-44-10.9L653.9,526.7z" class="ChangeName-1"/>
        </g>
        <g>
            <path d="M766.4,360.2l-5.3,48.4l-52.6,45.7l-127.2,66.8l-74.7,71l-8.5,17l-3.6,7.2l-28.7,16.6    c0,0-98.3,53.1-179.3,90.4c-0.2,0.1-0.4,0.2-0.6,0.3l-2.3-20.5l-0.1-0.3l-6.7-19.6l-29.4-17.9l-23.1-7.9c5-4.8,40.2-39,57.8-54.1    c0,0,58.9-48.4,127.8-69.4L548.2,467l171.9-85.2L766.4,360.2z" class="ChangeName-4"/>
            <path d="M285.4,724.7l-2.4-21.5l-0.1-0.3l-6.6-19.4l-29.1-17.7l-24.2-8.3l0.9-0.9c4-3.9,40-38.8,57.8-54.1    c0.6-0.5,59.8-48.7,128-69.5l138.2-66.7l171.9-85.2l47.6-22.2l-5.4,50.1l-53,46l-127.1,66.7l-74.5,70.8l-12.1,24.3l-28.9,16.7    c-1,0.5-99.3,53.6-179.3,90.5L285.4,724.7z M225.9,656.9l21.9,7.5l0.1,0l29.7,18l7,20.4l2.2,19.4c79.9-36.9,177.8-89.7,178.8-90.2    l28.4-16.4l12-24.1l0.1-0.1l74.7-71.1l0.1-0.1l127.2-66.7l52.3-45.5l5.1-46.7l-45,21l-171.9,85.2l-138.3,66.8l-0.1,0    c-67.9,20.7-126.9,68.8-127.5,69.3C265.8,618.2,232.8,650.2,225.9,656.9z" class="ChangeName-1"/>
        </g>
        <g>
            <polygon points="652,532.9 652,526.6 697.2,537.7 697.2,548.2   " class="ChangeName-4"/>
            <path d="M698,549.3l-46.8-15.8v-7.9L698,537V549.3z M652.8,532.4l43.6,14.7v-8.8l-43.6-10.7V532.4z" class="ChangeName-1"/>
        </g>
        <g>
            <path d="M289,609.3l55-17l42.1-20v-32.6L322.3,575c0,0-19.9,12.8-27.5,18.5c-7.6,5.7-7.6,5.7-7.6,5.7L289,609.3z" class="ChangeName-4"/>
            <path d="M288.4,610.3l-2.1-11.5l8-6c7.6-5.6,27.3-18.4,27.5-18.5l0,0l64.9-35.9v34.4l-42.6,20.2L288.4,610.3z     M288,599.5l1.6,8.8l54.1-16.7l41.6-19.7v-30.8l-62.5,34.6c-0.8,0.5-20,13-27.4,18.5L288,599.5z" class="ChangeName-1"/>
        </g>
        <g>
            <polygon points="702,611.3 702,547.7 624.7,524.5 578.4,550.3 565.3,559.2 571.1,567.6 628.4,597.1 652,651.2   " class="ChangeName-4"/>
            <path d="M651.7,652.5l-24-54.8l-57.2-29.4l-6.3-9.2l13.9-9.4l46.6-25.9l78.2,23.4v64.6L651.7,652.5z M571.6,567    l57.4,29.5l23.4,53.5l48.8-39.1v-62.6l-76.4-22.9L578.8,551l-12.5,8.5L571.6,567z" class="ChangeName-1"/>
        </g>
        <g>
            <path d="M289.8,528.2l1.1,19.5l20,34.7c0,0,31.2-22.2,62.1-33.5L289.8,528.2z" class="ChangeName-12"/>
            <path d="M310.6,583.5l-20.5-35.6l-1.1-20.7l86.7,21.6l-2.4,0.9c-30.5,11.1-61.6,33.1-61.9,33.4L310.6,583.5z     M291.6,547.4l19.5,33.8c4.7-3.3,31.9-21.8,59.2-32.2l-79.6-19.8L291.6,547.4z" class="ChangeName-1"/>
        </g>
        <g>
            <polygon points="652,426.1 582.3,462.5 573.2,467.2 565.8,435.7 520.6,418.8 510.1,406.8 566.6,382.8 593.9,383.9     617.1,389.1 648.1,399.1   " class="ChangeName-6"/>
            <path d="M572.6,468.4l-7.5-32.1l-45-16.7l-11.4-13.1l57.7-24.4l27.7,1.1l23.2,5.3l31.5,10.1l4.1,28l-0.5,0.3    L572.6,468.4z M521,418.2l45.4,16.9l7.2,31l77.5-40.4l-3.8-25.9l-30.5-9.8l-23-5.2l-27.1-1l-55.4,23.4L521,418.2z" class="ChangeName-1"/>
        </g>
        <g>
            <polygon points="797.9,293.5 772.2,366.5 656.7,423.7 652.5,395.7 605.8,382.6 573.3,381.7 673.2,332.3 692.2,322.9     710.8,289.6 764.8,276.6 796.2,278.2 796.3,278.2   " class="ChangeName-4"/>
            <path d="M656.1,424.9l-4.3-28.6l-46.2-13l-35.6-1l121.6-60.1l18.6-33.3l0.3-0.1l54.1-13l32.3,1.6l1.7,16.1l-0.1,0.2    l-25.9,73.4L656.1,424.9z M576.5,381l29.4,0.8l0.1,0l47.3,13.3l4.1,27.5L771.5,366l25.6-72.6l-1.5-14.4l-30.8-1.5l-53.6,12.9    l-18.5,33.2l-19.3,9.5L576.5,381z" class="ChangeName-1"/>
        </g>
        <g>
            <polygon points="415.2,533.7 453.5,570 432,570 423.6,558.4 415.2,577.9 404.1,572.1 399.9,563.7 393.6,575.8     371.5,568.9 374.7,563.7 367.9,561.6 374.8,546   " class="ChangeName-4"/>
            <path d="M415.4,578.6l-11.7-6.1l-3.8-7.6l-6,11.6l-23.1-7.2l3.2-5.3l-6.8-2.1l7.3-16.4l41-12.4l0.2,0.2l39.3,37.2    h-23.1l-8-11L415.4,578.6z M404.5,571.7l10.4,5.4l8.6-19.8l8.8,12.1h20l-37.1-35.2l-39.9,12.1l-6.6,14.9l6.9,2.1l-3.2,5.3l21,6.5    l6.6-12.6L404.5,571.7z" class="ChangeName-1"/>
        </g>
        <g>
            <polygon points="768.4,252.6 764.8,276.6 739.6,324.5 712.5,339.1 712.2,339.2 695.1,337.4 712.9,283   " class="ChangeName-6"/>
            <path d="M712.4,340l-18.3-2l18.2-55.5l0.3-0.1l56.9-31.2l-3.9,25.7l-0.1,0.1l-25.3,48.1L712.4,340z M696.2,336.7    l15.9,1.7l0,0l26.9-14.5l25.1-47.5l3.4-22.3l-53.8,29.5L696.2,336.7z" class="ChangeName-1"/>
        </g>
        <g>
            <path d="M577.1,465.1c-54.1,33.4-240.8,96.4-240.8,96.4l-3,0l8.8-41.6l-39-7.5l21.5-46.9    c120.8-56,172.8-55.2,172.8-55.2l24.8,6.7l11.7,3.5l38.9,15.2L577.1,465.1z" class="ChangeName-4"/>
            <path d="M332.3,562.4l8.8-41.7l-39.2-7.5l22.1-48.1l0.3-0.1c62.5-29,106.2-42.4,131.9-48.7    c27.9-6.7,41.2-6.6,41.3-6.6l0.2,0l24.8,6.7l11.8,3.6l39.3,15.4l4.4,30.2l-0.4,0.3c-53.6,33.1-239.1,95.9-241,96.5l-0.1,0    L332.3,562.4z M304.2,512l38.8,7.4l-8.8,41.4l1.9,0c5.6-1.9,186.7-63.3,240.1-96.1l-4.1-28.2l-38.4-15.1l-11.7-3.5l-24.7-6.7    c-1.2,0-14.4,0.2-40.9,6.6c-25.5,6.2-69,19.6-131.2,48.4L304.2,512z" class="ChangeName-1"/>
        </g>
        <g>
            <polygon points="796.2,278.2 768.5,331.3 739.6,324.5 695.6,336 673.2,332.3 692.2,322.9 710.8,289.6 764.8,276.6       " class="ChangeName-4"/>
            <path d="M695.6,336.8l-25-4.1l21.1-10.4l18.6-33.3l0.3-0.1l54.1-13l32.8,1.6l-28.6,54.7l-29.3-6.9L695.6,336.8z     M675.7,331.9l19.8,3.3l44-11.6l28.5,6.7l26.9-51.5l-30.1-1.5l-53.6,12.9l-18.5,33.2L675.7,331.9z" class="ChangeName-1"/>
        </g>
        <g>
            <polygon points="656.7,423.7 650.2,427 645.4,399.7 603.9,387.6 563.4,386.5 573.3,381.7 605.8,382.6 652.5,395.7       " class="ChangeName-12"/>
            <path d="M649.6,428.2l-4.8-27.9l-41-11.9l-43.6-1.1l12.9-6.4l32.9,0.9l47.3,13.3l4.3,29.1L649.6,428.2z M566.6,385.8    l37.4,1l42.1,12.3l4.6,26.8l5.1-2.5l-4-27l-46.2-13l-32.2-0.9L566.6,385.8z" class="ChangeName-1"/>
        </g>
        <g>
            <path d="M787.4,323.3l8.4,3.3c2.4,0.9,3.8,3.5,3.2,6.1l-1,4.2c-0.4,1.5-1.4,2.8-2.8,3.5l-16.7,8.2L787.4,323.3z" class="ChangeName-12"/>
            <path d="M777.1,350l9.8-27.8l9.1,3.5c2.8,1.1,4.4,4.1,3.7,7l-1,4.2c-0.4,1.7-1.6,3.2-3.2,4L777.1,350z M787.9,324.3    l-8,22.6l14.9-7.3c1.2-0.6,2-1.7,2.4-2.9l1-4.2c0.5-2.1-0.7-4.4-2.7-5.1L787.9,324.3z" class="ChangeName-1"/>
        </g>
        <g>
            <polygon points="684.4,330.8 684.4,333.4 591.3,378.1 583.9,378.6 583.9,373.9 584.4,373.7 589.7,374.9 683.8,330.6       " class="ChangeName-6"/>
            <path d="M583.1,379.5v-6.1l1.1-0.6l5.4,1.3l94.1-44.3l1.4,0.4v3.7l-0.4,0.2l-93.2,44.8L583.1,379.5z M584.7,374.6v3.2    l6.4-0.5l92.5-44.4v-1.3l-93.8,44.1L584.7,374.6z" class="ChangeName-1"/>
        </g>
        <g>
            <polygon points="743.2,337.1 743.2,340.8 650.7,389.1 644.9,387 644.9,383.4 645.4,383.1 651.5,384.1 743.1,337.1       " class="ChangeName-6"/>
            <path d="M650.7,389.7c-0.1,0-0.1,0-0.2,0l-5.8-2.1c-0.2-0.1-0.3-0.3-0.3-0.5v-3.7c0-0.2,0.1-0.4,0.3-0.5l0.5-0.2    c0.1-0.1,0.2-0.1,0.3-0.1l5.9,1l91.5-47c0.1-0.1,0.2-0.1,0.3-0.1l0.1,0c0.3,0,0.4,0.3,0.4,0.5v3.7c0,0.2-0.1,0.4-0.3,0.5    l-92.5,48.4C650.9,389.6,650.8,389.7,650.7,389.7z M645.4,386.7l5.2,1.9l92-48.1v-2.6l-91,46.7c-0.1,0.1-0.2,0.1-0.3,0.1l-5.9-1    l0,0V386.7z" class="ChangeName-1"/>
        </g>
        <g>
            <polygon points="743.1,337.1 651.5,384.1 645.4,383.1 736.9,336   " class="ChangeName-6"/>
            <path d="M651.5,384.7C651.5,384.7,651.4,384.7,651.5,384.7l-6.2-1c-0.2,0-0.4-0.2-0.4-0.4s0.1-0.4,0.3-0.5l91.6-47.1    c0.1-0.1,0.2-0.1,0.3-0.1l6.2,1c0.2,0,0.4,0.2,0.4,0.4c0,0.2-0.1,0.4-0.3,0.5l-91.6,47.1C651.7,384.7,651.6,384.7,651.5,384.7z     M647,382.9l4.4,0.7l90.1-46.3l-4.4-0.7L647,382.9z" class="ChangeName-1"/>
        </g>
        <g>
            <polygon points="777.1,352.5 774.8,417.5 769.5,419.6 769.5,427 769.3,427.1 739.6,443.3 739.6,458 656,507.4     656.5,524.3 653.3,526.9 653.3,533.2 623.9,525.3 616.7,529.7 579.7,552.1 626,502.2 589.2,492.2 524.9,558.6 524,559.5     505.1,587.9 522.4,594.2 544.8,579.6 546.6,578.4 546.7,576.9 547.1,571.6 569.7,557.9 651.8,582.6 652.3,651 634.9,683     613.4,700.4 613.4,700.4 605.7,697.4 572.9,684.6 551.3,637.8 551.3,631.5 525,635.2 514.4,639.4 499.8,645.2 468.3,633.1     466.2,608.9 483.6,597.4 484.6,596.8 510.7,554.3 511.4,553.2 583.4,480.6 583.4,473.3 737.5,394.4 760.1,398.1 760.1,372.3     772.2,366.5   " class="ChangeName-12"/>
            <path d="M613.5,701.3l-0.5-0.1l-40.8-15.9L550.5,638v-5.6l-25.3,3.5L499.8,646l-32.3-12.4l-2.2-25.1l18.6-12.3    l26.8-43.6l0.1-0.1l71.8-72.3v-7.5l0.4-0.2l154.3-79l21.9,3.6v-25.4l12.2-5.8l6.6-18.6l-2.5,70.7l-5.2,2.1v7.3l-0.7,0.4    l-29.3,15.9v14.7l-83.6,49.4l0.5,16.7l-3.2,2.6v7l-30.1-8.1l-48.7,29.6l49.2-53.1l-35.1-9.5L524.6,560l-18.3,27.5l16,5.8    l23.5-15.3l0.5-6.9l23.3-14.1l82.9,25l0.5,69.1l-17.5,32.4L613.5,701.3z M573.5,684l39.8,15.5l21.1-17l17.2-31.8l-0.5-67.6    l-81.1-24.4l-22,13.3l-0.5,6.8l-2.1,1.4l-22.7,14.8l-18.7-6.8l19.6-29.3l0.9-0.9l64.6-66.7l38.5,10.5l-43.3,46.8l39.6-24.1    l0.3,0.1l28.4,7.6v-5.7l3.1-2.6l-0.5-16.9l0.4-0.2l83.2-49.2v-14.7l30-16.3v-7.4l5.3-2.1l2.1-59.4l-3.4,9.5l-11.9,5.7V399    l-23.3-3.8l-153.4,78.5v7.2l-0.2,0.2l-72,72.5l-26.9,43.7L467,609.3l2,23.2l30.8,11.8l25-9.9l0.1,0l27.2-3.8v7L573.5,684z" class="ChangeName-1"/>
        </g>
        <g>
            <path d="M768.5,252.4l0,0.2L712.9,283l3.2-9.8l0.3-0.2l40.1-22.4C766.9,250.3,768.5,252.4,768.5,252.4z" class="ChangeName-6"/>
            <path d="M711.6,284.7l3.9-12l0.6-0.3l40.3-22.5l0.2,0c10.1-0.3,12.2,1.7,12.5,2.2l0.2,0.3l-0.1,0.9L711.6,284.7z     M716.8,273.8l-2.5,7.6l52.7-28.9c-1.2-0.5-4.1-1.2-10.2-1.1L716.8,273.8z" class="ChangeName-1"/>
        </g>
        <g>
            <polygon points="317.4,561.6 317.4,565.8 329.8,569 331.6,558.4   " class="ChangeName-37"/>
            <path d="M330.2,569.7l-13.3-3.5v-5l15.4-3.4L330.2,569.7z M317.9,565.4l11.4,3l1.6-9.2l-13,2.9V565.4z" class="ChangeName-1"/>
        </g>
        <g>
            <polygon points="729,274.5 712.5,339.1 712.2,339.2 695.1,337.4 716.2,273.2 716.5,273   " class="ChangeName-6"/>
            <path d="M712.4,340l-18.3-2l21.4-65.4l0.8-0.5l13.7,1.6l-16.9,65.7L712.4,340z M696.2,336.7l15.7,1.7l16.2-63.2    l-11.3-1.4L696.2,336.7z" class="ChangeName-1"/>
        </g>
        <g>
            <polygon points="683.8,330.6 676.5,328.7 591.3,370.3 496.4,410.4 513.2,409.4 569.5,386.7 588.1,376.5   " class="ChangeName-6"/>
            <path d="M496.4,411.2c-0.4,0-0.7-0.2-0.8-0.6c-0.1-0.4,0.1-0.8,0.5-0.9l94.9-40.2l85.1-41.6c0.2-0.1,0.4-0.1,0.5-0.1    l7.4,2c0.3,0.1,0.6,0.4,0.6,0.7c0,0.3-0.1,0.6-0.4,0.8l-95.7,45.9l-18.6,10.1c0,0-0.1,0-0.1,0l-56.2,22.7c-0.1,0-0.2,0.1-0.2,0.1    L496.4,411.2C496.4,411.2,496.4,411.2,496.4,411.2z M676.5,329.5L591.7,371L501,409.4l12.1-0.8l56.1-22.6l18.6-10.1l93.8-45    L676.5,329.5z" class="ChangeName-1"/>
        </g>
        <g>
            <polygon points="616.8,353.7 687.2,345.2 704.1,349.4 644.9,358.6   " class="ChangeName-6"/>
            <path d="M644.9,359.2C644.9,359.2,644.9,359.2,644.9,359.2l-28.2-5c-0.3,0-0.4-0.3-0.4-0.5c0-0.3,0.2-0.5,0.5-0.5    l70.5-8.4c0.1,0,0.1,0,0.2,0l16.8,4.2c0.2,0.1,0.4,0.3,0.4,0.5c0,0.2-0.2,0.5-0.4,0.5L644.9,359.2    C645,359.2,644.9,359.2,644.9,359.2z M620.4,353.8l24.6,4.4l56.5-8.8l-14.2-3.6L620.4,353.8z" class="ChangeName-1"/>
        </g>
        <g>
            <polygon points="483.8,616 496.4,620.7 519.5,610.7 514.8,601.3 492.7,597.1   " class="ChangeName-12"/>
            <path d="M496.4,621.3l-13.4-5l9.4-19.8l22.7,4.3l5.1,10.2L496.4,621.3z M484.5,615.7l11.9,4.5l22.4-9.7l-4.4-8.7    l-21.4-4.1L484.5,615.7z" class="ChangeName-1"/>
        </g>
        <g>
            <polygon points="704.1,349.4 645.7,377.8 644.4,357.6   " class="ChangeName-6"/>
            <path d="M645.7,378.4c-0.1,0-0.2,0-0.3-0.1c-0.2-0.1-0.2-0.2-0.3-0.4l-1.3-20.2c0-0.3,0.2-0.5,0.5-0.6l59.7-8.1    c0.3,0,0.5,0.1,0.6,0.4c0.1,0.2,0,0.5-0.3,0.6l-58.4,28.4C645.9,378.3,645.8,378.4,645.7,378.4z M645,358l1.2,19l54.7-26.6    L645,358z" class="ChangeName-1"/>
        </g>
        <g>
            <polygon points="631.5,375.7 633.4,378.5 633.4,382.8 599.7,379.2 600,355.8 616.8,353.7 643.7,357.7 631.5,362.6       " class="ChangeName-12"/>
            <path d="M633.9,383.4l-34.7-3.7l0.3-24.3l17.4-2.2l0.1,0l28.8,4.4l-13.7,5.5v12.6l1.8,2.8V383.4z M600.2,378.7    l32.6,3.5v-3.5l-1.8-2.8v-13.7l10.7-4.3l-24.9-3.8l-16.3,2L600.2,378.7z" class="ChangeName-1"/>
        </g>
        <g>
            <polygon points="645.7,377.8 633.9,382.8 633.4,382.8 633.4,378.5 631.5,375.7 631.5,362.6 643.7,357.7 644.7,357.9       " class="ChangeName-12"/>
            <path d="M634,383.4l-1.1-0.1v-4.6l-1.8-2.8v-13.7l12.6-5.1l1.5,0.2l1.1,20.8L634,383.4z M632,375.6l1.8,2.8v3.9    l11.3-4.8l-1-19.2l-0.4-0.1l-11.7,4.7V375.6z" class="ChangeName-1"/>
        </g>
        <g>
            <polygon points="497.2,605.5 509.8,611 496.7,616.3 489.3,611   " class="ChangeName-6"/>
            <path d="M496.6,616.9l-8.2-5.9l8.7-6.1l14.1,6.1L496.6,616.9z M490.2,611l6.5,4.7l11.7-4.7l-11.2-4.9L490.2,611z" class="ChangeName-1"/>
        </g>
        <g>
            <polygon points="632.3,664.1 613.4,700.4 613.4,700.4 605.7,697.4 624.9,662.5 621.8,601 544.8,579.6 538.7,577.9     547.1,571.6 628.6,596.8   " class="ChangeName-12"/>
            <path d="M613.5,701.3l-0.5-0.1l-8.5-3.3l19.5-35.5l-3.1-60.7L537,578.2l10-7.5l82.4,25.5l3.7,68.1L614,700.9    L613.5,701.3z M606.9,697l6.1,2.4l18.5-35.5l-3.6-66.5l-80.6-25l-6.8,5.1l82.1,22.9l3.2,62.3L606.9,697z" class="ChangeName-1"/>
        </g>
        <g>
            <polygon points="603.4,358.6 633.4,361.8 633.4,379.7 603.4,377   " class="ChangeName-37"/>
            <path d="M633.9,380.3l-31-2.7v-19.5l31,3.3V380.3z M603.9,376.6l28.9,2.5v-16.8l-28.9-3V376.6z" class="ChangeName-1"/>
        </g>
        <g>
            <path d="M582.3,462.5l-9.1,4.7l-7.4-31.5l-45.2-16.8l3.4-3.4c13.1,1.1,52.6,15.8,52.6,15.8L582.3,462.5z" class="ChangeName-12"/>
            <path d="M572.6,468.4l-7.5-32.1l-46-17.1l4.5-4.5l0.4,0c13.1,1,51.2,15.2,52.8,15.8l0.4,0.2l5.9,32.3L572.6,468.4z     M522,418.5l44.5,16.5l7.2,31l7.7-4l-5.5-30.3c-4.2-1.6-39.1-14.3-51.6-15.5L522,418.5z" class="ChangeName-1"/>
        </g>
        <g>
            <rect width="64.2" height="1.1" x="510.1" y="397.4" class="ChangeName-1" transform="matrix(0.9274 -0.3741 0.3741 0.9274 -109.4863 231.7063)"/>
        </g>
        <g class="ChangeName-20">
            <polygon points="526.5,418.4 509.8,425.4 523.2,408.9 524.3,408.9   " class="ChangeName-21"/>
        </g>
        <g>
            <polygon points="342.1,520.1 333.3,561.6 315.5,561.8 303.4,558.7 292.4,546.6 293.8,532.9 303.1,512.6   " class="ChangeName-4"/>
            <path d="M315.4,562.6l-0.1,0l-12.3-3.2l-0.2-0.2l-11.3-12.4l1.4-14.2l9.6-21l40.4,7.7l-9.1,43L315.4,562.6z     M303.9,558l11.8,3.1l17-0.2l8.5-40.2l-37.6-7.2l-9,19.7l-1.3,13.2L303.9,558z" class="ChangeName-1"/>
        </g>
        <g>
            <path d="M286.1,723.5c-80.6,37.1-118.3,49.7-118.3,49.7s-2.9-9.7-0.3-29.2c0,0,3.7-27.9,56.3-86.2    c0,0,0.2-0.2,0.6-0.6l23.1,7.9l29.4,17.9l6.8,20L286.1,723.5z" class="ChangeName-23"/>
            <path d="M167.3,774.2l-0.2-0.8c-0.1-0.4-2.9-10.1-0.3-29.5c0-0.3,1-7.3,8.5-21.5c6.9-13.1,20.7-35,48-65.2l1-1    l23.7,8.2l29.7,18l7,20.4l2.4,21.1l-0.5,0.2c-79.7,36.7-118,49.6-118.3,49.7L167.3,774.2z M224.6,658.1l-0.2,0.2    c-51.7,57.4-56,85.5-56,85.8c-2.2,15.9-0.5,25.4,0,28c5.9-2,43.9-15.6,116.8-49.1l-2.2-19.9l-6.7-19.6l-29.1-17.7L224.6,658.1z" class="ChangeName-1"/>
        </g>
        <g>
            <polygon points="551.3,631.5 525,635.2 514.4,639.4 515.6,609.4 492.5,598.9 483.6,597.4 484.6,596.8 510.7,554.3     524.9,558.6 535,561.6 546.7,576.9 548.7,579.5   " class="ChangeName-12"/>
            <path d="M513.6,640.6l1.2-30.6l-22.6-10.3l-10.7-1.8l2.5-1.6l26.3-42.8l25.2,7.5l14,18.3l2.7,53l-26.9,3.8    L513.6,640.6z M485.4,596.9l7.3,1.2l0.1,0l23.6,10.7l-1.1,29.3l9.7-3.8l25.6-3.6l-2.6-51.1l-13.4-17.5l-23.6-7L485.4,596.9z" class="ChangeName-1"/>
        </g>
        <g>
            <polygon points="378.4,594.2 378.4,598.4 331.6,623.1 283.5,653.3 280.8,654.9 260.9,645.4 294,602.9 333.4,578.1     354.2,583.7   " class="ChangeName-6"/>
            <path d="M280.9,655.5l-20.8-9.9l33.6-43.2l0.1,0l39.6-24.8l21.1,5.6l24.5,10.7v4.9l-47.1,24.9L280.9,655.5z     M261.7,645.2l19.1,9.1l50.5-31.7l46.5-24.6v-3.5L354,584.2l-20.5-5.5l-39.2,24.5L261.7,645.2z" class="ChangeName-1"/>
        </g>
        <g>
            <polygon points="378.4,594.2 378.4,598.4 331.6,623.1 283.5,653.3 327.9,618.9   " class="ChangeName-12"/>
            <path d="M283.6,653.5l-0.3-0.4l44.4-34.4l50.9-24.9v4.8l-46.9,24.8L283.6,653.5z M328,619.1l-40.2,31.1l43.6-27.3    l46.7-24.6v-3.6L328,619.1z" class="ChangeName-1"/>
        </g>
        <g>
            <path d="M498.1,609.1l-3.6,7.2l-28.7,16.6c0,0-98.3,53.1-179.3,90.4c-0.2,0.1-0.4,0.2-0.6,0.3l-2.3-20.5l-0.1-0.3    l209.6-111.4L498.1,609.1z" class="ChangeName-4"/>
            <path d="M285.4,724.7l-2.4-21.5l-0.3-0.9l0.6-0.3l210.5-111.8l5.2,19l-3.8,7.6l-28.9,16.7    c-1,0.5-99.3,53.6-179.3,90.5L285.4,724.7z M284.5,703.1l2.2,19.3c79.9-36.9,177.8-89.7,178.8-90.2l28.4-16.4l3.3-6.7l-4.6-16.6    L284.5,703.1z" class="ChangeName-1"/>
        </g>
        <g>
            <polygon points="507.2,669.4 496.7,678.3 490.9,678.3 468.7,696.9 464.6,700.4 468.3,704.6 456.7,715.1 456.5,715.1     299.5,707.7 299.5,702 287.9,707.7 287.4,703.5 422,633.1 422,639.9 412,643.6 505.6,661.5   " class="ChangeName-4"/>
            <path d="M457,715.9l-0.6,0l-157.7-7.4v-5.3l-11.4,5.7l-0.7-5.9l136.2-71.3v8.7l-7.8,2.9l91.3,17.4l1.8,8.9l-11.1,9.4    h-5.8l-25.5,21.4l3.7,4.2L457,715.9z M300.3,707l156.1,7.3l10.8-9.8l-3.7-4.2l27.1-22.8h5.8l9.9-8.4l-1.4-6.9l-95.9-18.3l12.1-4.5    v-5l-133,69.6l0.3,2.6l11.7-5.9V707z" class="ChangeName-1"/>
        </g>
        <g>
            <polygon points="494.6,678.3 490.9,678.3 468.7,696.9 365.2,689.9 422,660.4 492.5,671.5   " class="ChangeName-6"/>
            <path d="M469,697.7l-106.6-7.3l59.5-30.9l71.2,11.2l2.6,8.3h-4.5L469,697.7z M368.1,689.3l100.4,6.8l22.1-18.6h2.9    l-1.7-5.3l-69.7-10.9L368.1,689.3z" class="ChangeName-1"/>
        </g>
        <g>
            <polygon points="456.5,715.1 299.5,707.7 299.5,702 452.5,707.7   " class="ChangeName-4"/>
            <path d="M457.8,715.9l-159.1-7.5v-7.4L453,707L457.8,715.9z M300.3,707l154.8,7.3l-3.1-5.7l-151.7-5.7V707z" class="ChangeName-1"/>
        </g>
        <g>
            <polygon points="496.7,671.5 496.7,678.3 490.9,678.3 464.6,700.4 462.5,697.8 492.5,671.5   " class="ChangeName-6"/>
            <path d="M464.5,701.5l-3.1-3.8l30.8-27h5.3v8.4h-6.3L464.5,701.5z M463.6,697.9l1.1,1.4l25.9-21.7h5.3v-5.3h-3.1    L463.6,697.9z" class="ChangeName-1"/>
        </g>
        <g>
            <polygon points="422,636.5 422,639.8 412,643.6 331,684.1   " class="ChangeName-28"/>
            <path d="M331.3,684.6l-0.5-0.9l91.7-48v4.6l-10.3,3.9L331.3,684.6z M421.5,637.4L382.1,658l29.7-14.8l9.6-3.6V637.4z" class="ChangeName-1"/>
        </g>
        <g>
            <path d="M336.4,562.4l-21.4,0l-12.3-3.2l-11.4-12.5l1.6-15.1l1.6,0.2l-1.5,14.4l10.6,11.7l11.8,3.1h20.8    c208.2-71.5,236.2-94,236.5-94.2l0.1-0.1l78.9-41.1l120.1-59.5l0.7,1.4l-120.1,59.5l-78.8,41.1c-0.8,0.7-8.2,6.3-39.3,20    c-29.9,13.3-88.5,36.9-197.7,74.4L336.4,562.4z" class="ChangeName-1"/>
        </g>
        <g>
            <g>
                <path d="M508.1,424.9c4,5.3,6.9,11.4,9,17.2l9.9-22.2l-0.4-1.5l-2.3-9.5l-1.1,0l-35.7,2.1     C487.2,411,502.6,417.7,508.1,424.9z" class="ChangeName-29"/>
                <path d="M517,442.9C517,442.9,517,442.9,517,442.9c-0.3,0-0.6-0.2-0.7-0.5c-2.4-6.7-5.4-12.4-8.9-17     c-4.4-5.8-15.5-11.3-19.2-13.1c-1.5-0.7-1.7-0.8-1.6-1.4c0-0.3,0.3-0.6,0.6-0.7c0,0,0.1,0,0.1,0l35.7-2.1l1.1,0     c0.4,0,0.7,0.2,0.8,0.6l2.6,11c0,0.2,0,0.3,0,0.5l-9.9,22.2C517.6,442.7,517.3,442.9,517,442.9z M490.4,411.6     c4.7,2.3,14.2,7.4,18.3,12.9l0,0c3.2,4.3,6,9.5,8.4,15.6l9-20.2l-2.4-10.1l-0.4,0L490.4,411.6z" class="ChangeName-1"/>
            </g>
            <g>
                <path d="M504.7,427.5c-6.7-8.9-19.1-13.2-27.2-15.1c-26.6,5.4-51.9,12.7-75.1,20.8c8.5,2.3,20.1,7,26.8,16     c7.3,9.8,11,22.4,12.8,30.4c39.2-16.7,65.4-29.9,72-33.3C511.9,440,509,433.1,504.7,427.5z" class="ChangeName-29"/>
                <path d="M442,480.3c-0.1,0-0.2,0-0.4-0.1c-0.2-0.1-0.4-0.3-0.4-0.5c-1.9-8.5-5.5-20.6-12.6-30.1     c-6.6-8.8-18-13.4-26.4-15.7c-0.3-0.1-0.6-0.4-0.6-0.7c0-0.3,0.2-0.7,0.5-0.8c25.4-8.8,50.7-15.8,75.2-20.8c0.1,0,0.2,0,0.3,0     c8.9,2.1,21,6.5,27.6,15.4c3.7,5,6.9,11.4,9.4,19c0.1,0.4,0,0.8-0.4,0.9c-7.1,3.6-33.2,16.7-72.1,33.3     C442.2,480.3,442.1,480.3,442,480.3z M405,433.1c8.3,2.6,18.6,7.2,24.8,15.6c7,9.3,10.7,21.1,12.7,29.7     c37.3-15.9,62.7-28.6,70.5-32.6c-2.4-7.2-5.4-13.2-8.9-17.9l0,0c-6.3-8.4-17.9-12.7-26.6-14.8C453.9,418,429.5,424.7,405,433.1z" class="ChangeName-1"/>
            </g>
            <g>
                <path d="M395,435.8c-17.5,6.3-33.7,13-48.3,19.5c7.6,2.7,16.1,7.1,21.5,14.3c8.6,11.4,12.2,26.8,13.5,33.9     c20.6-7.7,39.6-15.3,56.3-22.4c-1.6-7.5-5.1-20.1-12.2-29.5C418,441.2,402.3,437.1,395,435.8z" class="ChangeName-29"/>
                <path d="M381.7,504.3c-0.1,0-0.3,0-0.4-0.1c-0.2-0.1-0.3-0.3-0.4-0.5c-1.4-7.8-5-22.5-13.3-33.6     c-4.5-6-11.6-10.7-21.1-14.1c-0.3-0.1-0.5-0.4-0.5-0.7c0-0.3,0.2-0.6,0.5-0.8c16-7.2,32.3-13.8,48.3-19.6c0.1,0,0.3-0.1,0.4,0     c8.4,1.6,23.5,5.8,31.3,16.2c7.2,9.7,10.8,22.8,12.3,29.8c0.1,0.4-0.1,0.7-0.5,0.9c-18.6,7.8-37.6,15.4-56.3,22.4     C381.9,504.3,381.8,504.3,381.7,504.3z M348.8,455.2c8.9,3.4,15.7,8.1,20.1,13.9c8.2,10.9,11.9,25.2,13.4,33.3     c18.3-6.8,36.7-14.2,54.8-21.8c-1.5-7-5-19.4-11.9-28.6c-7.7-10.3-23.5-14.3-30.2-15.6C379.7,442.1,364.1,448.4,348.8,455.2z" class="ChangeName-1"/>
            </g>
            <g>
                <path d="M364.9,472.2c-5.8-7.8-16-12-23.9-14.3c-42.7,19.6-69.3,36.9-69.3,36.9l-4.7,38.9h24.2     c30.9-9,60.1-18.9,86.6-28.7C376.5,498.7,373.1,483.2,364.9,472.2z" class="ChangeName-29"/>
                <path d="M291.1,534.5h-24.2c-0.2,0-0.4-0.1-0.6-0.3c-0.1-0.2-0.2-0.4-0.2-0.6l4.7-38.9c0-0.2,0.2-0.4,0.4-0.6     c0.3-0.2,27.2-17.6,69.4-37c0.2-0.1,0.4-0.1,0.5,0c7.8,2.2,18.3,6.5,24.3,14.5c8.4,11.2,11.8,27,13,33.2c0.1,0.4-0.1,0.7-0.5,0.9     c-29.2,10.8-58.4,20.5-86.6,28.7C291.2,534.5,291.2,534.5,291.1,534.5z M267.8,532.9H291c28-8.2,56.8-17.7,85.8-28.4     c-1.2-6.5-4.6-21.4-12.5-31.9c-5.7-7.6-15.7-11.7-23.2-13.9c-39.6,18.2-65.5,34.6-68.6,36.5L267.8,532.9z" class="ChangeName-1"/>
            </g>
        </g>
        <g>
            <polygon points="743,401 751.9,403.1 706.7,427.3 720.4,437.8 645.7,479.3 606.8,472.5   " class="ChangeName-6"/>
            <path d="M645.8,480.1l-41.5-7.3l138.5-72.7l11.3,2.6l-46,24.6l13.7,10.5L645.8,480.1z M609.2,472.1l36.4,6.4    l73.4-40.8l-13.7-10.5l44.4-23.8l-6.6-1.6L609.2,472.1z" class="ChangeName-1"/>
        </g>
        <g>
            <polygon points="583.4,473.3 647.8,489.3 647.8,495.6 583.4,480.4   " class="ChangeName-12"/>
            <path d="M648.6,496.6l-66-15.6v-8.7l66,16.4V496.6z M584.2,479.7l62.8,14.9v-4.7l-62.8-15.6V479.7z" class="ChangeName-1"/>
        </g>
        <g>
            <polygon points="769.3,401 769.3,427.1 739.6,443.3 739.6,453 738.8,437.8 722.5,425.7   " class="ChangeName-12"/>
            <path d="M738.8,453.1l-0.8-14.9l-17-12.6l49.1-25.9v27.9l-29.7,16.2v9.3L738.8,453.1z M723.9,425.8l15.6,11.6l0.3,4.9    l28.7-15.6v-24.4L723.9,425.8z" class="ChangeName-1"/>
        </g>
        <g>
            <polygon points="739,438.8 739.6,458 656,507.4 656.5,524.3 653.3,526.9 653.3,532.7 623.9,525.3 616.7,529.7     647.8,495.6 647.8,489.3   " class="ChangeName-12"/>
            <path d="M654.1,533.7l-30.1-7.5l-11.6,7.1l34.6-37.9v-6.5l0.4-0.2l92.4-51.1l0.6,21l-83.6,49.4l0.5,16.7l-3.2,2.6    V533.7z M623.8,524.5l0.3,0.1l28.5,7.1v-5.1l3.1-2.6l-0.5-16.9l0.4-0.2l83.2-49.2l-0.5-17.4l-89.7,49.6v6.2L621,526.2L623.8,524.5    z" class="ChangeName-1"/>
        </g>
        <g>
            <polygon points="634.9,683 682.8,645.7 702.2,611 652.3,651   " class="ChangeName-4"/>
            <path d="M634.9,683.8c-0.2,0-0.4-0.1-0.5-0.2c-0.3-0.2-0.4-0.6-0.2-1l17.3-32.1c0.1-0.1,0.1-0.2,0.2-0.2l49.9-40    c0.3-0.2,0.7-0.2,1,0c0.3,0.2,0.4,0.7,0.2,1l-19.5,34.7c-0.1,0.1-0.1,0.2-0.2,0.2l-47.8,37.3C635.3,683.8,635.1,683.8,634.9,683.8    z M652.9,651.5l-15.5,28.6l44.7-34.9l17.4-31L652.9,651.5z" class="ChangeName-1"/>
        </g>
        <g>
            <polygon points="906.5,391.5 903.3,428.3 891.7,436.7 894.9,398.9 848.2,392.4 860.2,385.2   " class="ChangeName-12"/>
            <path d="M890.8,438.3l3.3-38.8l-48.1-6.7l14.1-8.5l47.3,6.4l-3.2,37.9L890.8,438.3z M850.6,391.9l45.2,6.3l-3.1,36.8    l9.9-7.1l3.1-35.7l-45.2-6.2L850.6,391.9z" class="ChangeName-1"/>
        </g>
        <g>
            <polygon points="894.9,398.9 891.7,436.7 847.3,468.5 847.3,486.9 837.3,479 837.4,478.8 838.4,458 882.2,427     885.2,424.9 885.7,417 882.9,419 718.5,532.7 717.5,603.6 739.3,588 739.6,587.9 752.7,595.8 752.4,596 707.5,631 710.6,521.1     656.7,507.2 848.2,392.4   " class="ChangeName-4"/>
            <path d="M707.5,631.8c-0.1,0-0.2,0-0.4-0.1c-0.3-0.1-0.4-0.4-0.4-0.7l3.1-109.3l-53.3-13.8c-0.3-0.1-0.5-0.3-0.6-0.7    c0-0.3,0.1-0.6,0.4-0.8l191.5-114.8c0.2-0.1,0.3-0.1,0.5-0.1l46.7,6.5c0.4,0.1,0.7,0.4,0.7,0.8l-3.2,37.8c0,0.2-0.1,0.4-0.3,0.6    l-44,31.6v18c0,0.3-0.2,0.6-0.4,0.7c-0.3,0.1-0.6,0.1-0.8-0.1l-10-7.9c-0.2-0.2-0.3-0.4-0.3-0.7l0-0.2l1-20.8    c0-0.2,0.1-0.5,0.3-0.6l46.5-32.9l0.4-5.9l-1.5,1.1l-164,113.5l-1,69l20.8-14.9c0.3-0.2,0.6-0.2,0.9,0l13.1,7.9    c0.2,0.1,0.4,0.4,0.4,0.6c0,0.3-0.1,0.5-0.3,0.7l-0.3,0.2l-44.9,35C707.8,631.7,707.7,631.8,707.5,631.8z M658.8,506.9l52.1,13.5    c0.4,0.1,0.6,0.4,0.6,0.8l-3.1,108.2l43-33.5l-11.7-7l-21.7,15.5c-0.2,0.2-0.6,0.2-0.8,0.1c-0.3-0.1-0.4-0.4-0.4-0.7l1.1-71    c0-0.3,0.1-0.5,0.3-0.6l164.3-113.7l2.9-2c0.2-0.2,0.6-0.2,0.8,0c0.3,0.1,0.4,0.4,0.4,0.7l-0.5,7.9c0,0.2-0.1,0.5-0.3,0.6    l-46.5,32.9l-1,20.2l8.4,6.6v-16.8c0-0.3,0.1-0.5,0.3-0.6l44.1-31.7l3.1-36.7l-45.7-6.4L658.8,506.9z" class="ChangeName-1"/>
        </g>
        <g>
            <polygon points="874.1,402.3 869.9,405.1 853.9,401.7 857.8,399.1   " class="ChangeName-12"/>
            <path d="M870,405.9l-18.2-3.9l5.9-3.7l18.5,3.6L870,405.9z M855.9,401.3l13.8,2.9l2.4-1.5L858,400L855.9,401.3z" class="ChangeName-1"/>
        </g>
        <g>
            <polygon points="869.9,405.1 708,510.1 689.6,505.9 853.9,401.7   " class="ChangeName-6"/>
            <path d="M708.2,510.9l-20.6-4.7l166.1-105.4l18.2,3.9L708.2,510.9z M691.6,505.5l16.2,3.7l160-103.8l-13.8-2.9    L691.6,505.5z" class="ChangeName-1"/>
        </g>
        <g>
            <polygon points="885.7,417 885.2,424.9 882.2,427 882.9,419   " class="ChangeName-3"/>
            <path d="M881.3,428.6l0.8-10l4.5-3.1l-0.7,9.9L881.3,428.6z M883.6,419.4l-0.5,5.9l1.3-0.9l0.4-5.9L883.6,419.4z" class="ChangeName-1"/>
        </g>
        <g>
            <polygon points="885.7,417 885.2,424.9 882.2,427 838.4,458 837.4,478.8 830.8,474 720.9,552.9 720.9,553.4     720.6,575.3 729.6,582.1 739.3,588 717.5,603.6 718.5,532.7 882.9,419   " class="ChangeName-6"/>
            <path d="M716.7,605.2l1.1-72.9l0.3-0.2l164.3-113.7l4.2-2.9l-0.7,9.9l-46.8,33.1l-1.1,21.9l-7.3-5.3l-109.1,78.3    l0,0.1l-0.3,21.5l8.6,6.6l10.8,6.5L716.7,605.2z M719.3,533.1l-1,69l19.6-14l-8.8-5.4l-9.3-7.1l0.3-23.1l0.3-0.2l110.3-79.2    l5.9,4.2l1-19.7l0.3-0.2l46.5-32.9l0.4-5.9l-1.5,1.1L719.3,533.1z" class="ChangeName-1"/>
        </g>
        <g>
            <polygon points="1113.4,658.8 1085.9,713.2 1085,715.1 1075.5,715.1 902.7,642.1 902.5,642 900.9,641.9 821.5,637.4     821,637.3 820.5,637.3 752.4,596 739.3,588 729.6,582.1 720.6,575.3 720.9,553.4 720.9,552.9 830.8,474 837.4,478.8 847.3,486     923.6,541.1 965.6,544.8   " class="ChangeName-12"/>
            <path d="M1085.5,715.9h-10.1l-0.1-0.1l-172.8-73l-1.5-0.1l-80.6-4.6l-0.2-0.1l-91-55.2l0,0l-9.3-7.1l0.3-23.1l0.3-0.2    l110.3-79.2l93.1,67.2l42.1,3.7l0.2,0.1l148.3,114.5l-0.3,0.6L1085.5,715.9z M1075.7,714.3h8.8l0.7-1.5l27.1-53.8l-147-113.5    l-42-3.7l-0.2-0.1l-76.2-55.1L830.8,475l-109.1,78.3l0,0.1l-0.3,21.5l8.6,6.6l90.7,55.1l0.8,0l81.1,4.7l0.3,0.1L1075.7,714.3z" class="ChangeName-1"/>
        </g>
        <g>
            <polygon points="830.5,494.3 749,555.8 830.5,607.3 907.8,614.2 1072.9,690.4 1090.8,658.8 967.2,565.8 922,561.6     835.8,501.7   " class="ChangeName-6"/>
            <path d="M1073.2,691.4l-0.7-0.3l-165-76.2l-77.3-6.8l-0.2-0.1l-82.5-52.1l83-62.7l5.6,7.9l85.9,59.7l45.2,4.2l0.2,0.1    l124.1,93.5L1073.2,691.4z M830.8,606.6l77.2,6.8l0.1,0.1l164.4,75.9l17.2-30.3l-122.8-92.5l-45.2-4.2l-0.2-0.1l-86.3-60l-4.9-6.8    l-79.9,60.3L830.8,606.6z" class="ChangeName-1"/>
        </g>
        <g>
            <polygon points="830.8,626 821,637.3 820.5,637.3 729.6,582.1 720.6,575.3 720.9,553.4 740.9,571.3   " class="ChangeName-12"/>
            <path d="M821,638.1C821,638.1,821,638.1,821,638.1l-0.5,0c-0.1,0-0.3,0-0.4-0.1l-91-55.2c0,0,0,0-0.1,0l-8.9-6.8    c-0.2-0.2-0.3-0.4-0.3-0.6l0.3-21.9c0-0.3,0.2-0.6,0.5-0.7c0.3-0.1,0.6-0.1,0.8,0.1l19.9,17.9l89.8,54.6c0.2,0.1,0.3,0.3,0.4,0.6    c0,0.2,0,0.5-0.2,0.6l-9.8,11.3C821.4,638,821.2,638.1,821,638.1z M730,581.4l90.7,55l8.9-10.3L740.5,572c0,0-0.1-0.1-0.1-0.1    l-18.7-16.8l-0.2,19.7L730,581.4z" class="ChangeName-1"/>
        </g>
        <g>
            <polygon points="912.3,634.4 902.7,642.1 902.5,642 821.5,637.4 830.8,626   " class="ChangeName-12"/>
            <path d="M902.7,642.9c-0.1,0-0.2,0-0.3-0.1l0,0l-80.9-4.7c-0.3,0-0.6-0.2-0.7-0.5c-0.1-0.3-0.1-0.6,0.1-0.8l9.2-11.4    c0.2-0.2,0.4-0.3,0.7-0.3l81.5,8.4c0.3,0,0.6,0.3,0.7,0.6c0.1,0.3,0,0.6-0.3,0.8l-9.6,7.7C903,642.8,902.8,642.9,902.7,642.9z     M823.1,636.7l79.3,4.6l7.8-6.2l-79.2-8.2L823.1,636.7z" class="ChangeName-1"/>
        </g>
        <g>
            <polygon points="1085.9,713.2 1085,715.1 1075.5,715.1 902.7,642.1 902.5,642 900.9,641.9 911.7,634.4   " class="ChangeName-12"/>
            <path d="M1085,715.9h-9.5c-0.1,0-0.2,0-0.3-0.1l-172.8-73l-1.5-0.1c-0.3,0-0.6-0.2-0.7-0.6c-0.1-0.3,0-0.7,0.3-0.9    l10.8-7.5c0.2-0.2,0.5-0.2,0.8-0.1l174.2,78.8c0.2,0.1,0.3,0.3,0.4,0.5c0.1,0.2,0.1,0.4,0,0.6l-1,1.9    C1085.5,715.7,1085.3,715.9,1085,715.9z M1075.7,714.3h8.8l0.4-0.7l-173-78.3l-8.7,6.1L1075.7,714.3z" class="ChangeName-1"/>
        </g>
        <g>
            <polygon points="934.9,729.6 931.7,733.8 886.5,733.8 886.5,733.7 885.5,732.1 834.5,647 840.8,641.2 841.7,641.3     852.9,642.3 852.9,639.2 881.8,640.8 883.1,646.2 900.7,647.5 934.7,729.1   " class="ChangeName-12"/>
            <path d="M932.1,734.6H886l-1.2-2l-51.4-85.7l7-6.5l11.6,1l0-3.1l30.3,1.7l1.3,5.4l17.5,1.3l34.5,82.9L932.1,734.6z     M886.9,733h44.4l2.6-3.5l0-0.1l-33.8-81.1l-17.7-1.3l-1.3-5.4l-27.5-1.6l0,3.2l-12.6-1.1l-5.6,5.1L886.9,733z" class="ChangeName-1"/>
        </g>
        <g>
            <polygon points="934.9,729.6 931.7,733.8 886.5,733.8 886.5,733.7 885.5,732.1 888.3,727.7 934.7,729.1   " class="ChangeName-12"/>
            <path d="M932.1,734.6H886l-1.5-2.4l3.3-5.2l47.3,1.4l0.6,1.4L932.1,734.6z M886.9,733h44.4l2.4-3.2l-44.9-1.3    l-2.3,3.6L886.9,733z" class="ChangeName-1"/>
        </g>
        <g>
            <polygon points="894.7,728.2 886.5,733.7 834.5,647 840.8,641.2 841.7,641.3   " class="ChangeName-12"/>
            <path d="M886.2,734.8l-52.8-87.9l7-6.5l1.6,0.1l0.2,0.3l53.4,87.6L886.2,734.8z M835.5,647.2l51.3,85.4l6.9-4.6    l-52.4-85.9l-0.2,0L835.5,647.2z" class="ChangeName-1"/>
        </g>
        <g>
            <polygon points="864.7,657.8 894.7,660.4 916.7,715.1 896.2,715.1   " class="ChangeName-6"/>
            <path d="M917.9,715.9h-22.1l-32.5-59l31.9,2.8l0.2,0.4L917.9,715.9z M896.7,714.3h18.9l-21.5-53.1l-28-2.5    L896.7,714.3z" class="ChangeName-1"/>
        </g>
        <g>
            <polygon points="551.3,581.4 573.7,594.2 606.8,673.8 606.8,690.1 574.2,680.7 556.3,637.6   " class="ChangeName-12"/>
            <path d="M607.6,691.2l-34-9.9l-18.1-43.6l-5.1-57.8l23.9,13.7l0.1,0.2l33.2,79.8V691.2z M574.8,680l31.2,9.1V674    l-33-79.3l-20.8-11.9l4.9,54.5L574.8,680z" class="ChangeName-1"/>
        </g>
        <g>
            <polygon points="571.1,592.3 614.7,605.5 616.3,647 606.8,673.8 586.8,667 573.9,637.3   " class="ChangeName-37"/>
            <path d="M607.3,674.8l-21-7.2l-13.1-30.2l0-0.1l-3-46.1l45.3,13.6l1.6,42.2L607.3,674.8z M587.4,666.4l18.9,6.5    l9.2-25.9l-1.6-40.8l-42-12.7l2.8,43.7L587.4,666.4z" class="ChangeName-1"/>
        </g>
        <g>
            <polygon points="626,503.8 581.3,552.1 547.1,571.6 547.1,577.9 522.4,594.2 505.1,587.9 524,559.5 589.2,492.2     628.6,500.6   " class="ChangeName-6"/>
            <path d="M522.5,595.1l-18.7-6.8l19.6-29.3l65.5-67.6l41.1,8.8l-3.5,4.2l-44.8,48.5l-0.1,0.1L547.9,572v6.3    L522.5,595.1z M506.3,587.5l16,5.8l24-15.8v-6.3l34.5-19.6l44.6-48.3l1.8-2.1l-37.7-8L524.6,560L506.3,587.5z" class="ChangeName-1"/>
        </g>
    </g>
</svg>
